<svg width="312" height="208" viewBox="0 0 312 208" fill="none" xmlns="http://www.w3.org/2000/svg">
<path opacity="0.35" d="M257.739 6.5L264.974 19.5L264.537 19.7431L271.772 32.7431L272.209 32.5L279.444 45.5L279.007 45.7431L286.241 58.7431L286.678 58.5L293.913 71.5L293.476 71.7431L300.711 84.7431L301.148 84.5L308.383 97.5L307.946 97.7431L311.428 104L307.946 110.257L308.383 110.5L301.148 123.5L300.711 123.257L293.476 136.257L293.913 136.5L286.678 149.5L286.241 149.257L279.007 162.257L279.444 162.5L272.209 175.5L271.772 175.257L264.537 188.257L264.974 188.5L257.739 201.5L257.302 201.257L253.828 207.5H246.181V208H230.298V207.5H214.415V208H198.533V207.5H182.65V208H166.767V207.5H150.885V208H135.002V207.5H119.12V208H103.237V207.5H87.3544V208H71.4718V207.5H55.5892V208H39.7065V207.5H23.8239V208H7.94131V207.5H0.5V200.571H0V185.714H0.5V170.857H0V156H0.5V141.143H0V126.286H0.5V111.429H0V96.5714H0.5V81.7143H0V66.8571H0.5V52H0V37.1429H0.5V22.2857H0V7.42857H0.5V0.5H7.94131V0H23.8239V0.5H39.7065V0H55.5892V0.5H71.4718V0H87.3544V0.5H103.237V0H119.12V0.5H135.002V0H150.885V0.5H166.767V0H182.65V0.5H198.533V0H214.415V0.5H230.298V0H246.181V0.5H253.828L257.302 6.74314L257.739 6.5Z" stroke="url(#paint0_linear_276_3816)" stroke-dasharray="15 15"/>
<defs>
<linearGradient id="paint0_linear_276_3816" x1="-5.13772" y1="-6.56843" x2="335.127" y2="161.054" gradientUnits="userSpaceOnUse">
<stop stop-color="#EA4C89"/>
<stop offset="1" stop-color="#4D44C6"/>
</linearGradient>
</defs>
</svg>
