<svg width="163" height="175" viewBox="0 0 163 175" fill="none" xmlns="http://www.w3.org/2000/svg">
<g opacity="0.7">
<path d="M40.8085 134.144C40.7608 132.008 40.5336 129.879 40.1293 127.779C39.7839 125.959 39.4385 124.105 38.9779 122.319C38.7913 121.63 38.5328 120.963 38.2066 120.327C38.0454 119.079 37.8497 117.832 37.5733 116.607C37.1394 114.252 36.2309 112.009 34.9023 110.013C34.283 109.125 33.4596 108.397 32.5004 107.889C31.5412 107.382 30.474 107.109 29.3875 107.094C27.9326 107.085 26.5012 107.459 25.2392 108.179C23.9773 108.899 22.9297 109.939 22.2033 111.192C20.5455 114.116 19.7476 117.444 19.9007 120.797C20.0576 124.778 21.0663 128.681 22.8595 132.244C24.3037 135.504 26.482 138.391 29.2263 140.681C31.4714 142.421 35.1556 144.275 37.9302 142.684C40.7049 141.093 40.8546 137.029 40.8085 134.144Z" fill="#A05627"/>
<path d="M39.8988 136.925C39.8776 138.389 39.46 139.821 38.6899 141.069C36.8133 143.702 33.083 142.214 30.884 140.806C28.2 138.961 26.0135 136.488 24.5172 133.605C21.0633 127.515 19.1751 119.788 21.9383 113.08C23.0896 110.367 25.1044 108.158 28.1439 107.803C29.1973 107.659 30.2703 107.781 31.2641 108.157C32.2579 108.533 33.1407 109.151 33.8314 109.955C35.2009 111.674 36.1648 113.677 36.6521 115.816C37.0205 117.167 37.3083 118.529 37.5616 119.891C37.3544 119.994 37.1817 120.235 37.2853 120.441C37.5455 120.956 37.7612 121.492 37.93 122.044V122.238C37.9991 122.685 38.0682 123.12 38.1488 123.566C38.1488 123.669 38.2524 123.681 38.333 123.646C38.4597 124.196 38.5863 124.791 38.6899 125.295C39.0699 127.138 39.4728 128.958 39.7031 130.835C39.9699 132.854 40.0355 134.894 39.8988 136.925Z" fill="#F6C3A4"/>
<g style="mix-blend-mode:multiply">
<path d="M39.7374 130.835C39.5071 128.958 39.1042 127.138 38.7242 125.295C38.6206 124.745 38.494 124.15 38.3673 123.646C38.2867 123.646 38.1946 123.646 38.1831 123.566C38.1025 123.12 38.0334 122.685 37.9644 122.238V122.044C37.7955 121.492 37.5798 120.956 37.3196 120.441C37.216 120.235 37.3887 119.995 37.596 119.892C37.3427 118.529 37.0548 117.167 36.6864 115.816C36.1992 113.677 35.2352 111.674 33.8657 109.955C33.0421 109.004 31.9518 108.318 30.7341 107.986C31.5992 109.931 32.136 112.004 32.3229 114.122C32.3805 114.66 31.5861 114.706 31.4364 114.248C30.9068 112.611 29.0532 110.127 27.0384 110.676C25.6223 111.066 24.92 112.565 24.5515 113.847C23.8385 116.525 23.7557 119.33 24.3098 122.044C24.7206 124.1 25.5006 126.066 26.6124 127.848C27.142 128.718 27.7637 129.553 28.3394 130.378C28.915 131.202 29.4907 131.854 30.0088 132.667C31.6132 135.37 32.4118 138.471 32.3114 141.608C34.4529 142.626 37.1584 143.187 38.6667 141.081C39.4367 139.833 39.8543 138.401 39.8756 136.937C40.0321 134.904 39.9858 132.86 39.7374 130.835Z" fill="#F6C3A4"/>
</g>
<path d="M33.9347 127.058C33.6432 124.304 33.0486 121.59 32.1617 118.965C31.7475 117.711 31.2474 116.487 30.6649 115.301C30.2753 114.434 29.6541 113.69 28.8689 113.149C26.9347 112.004 25.5416 113.962 24.9314 115.588C23.9067 118.278 24.3097 121.208 24.8393 123.967C24.8393 124.173 25.2423 123.967 25.2077 123.807C24.6901 121.495 24.6665 119.1 25.1386 116.778C25.338 115.612 25.902 114.539 26.7505 113.71C27.4643 113.184 28.2587 113.71 28.7768 114.26C29.4353 115.033 29.9429 115.922 30.2735 116.881C30.734 118.026 31.1485 119.171 31.4939 120.315C32.1984 122.628 32.7333 124.989 33.0942 127.378C33.1518 127.722 33.1748 128.054 33.2209 128.386H33.1288C32.8752 128.359 32.6247 128.31 32.3804 128.237C31.8401 128.097 31.3211 127.885 30.8377 127.607C29.8655 127.116 29.0279 126.397 28.3969 125.512C28.2817 125.352 27.9478 125.581 28.0515 125.741C28.6548 126.693 29.4365 127.521 30.3541 128.18C30.8299 128.502 31.3443 128.763 31.8853 128.958C32.3245 129.144 32.8031 129.219 33.2784 129.176C33.4972 131.271 33.5778 133.365 33.762 135.472C33.762 135.712 34.188 135.472 34.1995 135.334C34.3797 132.574 34.291 129.802 33.9347 127.058Z" fill="#A05627"/>
<path d="M131.336 142.672C134.111 144.264 137.807 142.409 140.052 140.669C142.796 138.379 144.974 135.492 146.419 132.232C148.207 128.667 149.215 124.766 149.378 120.785C149.531 117.432 148.733 114.104 147.075 111.18C146.348 109.927 145.301 108.887 144.039 108.167C142.777 107.448 141.346 107.073 139.891 107.082C138.804 107.097 137.737 107.37 136.778 107.878C135.819 108.385 134.995 109.113 134.376 110.001C133.043 111.995 132.134 114.239 131.705 116.595C131.429 117.82 131.233 119.068 131.06 120.315C130.733 120.949 130.478 121.617 130.3 122.307C129.794 124.093 129.448 125.948 129.149 127.768C128.739 129.866 128.512 131.995 128.47 134.133C128.378 137.029 128.47 141.024 131.336 142.672Z" fill="#A05627"/>
<path d="M129.494 130.836C129.724 128.958 130.127 127.138 130.507 125.295C130.615 124.745 130.73 124.196 130.853 123.647C130.945 123.647 131.025 123.647 131.048 123.566C131.117 123.12 131.186 122.685 131.267 122.238C131.273 122.174 131.273 122.109 131.267 122.044C131.44 121.492 131.659 120.956 131.923 120.441C132.027 120.235 131.854 119.995 131.647 119.892C131.9 118.529 132.177 117.167 132.556 115.816C133.044 113.677 134.008 111.675 135.377 109.955C136.066 109.152 136.947 108.534 137.939 108.158C138.931 107.782 140.002 107.66 141.053 107.803C144.104 108.158 146.142 110.367 147.259 113.08C150.022 119.789 148.145 127.516 144.691 133.606C143.194 136.492 141.003 138.965 138.313 140.806C136.126 142.191 132.395 143.702 130.507 141.07C129.742 139.819 129.325 138.389 129.298 136.926C129.168 134.894 129.233 132.855 129.494 130.836Z" fill="#F6C3A4"/>
<g style="mix-blend-mode:multiply">
<path d="M129.494 130.835C129.724 128.958 130.127 127.138 130.507 125.295C130.615 124.745 130.73 124.196 130.852 123.646C130.945 123.646 131.025 123.646 131.048 123.566C131.117 123.12 131.186 122.685 131.267 122.238C131.273 122.174 131.273 122.109 131.267 122.044C131.44 121.492 131.659 120.956 131.923 120.441C132.027 120.235 131.854 119.995 131.647 119.892C131.9 118.529 132.176 117.167 132.556 115.816C133.044 113.677 134.008 111.674 135.377 109.955C136.199 109.002 137.29 108.316 138.509 107.986C137.645 109.932 137.105 112.004 136.908 114.122C136.851 114.66 137.657 114.706 137.806 114.248C138.336 112.611 140.178 110.127 142.193 110.676C143.609 111.066 144.311 112.565 144.691 113.847C145.404 116.525 145.487 119.33 144.933 122.044C144.522 124.1 143.742 126.066 142.63 127.848C142.101 128.718 141.479 129.553 140.903 130.378C140.328 131.202 139.752 131.854 139.223 132.667C137.617 135.37 136.819 138.471 136.92 141.608C134.778 142.626 132.073 143.187 130.553 141.081C129.788 139.83 129.371 138.4 129.344 136.937C129.198 134.903 129.248 132.86 129.494 130.835Z" fill="#F6C3A4"/>
</g>
<path d="M135.285 127.058C135.582 124.305 136.177 121.591 137.058 118.965C137.478 117.713 137.978 116.489 138.555 115.301C138.949 114.433 139.574 113.689 140.363 113.149C142.297 112.004 143.678 113.962 144.3 115.588C145.313 118.278 144.91 121.208 144.392 123.967C144.392 124.173 143.989 123.967 144.024 123.807C144.542 121.495 144.565 119.1 144.093 116.778C143.894 115.612 143.33 114.539 142.481 113.71C141.767 113.184 140.973 113.71 140.455 114.26C139.797 115.036 139.286 115.924 138.947 116.881C138.498 118.026 138.083 119.171 137.726 120.315C137.031 122.63 136.5 124.99 136.137 127.378C136.08 127.722 136.045 128.054 136.011 128.386H136.091C136.348 128.358 136.603 128.309 136.851 128.237C137.392 128.097 137.91 127.885 138.394 127.607C139.366 127.116 140.204 126.397 140.835 125.512C140.95 125.352 141.284 125.581 141.169 125.741C140.572 126.698 139.789 127.527 138.866 128.18C138.394 128.502 137.884 128.763 137.346 128.958C136.907 129.144 136.428 129.219 135.953 129.176C135.734 131.271 135.654 133.365 135.458 135.472C135.458 135.712 135.044 135.472 135.021 135.334C134.846 132.573 134.935 129.802 135.285 127.058Z" fill="#A05627"/>
<path d="M134.79 116.95C134.79 116.458 134.709 115.977 134.675 115.496C133.673 102.64 136.759 82.1495 130.231 70.6677C118.464 49.9707 84.6271 51.2642 76.8442 51.6649C69.1891 52.0086 61.6875 53.9181 54.808 57.2742C48.0152 60.7084 41.7866 65.5163 37.8952 72.0986C33.0711 80.2607 33.2093 90.7351 33.7159 99.9045C34.4412 113.332 32.3804 126.818 33.8771 140.234C35.2587 152.563 43.41 159.912 53.6682 166.231C62.4081 171.64 72.4904 174.522 82.785 174.553C98.7307 174.553 112.834 167.273 123.875 156.238C134.917 145.202 136.114 131.877 134.79 116.95Z" fill="#FBD0B4"/>
<g style="mix-blend-mode:multiply">
<path d="M44.0435 80.2373C47.1589 76.5949 51.0112 73.6461 55.3494 71.5831C57.6982 70.4707 60.2293 69.7882 62.8215 69.5683C65.4349 69.3622 68.0714 69.4767 70.6619 69.0761C70.1668 67.5879 68.0369 67.0499 66.782 66.4431C66.7077 66.396 66.6487 66.3286 66.6118 66.249C66.5749 66.1695 66.5618 66.0811 66.5739 65.9943C66.586 65.9076 66.6229 65.8261 66.6802 65.7596C66.7375 65.693 66.8128 65.6442 66.8971 65.6189C69.5566 65.0008 72.1126 66.3058 74.0007 68.0916C75.1962 69.2139 76.1858 70.5349 76.9251 71.9952C76.9214 71.16 77.0102 70.3269 77.1899 69.5111C77.2112 69.4363 77.2518 69.3685 77.3076 69.3141C77.3635 69.2598 77.4326 69.2209 77.5081 69.2012C77.5837 69.1816 77.6631 69.1819 77.7386 69.2021C77.814 69.2223 77.8828 69.2617 77.9382 69.3165C79.2351 71.0238 79.9925 73.0758 80.1142 75.2119C81.1449 73.1045 82.4451 71.1383 83.9826 69.3622C85.9136 67.2547 88.2256 65.5267 90.7984 64.2681C90.8937 64.2213 91.0023 64.2087 91.1059 64.2324C91.2095 64.2561 91.3016 64.3147 91.3666 64.3983C91.4317 64.4819 91.4657 64.5852 91.4628 64.6908C91.46 64.7965 91.4205 64.8979 91.351 64.9779C89.7968 66.7064 88.1158 68.8471 87.7589 71.2167C94.3099 67.6451 101.69 65.7105 109.162 67.0155C109.245 67.0422 109.32 67.092 109.376 67.1592C109.432 67.2264 109.467 67.3081 109.478 67.3947C109.489 67.4814 109.475 67.5693 109.437 67.6481C109.4 67.7269 109.34 67.7934 109.266 67.8397C106.832 68.8152 104.499 70.0228 102.3 71.4457C104.562 71.7362 106.836 71.912 109.116 71.9723C111.525 72.314 113.859 73.053 116.024 74.1587C119.985 76.0187 123.513 78.6774 126.386 81.9659C129.289 85.4714 131.577 89.4381 133.155 93.6996C133.673 95.016 134.122 96.3554 134.537 97.6947C134.594 87.8499 134.168 77.6273 130.219 70.6901C118.453 49.9931 84.6159 51.2867 76.833 51.6874C69.1779 52.031 61.6763 53.9405 54.7968 57.2966C48.004 60.7309 41.7754 65.5388 37.8839 72.1211C33.2787 79.9054 33.1981 89.7731 33.6356 98.622C35.8414 91.8668 39.3796 85.6168 44.0435 80.2373Z" fill="#F6C3A4"/>
</g>
<g style="mix-blend-mode:multiply">
<path d="M69.0843 109.223C71.8357 111.676 74.0735 114.644 75.6698 117.958C75.0481 112.909 74.3228 107.85 72.3425 103.133C71.6829 101.392 70.6743 99.802 69.378 98.46C68.0817 97.1179 66.5247 96.0517 64.8014 95.3261C61.5866 94.1536 58.0761 94.0491 54.7965 95.0284C48.637 96.7341 43.4906 101.645 42.4198 107.907C44.4063 105.58 47.2366 104.128 50.2948 103.866C50.3747 103.865 50.4535 103.885 50.5229 103.924C50.5923 103.964 50.65 104.021 50.6899 104.089C50.7298 104.158 50.7505 104.236 50.7498 104.316C50.7492 104.395 50.7273 104.473 50.6863 104.541C49.7993 106.005 49.0294 107.536 48.3837 109.12C45.9889 114.844 45.229 121.598 48.0383 127.356C48.1649 127.619 48.0383 128.077 47.6468 128.031C46.2637 127.863 44.8617 128.119 43.6287 128.764C43.1912 128.982 42.7652 129.233 42.3508 129.474C43.0534 129.491 43.7538 129.56 44.4462 129.68C46.0075 129.948 47.5468 130.331 49.0514 130.825C50.4445 131.26 51.8721 131.683 53.2192 132.244C55.8001 133.376 58.0645 135.117 59.8162 137.315C59.3327 135.901 58.5998 134.583 57.6517 133.423C57.456 133.183 57.479 132.736 57.8475 132.668C60.1042 132.317 62.2987 131.646 64.3639 130.676C66.2603 129.76 67.8922 128.382 69.1073 126.669C70.2038 125.032 70.8652 123.146 71.03 121.186C71.1972 117.203 70.2826 113.249 68.382 109.738C68.343 109.646 68.3364 109.543 68.3631 109.447C68.3898 109.35 68.4484 109.266 68.5294 109.206C68.6104 109.147 68.7092 109.116 68.8098 109.119C68.9105 109.122 69.0071 109.159 69.0843 109.223Z" fill="#F6C3A4"/>
</g>
<g style="mix-blend-mode:multiply">
<path d="M119.823 126.944C119.746 126.963 119.665 126.963 119.588 126.943C119.511 126.923 119.441 126.883 119.384 126.828C119.328 126.772 119.286 126.703 119.264 126.627C119.242 126.551 119.24 126.471 119.259 126.394C120.928 120.945 122.459 114.454 120.053 108.982C119.869 108.536 120.387 108.055 120.767 108.433C122.415 110.192 123.953 112.05 125.372 113.996C125.627 110.293 124.917 106.587 123.311 103.236C121.8 99.9483 119.365 97.1654 116.3 95.2226C112.718 93.0636 108.431 92.3761 104.348 93.3056C100.264 94.2351 96.7055 96.7087 94.4249 100.202L94.3558 100.328C92.8391 103.589 91.8409 107.065 91.3969 110.631C90.9652 114.274 90.9652 117.955 91.3969 121.598C92.1338 117.385 93.0663 112.76 96.9463 110.528C97.0241 110.486 97.1123 110.468 97.2003 110.474C97.2884 110.481 97.3727 110.513 97.4431 110.566C97.5135 110.619 97.567 110.691 97.5973 110.774C97.6276 110.856 97.6334 110.946 97.614 111.032C97.3761 112.275 97.0452 113.5 96.6239 114.695C96.2454 115.857 96.093 117.081 96.1749 118.301C96.3742 120.539 96.8857 122.739 97.6946 124.837C98.3451 126.676 99.3678 128.363 100.7 129.794C101.914 131.071 103.401 132.061 105.05 132.693C106.7 133.325 108.47 133.582 110.232 133.446C110.601 133.446 110.751 133.846 110.624 134.121C109.473 136.605 108.01 139.204 108.126 141.985C108.934 140.671 109.81 139.398 110.751 138.173C112.758 135.58 115.14 133.297 117.82 131.397C120.402 129.623 123.219 128.213 126.19 127.207C125.199 126.746 124.126 126.486 123.033 126.441C121.94 126.395 120.849 126.566 119.823 126.944Z" fill="#F6C3A4"/>
</g>
<g style="mix-blend-mode:multiply">
<path d="M134.79 116.95C134.79 116.458 134.709 115.977 134.675 115.496C134.099 108.215 134.848 98.4851 134.41 89.3271C134.111 91.9143 133.662 94.4899 133.167 97.0198C132.741 99.2292 132.223 101.427 131.797 103.636C131.327 106.07 131.034 108.533 130.922 111.009C130.657 115.897 130.922 120.796 131.117 125.684C131.405 133.011 130.484 140.326 126.834 146.828C122.942 153.386 117.337 158.774 110.612 162.419C103.575 166.293 95.8345 168.74 87.8393 169.62C80.2664 170.685 72.5517 170.123 65.2159 167.971C57.9312 165.747 51.2873 161.822 45.8393 156.524C43.2143 153.975 41.0146 151.026 39.3228 147.789C37.3505 143.709 36.3161 139.243 36.2949 134.716C36.3216 130.207 36.5791 125.703 37.0662 121.22C37.4462 116.553 37.4462 111.863 37.0662 107.197C36.6904 102.48 35.7592 97.8232 34.2916 93.3223L33.5317 91.113C33.5317 94.0778 33.6008 97.0313 33.762 99.8588C34.4873 113.287 32.4264 126.772 33.9232 140.188C35.3047 152.517 43.4561 159.866 53.7143 166.185C62.4542 171.594 72.5365 174.476 82.831 174.508C98.7768 174.508 112.88 167.227 123.922 156.192C134.963 145.156 136.114 131.877 134.79 116.95Z" fill="#F6C3A4"/>
</g>
<g style="mix-blend-mode:multiply">
<path d="M86.2851 140.131C84.8896 140.95 83.3393 141.475 81.7307 141.672C80.1222 141.869 78.4901 141.734 76.9364 141.275C75.0666 140.717 73.4685 139.495 72.4463 137.841C72.4803 138.902 72.5958 139.958 72.7917 141.001C73.0907 143.153 74.0989 145.146 75.6585 146.667C76.6507 147.436 77.8068 147.969 79.038 148.225C80.2693 148.481 81.5432 148.453 82.7621 148.144C87.6321 146.999 89.1519 141.951 89.0943 137.486C88.3567 138.556 87.3992 139.457 86.2851 140.131Z" fill="#F6C3A4"/>
</g>
<path d="M82.7049 175C72.3721 174.928 62.2587 172.029 53.473 166.621C44.4236 161.034 34.9598 153.548 33.4746 140.292C32.8252 132.757 32.7328 125.185 33.1983 117.637C33.4055 111.833 33.6243 105.823 33.3019 99.9392C32.8069 90.6897 32.6802 80.1351 37.5503 71.8815C41.1193 65.8601 47.0256 60.6744 54.6473 56.8739C61.5889 53.5041 69.1511 51.5834 76.8677 51.2303C113.123 49.3872 126.144 62.4831 130.669 70.4505C135.332 78.6469 135.159 91.3307 134.998 102.503C134.94 107.22 134.871 111.661 135.17 115.451C135.17 115.931 135.251 116.412 135.285 116.904C136.437 130.55 135.93 144.779 124.244 156.501C112.225 168.555 97.9138 174.943 82.797 174.989L82.7049 175ZM83.6029 51.9858C81.473 51.9858 79.2394 51.9858 76.9138 52.1575C69.3165 52.507 61.8717 54.4004 55.0387 57.721C47.5782 61.4299 41.7986 66.5012 38.3217 72.3737C33.5667 80.3869 33.7164 90.8041 34.1999 99.9163C34.5223 105.846 34.3036 111.879 34.0848 117.706C33.6247 125.208 33.7171 132.734 34.3611 140.223C35.8003 153.101 45.0684 160.428 53.9335 165.9C62.5818 171.229 72.5419 174.081 82.7164 174.142H82.843C97.672 174.142 111.764 167.811 123.611 155.929C135.032 144.481 135.55 130.458 134.399 117.007C134.399 116.515 134.318 116.023 134.284 115.542C133.984 111.719 134.042 107.254 134.111 102.515C134.261 91.4338 134.433 78.8759 129.897 70.897C125.741 63.605 114.308 51.9858 83.6029 51.9858Z" fill="#B56A4D"/>
<path d="M73.2177 97.4552C73.1486 97.1576 72.6535 97.4552 72.6996 97.6613C72.1374 96.1216 71.333 94.6803 70.3163 93.3914C70.1667 93.1968 69.7867 93.4601 69.9134 93.6776C70.7449 95.1927 71.4384 96.7788 71.9857 98.4168C71.9857 98.5084 72.0433 98.6 72.0663 98.6801C71.6288 97.7872 71.1453 96.9172 70.6617 96.093C69.2156 93.3425 66.8261 91.1981 63.9265 90.0487C60.6632 89.1192 57.1892 89.2273 53.9907 90.3578C50.8434 91.338 48.0927 93.291 46.1387 95.9327C44.0894 98.6801 42.0055 102.469 42.7654 106.007C42.7654 106.007 42.7654 106.007 42.8344 106.087C42.8123 106.163 42.8202 106.244 42.8566 106.314C42.893 106.385 42.9551 106.438 43.0302 106.464C43.2604 106.556 43.5252 106.35 43.6519 106.178C44.9282 104.513 46.5104 103.103 48.3147 102.023C50.0947 101.014 52.0152 100.273 54.0137 99.8249C56.2647 99.2321 58.6052 99.0498 60.9216 99.2868C63.3181 99.5461 65.6368 100.286 67.7374 101.462C69.0113 102.145 70.1754 103.013 71.1913 104.038C71.8246 104.713 72.3427 105.846 73.2522 106.121C73.3642 106.137 73.4782 106.112 73.5732 106.051C73.6683 105.99 73.7383 105.897 73.7703 105.789C73.8526 104.831 73.7905 103.867 73.5861 102.927C73.6165 102.838 73.6359 102.746 73.6436 102.652C73.6436 102.755 73.6436 102.87 73.7357 102.973C73.8394 103.305 74.392 102.973 74.3229 102.71C73.9084 100.935 73.6091 99.1724 73.2177 97.4552Z" fill="#757779"/>
<path d="M72.504 104.496C72.1938 104.038 71.8432 103.609 71.4563 103.213C70.5016 102.292 69.4386 101.489 68.2902 100.821C66.2074 99.6125 63.9011 98.8339 61.509 98.5314C59.0919 98.2316 56.6398 98.383 54.2787 98.9778C52.1938 99.4351 50.1855 100.187 48.3149 101.21C46.3096 102.35 44.5462 103.866 43.1224 105.675C42.754 102.641 44.4695 99.493 46.1504 97.1004C46.9987 95.8381 48.0264 94.7045 49.2014 93.7349C50.4465 92.7623 51.8373 91.9897 53.3231 91.4454C56.2558 90.3125 59.4587 90.0618 62.5336 90.7242C65.3144 91.5718 67.6913 93.3941 69.2228 95.8527C70.2248 97.3315 71.0881 98.8988 71.8017 100.535C72.1563 101.336 72.4488 102.162 72.6767 103.007C72.6767 103.11 72.6767 103.213 72.6767 103.305C72.6753 103.345 72.684 103.385 72.7021 103.421C72.7202 103.457 72.7471 103.488 72.7803 103.511C72.9035 104.052 72.9691 104.605 72.9761 105.159C72.8057 104.948 72.648 104.726 72.504 104.496Z" fill="#C2C4C6"/>
<path d="M92.3413 102.652C92.2722 102.95 92.8133 103.248 92.9285 102.916C92.9285 102.813 92.986 102.698 93.0205 102.595C93.015 102.687 93.015 102.778 93.0205 102.87C92.8198 103.81 92.7616 104.775 92.8479 105.732C92.8574 105.795 92.8799 105.856 92.9139 105.91C92.9479 105.964 92.9927 106.011 93.0455 106.047C93.0983 106.084 93.1581 106.109 93.2211 106.122C93.2841 106.134 93.3491 106.134 93.412 106.121C94.3676 105.846 94.8396 104.713 95.4729 104.038C96.4864 103.01 97.651 102.142 98.9268 101.462C101.024 100.287 103.339 99.5476 105.731 99.2868C108.048 99.051 110.388 99.2333 112.639 99.8249C114.656 100.273 116.595 101.013 118.396 102.023C120.182 103.105 121.745 104.515 123.001 106.178C123.139 106.35 123.392 106.556 123.634 106.464C123.707 106.436 123.768 106.382 123.804 106.312C123.84 106.243 123.849 106.163 123.83 106.087C123.83 106.087 123.887 106.087 123.899 106.007C124.647 102.469 122.563 98.6801 120.525 95.9327C118.563 93.2894 115.805 91.3366 112.65 90.3578C109.452 89.2273 105.978 89.1192 102.715 90.0487C99.8151 91.1981 97.4256 93.3425 95.9794 96.093C95.4959 96.9172 95.0123 97.7872 94.5633 98.6801C94.597 98.5946 94.6239 98.5065 94.6439 98.4168C95.2224 96.7781 95.9427 95.1924 96.7969 93.6776C96.912 93.4601 96.5436 93.1968 96.3824 93.3914C95.3653 94.68 94.5608 96.1213 93.9992 97.6613C93.9992 97.4095 93.5501 97.1576 93.4811 97.4552C93.0205 99.1724 92.7327 100.935 92.3413 102.652Z" fill="#757779"/>
<path d="M93.5844 105.159C93.6009 104.604 93.6703 104.052 93.7916 103.51C93.8229 103.485 93.8483 103.454 93.8662 103.419C93.8841 103.383 93.894 103.344 93.8952 103.304V103.007C94.1281 102.163 94.4205 101.337 94.7702 100.534C95.4923 98.8999 96.3592 97.3331 97.3607 95.8519C98.889 93.3905 101.267 91.5672 104.05 90.7234C107.143 90.0494 110.368 90.3004 113.318 91.4446C114.804 91.9889 116.194 92.7615 117.44 93.7341C118.612 94.7066 119.639 95.8398 120.491 97.0997C122.172 99.4922 123.887 102.64 123.519 105.674C122.092 103.868 120.329 102.352 118.326 101.209C116.453 100.202 114.445 99.4657 112.362 99.0228C109.997 98.4284 107.541 98.277 105.121 98.5764C102.732 98.8807 100.43 99.6593 98.3508 100.866C97.2025 101.534 96.1394 102.337 95.1847 103.258C94.7975 103.657 94.4433 104.086 94.1255 104.541C93.9576 104.757 93.7769 104.964 93.5844 105.159Z" fill="#C2C4C6"/>
<g opacity="0.43">
<g style="mix-blend-mode:multiply" opacity="0.59">
<path d="M54.1979 138.472C53.8755 138.472 53.5762 139.033 54.0022 139.033C54.4282 139.033 54.5778 138.472 54.1979 138.472Z" fill="#A05627"/>
</g>
<g style="mix-blend-mode:multiply" opacity="0.59">
<path d="M55.4529 136.159C55.1075 136.159 54.7852 136.766 55.2457 136.766C55.7062 136.766 55.9134 136.159 55.4529 136.159Z" fill="#A05627"/>
</g>
<g style="mix-blend-mode:multiply" opacity="0.59">
<path d="M58.1815 137.842L58.0894 137.762H57.9857H57.8246C57.8118 137.756 57.7981 137.754 57.7843 137.754C57.7704 137.754 57.7567 137.756 57.744 137.762C57.6793 137.75 57.613 137.75 57.5483 137.762H57.4562C57.3979 137.802 57.3473 137.853 57.3065 137.911C57.2952 137.952 57.2952 137.995 57.3065 138.037C57.2952 138.078 57.2952 138.121 57.3065 138.162C57.3118 138.203 57.3324 138.24 57.364 138.265C57.3981 138.274 57.4336 138.274 57.4677 138.265C57.513 138.277 57.5605 138.277 57.6058 138.265C57.6247 138.261 57.6445 138.261 57.6634 138.265C57.7011 138.276 57.7408 138.276 57.7785 138.265C57.8238 138.277 57.8714 138.277 57.9167 138.265H58.0088C58.0572 138.25 58.1007 138.222 58.1354 138.185C58.1639 138.169 58.1877 138.145 58.2045 138.117C58.2383 138.082 58.2622 138.038 58.2736 137.991V137.911C58.2473 137.882 58.2161 137.859 58.1815 137.842Z" fill="#A05627"/>
</g>
<g style="mix-blend-mode:multiply" opacity="0.59">
<path d="M63.063 137.647C62.7177 137.647 62.3838 138.266 62.8558 138.266C63.3279 138.266 63.5351 137.647 63.063 137.647Z" fill="#A05627"/>
</g>
<g style="mix-blend-mode:multiply" opacity="0.59">
<path d="M65.1469 134.923C64.8591 134.923 64.5943 135.415 64.9742 135.415C65.3541 135.415 65.5153 134.923 65.1469 134.923Z" fill="#A05627"/>
</g>
<g style="mix-blend-mode:multiply" opacity="0.59">
<path d="M65.7111 138.987C65.4003 138.987 65.1009 139.537 65.5154 139.537C65.9299 139.537 66.1717 138.987 65.7111 138.987Z" fill="#A05627"/>
</g>
<g style="mix-blend-mode:multiply" opacity="0.59">
<path d="M63.6272 142.032C63.3969 142.032 63.1897 142.433 63.4891 142.433C63.7884 142.433 63.9266 142.032 63.6272 142.032Z" fill="#A05627"/>
</g>
<g style="mix-blend-mode:multiply" opacity="0.59">
<path d="M60.7604 140.44C60.415 140.44 60.1042 141.036 60.5532 141.036C61.0022 141.036 61.2094 140.44 60.7604 140.44Z" fill="#A05627"/>
</g>
<g style="mix-blend-mode:multiply" opacity="0.59">
<path d="M54.5548 142.135C54.221 142.135 53.9101 142.73 54.3476 142.73C54.7851 142.73 54.9923 142.135 54.5548 142.135Z" fill="#A05627"/>
</g>
<g style="mix-blend-mode:multiply" opacity="0.59">
<path d="M50.5483 141.768C50.5588 141.739 50.5588 141.707 50.5483 141.677C50.5366 141.649 50.5165 141.625 50.4907 141.608C50.4611 141.597 50.4282 141.597 50.3986 141.608H50.295H50.2144C50.1603 141.625 50.1122 141.656 50.0762 141.7L50.0186 141.768C50.0122 141.81 50.0122 141.853 50.0186 141.894V142.1C50.0081 142.13 50.0081 142.162 50.0186 142.192C50.0186 142.192 50.0186 142.192 50.0186 142.261C50.0483 142.272 50.0811 142.272 50.1108 142.261C50.1483 142.272 50.1884 142.272 50.2259 142.261H50.295C50.3516 142.237 50.4026 142.202 50.4446 142.158V142.1C50.4546 142.055 50.4546 142.008 50.4446 141.963L50.5483 141.768Z" fill="#A05627"/>
</g>
<g style="mix-blend-mode:multiply" opacity="0.59">
<path d="M51.5268 136.331C51.2735 136.331 51.0318 136.789 51.3772 136.789C51.7226 136.789 51.8953 136.331 51.5268 136.331Z" fill="#A05627"/>
</g>
<g style="mix-blend-mode:multiply" opacity="0.59">
<path d="M48.8443 135.553C48.5335 135.553 48.2341 136.114 48.6486 136.114C49.0631 136.114 49.2588 135.553 48.8443 135.553Z" fill="#A05627"/>
</g>
<g style="mix-blend-mode:multiply" opacity="0.59">
<path d="M48.3723 139.399L48.2686 139.193H48.1996C48.187 139.187 48.1732 139.184 48.1593 139.184C48.1453 139.184 48.1315 139.187 48.119 139.193C48.0892 139.182 48.0567 139.182 48.0269 139.193H47.9348C47.9041 139.221 47.8805 139.257 47.8657 139.296C47.8551 139.329 47.8551 139.365 47.8657 139.399L47.9693 139.593C47.9883 139.598 48.0079 139.598 48.0269 139.593H48.1996C48.2299 139.6 48.2613 139.6 48.2917 139.593C48.3251 139.563 48.349 139.523 48.3607 139.479C48.3733 139.454 48.3774 139.426 48.3723 139.399Z" fill="#A05627"/>
</g>
<g style="mix-blend-mode:multiply" opacity="0.59">
<path d="M52.2753 138.884C51.8608 138.884 51.4693 139.616 52.022 139.616C52.5746 139.616 52.8279 138.884 52.2753 138.884Z" fill="#A05627"/>
</g>
</g>
<g opacity="0.43">
<g style="mix-blend-mode:multiply" opacity="0.59">
<path d="M117.52 138.472C117.843 138.472 118.154 139.033 117.728 139.033C117.302 139.033 117.083 138.472 117.52 138.472Z" fill="#A05627"/>
</g>
<g style="mix-blend-mode:multiply" opacity="0.59">
<path d="M116.208 136.159C116.553 136.159 116.876 136.766 116.415 136.766C115.955 136.766 115.747 136.159 116.208 136.159Z" fill="#A05627"/>
</g>
<g style="mix-blend-mode:multiply" opacity="0.59">
<path d="M113.445 137.979V138.059C113.456 138.107 113.48 138.15 113.514 138.185L113.583 138.254C113.618 138.291 113.661 138.318 113.71 138.334H113.813C113.855 138.346 113.899 138.346 113.94 138.334C113.977 138.345 114.018 138.345 114.055 138.334H114.113C114.158 138.346 114.205 138.346 114.251 138.334C114.285 138.342 114.32 138.342 114.354 138.334C114.385 138.305 114.409 138.27 114.423 138.231C114.432 138.211 114.436 138.19 114.436 138.168C114.436 138.146 114.432 138.125 114.423 138.105C114.439 138.065 114.439 138.02 114.423 137.979C114.39 137.919 114.343 137.868 114.285 137.83H114.182C114.121 137.818 114.058 137.818 113.997 137.83C113.968 137.819 113.935 137.819 113.905 137.83H113.744H113.641L113.56 137.91C113.516 137.921 113.475 137.945 113.445 137.979Z" fill="#A05627"/>
</g>
<g style="mix-blend-mode:multiply" opacity="0.59">
<path d="M108.598 137.647C108.955 137.647 109.277 138.266 108.817 138.266C108.356 138.266 108.137 137.647 108.598 137.647Z" fill="#A05627"/>
</g>
<g style="mix-blend-mode:multiply" opacity="0.59">
<path d="M106.525 134.923C106.802 134.923 107.066 135.415 106.698 135.415C106.33 135.415 106.145 134.923 106.525 134.923Z" fill="#A05627"/>
</g>
<g style="mix-blend-mode:multiply" opacity="0.59">
<path d="M105.915 138.987C106.226 138.987 106.514 139.537 106.099 139.537C105.685 139.537 105.501 138.987 105.915 138.987Z" fill="#A05627"/>
</g>
<g style="mix-blend-mode:multiply" opacity="0.59">
<path d="M108.034 142.032C108.264 142.032 108.471 142.433 108.172 142.433C107.872 142.433 107.746 142.032 108.034 142.032Z" fill="#A05627"/>
</g>
<g style="mix-blend-mode:multiply" opacity="0.59">
<path d="M110.9 140.44C111.246 140.44 111.557 141.036 111.108 141.036C110.659 141.036 110.451 140.44 110.9 140.44Z" fill="#A05627"/>
</g>
<g style="mix-blend-mode:multiply" opacity="0.59">
<path d="M117.106 142.135C117.44 142.135 117.751 142.73 117.313 142.73C116.876 142.73 116.669 142.135 117.106 142.135Z" fill="#A05627"/>
</g>
<g style="mix-blend-mode:multiply" opacity="0.59">
<path d="M121.124 141.769C121.113 141.74 121.113 141.707 121.124 141.677L121.182 141.609C121.212 141.599 121.244 141.599 121.274 141.609H121.389H121.458C121.514 141.628 121.565 141.659 121.608 141.7V141.769C121.619 141.81 121.619 141.854 121.608 141.895V142.101C121.619 142.13 121.619 142.163 121.608 142.193C121.603 142.209 121.594 142.224 121.582 142.236C121.57 142.248 121.555 142.256 121.539 142.261C121.509 142.273 121.476 142.273 121.446 142.261C121.413 142.273 121.376 142.273 121.343 142.261H121.262C121.207 142.241 121.159 142.205 121.124 142.158V142.101C121.119 142.055 121.119 142.009 121.124 141.964V141.769Z" fill="#A05627"/>
</g>
<g style="mix-blend-mode:multiply" opacity="0.59">
<path d="M120.134 136.331C120.387 136.331 120.629 136.789 120.295 136.789C119.961 136.789 119.823 136.331 120.134 136.331Z" fill="#A05627"/>
</g>
<g style="mix-blend-mode:multiply" opacity="0.59">
<path d="M122.816 135.553C123.139 135.553 123.427 136.114 123.012 136.114C122.598 136.114 122.402 135.553 122.816 135.553Z" fill="#A05627"/>
</g>
<g style="mix-blend-mode:multiply" opacity="0.59">
<path d="M123.277 139.399L123.381 139.193C123.4 139.188 123.419 139.188 123.438 139.193C123.451 139.187 123.465 139.184 123.479 139.184C123.493 139.184 123.506 139.187 123.519 139.193C123.548 139.181 123.581 139.181 123.611 139.193C123.641 139.187 123.673 139.187 123.703 139.193H123.761L123.83 139.296C123.84 139.329 123.84 139.365 123.83 139.399L123.738 139.593C123.715 139.601 123.691 139.601 123.669 139.593H123.496H123.404H123.346L123.277 139.479C123.268 139.453 123.268 139.425 123.277 139.399Z" fill="#A05627"/>
</g>
<g style="mix-blend-mode:multiply" opacity="0.59">
<path d="M119.386 138.884C119.8 138.884 120.192 139.616 119.639 139.616C119.086 139.616 118.833 138.884 119.386 138.884Z" fill="#A05627"/>
</g>
</g>
<path d="M76.9018 147.801C78.2739 148.818 79.889 149.461 81.5877 149.667C82.0812 149.65 82.5733 149.604 83.0614 149.53C83.873 149.414 84.6353 149.073 85.2604 148.545C84.091 148.98 82.8317 149.121 81.5944 148.955C80.3571 148.789 79.1802 148.322 78.1683 147.595C75.8234 146.034 74.123 143.685 73.3788 140.978C72.5614 138.323 71.9627 134.888 73.4364 132.358C73.8891 131.629 74.5231 131.028 75.2772 130.613C76.0314 130.198 76.8803 129.983 77.7423 129.989C77.7961 129.93 77.87 129.893 77.9495 129.886H78.0877C82.0367 129.371 85.5597 131.82 88.2308 134.682C88.016 134.09 87.77 133.509 87.4939 132.942C87.1135 132.554 86.7015 132.198 86.262 131.878C84.8996 130.88 83.3666 130.135 81.7374 129.68C80.8293 129.416 79.8951 129.251 78.9512 129.188C78.9242 128.76 78.8665 128.336 78.7785 127.917C78.4587 126.073 77.5788 124.372 76.2571 123.04C76.1765 122.96 75.9808 123.12 76.0499 123.223C77.0127 124.663 77.6672 126.284 77.9726 127.986C78.0517 128.364 78.1093 128.746 78.1453 129.13C77.2612 129.111 76.3829 129.275 75.5662 129.612C74.7496 129.949 74.0124 130.452 73.4018 131.088C71.2028 133.503 71.3986 137.166 72.1354 140.12C72.7393 143.169 74.4323 145.897 76.9018 147.801Z" fill="#A05627"/>
<path d="M107.159 150.433C106.733 148.956 105.397 147.594 103.705 148.052C102.012 148.51 101.252 150.021 100.435 151.234C98.2443 154.669 95.2602 157.534 91.731 159.591C88.0877 161.568 83.9875 162.562 79.8379 162.476C77.0611 162.482 74.3012 162.046 71.6636 161.182C69.7614 160.328 67.8036 159.601 65.8034 159.007C65.4676 158.855 65.1015 158.781 64.7327 158.79C64.4052 158.843 64.082 158.919 63.7656 159.019C63.3531 159.157 62.9647 159.357 62.6142 159.614L62.8675 159.511C62.4956 159.844 62.238 160.284 62.1307 160.77C61.7623 162.579 63.5238 164.033 64.8708 164.903C66.736 166.034 68.7511 166.901 70.8577 167.478C73.2369 168.195 75.6821 168.675 78.157 168.909C80.6068 169.131 83.0699 169.169 85.5254 169.024C88.0981 168.935 90.6518 168.551 93.1356 167.879C97.2576 166.686 100.926 164.294 103.67 161.011C105.02 159.424 106.072 157.609 106.779 155.653C107.443 153.994 107.576 152.17 107.159 150.433Z" fill="#A05627"/>
<path d="M105.316 157.302C103.459 160.846 100.554 163.739 96.9925 165.59C93.0205 167.708 88.4843 168.257 84.0287 168.349C79.4973 168.524 74.9683 167.947 70.6274 166.643C68.7104 166.087 66.8812 165.266 65.1932 164.205C64.0418 163.392 61.9119 161.538 63.1899 159.969C63.3674 159.766 63.5843 159.601 63.8276 159.483C64.0709 159.365 64.3356 159.297 64.606 159.283C64.9629 159.307 65.3171 159.361 65.6652 159.443C67.341 159.942 68.9766 160.566 70.5583 161.309C72.7727 162.151 75.1009 162.66 77.4662 162.82C81.3099 163.173 85.1848 162.685 88.8182 161.389C92.1149 160.136 95.0971 158.182 97.5566 155.665C98.8141 154.366 99.9509 152.956 100.953 151.453C101.655 150.388 102.668 148.533 104.142 148.499C106.019 148.442 106.629 150.731 106.652 152.185C106.623 153.972 106.165 155.727 105.316 157.302Z" fill="#9E0000"/>
<path d="M99.2374 163.862C95.7876 162.807 92.1825 162.342 88.5762 162.488C86.0841 162.62 83.6077 162.961 81.1732 163.507C78.4553 164.06 75.8067 164.908 73.2752 166.037C72.6765 166.312 72.1239 166.609 71.5137 166.941C75.5888 168.044 79.8077 168.53 84.0285 168.384C88.4841 168.292 93.0203 167.742 96.9923 165.625C97.8986 165.143 98.7682 164.596 99.5943 163.988L99.2374 163.862Z" fill="#E84F65"/>
<path d="M68.7508 161.401C69.5836 162.57 70.7005 163.512 71.9975 164.137C74.5314 165.261 77.2823 165.82 80.0567 165.774C83.3816 165.887 86.7084 165.615 89.9696 164.961C93.6077 164.182 97.1998 162.454 98.9959 159.043C99.9904 156.925 100.46 154.601 100.366 152.266C99.521 153.481 98.5817 154.63 97.5567 155.7C95.0971 158.217 92.115 160.17 88.8182 161.424C85.1849 162.72 81.31 163.208 77.4663 162.855C75.101 162.695 72.7728 162.185 70.5584 161.343C69.7409 161.034 68.912 160.645 68.0715 160.29C68.2684 160.678 68.4955 161.049 68.7508 161.401Z" fill="white"/>
<path d="M69.4415 117.934C69.1259 115.128 68.2155 112.42 66.7705 109.989C66.0921 108.774 65.1681 107.711 64.0565 106.868C62.945 106.025 61.6699 105.419 60.3116 105.09C58.9483 104.895 57.5586 104.999 56.24 105.394C54.9213 105.79 53.7057 106.467 52.6783 107.379C48.8214 110.63 47.5205 116.182 48.2573 121.013C48.3383 123.429 48.9639 125.796 50.0879 127.939C50.2631 128.259 50.4632 128.566 50.6866 128.855C49.3246 128.112 47.874 127.543 46.3691 127.161C46.9832 127.619 47.6049 128.054 48.2343 128.466C49.1705 128.913 50.0779 129.418 50.9514 129.977C51.3083 130.206 51.6422 130.446 51.9876 130.675C53.5188 131.499 55.0846 132.266 56.5928 132.964C56.1598 132.542 55.6897 132.159 55.1882 131.82C55.4645 131.888 55.7524 131.946 56.0402 131.991C60.7376 132.678 66.3099 130.263 68.4168 125.901C69.509 123.395 69.8643 120.633 69.4415 117.934Z" fill="#A05627"/>
<path d="M68.7274 123.967C67.5761 128.763 62.5564 131.717 57.7669 131.602C56.43 131.623 55.1093 131.308 53.9278 130.686C52.7462 130.063 51.7421 129.154 51.0087 128.042C49.535 125.753 49.132 122.902 48.7061 120.258C48.7035 120.242 48.6975 120.226 48.6882 120.212C48.679 120.198 48.6668 120.186 48.6526 120.178C48.6383 120.169 48.6224 120.163 48.6057 120.161C48.5891 120.16 48.5723 120.161 48.5564 120.166C48.1971 116.209 49.3478 112.261 51.7801 109.108C52.5958 108.084 53.6191 107.242 54.7834 106.636C55.9477 106.031 57.227 105.676 58.5383 105.594C59.8575 105.623 61.1519 105.956 62.3204 106.566C63.4888 107.175 64.4995 108.046 65.2735 109.108C66.8476 111.136 67.9593 113.479 68.5317 115.977C69.2325 118.587 69.2996 121.326 68.7274 123.967Z" fill="white"/>
<g style="mix-blend-mode:multiply">
<path d="M48.5453 117.798C49.0873 114.892 50.5713 112.242 52.7706 110.254C53.9408 109.249 55.3246 108.522 56.8181 108.125C58.3116 107.729 59.876 107.674 61.394 107.964C63.7704 108.62 65.8201 110.124 67.1506 112.188C66.6466 111.101 66.0126 110.079 65.2624 109.143C64.4884 108.081 63.4777 107.21 62.3093 106.601C61.1408 105.991 59.8464 105.659 58.5272 105.629C57.2159 105.711 55.9366 106.066 54.7723 106.672C53.608 107.277 52.5848 108.119 51.769 109.143C49.7853 111.674 48.657 114.763 48.5453 117.969V117.798Z" fill="#DADBDC"/>
</g>
<path d="M65.1584 121.266C65.642 126.268 64.0071 130.424 60.438 131.053C56.8689 131.683 53.5301 128.512 53.1732 123.498C52.8163 118.484 55.4759 113.516 58.5959 113.104C61.716 112.691 64.6749 116.274 65.1584 121.266Z" fill="#2D8E73"/>
<g style="mix-blend-mode:multiply" opacity="0.6">
<path d="M65.1586 121.266C64.675 116.274 61.7047 112.691 58.5961 113.104C55.4875 113.516 52.8395 118.472 53.1734 123.498C53.5073 128.523 56.9152 131.706 60.4382 131.053C63.9612 130.401 65.6421 126.268 65.1586 121.266ZM54.3708 118.759C55.3724 117.259 55.6257 118.118 55.3263 119.377C55.027 120.636 54.175 124.837 56.3741 127.241C57.4217 128.386 58.7458 128.729 58.8609 129.141C58.976 129.554 56.2704 130.069 54.8083 127.504C53.1158 124.551 53.3461 120.27 54.3708 118.759Z" fill="#4A5F70"/>
</g>
<g style="mix-blend-mode:multiply" opacity="0.4">
<path d="M63.777 121.895C63.4201 118.461 61.2901 116.171 58.976 116.675C58.8201 116.708 58.6663 116.75 58.5154 116.801C58.2046 116.274 55.7868 118.197 55.3839 120.865C55.1761 121.738 55.1023 122.637 55.1651 123.532C55.4299 126.966 57.8592 129.061 60.3345 128.592C62.8099 128.122 64.1339 125.249 63.777 121.895Z" fill="#4A5F70"/>
</g>
<g style="mix-blend-mode:multiply" opacity="0.6">
<path d="M65.1586 121.266C64.675 116.274 61.7047 112.691 58.5961 113.104C55.4875 113.516 52.8395 118.472 53.1734 123.498C53.5073 128.523 56.9152 131.706 60.4382 131.053C63.9612 130.401 65.6421 126.268 65.1586 121.266ZM60.3346 129.851C57.0303 130.469 53.8527 127.562 53.5648 122.891C53.277 118.221 55.6602 113.733 58.5846 113.344C61.5089 112.955 64.2721 116.194 64.7096 120.796C65.1471 125.398 63.6504 129.222 60.3346 129.828V129.851Z" fill="#4A5F70"/>
</g>
<path d="M62.6832 122.341C62.9595 124.871 61.9118 127.057 60.0352 127.424C58.1585 127.79 56.3509 126.142 56.1322 123.612C55.9134 121.082 57.2835 118.792 59.0105 118.438C60.7375 118.083 62.3954 119.823 62.6832 122.341Z" fill="black"/>
<g style="mix-blend-mode:multiply" opacity="0.4">
<path d="M58.9297 119.171C58.0202 117.328 58.308 115.13 59.4939 114.5C60.6797 113.871 62.3261 115.05 63.132 116.881C63.9379 118.713 64.007 120.899 62.7981 121.46C61.5893 122.021 59.8393 120.991 58.9297 119.171Z" fill="#4A5F70"/>
</g>
<g style="mix-blend-mode:overlay" opacity="0.4">
<path d="M54.6819 120.979C54.6013 122.994 54.8085 126.92 57.6292 128.282C59.2641 129.072 55.3957 129.255 54.325 125.066C53.4845 121.815 54.8085 118.438 54.6819 120.979Z" fill="white"/>
</g>
<g style="mix-blend-mode:overlay" opacity="0.4">
<path d="M54.9924 118.781C55.4184 118.839 55.2688 119.926 54.6701 119.823C54.198 119.743 54.4053 118.678 54.9924 118.781Z" fill="white"/>
</g>
<path d="M59.7935 118.69C59.1143 117.282 59.2985 115.634 60.1735 115.187C61.0485 114.741 62.2689 115.622 62.8906 117.019C63.5123 118.415 63.5238 120.064 62.6373 120.453C61.7508 120.842 60.4613 120.098 59.7935 118.69Z" fill="white"/>
<path d="M99.0991 125.924C101.194 130.286 106.778 132.701 111.464 132.015C111.764 132.015 112.04 131.912 112.316 131.843C111.815 132.182 111.345 132.565 110.912 132.988C112.477 132.232 114.043 131.465 115.574 130.698L116.611 130C117.487 129.438 118.398 128.934 119.339 128.489C119.972 128.077 120.594 127.642 121.193 127.184C119.691 127.564 118.244 128.134 116.887 128.878C117.102 128.583 117.302 128.278 117.486 127.962C118.606 125.818 119.228 123.451 119.305 121.036C120.042 116.206 118.741 110.654 114.884 107.403C113.857 106.49 112.641 105.812 111.322 105.416C110.004 105.021 108.614 104.917 107.25 105.113C105.892 105.442 104.617 106.048 103.505 106.891C102.394 107.734 101.47 108.797 100.792 110.013C99.3465 112.443 98.4361 115.151 98.1205 117.957C97.6832 120.651 98.0225 123.414 99.0991 125.924Z" fill="#A05627"/>
<path d="M99.0992 116.092C99.6765 113.596 100.788 111.254 102.357 109.223C103.134 108.161 104.147 107.29 105.317 106.681C106.487 106.071 107.783 105.739 109.104 105.709C110.414 105.793 111.691 106.149 112.853 106.754C114.015 107.359 115.036 108.201 115.851 109.223C118.283 112.377 119.434 116.324 119.075 120.282C119.059 120.276 119.043 120.274 119.027 120.276C119.011 120.278 118.996 120.284 118.982 120.293C118.969 120.302 118.958 120.314 118.95 120.328C118.942 120.342 118.937 120.357 118.936 120.373C118.453 123.018 118.05 125.834 116.576 128.157C115.843 129.269 114.839 130.178 113.657 130.801C112.476 131.423 111.155 131.739 109.818 131.718C105.04 131.832 100.032 128.879 98.8575 124.082C98.3003 121.437 98.3832 118.699 99.0992 116.092Z" fill="white"/>
<g style="mix-blend-mode:multiply">
<path d="M119.006 117.798C118.46 114.893 116.976 112.245 114.78 110.254C113.607 109.25 112.222 108.523 110.726 108.126C109.231 107.73 107.665 107.674 106.145 107.964C103.77 108.623 101.722 110.126 100.389 112.188C100.897 111.104 101.53 110.082 102.277 109.143C103.053 108.08 104.066 107.21 105.236 106.601C106.407 105.991 107.703 105.658 109.024 105.629C110.333 105.712 111.61 106.068 112.772 106.674C113.934 107.279 114.956 108.121 115.77 109.143C117.764 111.668 118.893 114.761 118.994 117.969C118.989 117.912 118.993 117.854 119.006 117.798Z" fill="#DADBDC"/>
</g>
<path d="M114.343 121.438C114.688 126.441 112.892 130.527 109.358 131.077C105.823 131.626 102.519 128.352 102.3 123.327C102.081 118.301 104.821 113.413 108.057 113.093C111.292 112.772 113.997 116.435 114.343 121.438Z" fill="#2D8E73"/>
<g style="mix-blend-mode:multiply" opacity="0.6">
<path d="M114.343 121.438C113.997 116.435 111.165 112.772 107.999 113.093C104.833 113.413 102.081 118.301 102.242 123.327C102.403 128.352 105.754 131.638 109.3 131.077C112.846 130.516 114.688 126.395 114.343 121.438ZM103.624 118.622C104.671 117.157 104.89 118.015 104.568 119.274C104.245 120.534 103.278 124.7 105.397 127.162C106.41 128.306 107.699 128.719 107.826 129.131C107.953 129.543 105.213 129.978 103.82 127.379C102.208 124.391 102.553 120.11 103.624 118.622Z" fill="#4A5F70"/>
</g>
<g style="mix-blend-mode:multiply" opacity="0.4">
<path d="M112.915 122.021C112.639 118.587 110.613 116.297 108.31 116.663L107.849 116.778C107.55 116.251 105.075 118.106 104.614 120.762C104.373 121.629 104.272 122.53 104.315 123.429C104.488 126.863 106.848 129.027 109.346 128.626C111.844 128.225 113.215 125.409 112.915 122.021Z" fill="#4A5F70"/>
</g>
<g style="mix-blend-mode:multiply" opacity="0.6">
<path d="M114.343 121.438C113.997 116.435 111.165 112.772 107.999 113.093C104.833 113.413 102.081 118.301 102.242 123.327C102.403 128.352 105.754 131.638 109.3 131.077C112.846 130.516 114.688 126.395 114.343 121.438ZM109.288 129.829C105.961 130.356 102.864 127.311 102.714 122.686C102.565 118.061 105.017 113.528 107.987 113.276C110.958 113.024 113.594 116.287 113.905 120.9C114.216 125.513 112.616 129.337 109.288 129.829Z" fill="#4A5F70"/>
</g>
<path d="M111.833 122.444C112.04 124.974 110.935 127.138 109.047 127.436C107.158 127.733 105.397 126.062 105.259 123.532C105.121 121.002 106.502 118.735 108.275 118.438C110.048 118.14 111.614 119.915 111.833 122.444Z" fill="black"/>
<g style="mix-blend-mode:multiply" opacity="0.4">
<path d="M108.172 119.159C107.308 117.293 107.665 115.106 108.874 114.511C110.083 113.916 111.683 115.141 112.443 116.984C113.203 118.827 113.203 121.036 111.971 121.563C110.739 122.089 109.024 121.013 108.172 119.159Z" fill="#4A5F70"/>
</g>
<g style="mix-blend-mode:overlay" opacity="0.4">
<path d="M103.877 120.864C103.739 122.868 103.877 126.806 106.617 128.237C108.229 129.061 104.315 129.152 103.405 124.94C102.657 121.677 104.073 118.38 103.877 120.864Z" fill="white"/>
</g>
<g style="mix-blend-mode:overlay" opacity="0.4">
<path d="M104.246 118.667C104.66 118.747 104.488 119.812 103.889 119.709C103.474 119.617 103.705 118.552 104.246 118.667Z" fill="white"/>
</g>
<path d="M109.047 118.713C108.414 117.282 108.644 115.645 109.53 115.21C110.417 114.775 111.614 115.713 112.19 117.121C112.765 118.53 112.742 120.178 111.844 120.556C110.946 120.933 109.68 120.132 109.047 118.713Z" fill="white"/>
<g style="mix-blend-mode:screen">
<path d="M47.4858 156.271C42.5443 150.761 39.4465 143.861 38.6207 136.525C38.268 134.32 38.0641 132.094 38.0105 129.862C38.0105 129.656 37.6881 129.771 37.6766 129.931C37.6766 131.957 37.4693 133.96 37.6075 135.998C37.7272 137.97 38.0749 139.921 38.6437 141.813C39.758 145.271 41.3506 148.557 43.3756 151.578C44.5064 153.309 45.7935 154.933 47.221 156.432C47.2901 156.569 47.5894 156.374 47.4858 156.271Z" fill="#FBD0B4"/>
</g>
<g style="mix-blend-mode:screen">
<path d="M76.4646 131.934C76.2133 131.748 75.9012 131.663 75.5896 131.694C74.9719 131.824 74.4134 132.149 73.9981 132.622C73.5828 133.095 73.3332 133.689 73.287 134.315C73.1627 134.945 73.2908 135.598 73.6439 136.135C73.8473 136.369 74.1245 136.526 74.4299 136.583C74.7353 136.639 75.0509 136.59 75.3248 136.444C75.8757 136.163 76.3348 135.732 76.6487 135.201C76.9626 134.67 77.1184 134.061 77.0978 133.445C77.1211 133.161 77.0758 132.876 76.9656 132.613C76.8555 132.35 76.6837 132.118 76.4646 131.934Z" fill="#FBD0B4"/>
</g>
<g style="mix-blend-mode:screen">
<path d="M78.8706 130.973C78.8166 130.948 78.7577 130.935 78.6979 130.935C78.6382 130.935 78.5792 130.948 78.5252 130.973H78.4561H78.3871H78.2834L78.1453 131.053C78.0926 131.096 78.0426 131.142 77.9956 131.191L77.9265 131.282V131.385V131.488C77.9097 131.533 77.9097 131.581 77.9265 131.626C77.9213 131.652 77.9213 131.679 77.9265 131.706C77.9525 131.716 77.9811 131.716 78.0071 131.706C78.0367 131.717 78.0696 131.717 78.0992 131.706H78.1913H78.2719C78.3289 131.717 78.3876 131.717 78.4446 131.706C78.5365 131.687 78.6231 131.648 78.6979 131.591L78.8246 131.488C78.8246 131.488 78.8246 131.488 78.9052 131.374C78.9289 131.338 78.9482 131.3 78.9627 131.259C78.9627 131.259 78.9627 131.145 78.9627 131.133C78.9485 131.072 78.9164 131.017 78.8706 130.973Z" fill="#FBD0B4"/>
</g>
<g style="mix-blend-mode:screen">
<path d="M80.8278 161.16C78.4207 160.97 76.0378 160.548 73.7126 159.901C71.41 159.248 69.0383 158.584 66.8047 157.817C66.6781 157.817 66.4478 157.989 66.5975 158.069C67.6281 158.658 68.6887 159.193 69.7751 159.672C70.9242 160.137 72.1054 160.52 73.3097 160.817C75.7478 161.416 78.2628 161.648 80.7702 161.503C80.8853 161.492 81.0926 161.183 80.8278 161.16Z" fill="#FBD0B4"/>
</g>
<g style="mix-blend-mode:screen">
<path d="M83.7061 160.667C83.4068 160.782 83.1189 160.931 82.8196 161.057C82.7681 161.076 82.7238 161.11 82.6929 161.155C82.6619 161.2 82.6459 161.254 82.6469 161.309C82.6469 161.412 82.762 161.446 82.8541 161.434C83.1881 161.39 83.5162 161.309 83.8328 161.194C83.9234 161.164 84.0007 161.103 84.0515 161.022C84.0788 160.948 84.0788 160.867 84.0515 160.793C84.04 160.622 83.8443 160.622 83.7061 160.667Z" fill="#FBD0B4"/>
</g>
<g style="mix-blend-mode:screen">
<path d="M128.285 138.643C128.032 139.616 127.64 140.554 127.318 141.493C126.996 142.432 126.639 143.451 126.236 144.401C125.474 146.285 124.451 148.053 123.196 149.655C122.931 149.999 123.323 150.17 123.588 149.93C125.165 148.458 126.406 146.666 127.226 144.675C127.639 143.707 127.974 142.708 128.228 141.688C128.469 140.669 128.561 139.639 128.711 138.608C128.746 138.356 128.331 138.471 128.285 138.643Z" fill="#FBD0B4"/>
</g>
<path d="M162.226 73.1977C161.732 69.6568 160.45 66.2701 158.473 63.2842C156.4 60.2964 153.706 57.7779 151.473 54.9046C149.239 52.0313 146.983 48.185 148.272 44.2585C148.468 43.6632 147.65 43.8464 147.432 44.1326C145.893 46.3774 145.088 49.0401 145.129 51.7566C144.991 51.4933 144.853 51.2414 144.726 50.9781C143.344 48.0061 142.536 44.8026 142.343 41.534C142.043 37.7105 142.124 33.8069 141.065 30.0865C140.081 26.6927 138.342 23.5627 135.976 20.9285C135.343 20.2302 134.652 19.5892 133.996 18.9138C133.339 18.2384 132.844 17.6202 132.188 16.9792C131.069 15.6352 129.645 14.5756 128.032 13.8884C127.938 13.8692 127.841 13.8715 127.748 13.8952C127.655 13.9189 127.568 13.9633 127.495 14.0251C127.422 14.0868 127.364 14.1643 127.325 14.2517C127.286 14.3391 127.268 14.434 127.272 14.5294C127.511 15.3075 127.903 16.031 128.423 16.6586C128.945 17.3808 129.285 18.2171 129.413 19.0969C129.413 19.3145 129.413 19.5434 129.483 19.7724C128.252 18.3222 126.756 17.1179 125.073 16.2236C122.293 14.8747 119.289 14.0407 116.208 13.7624C112.996 13.3618 109.761 13.2473 106.548 12.9153C103.336 12.5833 99.9398 12.0911 97.5796 9.5841C95.6339 7.50066 94.4595 4.86775 92.8477 2.53246C92.2023 2.00877 91.4994 1.55945 90.7523 1.19311C90.715 1.26167 90.6955 1.33839 90.6955 1.41634C90.6955 1.49428 90.715 1.571 90.7523 1.63956C91.1734 2.62825 91.3905 3.69101 91.3905 4.76472C91.3905 5.83843 91.1734 6.90119 90.7523 7.88988C90.5132 6.83738 90.1255 5.82379 89.601 4.8792C88.496 2.94972 86.9743 1.28806 85.1454 0.0140215C84.4854 -0.0272903 83.8228 0.0227945 83.1766 0.162839C85.4793 2.55536 83.1766 6.79092 81.3806 9.00028C79.5845 11.2096 77.0517 12.549 74.8757 14.3119C74.8542 14.2076 74.8273 14.1044 74.7951 14.0028C74.2811 12.1376 73.3964 10.3938 72.1931 8.87436C71.8938 8.50804 71.1454 8.96594 71.272 9.3895C71.621 10.4024 71.7185 11.4842 71.5561 12.5426C71.3937 13.601 70.9763 14.6047 70.3395 15.4681C68.9914 16.9707 67.2368 18.0557 65.2852 18.5933C62.9598 19.238 60.5609 19.5842 58.147 19.6235C54.8082 19.8067 51.4694 19.9441 48.1421 20.276C41.8533 20.7502 35.7514 22.62 30.2852 25.7479C26.056 28.1701 22.6123 31.7451 20.3609 36.0506C18.9767 38.8651 18.3575 41.9909 18.5648 45.117L18.4727 45.014C17.9999 44.4393 17.4093 43.9716 16.7402 43.6419C16.0711 43.3122 15.339 43.1283 14.5928 43.1023C14.3625 43.1023 13.7523 43.5029 14.0516 43.8006C14.8659 44.6336 15.4266 45.6786 15.669 46.815C15.9114 47.9513 15.8257 49.1326 15.4217 50.2226C14.5279 52.5884 13.084 54.7106 11.2079 56.4157C9.25488 58.3696 7.11481 60.1294 4.81809 61.6701C2.92241 62.8254 1.46494 64.5724 0.673346 66.6383C-1.22632 72.6596 5.04836 75.8764 8.49079 79.551C9.47461 80.4916 10.1863 81.6777 10.5516 82.9853C10.7651 83.9673 10.685 84.9899 10.3214 85.9273C9.33125 81.8978 4.44968 79.8029 0.489149 81.0163C0.178294 81.1079 -0.270725 81.6116 0.212827 81.8062C1.06965 82.0976 1.82496 82.6263 2.38992 83.3299C2.95488 84.0336 3.30601 84.8831 3.40198 85.7784C3.48935 87.5838 3.2912 89.3916 2.81479 91.1358C2.37173 92.8114 2.20071 94.5466 2.30821 96.2758C2.56886 98.09 3.37099 99.7848 4.61084 101.141C7.12071 103.911 10.897 105.205 14.397 106.201C18.2539 107.288 22.3756 107.929 25.9102 109.933C28.2807 111.265 30.1243 113.361 31.1372 115.874C32.3974 118.916 32.9863 122.191 32.8641 125.478C32.8641 125.97 33.601 125.73 33.6931 125.387C34.3016 122.845 34.6868 120.256 34.8444 117.648C35.0632 114.844 35.2128 112.027 35.2704 109.211C35.328 106.395 35.2704 103.327 35.2704 100.385C35.2254 97.5709 35.4064 94.7574 35.8115 91.9715C36.7791 87.0959 38.738 82.4681 41.5681 78.3719C44.0728 74.4025 47.2744 70.9128 51.0204 68.0692C55.1347 64.8918 60.2401 63.251 65.4464 63.433C65.8148 63.433 66.2868 62.9522 65.9414 62.6317C64.5773 61.4087 63.0218 60.415 61.3362 59.6897C63.0507 59.4685 64.785 59.4416 66.5056 59.6095C68.3016 59.827 69.7753 61.1664 71.5829 61.2694C71.8592 61.2694 72.2391 60.9832 72.147 60.6856C71.7544 59.3966 71.1346 58.1873 70.3164 57.114C71.9829 57.9824 73.5306 59.0596 74.9217 60.3193C76.6091 62.1588 78.0171 64.2336 79.101 66.478C79.1917 66.8939 79.311 67.3032 79.4579 67.7029C79.5845 68.0578 80.1947 67.783 80.1832 67.4625C80.1945 65.563 80.8841 63.7292 82.1289 62.2882C83.1207 60.9877 84.2306 59.7806 85.4447 58.6823C86.5991 57.5888 87.8559 56.6075 89.198 55.7517C90.1259 55.1192 91.1646 54.6649 92.2605 54.4124C90.7983 55.8204 89.152 57.4231 89.0253 59.4493C89.0253 59.9644 89.647 59.7927 89.8773 59.5752C92.0188 57.5261 95.2309 57.0568 98.0862 56.8965C100.683 56.7183 103.292 56.8799 105.846 57.3773C106.955 57.5786 108.022 57.9656 109.001 58.522C108.483 58.6594 107.918 58.7166 107.4 58.8426C106.55 59.0154 105.772 59.4381 105.167 60.056C105.017 60.2163 104.913 60.5253 105.167 60.6741C106.065 61.2923 107.469 61.0519 108.517 61.0634C110.118 61.1702 111.682 61.5863 113.122 62.2882C116.312 63.5957 119.267 65.4089 121.872 67.6571C122.746 68.4612 123.54 69.3467 124.244 70.3015C122.89 69.8493 121.47 69.6211 120.042 69.6261C119.616 69.6261 119.052 70.1641 119.466 70.5419C120.617 71.6179 121.849 72.5566 122.92 73.6441C124.033 74.7947 124.985 76.0883 125.752 77.4905C127.417 80.4057 128.853 83.4445 130.047 86.5798C132.444 92.8061 133.805 99.3791 134.076 106.04C134.18 108.639 134.203 111.238 134.422 113.825C134.756 114.534 135.113 115.233 135.481 115.931C135.587 113.098 136.02 110.287 136.77 107.552C137.074 106.274 137.696 105.094 138.578 104.117C139.407 103.304 140.379 102.649 141.445 102.183C144.15 100.901 147.086 100.237 149.872 99.1605C152.342 98.2542 154.569 96.7929 156.377 94.8906C157.966 93.2078 159.969 90.6665 159.394 88.1824C159.394 87.9764 159.129 87.9306 158.933 87.9649C159.903 86.6966 160.679 85.2924 161.236 83.798C162.467 80.4057 162.808 76.7574 162.226 73.1977Z" fill="#56595B"/>
<path d="M158.68 86.7517C157.755 88.3391 156.732 89.8683 155.617 91.3307C156.614 90.7155 157.568 90.0347 158.473 89.293C158.473 91.2963 156.769 93.3111 155.491 94.6161C153.552 96.5132 151.183 97.9188 148.583 98.7143C143.805 100.363 137.553 101.507 135.918 107.048C135.665 107.907 135.435 108.799 135.239 109.704C135.239 108.685 135.239 107.666 135.239 106.647C135.18 103.216 134.826 99.796 134.18 96.4248C132.893 89.8204 130.562 83.4606 127.272 77.5822C126.439 75.9655 125.385 74.4709 124.14 73.1406C123.311 72.305 122.402 71.5609 121.515 70.7824C122.919 70.9841 124.281 71.4134 125.545 72.0531C125.971 72.2706 126.696 71.7784 126.443 71.2861C124.671 68.5487 122.312 66.2346 119.535 64.5092C118.064 63.5531 116.524 62.7038 114.93 61.9679C113.372 61.167 111.704 60.5999 109.979 60.2851C109.285 60.2451 108.589 60.2451 107.895 60.2851C107.446 60.3111 106.994 60.2919 106.548 60.2279C107.078 59.9653 107.652 59.8023 108.241 59.7471C109.013 59.6557 109.76 59.4146 110.44 59.0373C110.509 59.0047 110.569 58.9568 110.616 58.8971C110.663 58.8375 110.696 58.7678 110.712 58.6936C110.727 58.6193 110.725 58.5425 110.706 58.4691C110.687 58.3957 110.651 58.3277 110.601 58.2704C108.529 56.5189 105.328 56.1984 102.726 55.9809C99.7752 55.736 96.8041 55.9718 93.9299 56.6792C92.6722 57.0096 91.4806 57.5516 90.4069 58.2818C90.7223 57.613 91.1376 56.9955 91.6388 56.4502C92.3411 55.6489 93.147 54.9163 93.9414 54.1607C94.1947 53.8974 94.1487 53.4624 93.7457 53.4395C92.5104 53.4157 91.292 53.7284 90.2227 54.3439C88.9625 55.0011 87.7775 55.7917 86.6881 56.7021C84.4437 58.4195 82.4989 60.4925 80.9315 62.8379C80.2613 63.7861 79.7841 64.8555 79.5269 65.986C79.101 65.0816 78.675 64.1658 78.2029 63.2844C77.5053 61.9818 76.6168 60.7897 75.5664 59.7471C73.3523 57.8189 70.8803 56.2047 68.221 54.9506C67.8526 54.756 67.1733 55.3169 67.5763 55.6146C69.1415 56.846 70.3364 58.4815 71.0302 60.3424C70.4442 60.1367 69.8714 59.8959 69.3148 59.6212C68.4462 59.1977 67.5121 58.9229 66.5516 58.8084C64.202 58.6577 61.8429 58.7652 59.5171 59.1289C59.1832 59.1289 58.7572 59.7929 59.2408 59.9417C61.0388 60.5251 62.7188 61.4204 64.2029 62.5861C54.9924 62.6776 47.3016 68.8936 42.0631 76.0368C39.0473 79.9928 36.7806 84.4614 35.374 89.2243C33.8427 94.7878 34.1651 100.672 34.2227 106.396C34.2227 109.704 34.1536 113.001 33.9809 116.298C33.8888 118.083 33.7506 119.881 33.5204 121.666C33.1174 117.488 31.7704 113.264 28.5006 110.539C25.2309 107.815 20.8444 106.956 16.8263 105.961C13.1651 105.022 9.21608 103.957 6.30325 101.45C4.89784 100.256 3.90344 98.6553 3.4595 96.8712C3.15018 95.0934 3.22872 93.2703 3.68977 91.5253C4.22804 89.5498 4.4495 87.5022 4.34601 85.4581C4.25845 84.6611 3.97952 83.8967 3.5327 83.2293C3.08588 82.5619 2.48428 82.0111 1.77858 81.6232C5.48582 81.1996 9.5845 83.5922 9.59601 87.6217C9.59601 88.1254 10.2753 87.9307 10.448 87.6217C11.2348 86.3921 11.6356 84.9575 11.5993 83.5006C11.4887 82.2535 11.0257 81.063 10.2638 80.0663C8.64042 77.8455 6.29174 76.2658 4.33451 74.3426C2.37727 72.4194 0.88055 70.2101 1.41015 67.4741C1.57745 66.5656 1.9301 65.7007 2.44635 64.9328C3.22599 63.892 4.18487 62.9967 5.27858 62.2884C7.56664 60.7401 9.70916 58.9891 11.6799 57.0569C13.7825 55.1799 15.3945 52.8227 16.3773 50.1885C16.7188 49.1908 16.8268 48.1288 16.6932 47.0834C16.5595 46.0379 16.1876 45.0366 15.6059 44.1556C16.4986 44.5239 17.2885 45.1012 17.9085 45.8384C18.2452 46.1984 18.5568 46.5809 18.8411 46.9832C19.1244 48.5233 19.6082 50.0203 20.2802 51.4362C19.812 49.4801 19.6106 47.4702 19.6815 45.4607C19.4335 42.5616 19.8998 39.6462 21.0401 36.9666C23.1021 32.6035 26.4619 28.9752 30.6651 26.5723C36.1223 23.2411 42.374 21.7987 48.6947 21.2035C52.022 20.8944 55.3493 20.7685 58.6766 20.551C60.978 20.4689 63.2582 20.084 65.4579 19.4062C67.6787 18.7517 69.6567 17.4618 71.1454 15.6972C72.0916 14.4583 72.5868 12.9368 72.55 11.3815C73.0235 12.2416 73.4092 13.1466 73.7013 14.0832C73.7934 14.3922 73.874 14.7242 73.943 15.0562C73.4665 15.471 73.0238 15.9227 72.619 16.407C72.3601 16.7265 72.129 17.0673 71.9282 17.4258C72.0613 17.2724 72.2036 17.1272 72.3542 16.9908C73.1403 16.3033 74.0061 15.7114 74.9332 15.2279C74.9278 15.2053 74.9278 15.1818 74.9332 15.1592C75.9809 14.3121 77.1207 13.5566 78.2259 12.7781C79.7866 11.7503 81.1771 10.4874 82.3477 9.03482C83.598 7.49651 84.4905 5.70215 84.9612 3.78043C85.1632 2.95685 85.1632 2.09702 84.9612 1.27344C86.3524 2.37542 87.5239 3.7266 88.4151 5.25716C88.6946 5.75227 88.9333 6.2691 89.1289 6.80256C89.6464 7.62929 90.0747 8.50797 90.4069 9.42403L91.1437 8.64561C91.8478 7.14806 92.2395 5.5242 92.295 3.87201C93.4463 5.7265 94.4825 7.70691 95.8296 9.44693C96.7325 10.6444 97.8827 11.6358 99.2029 12.3546C100.729 13.0652 102.363 13.5216 104.038 13.7054C110.267 14.6097 116.922 14.0603 122.839 16.4986C124.435 17.1473 125.905 18.0694 127.18 19.2231C127.47 19.4804 127.743 19.7557 127.997 20.0473C129.071 20.5794 130.079 21.2324 131.002 21.9933C130.726 21.5354 130.438 21.1004 130.127 20.6654C130.162 20.1394 130.162 19.6117 130.127 19.0857C130.097 18.2151 129.86 17.364 129.436 16.6016C129.218 16.2009 128.953 15.8232 128.723 15.4568C129.643 16.1111 130.475 16.8806 131.198 17.7463C132.257 18.8911 133.339 20.0358 134.41 21.1806C136.835 23.7377 138.649 26.8053 139.718 30.1554C140.869 33.9216 140.869 37.871 141.134 41.7517C141.322 44.9334 142.062 48.0588 143.321 50.9898C143.728 51.8678 144.182 52.7237 144.68 53.554C145.635 54.2409 146.614 54.9048 147.593 55.5802C146.994 54.8132 146.441 54.0348 145.912 53.222C145.912 52.9816 145.912 52.7412 145.912 52.5008C145.865 50.5153 146.209 48.5398 146.925 46.6855C146.545 52.7412 152.52 57.8239 156.055 62.1625C157.117 63.4176 158.033 64.7887 158.784 66.2493C159.578 67.8638 160.203 69.5555 160.649 71.2976C161.591 74.7762 161.663 78.4315 160.856 81.9437C160.399 83.6536 159.664 85.2777 158.68 86.7517Z" fill="#C2C4C6"/>
<g style="mix-blend-mode:screen">
<path d="M8.59425 78.1767C7.19576 76.3198 5.99937 74.3205 5.02517 72.2126C4.52359 71.0969 4.30837 69.8749 4.39879 68.6562C4.48921 67.4374 4.88247 66.26 5.54327 65.2296C6.51367 63.8314 7.67629 62.5752 8.99722 61.4978C10.2176 60.353 11.415 59.2998 12.5318 58.0635C14.6386 56.0682 16.1251 53.5134 16.8146 50.7028C17.0067 49.5602 16.9557 48.3903 16.665 47.2686C16.7391 48.2455 16.6298 49.2276 16.3426 50.1648C15.3599 52.799 13.7478 55.1562 11.6452 57.0332C9.68643 58.9717 7.55551 60.7304 5.27846 62.2876C4.19369 62.9799 3.23906 63.8554 2.45774 64.8748C1.94149 65.6427 1.58886 66.5075 1.42156 67.4161C0.880441 70.1864 2.45774 72.4759 4.34589 74.2846C5.70445 75.6812 7.2357 76.8488 8.59425 78.1767Z" fill="#C2C4C6"/>
</g>
<g style="mix-blend-mode:screen">
<path d="M17.6671 69.7408C17.0066 68.0264 16.5769 66.2327 16.3891 64.4063C16.2464 62.9319 16.3396 61.4444 16.6654 59.999C16.0515 61.0863 15.5611 62.2382 15.2033 63.4333C14.6446 65.2902 14.5458 67.2539 14.9154 69.157C15.3004 70.6483 15.9348 72.0646 16.7921 73.3468C17.6279 74.7575 18.6588 76.0445 19.8546 77.1702C20.7257 78.0362 21.797 78.6769 22.9746 79.0362C22.2722 77.4041 21.3672 75.8658 20.2806 74.4572C19.2128 73.001 18.3347 71.4163 17.6671 69.7408Z" fill="#C2C4C6"/>
</g>
<g style="mix-blend-mode:screen">
<path d="M60.8985 27.465C58.2893 28.9696 55.9761 30.9321 54.0712 33.2574C52.5378 35.1783 51.6301 37.5184 51.4692 39.9656C51.4533 41.0276 51.7039 42.0768 52.1984 43.0182C52.6929 43.9597 53.4158 44.7636 54.3014 45.3574C53.8409 43.9608 53.1501 42.6558 52.7126 41.2477C52.2268 39.6661 52.3925 37.9573 53.1732 36.497C54.5952 34.1219 56.5445 32.1015 58.8722 30.5902C60.8985 29.1134 63.0745 27.8657 65.1929 26.5378C67.437 25.1945 69.5392 23.6297 71.4676 21.8672C71.9394 21.4115 72.3853 20.93 72.8031 20.4248C71.6518 21.1689 70.5005 21.8786 69.3492 22.554C66.586 24.2025 63.6732 25.7135 60.8985 27.465Z" fill="#C2C4C6"/>
</g>
<g style="mix-blend-mode:screen">
<path d="M131.774 30.6013C130.346 33.7951 127.825 36.325 125.338 38.7175C123.16 40.693 121.188 42.883 119.455 45.254C120.491 44.5672 121.562 43.949 122.655 43.3423C125.948 41.4993 129.483 39.5761 131.29 36.1075C132.161 34.3286 132.365 32.299 131.866 30.3838L131.774 30.6013Z" fill="#C2C4C6"/>
</g>
<g style="mix-blend-mode:screen">
<path d="M109.219 21.7295C109.629 23.638 109.684 25.6052 109.38 27.5334C109.03 30.0614 108.28 32.5185 107.158 34.8139C108.512 33.774 109.66 32.493 110.543 31.0363C111.59 29.4481 112.023 27.5371 111.764 25.656C111.488 24.2825 110.768 23.0363 109.714 22.1073L109.219 21.7295Z" fill="#C2C4C6"/>
</g>
<g style="mix-blend-mode:screen">
<path d="M84.7308 31.7811C85.9584 31.1305 87.0612 30.2703 87.989 29.2397C89.4184 27.4907 90.4227 25.4374 90.9239 23.2395C91.4251 21.0416 91.4097 18.7584 90.8788 16.5674C89.0827 21.7302 86.1354 26.4809 84.7308 31.7811Z" fill="#C2C4C6"/>
</g>
<g style="mix-blend-mode:screen">
<path d="M21.0054 37.0232C20.6905 37.7306 20.4325 38.4617 20.234 39.2097C20.5343 41.1572 21.2486 43.0187 22.3294 44.6701C23.0413 45.8079 23.6649 46.9981 24.1945 48.2303C24.7139 49.5422 25.0359 50.9231 25.1501 52.3285C25.3053 54.4574 25.0072 56.595 24.2751 58.6017C25.4947 57.1781 26.3166 55.4609 26.6584 53.622C26.8904 52.2832 26.9215 50.9175 26.7505 49.5696C26.5352 48.1659 26.1485 46.7935 25.5991 45.4829C24.7357 43.1934 23.6419 40.7322 23.7916 38.1908C23.9871 36.2587 24.6294 34.3977 25.6682 32.7533C27.6284 29.6513 30.3712 27.1136 33.6238 25.3926C34.8327 24.7057 36.0646 24.099 37.3195 23.5381C34.9779 24.3188 32.7306 25.3554 30.6189 26.6289C26.4199 29.0336 23.0643 32.6617 21.0054 37.0232Z" fill="#C2C4C6"/>
</g>
<g style="mix-blend-mode:multiply">
<path d="M159.451 83.8672C158.626 85.0005 157.646 86.0138 156.539 86.8779C155.036 88.1084 153.389 89.1538 151.634 89.9916C148.399 91.5256 144.461 92.4986 141.065 90.9189C140.998 90.8778 140.943 90.8205 140.905 90.7524C140.867 90.6843 140.847 90.6076 140.847 90.5297C140.847 90.4517 140.867 90.375 140.905 90.3069C140.943 90.2388 140.998 90.1815 141.065 90.1404C143.945 88.3948 146.645 86.3702 149.124 84.0962C151.163 82.145 152.699 79.734 153.603 77.0674C154.637 73.8062 154.839 70.3403 154.19 66.9822C153.373 62.7123 151.427 58.8087 149.849 54.7792C149.677 54.5388 149.493 54.2984 149.331 54.058C149.601 55.3862 149.763 56.7337 149.815 58.0875C149.905 60.8194 149.369 63.5359 148.249 66.0321C147.281 68.2357 145.876 70.2222 144.117 71.8726C142.358 73.523 140.282 74.8032 138.014 75.6365C137.553 75.7968 137.289 75.2015 137.576 74.8924C139.545 72.7685 141.214 70.3886 142.539 67.8179C143.621 65.6296 144.31 63.2704 144.576 60.8464C144.866 58.0743 144.691 55.2735 144.058 52.5584C144.058 52.4439 144.001 52.3295 143.978 52.215C143.748 51.7914 143.529 51.3564 143.333 50.9214C142.074 47.9905 141.334 44.865 141.146 41.6833C140.835 37.8026 140.881 33.8533 139.729 30.087C139.553 29.5223 139.357 28.9728 139.142 28.4386C139.648 30.4436 139.765 32.5259 139.488 34.5744C139.145 36.4238 138.406 38.1782 137.321 39.7188C136.237 41.2594 134.832 42.5501 133.201 43.5035C130.104 45.5068 126.547 46.331 123.208 47.7848C121.684 48.403 120.301 49.3221 119.144 50.4864C117.798 52.0193 116.846 53.8537 116.369 55.8324C116.342 55.9155 116.292 55.9893 116.225 56.045C116.157 56.1007 116.075 56.1361 115.988 56.1469C115.901 56.1577 115.812 56.1436 115.733 56.1061C115.654 56.0686 115.587 56.0094 115.54 55.9354C114.525 54.2433 113.965 52.3191 113.917 50.3491C113.942 48.7108 114.39 47.1064 115.218 45.6899C116.967 43.0303 119.182 40.704 121.757 38.8215C124.152 36.8639 126.938 34.9522 128.665 32.3193C130.635 29.1008 131.29 25.2541 130.496 21.5701C129.72 20.9753 128.887 20.4577 128.009 20.0247C127.882 19.8759 127.733 19.75 127.606 19.6012C128.447 25.3249 124.486 31.0486 119.892 34.0021C118.358 34.9993 116.687 35.7704 114.93 36.2916C112.627 36.9899 110.187 37.3676 107.896 38.1918C105.511 38.9731 103.441 40.4937 101.989 42.5304C100.838 44.2819 100.044 46.2966 98.6274 47.8764C98.5778 47.9242 98.5179 47.9602 98.4523 47.9819C98.3866 48.0035 98.3169 48.0102 98.2484 48.0014C98.1798 47.9926 98.1141 47.9685 98.0562 47.931C97.9982 47.8936 97.9495 47.8436 97.9136 47.7848C96.8775 45.7701 97.4646 43.5493 98.4202 41.6146C99.4459 39.6786 100.6 37.8123 101.874 36.0283C104.027 32.7886 105.904 29.3773 105.869 25.3821C105.727 22.303 104.588 19.352 102.623 16.9682C100.147 13.9989 97.3815 11.2803 94.3676 8.85199L94.759 9.50449C96.2833 12.3017 96.8032 15.532 96.2327 18.6625C95.6456 21.8792 93.861 24.5923 92.0304 27.2366C90.2637 29.5329 88.7722 32.0262 87.5863 34.666C86.4926 37.5028 86.5504 40.6511 87.7475 43.4462C87.9087 43.8583 87.3906 44.0987 87.0798 43.9614C85.7201 43.3921 84.5178 42.5065 83.5741 41.3789C82.6304 40.2514 81.973 38.915 81.6571 37.4821C81.2038 34.9321 81.3857 32.3106 82.1867 29.8466C82.8975 27.3871 83.9393 25.0344 85.2837 22.8522C86.2163 21.3526 87.2294 19.9217 88.0238 18.3305C88.8559 16.6241 89.482 14.8258 89.889 12.9731C90.1445 11.782 90.3024 10.5722 90.361 9.35568C90.0405 8.4626 89.6236 7.60668 89.1176 6.80289C88.922 6.26943 88.6833 5.7526 88.4038 5.25748C87.6659 3.97184 86.7252 2.81234 85.6176 1.82324C85.9721 2.59395 86.2685 3.38984 86.5041 4.20432C87.5169 8.35471 87.0151 12.7278 85.088 16.5447C83.1289 20.3866 80.3838 23.7789 77.0288 26.504C74.2196 28.9881 71.065 31.724 70.7311 35.662C70.5654 37.9044 71.1305 40.1402 72.3429 42.0382C73.613 43.9087 74.9851 45.7086 76.4531 47.43C76.6834 47.7276 76.361 48.0825 76.0617 48.1054C74.3243 48.2299 72.5779 48.0949 70.8808 47.7047C66.5477 46.7253 62.7331 44.1846 60.1735 40.5729C60.2747 43.7269 59.603 46.8581 58.2163 49.6965C56.9814 52.5228 54.9903 54.9579 52.4597 56.7367C52.3727 56.7821 52.2735 56.7986 52.1765 56.7839C52.0794 56.7692 51.9896 56.724 51.9202 56.655C51.8508 56.586 51.8054 56.4967 51.7906 56.4002C51.7758 56.3037 51.7924 56.205 51.838 56.1186C53.2998 53.9946 53.9901 51.4387 53.7952 48.8723C53.5083 46.5102 52.3467 44.339 50.537 42.7823C48.4877 40.8705 45.0913 38.913 46.5419 35.6391C47.5426 33.7358 49.0222 32.1227 50.8363 30.957C52.592 29.7647 54.4533 28.734 56.3972 27.8777C60.3117 26.0461 64.4564 24.3404 67.3577 21.0092C68.3925 19.819 69.253 18.4894 69.9136 17.0598C68.5866 18.1583 67.0578 18.9903 65.412 19.5096C64.4013 19.8396 63.3657 20.0885 62.315 20.2537C59.1674 22.2694 55.7379 23.8123 52.1373 24.8327C48.5337 25.9774 44.861 26.7787 41.2574 27.8891C39.3736 28.4105 37.5397 29.0962 35.7771 29.9382C33.9134 30.7457 32.388 32.1694 31.4597 33.9677C31.0692 34.9584 30.9209 36.0271 31.027 37.0858C31.1331 38.1446 31.4905 39.1632 32.0699 40.0578C33.2709 41.6786 34.8517 42.9832 36.6751 43.8583C38.4597 44.8428 40.3248 45.667 42.0863 46.7088C43.8224 47.5603 45.2709 48.8971 46.2541 50.5551C47.5436 53.3826 44.6538 55.5233 42.4778 56.7253C39.369 58.2678 36.1569 59.595 32.8643 60.6976C28.9383 62.2315 24.4597 63.9029 23.1472 68.333C21.5353 73.782 25.1044 78.5327 26.8429 83.4437C26.9811 83.8329 26.4975 84.1305 26.1752 83.9474C24.2883 82.9809 22.5027 81.8305 20.8446 80.5131C18.3018 78.456 16.3218 75.7944 15.088 72.7746C14.0901 70.1585 13.6093 67.3755 13.6719 64.5783C12.3213 67.4592 11.521 70.5646 11.3117 73.7362C11.2256 76.9971 12.1764 80.2019 14.0288 82.8942C16.0321 85.8591 18.8643 88.057 21.4663 90.461C23.7487 92.3659 25.6306 94.7 27.0041 97.3295C28.2882 100.282 28.5197 103.581 27.6603 106.682C27.6301 106.774 27.5715 106.853 27.4929 106.91C27.4143 106.967 27.3198 106.997 27.2229 106.997C27.1259 106.997 27.0313 106.967 26.9528 106.91C26.8742 106.853 26.8156 106.774 26.7854 106.682C26.5039 105.115 25.7252 103.679 24.5633 102.584C23.4848 101.716 22.2074 101.126 20.8446 100.867C18.2541 100.283 15.5715 100.329 12.9465 99.9738C10.3215 99.6189 7.78863 98.8291 6.361 96.5396C4.93337 94.2501 4.9564 91.1707 4.65706 88.5264C4.5987 87.9612 4.51032 87.3995 4.39226 86.8436C4.27919 88.3866 4.04046 89.9179 3.67843 91.4226C3.21738 93.1676 3.13886 94.9907 3.44817 96.7685C3.89212 98.5526 4.88652 100.154 6.29193 101.348C9.20475 103.855 13.1998 104.919 16.815 105.858C20.833 106.9 25.2196 107.758 28.4893 110.437C31.759 113.116 33.0946 117.385 33.509 121.564C33.7393 119.778 33.8774 117.981 33.9695 116.195C34.1422 112.898 34.2344 109.601 34.2113 106.293C34.2113 100.569 33.8775 94.7309 35.3626 89.1216C36.7936 84.3876 39.0756 79.9506 42.0979 76.0257C47.3363 68.8825 55.0502 62.6665 64.2377 62.5749C62.7484 61.4336 61.0687 60.5617 59.2755 59.9993C58.7919 59.8504 59.2755 59.2323 59.5518 59.1865C61.8776 58.8227 64.2368 58.7152 66.5863 58.866C67.5468 58.9804 68.481 59.2552 69.3495 59.6787C69.9061 59.9535 70.479 60.1943 71.0649 60.3999C70.3711 58.5391 69.1763 56.9036 67.611 55.6721C67.208 55.3745 67.8873 54.8136 68.2558 55.0082C70.9151 56.2623 73.387 57.8765 75.6011 59.8047C76.6515 60.8473 77.5401 62.0394 78.2377 63.3419C78.7097 64.2234 79.1357 65.1392 79.5617 66.0435C79.7816 64.9262 80.2154 63.8614 80.8396 62.9069C82.407 60.5615 84.3518 58.4885 86.5962 56.7711C87.6855 55.8608 88.8706 55.0701 90.1308 54.4129C91.2001 53.7974 92.4184 53.4847 93.6538 53.5086C94.0567 53.5086 94.1028 53.9664 93.8495 54.2297C93.0781 54.9738 92.2722 55.7065 91.5469 56.5192C91.0457 57.0645 90.6304 57.682 90.3149 58.3508C91.3887 57.6206 92.5803 57.0786 93.838 56.7482C96.7122 56.0408 99.6833 55.805 102.634 56.0499C105.236 56.2216 108.391 56.5421 110.509 58.3394C110.559 58.3967 110.595 58.4647 110.614 58.5381C110.633 58.6115 110.635 58.6884 110.62 58.7626C110.604 58.8368 110.571 58.9065 110.524 58.9661C110.477 59.0258 110.417 59.0738 110.348 59.1064C109.669 59.4836 108.921 59.7247 108.149 59.8161C107.56 59.8713 106.986 60.0343 106.456 60.2969C106.902 60.361 107.354 60.3801 107.803 60.3541C108.497 60.3141 109.193 60.3141 109.887 60.3541C111.612 60.6689 113.28 61.236 114.838 62.0369C116.433 62.7728 117.972 63.6221 119.443 64.5783C122.22 66.3036 124.579 68.6177 126.351 71.3551C126.662 71.8474 125.879 72.3396 125.453 72.1221C124.189 71.4824 122.828 71.0532 121.424 70.8515C122.31 71.6299 123.22 72.374 124.049 73.2096C125.293 74.5399 126.347 76.0345 127.18 77.6513C130.47 83.5297 132.801 89.8894 134.088 96.4938C134.734 99.865 135.088 103.285 135.147 106.716C135.147 107.735 135.147 108.754 135.147 109.773C135.343 108.869 135.573 107.976 135.826 107.117C137.473 101.576 143.724 100.432 148.491 98.7833C151.091 97.9878 153.46 96.5822 155.399 94.6851C156.677 93.3801 158.427 91.3653 158.381 89.362C157.476 90.1037 156.522 90.7845 155.525 91.3997C156.64 89.9374 157.663 88.4081 158.588 86.8207C159.571 85.3242 160.298 83.6764 160.741 81.9441C160.822 81.6121 160.879 81.2801 160.948 80.9481C160.541 81.9651 160.04 82.9423 159.451 83.8672Z" fill="#9EA1A3"/>
</g>
<g style="mix-blend-mode:multiply">
<path d="M125.119 69.5115L126.777 69.8434C125.867 67.8083 124.582 65.9602 122.989 64.3944C119.749 61.1072 115.949 58.4173 111.764 56.4499C109.476 55.3571 107.058 54.5571 104.568 54.0688C102.266 53.6109 99.8593 54.149 97.5336 53.7483C97.4585 53.7271 97.3902 53.6867 97.3356 53.6312C97.2809 53.5757 97.2418 53.507 97.222 53.4318C97.2022 53.3567 97.2025 53.2777 97.2229 53.2027C97.2432 53.1277 97.2828 53.0593 97.3379 53.0042C99.2933 51.1545 101.66 49.7896 104.246 49.0205C101.147 48.5346 97.9736 48.8541 95.0353 49.9477C91.6047 51.1578 88.3552 52.8253 85.3757 54.9045C85.297 54.9475 85.2073 54.9666 85.1178 54.9596C85.0282 54.9526 84.9427 54.9197 84.8717 54.8649C84.8008 54.8102 84.7474 54.736 84.7183 54.6515C84.6892 54.567 84.6856 54.4759 84.7079 54.3894C85.7796 50.9367 87.3753 47.667 89.4399 44.6934C83.9251 47.2004 80.1603 52.9928 79.3889 58.8882C79.3912 58.9878 79.36 59.0854 79.3001 59.1653C79.2403 59.2452 79.1553 59.3029 79.0586 59.3293C78.962 59.3556 78.8592 59.349 78.7668 59.3106C78.6743 59.2721 78.5974 59.2041 78.5484 59.1172C77.0517 56.6331 75.6701 53.8513 73.5632 51.7908C74.2544 53.7019 74.7106 55.6891 74.9218 57.7091C74.9218 58.1212 74.4037 58.2701 74.1504 58.0297C70.2589 54.3665 65.2277 50.0164 59.5056 51.0353C61.1635 52.8783 63.1438 54.4695 64.1109 56.759C64.226 57.0566 63.9267 57.3085 63.6734 57.3314C62.1767 57.4687 60.6915 57.629 59.2063 57.8351C56.2996 58.1991 53.4373 58.8549 50.6635 59.7926C48.7143 60.4452 46.9032 61.4504 45.3214 62.7575C47.1171 62.0358 48.9693 61.4615 50.8593 61.0403C53.1619 60.5824 55.9366 60.4107 57.583 62.3339C57.7556 62.5285 57.7787 62.9177 57.4908 63.0322C52.844 65.0622 48.4792 67.6785 44.504 70.8165C40.8489 73.561 37.6346 76.8419 34.9711 80.5468C32.2472 84.6196 30.775 89.3929 30.7343 94.2838C30.55 101.53 32.5418 108.524 34.0155 115.576C34.1652 112.508 34.2458 109.44 34.2343 106.361C34.2343 100.637 33.9004 94.7989 35.3856 89.1897C36.8018 84.4332 39.0762 79.9724 42.0978 76.0251C47.3362 68.8819 55.0501 62.6659 64.2376 62.5743C62.7483 61.433 61.0686 60.5611 59.2754 59.9986C58.7918 59.8498 59.2754 59.2316 59.5517 59.1859C61.8775 58.8221 64.2367 58.7146 66.5862 58.8653C67.5467 58.9798 68.4809 59.2546 69.3494 59.6781C69.906 59.9528 70.4789 60.1937 71.0648 60.3993C70.371 58.5384 69.1762 56.903 67.6109 55.6715C67.2079 55.3738 67.8872 54.8129 68.2557 55.0075C70.915 56.2617 73.3869 57.8758 75.601 59.804C76.6514 60.8466 77.54 62.0387 78.2376 63.3413C78.7096 64.2227 79.1356 65.1385 79.5616 66.0429C79.7815 64.9256 80.2153 63.8607 80.8395 62.9063C82.4069 60.5608 84.3517 58.4879 86.5961 56.7704C87.6854 55.8601 88.8705 55.0695 90.1307 54.4123C91.2 53.7968 92.4183 53.484 93.6537 53.5079C94.0566 53.5079 94.1027 53.9658 93.8494 54.2291C93.078 54.9732 92.2721 55.7058 91.5468 56.5186C91.0456 57.0639 90.6303 57.6814 90.3148 58.3502C91.3886 57.62 92.5802 57.0779 93.8379 56.7475C96.7121 56.0402 99.6832 55.8043 102.634 56.0492C105.236 56.221 108.391 56.5415 110.509 58.3387C110.559 58.396 110.595 58.4641 110.614 58.5375C110.633 58.6109 110.635 58.6877 110.62 58.762C110.604 58.8362 110.571 58.9059 110.524 58.9655C110.477 59.0251 110.417 59.0731 110.348 59.1057C109.668 59.4829 108.921 59.7241 108.149 59.8155C107.56 59.8707 106.986 60.0337 106.456 60.2963C106.902 60.3603 107.354 60.3795 107.803 60.3535C108.497 60.3134 109.193 60.3134 109.887 60.3535C111.612 60.6682 113.28 61.2353 114.838 62.0363C116.432 62.7721 117.972 63.6215 119.443 64.5776C121.591 65.9069 123.507 67.5731 125.119 69.5115Z" fill="#C2C4C6"/>
</g>
<path d="M29.7903 43.4002C27.3841 41.5801 25.0584 39.6226 23.9647 36.7263C22.8916 33.8091 22.9408 30.6005 24.1028 27.7172C24.7502 26.0832 25.7711 24.6214 27.0847 23.4473C27.4877 23.081 26.912 22.8062 26.5666 23.1039C24.2193 25.2865 22.7943 28.2749 22.5805 31.4634C22.3667 34.6519 23.3801 37.8019 25.4153 40.2751C26.6277 41.5634 27.979 42.7151 29.4449 43.7093C29.6406 43.8696 30.0206 43.549 29.7903 43.4002Z" fill="#56595B"/>
<path d="M38.16 19.6117C35.5972 20.6904 33.2967 22.3025 31.4133 24.3395C30.5257 25.3745 29.8531 26.574 29.4342 27.8688C29.0153 29.1636 28.8583 30.528 28.9725 31.8834C28.9725 32.1925 29.4906 32.0208 29.479 31.7804C29.3735 30.4577 29.5474 29.1277 29.9895 27.8758C30.4317 26.6239 31.1323 25.4779 32.0465 24.5112C33.9258 22.7308 36.0693 21.2482 38.4017 20.1154C38.7471 19.9323 38.5629 19.4286 38.16 19.6117Z" fill="#56595B"/>
<path d="M58.6883 17.2772C57.803 18.0231 57.0617 18.923 56.5008 19.933C55.9205 20.8537 55.6804 21.9464 55.8215 23.0238C55.8791 23.2757 56.282 23.0238 56.259 22.8407C56.2261 21.8187 56.5382 20.8153 57.1455 19.9902C57.6929 19.1508 58.3426 18.3818 59.0797 17.7007C59.4021 17.3688 58.9876 17.0139 58.6883 17.2772Z" fill="#56595B"/>
<path d="M114.423 14.3008C113.39 11.7093 111.54 9.52048 109.15 8.06194C108.828 7.89023 108.241 8.38247 108.598 8.63432C110.769 10.2157 112.526 12.2925 113.721 14.69C114.986 17.0945 115.454 19.8353 115.056 22.5201C115.056 22.7834 115.459 22.6346 115.494 22.4285C115.985 19.6743 115.612 16.8363 114.423 14.3008Z" fill="#56595B"/>
<path d="M117.336 13.3501C116.472 11.5618 115.17 10.0186 113.548 8.86272C113.249 8.63377 112.685 9.1489 112.996 9.43509C114.422 10.652 115.623 12.1089 116.542 13.7393C117.397 15.4266 117.876 17.2774 117.946 19.1654C117.946 19.5775 118.614 19.3486 118.614 19.0281C118.591 17.0676 118.155 15.1336 117.336 13.3501Z" fill="#56595B"/>
<path d="M142.63 30.2925C142.538 29.9376 141.928 30.2124 141.951 30.51C142.164 33.2282 141.635 35.9532 140.42 38.3973C139.16 40.8061 137.697 43.1039 136.045 45.2658C135.792 45.6092 136.356 45.6664 136.54 45.4146C138.318 43.1603 139.904 40.7634 141.283 38.2485C142.469 35.8102 143.379 32.9597 142.63 30.2925Z" fill="#56595B"/>
<path d="M142.976 37.5955C142.203 39.5837 141.089 41.4235 139.684 43.033C139.384 43.3535 139.845 43.5825 140.098 43.3078C140.878 42.487 141.573 41.5895 142.17 40.629C142.808 39.7036 143.293 38.6836 143.61 37.6069C143.725 37.1032 143.103 37.2978 142.976 37.5955Z" fill="#56595B"/>
<path d="M160.315 63.8332C160.108 63.6386 159.739 64.0164 159.843 64.2453C160.269 65.0719 160.523 65.975 160.591 66.9011C160.605 67.8429 160.473 68.7811 160.2 69.6829C159.705 71.4458 158.887 73.1171 158.231 74.7999C158.093 75.1662 158.669 75.0746 158.772 74.7999C159.666 72.9679 160.435 71.0787 161.075 69.1448C161.558 67.4163 161.777 65.184 160.315 63.8332Z" fill="#56595B"/>
<path d="M134.479 59.9987C134.387 59.9798 134.292 59.9894 134.205 60.0263C134.119 60.0631 134.046 60.1254 133.996 60.2047C133.332 61.1442 132.593 62.0286 131.785 62.8491C130.958 63.6643 130.081 64.4288 129.16 65.1386C128.873 65.3675 129.103 65.711 129.414 65.4934C131.47 64.1755 133.23 62.4489 134.583 60.4222C134.619 60.3936 134.646 60.3554 134.661 60.3121C134.676 60.2688 134.678 60.2221 134.667 60.1776C134.656 60.1331 134.633 60.0926 134.6 60.0609C134.566 60.0292 134.525 60.0076 134.479 59.9987Z" fill="#56595B"/>
<path d="M134.905 63.7879C134.827 63.7616 134.741 63.7596 134.661 63.7821C134.581 63.8045 134.51 63.8504 134.456 63.9138C133.789 64.5091 133.098 65.0586 132.373 65.6424C131.647 66.2262 130.887 66.707 130.15 67.245C130.024 67.3252 129.909 67.4969 130.012 67.6457C130.116 67.7945 130.312 67.7258 130.427 67.6457C131.981 66.5009 133.789 65.6767 135.032 64.1428C135.054 64.1127 135.068 64.0779 135.073 64.0412C135.078 64.0046 135.075 63.9672 135.062 63.9323C135.05 63.8974 135.029 63.8661 135.002 63.8409C134.974 63.8158 134.941 63.7976 134.905 63.7879Z" fill="#56595B"/>
<path d="M32.1966 76.1285C30.8302 75.6014 29.6077 74.7622 28.6275 73.6788C27.6906 72.5756 26.9154 71.3462 26.3249 70.027C26.1752 69.7294 25.6341 70.1072 25.7032 70.3705C26.1005 71.8552 26.8965 73.2045 28.0058 74.274C29.0964 75.3497 30.4138 76.1709 31.8628 76.678C32.1506 76.781 32.565 76.2659 32.1966 76.1285Z" fill="#56595B"/>
<path d="M29.8937 78.315C29.1132 77.8405 28.4104 77.2498 27.8098 76.5636C27.2079 75.8764 26.643 75.158 26.1174 74.4115C25.9102 74.1138 25.3921 74.5145 25.5302 74.8121C25.9363 75.6588 26.481 76.4324 27.1421 77.1016C27.8001 77.7822 28.5475 78.3714 29.3641 78.8531C29.675 79.0362 30.2276 78.5211 29.8937 78.315Z" fill="#56595B"/>
</g>
</svg>
