<svg width="209" height="175" viewBox="0 0 209 175" fill="none" xmlns="http://www.w3.org/2000/svg">
<g opacity="0.7">
<path d="M63.8079 131.368C63.7572 129.086 63.516 126.812 63.0867 124.571C62.7199 122.627 62.3531 120.646 61.8641 118.739C61.666 118.004 61.3915 117.291 61.045 116.612C60.8739 115.279 60.6661 113.947 60.3727 112.639C59.9119 110.124 58.9471 107.729 57.5364 105.597C56.8781 104.65 56.0036 103.873 54.9853 103.331C53.9669 102.788 52.8341 102.497 51.6805 102.48C50.1356 102.47 48.6158 102.87 47.2757 103.639C45.9357 104.407 44.8233 105.518 44.052 106.856C42.2917 109.979 41.4445 113.533 41.6069 117.113C41.7735 121.365 42.8446 125.533 44.7488 129.338C46.2823 132.82 48.5954 135.903 51.5094 138.348C53.9544 140.207 57.8054 142.187 60.7516 140.488C63.6979 138.789 63.8079 134.449 63.8079 131.368Z" fill="#A05627"/>
<path d="M62.8421 134.339C62.8196 135.902 62.3762 137.431 61.5585 138.764C59.5658 141.576 55.6048 139.987 53.2698 138.483C50.4193 136.51 48.0943 133.87 46.497 130.793C42.8294 124.289 40.8367 116.037 43.7708 108.873C44.9933 105.976 47.1327 103.617 50.3602 103.238C51.4788 103.084 52.6181 103.214 53.6734 103.615C54.7287 104.017 55.6661 104.677 56.3994 105.536C57.8537 107.372 58.8772 109.511 59.3946 111.795C59.7858 113.238 60.0915 114.693 60.3604 116.147C60.1404 116.257 59.957 116.514 60.067 116.734C60.3433 117.284 60.5723 117.857 60.7516 118.446V118.654C60.825 119.13 60.8983 119.595 60.9839 120.072C60.9839 120.182 61.0939 120.194 61.1795 120.157C61.314 120.744 61.4362 121.38 61.5585 121.918C61.9497 123.886 62.3898 125.83 62.6343 127.835C62.9176 129.991 62.9872 132.169 62.8421 134.339Z" fill="#F6C3A4"/>
<g style="mix-blend-mode:multiply">
<path d="M62.6706 127.835C62.4261 125.83 61.9859 123.886 61.5947 121.918C61.4725 121.331 61.3502 120.696 61.2158 120.158C61.1302 120.158 61.0324 120.158 61.0202 120.072C60.9346 119.595 60.8612 119.131 60.7879 118.654V118.446C60.6086 117.857 60.3795 117.285 60.1033 116.735C59.9932 116.515 60.1766 116.258 60.3967 116.148C60.1277 114.693 59.8221 113.238 59.4309 111.796C58.9135 109.511 57.8899 107.372 56.4357 105.536C55.5612 104.52 54.4034 103.788 53.1104 103.434C54.0291 105.51 54.5991 107.724 54.7975 109.986C54.7975 110.561 54.0151 110.61 53.8562 110.121C53.2938 108.373 51.3256 105.72 49.1861 106.307C47.6824 106.722 46.9367 108.324 46.5455 109.693C45.7883 112.552 45.7005 115.547 46.2888 118.446C46.725 120.642 47.5532 122.742 48.7338 124.644C49.2962 125.573 49.9563 126.466 50.5676 127.346C51.1788 128.226 51.7901 128.923 52.3402 129.791C54.0439 132.678 54.8919 135.989 54.7853 139.339C57.0592 140.427 59.9321 141.026 61.5336 138.777C62.3513 137.444 62.7947 135.915 62.8173 134.351C62.9834 132.18 62.9343 129.997 62.6706 127.835Z" fill="#F6C3A4"/>
</g>
<path d="M56.4725 123.801C56.1571 120.86 55.5259 117.962 54.5899 115.157C54.1501 113.819 53.6191 112.511 53.0006 111.245C52.5868 110.319 51.9272 109.524 51.0934 108.947C49.0396 107.724 47.5604 109.815 46.9124 111.551C45.8244 114.424 46.2523 117.553 46.8146 120.5C46.8146 120.72 47.2425 120.5 47.2058 120.329C46.6499 117.86 46.6249 115.301 47.1325 112.822C47.3441 111.577 47.9431 110.431 48.844 109.546C49.602 108.984 50.4455 109.546 50.9956 110.133C51.6949 110.959 52.2338 111.908 52.5849 112.932C53.0739 114.155 53.514 115.377 53.8808 116.6C54.6289 119.07 55.1968 121.591 55.5801 124.143C55.5801 124.51 55.6657 124.864 55.7146 125.219H55.6168C55.3475 125.191 55.0815 125.137 54.8221 125.06C54.2484 124.91 53.6973 124.684 53.184 124.387C52.1516 123.862 51.2622 123.095 50.5922 122.15C50.47 121.979 50.1154 122.224 50.2255 122.395C50.8661 123.411 51.6962 124.295 52.6705 124.999C53.1757 125.342 53.722 125.622 54.2965 125.83C54.7585 126.028 55.2628 126.108 55.7635 126.062C56.008 128.299 56.0936 130.537 56.2892 132.786C56.2892 133.043 56.7415 132.786 56.7537 132.639C56.9451 129.691 56.851 126.731 56.4725 123.801Z" fill="#A05627"/>
<path d="M159.935 140.476C162.881 142.175 166.805 140.195 169.189 138.337C172.1 135.888 174.412 132.806 175.95 129.327C177.848 125.519 178.919 121.353 179.092 117.102C179.254 113.521 178.407 109.967 176.647 106.845C175.874 105.507 174.762 104.397 173.422 103.629C172.082 102.86 170.563 102.459 169.018 102.468C167.864 102.484 166.731 102.775 165.713 103.318C164.694 103.86 163.82 104.637 163.162 105.585C161.747 107.715 160.781 110.111 160.326 112.627C160.033 113.935 159.825 115.268 159.641 116.6C159.294 117.277 159.023 117.99 158.835 118.727C158.297 120.635 157.93 122.615 157.612 124.559C157.177 126.8 156.935 129.074 156.891 131.356C156.793 134.449 156.891 138.716 159.935 140.476Z" fill="#A05627"/>
<path d="M157.942 127.835C158.186 125.83 158.614 123.886 159.006 121.918C159.128 121.331 159.25 120.695 159.385 120.157C159.482 120.157 159.568 120.157 159.592 120.072C159.666 119.595 159.739 119.13 159.825 118.654C159.831 118.585 159.831 118.515 159.825 118.446C160.008 117.857 160.241 117.284 160.521 116.734C160.632 116.514 160.448 116.258 160.228 116.147C160.497 114.693 160.79 113.238 161.182 111.795C161.71 109.513 162.737 107.375 164.189 105.536C164.92 104.678 165.855 104.017 166.908 103.615C167.962 103.214 169.099 103.084 170.216 103.238C173.456 103.617 175.62 105.976 176.805 108.873C179.74 116.037 177.747 124.289 174.079 130.793C172.489 133.875 170.163 136.517 167.306 138.483C164.984 139.962 161.023 141.576 159.018 138.764C158.2 137.431 157.757 135.902 157.734 134.339C157.595 132.169 157.665 129.991 157.942 127.835Z" fill="#F6C3A4"/>
<g style="mix-blend-mode:multiply">
<path d="M157.942 127.835C158.186 125.83 158.614 123.886 159.005 121.918C159.128 121.331 159.25 120.696 159.384 120.158C159.482 120.158 159.568 120.158 159.592 120.072C159.666 119.595 159.739 119.131 159.825 118.654C159.83 118.585 159.83 118.515 159.825 118.446C160.008 117.857 160.241 117.284 160.521 116.735C160.631 116.515 160.448 116.258 160.228 116.148C160.497 114.693 160.79 113.238 161.182 111.796C161.71 109.513 162.737 107.376 164.189 105.536C165.061 104.518 166.22 103.785 167.514 103.434C166.592 105.51 166.018 107.724 165.815 109.986C165.754 110.561 166.61 110.61 166.756 110.121C167.331 108.373 169.287 105.72 171.426 106.307C172.93 106.722 173.676 108.324 174.079 109.693C174.83 112.553 174.918 115.547 174.336 118.446C173.9 120.642 173.071 122.742 171.891 124.644C171.329 125.573 170.668 126.466 170.057 127.346C169.446 128.226 168.835 128.923 168.272 129.791C166.568 132.677 165.72 135.989 165.827 139.339C163.553 140.427 160.668 141.026 159.067 138.777C158.249 137.444 157.806 135.915 157.783 134.351C157.627 132.179 157.68 129.997 157.942 127.835Z" fill="#F6C3A4"/>
</g>
<path d="M164.128 123.801C164.444 120.86 165.075 117.962 166.011 115.157C166.456 113.82 166.987 112.514 167.6 111.245C168.014 110.316 168.679 109.52 169.519 108.947C171.573 107.724 173.04 109.815 173.7 111.551C174.776 114.424 174.348 117.553 173.798 120.5C173.798 120.72 173.37 120.5 173.407 120.329C173.957 117.859 173.982 115.302 173.48 112.822C173.269 111.577 172.67 110.431 171.769 109.546C170.999 108.984 170.167 109.546 169.617 110.133C168.919 110.962 168.376 111.91 168.016 112.932C167.539 114.155 167.099 115.377 166.72 116.6C165.981 119.072 165.418 121.592 165.033 124.143C164.972 124.51 164.935 124.864 164.898 125.219H164.984C165.257 125.189 165.527 125.136 165.791 125.06C166.364 124.91 166.915 124.684 167.429 124.387C168.461 123.862 169.351 123.095 170.021 122.15C170.143 121.979 170.497 122.224 170.375 122.395C169.738 123.414 168.907 124.299 167.93 124.999C167.429 125.343 166.887 125.622 166.316 125.83C165.85 126.028 165.342 126.108 164.837 126.062C164.605 128.299 164.519 130.537 164.311 132.786C164.311 133.043 163.871 132.786 163.847 132.639C163.662 129.691 163.756 126.731 164.128 123.801Z" fill="#A05627"/>
<path d="M163.651 113.006C163.651 112.481 163.566 111.967 163.529 111.454C162.453 97.7247 165.742 75.8416 158.81 63.5797C146.316 41.4765 110.386 42.8579 102.122 43.2858C93.9933 43.6528 86.0277 45.6921 78.7228 49.2762C71.5099 52.9437 64.8961 58.0783 60.7639 65.1078C55.6416 73.8244 55.7883 85.0105 56.3262 94.8029C57.0964 109.143 54.9081 123.544 56.4973 137.872C57.9644 151.039 66.6198 158.888 77.5125 165.636C86.7929 171.412 97.4988 174.49 108.43 174.524C125.362 174.524 140.338 166.748 152.062 154.963C163.786 143.178 165.008 128.948 163.651 113.006Z" fill="#FBD0B4"/>
<g style="mix-blend-mode:multiply">
<path d="M93.8331 104.753C96.7547 107.373 99.1309 110.542 100.826 114.081C100.166 108.69 99.3956 103.286 97.2929 98.2496C96.5924 96.39 95.5215 94.692 94.145 93.2588C92.7685 91.8256 91.1152 90.6869 89.2854 89.912C85.8717 88.6598 82.1441 88.5483 78.6616 89.5941C72.1211 91.4157 66.6565 96.6603 65.5195 103.348C67.6254 100.858 70.6327 99.3064 73.8816 99.032C73.9664 99.0309 74.05 99.0524 74.1237 99.0944C74.1975 99.1363 74.2587 99.1972 74.301 99.2707C74.3434 99.3442 74.3654 99.4277 74.3647 99.5125C74.364 99.5973 74.3407 99.6805 74.2972 99.7533C73.3554 101.317 72.5379 102.952 71.8522 104.643C69.3093 110.756 68.5025 117.969 71.4854 124.118C71.6199 124.399 71.4854 124.888 71.0698 124.839C69.6011 124.659 68.1124 124.932 66.8032 125.622C66.3386 125.854 65.8863 126.123 65.4462 126.38C66.1923 126.398 66.936 126.472 67.6712 126.6C69.3291 126.886 70.9636 127.295 72.5613 127.822C74.0405 128.287 75.5564 128.739 76.9868 129.338C79.7273 130.547 82.1318 132.406 83.9918 134.754C83.4796 133.24 82.6967 131.832 81.6813 130.598C81.4857 130.341 81.5101 129.864 81.9013 129.791C84.2976 129.416 86.6279 128.7 88.8208 127.663C90.8344 126.686 92.5674 125.214 93.8576 123.385C95.0218 121.636 95.7242 119.622 95.8992 117.529C96.0768 113.275 95.1055 109.052 93.0874 105.304C93.046 105.205 93.0389 105.095 93.0673 104.992C93.0957 104.889 93.1579 104.799 93.2439 104.735C93.33 104.672 93.4348 104.639 93.5417 104.642C93.6485 104.646 93.7512 104.685 93.8331 104.753Z" fill="#F6C3A4"/>
</g>
<g style="mix-blend-mode:multiply">
<path d="M147.648 123.678C147.567 123.7 147.481 123.699 147.399 123.678C147.318 123.656 147.243 123.613 147.183 123.554C147.122 123.495 147.078 123.422 147.055 123.34C147.032 123.259 147.03 123.174 147.049 123.091C148.822 117.272 150.448 110.341 147.893 104.497C147.685 104.02 148.235 103.507 148.651 103.91C150.401 105.789 152.034 107.773 153.541 109.852C153.811 105.897 153.058 101.939 151.353 98.3598C149.748 94.8489 147.163 91.877 143.907 89.8021C140.104 87.4965 135.552 86.7623 131.216 87.755C126.88 88.7476 123.101 91.3892 120.679 95.1201L120.606 95.2546C118.996 98.7374 117.936 102.449 117.464 106.257C117.006 110.148 117.006 114.079 117.464 117.969C118.247 113.47 119.237 108.531 123.357 106.147C123.439 106.103 123.533 106.083 123.627 106.09C123.72 106.097 123.81 106.131 123.884 106.188C123.959 106.245 124.016 106.322 124.048 106.41C124.08 106.498 124.086 106.594 124.066 106.685C123.813 108.014 123.462 109.321 123.015 110.597C122.613 111.839 122.451 113.146 122.538 114.448C122.749 116.839 123.293 119.188 124.151 121.429C124.842 123.393 125.928 125.194 127.342 126.722C128.632 128.086 130.211 129.143 131.962 129.818C133.713 130.493 135.593 130.768 137.465 130.622C137.856 130.622 138.015 131.05 137.88 131.343C136.658 133.996 135.105 136.771 135.228 139.742C136.086 138.338 137.016 136.979 138.015 135.671C140.147 132.902 142.676 130.463 145.521 128.434C148.263 126.539 151.254 125.034 154.409 123.959C153.357 123.468 152.217 123.189 151.057 123.141C149.896 123.093 148.738 123.275 147.648 123.678Z" fill="#F6C3A4"/>
</g>
<g style="mix-blend-mode:multiply">
<path d="M163.651 113.006C163.651 112.481 163.566 111.967 163.529 111.454C162.918 103.678 163.712 93.287 163.248 83.5068C162.93 86.2697 162.453 89.0204 161.927 91.7222C161.475 94.0816 160.925 96.4289 160.473 98.7884C159.974 101.387 159.663 104.018 159.543 106.661C159.262 111.882 159.543 117.114 159.751 122.334C160.057 130.158 159.079 137.97 155.203 144.914C151.067 151.92 145.111 157.674 137.966 161.565C130.493 165.702 122.274 168.316 113.784 169.255C105.743 170.393 97.5512 169.793 89.7619 167.494C82.0265 165.119 74.9718 160.927 69.1868 155.269C66.3995 152.547 64.0638 149.398 62.2673 145.941C60.173 141.584 59.0747 136.814 59.0521 131.98C59.0805 127.165 59.3539 122.354 59.8712 117.566C60.2746 112.582 60.2746 107.574 59.8712 102.59C59.4721 97.5532 58.4832 92.5802 56.9249 87.7734L56.118 85.414C56.118 88.5803 56.1914 91.7344 56.3626 94.754C57.1327 109.094 54.9444 123.496 56.5337 137.824C58.0007 150.99 66.6562 158.839 77.5489 165.587C86.8293 171.363 97.5352 174.441 108.466 174.475C125.398 174.475 140.374 166.699 152.098 154.914C163.822 143.129 165.008 128.948 163.651 113.006Z" fill="#F6C3A4"/>
</g>
<g style="mix-blend-mode:multiply">
<path d="M112.097 137.763C110.615 138.638 108.969 139.198 107.261 139.408C105.553 139.619 103.82 139.475 102.17 138.985C100.185 138.389 98.4879 137.084 97.4025 135.317C97.4325 136.45 97.5552 137.579 97.7692 138.692C98.0867 140.99 99.1573 143.118 100.813 144.743C101.867 145.564 103.094 146.133 104.402 146.406C105.709 146.68 107.062 146.65 108.356 146.32C113.528 145.098 115.141 139.706 115.08 134.938C114.289 136.074 113.274 137.035 112.097 137.763Z" fill="#F6C3A4"/>
</g>
<path d="M108.295 175C97.3234 174.923 86.5845 171.827 77.2555 166.051C67.6342 160.085 57.5973 152.09 56.0202 137.933C55.3326 129.887 55.2304 121.801 55.7146 113.739C55.9469 107.541 56.1792 101.123 55.8369 94.8391C55.3112 84.9612 55.1767 73.6895 60.348 64.8751C64.1256 58.4324 70.4093 52.8944 78.478 48.8356C85.8489 45.2369 93.8788 43.1857 102.073 42.8086C140.57 40.8403 154.397 54.826 159.201 63.3347C164.091 72.088 163.957 85.6336 163.798 97.5654C163.724 102.602 163.663 107.346 163.981 111.392C163.981 111.906 164.067 112.419 164.103 112.945C165.326 127.517 164.788 142.713 152.379 155.232C139.616 168.105 124.408 174.927 108.369 174.975L108.295 175ZM109.249 43.6277C106.987 43.6277 104.616 43.6277 102.146 43.8111C94.0788 44.1843 86.1737 46.2064 78.9181 49.7525C70.9961 53.7135 64.8591 59.1293 61.1671 65.4008C56.118 73.9585 56.277 85.0834 56.7904 94.8147C57.1327 101.147 56.9005 107.59 56.6682 113.813C56.1885 121.793 56.2906 129.797 56.9738 137.762C58.502 151.515 68.3433 159.339 77.7567 165.183C86.9398 170.875 97.516 173.921 108.32 173.985H108.454C124.2 173.985 139.164 167.225 151.744 154.535C163.871 142.31 164.421 127.334 163.199 112.969C163.199 112.443 163.113 111.918 163.064 111.404C162.759 107.321 162.82 102.553 162.893 97.492C163.052 85.658 163.235 72.2469 158.419 63.7259C153.993 56.0363 141.854 43.6277 109.249 43.6277Z" fill="#B56A4D"/>
<path d="M98.2218 92.1865C98.1485 91.8687 97.6228 92.1865 97.6717 92.4066C97.071 90.7615 96.2127 89.2222 95.1288 87.8466C94.9699 87.6387 94.5665 87.9199 94.7009 88.1522C95.5839 89.7703 96.3203 91.4641 96.9015 93.2134C96.9015 93.3112 96.9626 93.409 96.9871 93.4946C96.5225 92.5411 96.009 91.6119 95.4956 90.7317C93.96 87.7943 91.4227 85.5043 88.3438 84.2768C84.8786 83.2842 81.1898 83.3996 77.7935 84.6069C74.4426 85.649 71.5126 87.7351 69.4314 90.5606C67.2553 93.4946 65.0425 97.5412 65.8494 101.319C65.8494 101.319 65.8494 101.319 65.9228 101.404C65.8993 101.485 65.9077 101.572 65.9464 101.647C65.985 101.722 66.0509 101.78 66.1306 101.808C66.3751 101.906 66.6563 101.686 66.7908 101.502C68.1304 99.7314 69.7888 98.2264 71.6808 97.0644C73.5918 95.9855 75.6515 95.1945 77.7935 94.7171C80.1837 94.0841 82.6689 93.8894 85.1286 94.1426C87.6733 94.4194 90.1354 95.2096 92.3659 96.4653C93.7186 97.1945 94.9548 98.1216 96.0335 99.216C96.7059 99.9373 97.256 101.148 98.2218 101.441C98.2886 101.455 98.3576 101.455 98.4245 101.442C98.4914 101.428 98.5549 101.401 98.611 101.362C98.6671 101.323 98.7146 101.273 98.7507 101.216C98.7868 101.158 98.8107 101.093 98.8208 101.025C98.9082 100.003 98.8423 98.9724 98.6252 97.969C98.637 97.8716 98.637 97.7731 98.6252 97.6756C98.6252 97.7857 98.6252 97.9079 98.723 98.0179C98.8331 98.3725 99.4199 98.018 99.3465 97.7368C98.9431 95.903 98.6375 94.0203 98.2218 92.1865Z" fill="#5F2A10"/>
<path d="M97.4638 99.7047C97.1345 99.2161 96.7622 98.7579 96.3513 98.3355C95.3376 97.3516 94.2088 96.4937 92.9894 95.7804C90.7778 94.49 88.3288 93.6584 85.7888 93.3354C83.2181 93.0165 80.6106 93.1782 78.0991 93.8121C75.8898 94.3028 73.7616 95.1054 71.7786 96.1961C69.6459 97.3979 67.7688 99.0051 66.2528 100.927C65.8494 97.6875 67.6832 94.3256 69.4681 91.7705C70.3688 90.4224 71.4601 89.2118 72.7078 88.1763C74.0256 87.1379 75.4983 86.3128 77.0722 85.7313C80.2095 84.5111 83.6369 84.2432 86.9257 84.9611C89.8785 85.8663 92.4023 87.8124 94.0286 90.438C95.1068 92.03 96.0397 93.7157 96.8159 95.4748C97.1924 96.33 97.503 97.2128 97.745 98.1154C97.7387 98.2213 97.7387 98.3274 97.745 98.4333C97.7435 98.4762 97.7527 98.5189 97.772 98.5573C97.7912 98.5958 97.8197 98.6288 97.855 98.6533C97.9776 99.2321 98.0391 99.8221 98.0384 100.414C97.8324 100.19 97.6405 99.9528 97.4638 99.7047Z" fill="#94492C"/>
<path d="M118.528 97.7368C118.455 98.0546 119.029 98.3725 119.151 98.0179C119.186 97.9054 119.214 97.7911 119.237 97.6756C119.237 97.7734 119.237 97.8712 119.237 97.969C119.024 98.973 118.962 100.003 119.054 101.025C119.062 101.092 119.085 101.157 119.119 101.215C119.154 101.273 119.201 101.323 119.256 101.362C119.311 101.401 119.374 101.428 119.44 101.442C119.506 101.455 119.574 101.455 119.64 101.441C120.667 101.148 121.169 99.9373 121.841 99.216C122.917 98.1188 124.154 97.1913 125.508 96.4653C127.735 95.2112 130.193 94.421 132.734 94.1426C135.193 93.8907 137.678 94.0854 140.069 94.7171C142.21 95.1955 144.27 95.9864 146.181 97.0644C148.078 98.2198 149.738 99.7259 151.071 101.502C151.218 101.686 151.487 101.906 151.744 101.808C151.822 101.778 151.886 101.72 151.924 101.645C151.962 101.571 151.972 101.485 151.952 101.404C151.952 101.404 151.952 101.404 152.025 101.319C152.82 97.5412 150.607 93.4946 148.443 90.5606C146.359 87.7376 143.43 85.6521 140.081 84.6069C136.685 83.3996 132.996 83.2842 129.531 84.2768C126.452 85.5043 123.914 87.7943 122.379 90.7317C121.865 91.6119 121.352 92.5411 120.875 93.4946C120.911 93.4032 120.939 93.3092 120.961 93.2134C121.551 91.4658 122.292 89.7725 123.173 88.1522C123.296 87.9199 122.904 87.6387 122.733 87.8466C121.653 89.2227 120.799 90.762 120.203 92.4066C120.203 92.1376 119.726 91.8687 119.653 92.1865C119.249 94.0203 118.944 95.903 118.528 97.7368Z" fill="#5F2A10"/>
<path d="M119.848 100.413C119.857 99.8176 119.923 99.224 120.044 98.6407C120.077 98.6142 120.104 98.5808 120.123 98.5428C120.142 98.5048 120.153 98.4631 120.154 98.4206V98.1028C120.396 97.2002 120.707 96.3174 121.083 95.4621C121.85 93.7198 122.767 92.0469 123.822 90.462C125.452 87.8356 127.98 85.8897 130.937 84.9851C134.202 84.2777 137.603 84.5455 140.717 85.7553C142.293 86.3393 143.77 87.1641 145.093 88.2004C146.338 89.239 147.429 90.4491 148.333 91.7946C150.118 94.3496 152.001 97.7116 151.548 100.951C150.034 99.0227 148.162 97.4039 146.035 96.1834C144.046 95.1076 141.913 94.3214 139.702 93.8484C137.191 93.2139 134.583 93.0522 132.012 93.3716C129.477 93.6966 127.032 94.5281 124.824 95.8167C123.605 96.53 122.476 97.3879 121.462 98.3717C121.051 98.7972 120.675 99.2551 120.337 99.741C120.187 99.9742 120.024 100.199 119.848 100.413Z" fill="#94492C"/>
<g opacity="0.43">
<g style="mix-blend-mode:multiply" opacity="0.59">
<path d="M77.977 135.989C77.6347 135.989 77.3169 136.588 77.7692 136.588C78.2215 136.588 78.4783 135.989 77.977 135.989Z" fill="#A05627"/>
</g>
<g style="mix-blend-mode:multiply" opacity="0.59">
<path d="M79.3585 133.52C78.9917 133.52 78.6494 134.167 79.1384 134.167C79.6274 134.167 79.8475 133.52 79.3585 133.52Z" fill="#A05627"/>
</g>
<g style="mix-blend-mode:multiply" opacity="0.59">
<path d="M87.4393 135.108C87.0726 135.108 86.718 135.769 87.2071 135.769C87.6961 135.769 87.9406 135.108 87.4393 135.108Z" fill="#A05627"/>
</g>
<g style="mix-blend-mode:multiply" opacity="0.59">
<path d="M89.652 132.199C89.3464 132.199 89.0652 132.725 89.4687 132.725C89.8721 132.725 90.0433 132.199 89.652 132.199Z" fill="#A05627"/>
</g>
<g style="mix-blend-mode:multiply" opacity="0.59">
<path d="M90.3 136.539C89.9699 136.539 89.6521 137.126 90.0922 137.126C90.5323 137.126 90.7034 136.539 90.3 136.539Z" fill="#A05627"/>
</g>
<g style="mix-blend-mode:multiply" opacity="0.59">
<path d="M88.0383 139.791C87.7938 139.791 87.5738 140.219 87.8916 140.219C88.2095 140.219 88.3562 139.791 88.0383 139.791Z" fill="#A05627"/>
</g>
<g style="mix-blend-mode:multiply" opacity="0.59">
<path d="M84.9942 138.092C84.6275 138.092 84.2974 138.728 84.7742 138.728C85.2509 138.728 85.471 138.092 84.9942 138.092Z" fill="#A05627"/>
</g>
<g style="mix-blend-mode:multiply" opacity="0.59">
<path d="M78.4049 139.901C78.0504 139.901 77.7203 140.537 78.1848 140.537C78.6494 140.537 78.8695 139.901 78.4049 139.901Z" fill="#A05627"/>
</g>
<g style="mix-blend-mode:multiply" opacity="0.59">
<path d="M74.1505 139.51C74.1617 139.479 74.1617 139.444 74.1505 139.413C74.1562 139.389 74.1562 139.363 74.1505 139.339C74.119 139.327 74.0841 139.327 74.0527 139.339H73.9426H73.8571C73.7996 139.357 73.7486 139.391 73.7104 139.437V139.51C73.7035 139.555 73.7035 139.6 73.7104 139.645V139.865C73.6992 139.897 73.6992 139.931 73.7104 139.963C73.7104 139.963 73.7104 139.963 73.7715 140.036C73.8029 140.048 73.8378 140.048 73.8693 140.036C73.9091 140.048 73.9517 140.048 73.9915 140.036H74.0649C74.125 140.011 74.1791 139.974 74.2238 139.926V139.865C74.2344 139.817 74.2344 139.767 74.2238 139.718L74.1505 139.51Z" fill="#A05627"/>
</g>
<g style="mix-blend-mode:multiply" opacity="0.59">
<path d="M75.1896 133.703C74.9206 133.703 74.6639 134.192 75.0307 134.192C75.3974 134.192 75.5564 133.703 75.1896 133.703Z" fill="#A05627"/>
</g>
<g style="mix-blend-mode:multiply" opacity="0.59">
<path d="M72.3656 132.872C72.0355 132.872 71.7177 133.471 72.1578 133.471C72.5979 133.471 72.7813 132.872 72.3656 132.872Z" fill="#A05627"/>
</g>
<g style="mix-blend-mode:multiply" opacity="0.59">
<path d="M71.8399 136.979L71.7299 136.759C71.7058 136.753 71.6807 136.753 71.6565 136.759C71.6432 136.752 71.6286 136.749 71.6138 136.749C71.5989 136.749 71.5843 136.752 71.571 136.759C71.5393 136.748 71.5048 136.748 71.4732 136.759H71.3754C71.3429 136.789 71.3178 136.827 71.302 136.869C71.2934 136.886 71.2889 136.905 71.2889 136.924C71.2889 136.943 71.2934 136.962 71.302 136.979L71.3998 137.187H71.4732H71.6565C71.6888 137.193 71.7221 137.193 71.7543 137.187H71.8155C71.851 137.154 71.8764 137.111 71.8888 137.065C71.8788 137.033 71.8622 137.004 71.8399 136.979Z" fill="#A05627"/>
</g>
<g style="mix-blend-mode:multiply" opacity="0.59">
<path d="M76.0331 136.43C75.593 136.43 75.1774 137.212 75.7642 137.212C76.351 137.212 76.5711 136.43 76.0331 136.43Z" fill="#A05627"/>
</g>
</g>
<g opacity="0.43">
<g style="mix-blend-mode:multiply" opacity="0.59">
<path d="M145.252 135.989C145.594 135.989 145.925 136.588 145.46 136.588C144.995 136.588 144.8 135.989 145.252 135.989Z" fill="#A05627"/>
</g>
<g style="mix-blend-mode:multiply" opacity="0.59">
<path d="M143.871 133.52C144.237 133.52 144.58 134.167 144.091 134.167C143.602 134.167 143.382 133.52 143.871 133.52Z" fill="#A05627"/>
</g>
<g style="mix-blend-mode:multiply" opacity="0.59">
<path d="M140.937 135.463V135.549C140.949 135.6 140.974 135.646 141.01 135.684L141.083 135.757C141.12 135.796 141.166 135.826 141.218 135.842H141.316C141.364 135.855 141.414 135.855 141.462 135.842C141.502 135.855 141.545 135.855 141.585 135.842C141.633 135.855 141.683 135.855 141.731 135.842C141.767 135.851 141.805 135.851 141.841 135.842C141.874 135.812 141.899 135.774 141.915 135.732C141.924 135.711 141.928 135.688 141.928 135.665C141.928 135.642 141.924 135.619 141.915 135.598C141.927 135.554 141.927 135.508 141.915 135.463C141.879 135.399 141.829 135.345 141.768 135.305H141.658C141.593 135.292 141.527 135.292 141.462 135.305C141.431 135.292 141.396 135.292 141.364 135.305H141.193H141.083L140.998 135.39C140.973 135.41 140.952 135.435 140.937 135.463Z" fill="#A05627"/>
</g>
<g style="mix-blend-mode:multiply" opacity="0.59">
<path d="M135.79 135.108C136.169 135.108 136.511 135.769 136.022 135.769C135.533 135.769 135.301 135.108 135.79 135.108Z" fill="#A05627"/>
</g>
<g style="mix-blend-mode:multiply" opacity="0.59">
<path d="M133.577 132.199C133.883 132.199 134.164 132.725 133.76 132.725C133.357 132.725 133.186 132.199 133.577 132.199Z" fill="#A05627"/>
</g>
<g style="mix-blend-mode:multiply" opacity="0.59">
<path d="M132.941 136.539C133.271 136.539 133.577 137.126 133.137 137.126C132.697 137.126 132.501 136.539 132.941 136.539Z" fill="#A05627"/>
</g>
<g style="mix-blend-mode:multiply" opacity="0.59">
<path d="M135.191 139.791C135.435 139.791 135.655 140.219 135.337 140.219C135.02 140.219 134.885 139.791 135.191 139.791Z" fill="#A05627"/>
</g>
<g style="mix-blend-mode:multiply" opacity="0.59">
<path d="M138.235 138.092C138.602 138.092 138.932 138.728 138.455 138.728C137.978 138.728 137.758 138.092 138.235 138.092Z" fill="#A05627"/>
</g>
<g style="mix-blend-mode:multiply" opacity="0.59">
<path d="M144.824 139.901C145.179 139.901 145.509 140.537 145.044 140.537C144.58 140.537 144.36 139.901 144.824 139.901Z" fill="#A05627"/>
</g>
<g style="mix-blend-mode:multiply" opacity="0.59">
<path d="M149.091 139.51C149.079 139.478 149.079 139.444 149.091 139.412V139.339C149.123 139.328 149.157 139.328 149.189 139.339H149.311H149.384C149.444 139.359 149.498 139.393 149.543 139.437V139.51C149.55 139.554 149.55 139.6 149.543 139.644V139.864C149.552 139.879 149.556 139.896 149.556 139.913C149.556 139.931 149.552 139.947 149.543 139.962C149.55 139.973 149.553 139.986 149.553 139.999C149.553 140.012 149.55 140.024 149.543 140.036C149.512 140.048 149.477 140.048 149.445 140.036C149.41 140.048 149.371 140.048 149.335 140.036H149.25C149.191 140.014 149.141 139.975 149.103 139.926V139.864C149.098 139.816 149.098 139.767 149.103 139.718L149.091 139.51Z" fill="#A05627"/>
</g>
<g style="mix-blend-mode:multiply" opacity="0.59">
<path d="M148.039 133.703C148.308 133.703 148.565 134.192 148.211 134.192C147.856 134.192 147.685 133.703 148.039 133.703Z" fill="#A05627"/>
</g>
<g style="mix-blend-mode:multiply" opacity="0.59">
<path d="M150.888 132.872C151.218 132.872 151.536 133.471 151.096 133.471C150.656 133.471 150.448 132.872 150.888 132.872Z" fill="#A05627"/>
</g>
<g style="mix-blend-mode:multiply" opacity="0.59">
<path d="M147.245 136.43C147.685 136.43 148.101 137.212 147.514 137.212C146.927 137.212 146.658 136.43 147.245 136.43Z" fill="#A05627"/>
</g>
</g>
<path d="M102.134 145.953C103.591 147.039 105.306 147.725 107.11 147.945C107.634 147.927 108.156 147.878 108.674 147.799C109.536 147.673 110.344 147.308 111.009 146.747C109.768 147.213 108.431 147.364 107.117 147.187C105.802 147.01 104.553 146.51 103.479 145.733C100.989 144.066 99.1833 141.557 98.393 138.666C97.525 135.83 96.8893 132.163 98.393 129.461C98.8709 128.682 99.5418 128.04 100.341 127.597C101.14 127.153 102.039 126.924 102.953 126.93C103.017 126.87 103.098 126.831 103.185 126.82H103.332C107.525 126.27 111.266 128.886 114.102 131.943C113.874 131.31 113.613 130.69 113.32 130.084C112.916 129.67 112.479 129.29 112.012 128.947C110.565 127.881 108.937 127.086 107.207 126.6C106.243 126.318 105.251 126.142 104.249 126.074C104.22 125.618 104.159 125.165 104.066 124.717C103.726 122.749 102.792 120.931 101.388 119.509C101.303 119.424 101.095 119.595 101.168 119.705C102.191 121.242 102.886 122.973 103.21 124.791C103.294 125.195 103.355 125.603 103.393 126.013C102.454 125.991 101.521 126.166 100.654 126.526C99.7863 126.886 99.0038 127.423 98.3564 128.104C96.0213 130.683 96.2292 134.595 96.9994 137.75C97.6658 141.014 99.4893 143.927 102.134 145.953Z" fill="#A05627"/>
<path d="M134.299 148.764C133.846 147.187 132.428 145.732 130.631 146.221C128.834 146.71 128.015 148.324 127.159 149.62C124.809 153.288 121.615 156.34 117.843 158.52C113.975 160.631 109.621 161.693 105.215 161.601C102.266 161.607 99.3356 161.141 96.5349 160.219C94.515 159.306 92.4362 158.53 90.3122 157.896C89.9557 157.734 89.567 157.655 89.1753 157.664C88.8276 157.721 88.4844 157.803 88.1484 157.909C87.7104 158.056 87.298 158.27 86.9259 158.544L87.1948 158.434C86.7999 158.79 86.5263 159.26 86.4124 159.779C86.0212 161.711 87.8916 163.263 89.322 164.192C91.3026 165.401 93.4423 166.327 95.6791 166.943C98.2055 167.709 100.802 168.221 103.43 168.471C106.031 168.708 108.647 168.748 111.254 168.593C113.986 168.499 116.697 168.089 119.335 167.371C123.712 166.096 127.608 163.542 130.521 160.036C131.954 158.341 133.072 156.403 133.822 154.314C134.547 152.557 134.713 150.619 134.299 148.764Z" fill="#A05627"/>
<path d="M132.269 156.1C130.297 159.884 127.212 162.973 123.43 164.951C119.213 167.212 114.396 167.799 109.665 167.897C104.853 168.084 100.044 167.468 95.4346 166.075C93.399 165.481 91.4567 164.604 89.6642 163.471C88.4417 162.603 86.1801 160.623 87.5371 158.948C87.7256 158.731 87.9559 158.554 88.2142 158.428C88.4726 158.302 88.7537 158.23 89.0408 158.215C89.4197 158.241 89.7959 158.298 90.1655 158.386C91.9449 158.919 93.6817 159.585 95.3612 160.378C97.7126 161.277 100.185 161.821 102.696 161.992C106.778 162.37 110.892 161.848 114.75 160.464C118.251 159.125 121.418 157.039 124.029 154.351C125.386 152.966 126.613 151.46 127.697 149.853C128.443 148.716 129.518 146.735 131.083 146.698C133.076 146.637 133.724 149.082 133.748 150.635C133.699 152.548 133.192 154.422 132.269 156.1Z" fill="#9E0000"/>
<path d="M125.851 163.105C122.188 161.979 118.36 161.483 114.531 161.638C111.884 161.779 109.255 162.143 106.67 162.726C103.784 163.317 100.971 164.223 98.2832 165.428C97.6475 165.722 97.0607 166.039 96.4127 166.394C100.74 167.572 105.22 168.091 109.702 167.934C114.433 167.837 119.249 167.25 123.467 164.988C124.428 164.471 125.351 163.886 126.23 163.24L125.851 163.105Z" fill="#E84F65"/>
<path d="M93.4784 160.477C94.358 161.739 95.5444 162.758 96.9259 163.435C99.6165 164.636 102.538 165.233 105.484 165.184C109.014 165.305 112.547 165.014 116.009 164.316C119.873 163.484 123.687 161.638 125.594 157.995C126.65 155.734 127.149 153.252 127.049 150.758C126.152 152.056 125.154 153.282 124.066 154.425C121.454 157.113 118.288 159.199 114.787 160.538C110.929 161.922 106.814 162.444 102.733 162.066C100.221 161.895 97.7491 161.351 95.3977 160.452C94.5297 160.122 93.6495 159.707 92.7571 159.328C92.9633 159.731 93.2047 160.116 93.4784 160.477Z" fill="white"/>
<path d="M94.2118 114.057C93.8766 111.06 92.9099 108.169 91.3755 105.573C90.6552 104.275 89.6741 103.14 88.4937 102.239C87.3134 101.339 85.9595 100.692 84.5172 100.341C83.0696 100.132 81.5939 100.243 80.1937 100.665C78.7935 101.088 77.5027 101.811 76.4118 102.786C72.3164 106.258 70.9349 112.187 71.7173 117.346C71.8033 119.926 72.4676 122.453 73.6611 124.742C73.8471 125.084 74.0597 125.411 74.2969 125.72C72.8506 124.927 71.3104 124.319 69.7124 123.911C70.3644 124.4 71.0246 124.864 71.6929 125.304C72.687 125.782 73.6506 126.321 74.578 126.918L75.6783 127.664C77.3043 128.544 78.9669 129.363 80.6295 130.109C80.1697 129.658 79.6706 129.249 79.1381 128.886C79.4315 128.96 79.7371 129.021 80.0427 129.07C85.0306 129.803 90.9476 127.224 93.1848 122.566C94.3239 119.884 94.6799 116.934 94.2118 114.057Z" fill="#A05627"/>
<path d="M93.4541 120.499C92.2316 125.622 86.9014 128.776 81.8157 128.654C80.3961 128.676 78.9938 128.339 77.7391 127.675C76.4845 127.01 75.4183 126.039 74.6395 124.852C73.0747 122.407 72.6468 119.362 72.1945 116.538C72.1918 116.521 72.1853 116.504 72.1755 116.489C72.1657 116.474 72.1528 116.462 72.1377 116.453C72.1226 116.443 72.1056 116.437 72.0879 116.435C72.0703 116.433 72.0524 116.435 72.0355 116.441C71.654 112.214 72.8759 107.998 75.4586 104.631C76.3248 103.537 77.4114 102.638 78.6477 101.991C79.884 101.345 81.2424 100.966 82.6348 100.878C84.0356 100.91 85.4101 101.265 86.6508 101.916C87.8915 102.567 88.9647 103.496 89.7866 104.631C91.4392 106.841 92.5868 109.387 93.1485 112.088C93.9056 114.83 94.0103 117.71 93.4541 120.499Z" fill="white"/>
<g style="mix-blend-mode:multiply">
<path d="M72.0232 113.91C72.5987 110.807 74.1746 107.977 76.5098 105.854C77.7524 104.781 79.2218 104.004 80.8076 103.581C82.3935 103.157 84.0547 103.099 85.6665 103.409C88.1899 104.109 90.3664 105.715 91.7792 107.92C91.24 106.762 90.5671 105.67 89.7742 104.668C88.9524 103.533 87.8791 102.604 86.6384 101.953C85.3977 101.302 84.0233 100.947 82.6225 100.915C81.23 101.003 79.8716 101.382 78.6353 102.029C77.399 102.675 76.3125 103.574 75.4463 104.668C73.3399 107.371 72.1418 110.67 72.0232 114.094V113.91Z" fill="#DADBDC"/>
</g>
<path d="M89.6644 117.615C90.1778 122.958 88.4418 127.395 84.652 128.068C80.8622 128.74 77.3169 125.354 76.9379 119.999C76.5589 114.645 79.383 109.339 82.6838 108.899C85.9846 108.459 89.1509 112.285 89.6644 117.615Z" fill="#2D8E73"/>
<g style="mix-blend-mode:multiply" opacity="0.6">
<path d="M89.6644 117.615C89.1509 112.285 85.9968 108.459 82.6838 108.899C79.3707 109.339 76.5712 114.632 76.9379 119.999C77.3047 125.366 80.9111 128.765 84.652 128.068C88.393 127.371 90.1778 122.958 89.6644 117.615ZM78.2093 114.938C79.2729 113.336 79.5419 114.253 79.224 115.598C78.9062 116.943 78.0015 121.43 80.3365 123.997C81.449 125.219 82.8549 125.586 82.9772 126.026C83.0994 126.466 80.2265 127.016 78.6739 124.278C76.8768 121.124 77.1213 116.552 78.2093 114.938Z" fill="#4A5F70"/>
</g>
<g style="mix-blend-mode:multiply" opacity="0.4">
<path d="M88.2584 118.287C87.8794 114.62 85.6177 112.175 83.1605 112.713C82.9949 112.748 82.8316 112.793 82.6715 112.847C82.3291 112.285 79.7741 114.339 79.3462 117.187C79.1256 118.12 79.0472 119.08 79.1139 120.036C79.3951 123.703 81.9746 125.94 84.603 125.439C87.2315 124.938 88.5762 121.869 88.2584 118.287Z" fill="#4A5F70"/>
</g>
<g style="mix-blend-mode:multiply" opacity="0.6">
<path d="M89.6644 117.615C89.1509 112.285 85.9968 108.459 82.6838 108.899C79.3707 109.339 76.5712 114.632 76.9379 119.999C77.3047 125.366 80.9111 128.765 84.652 128.068C88.393 127.371 90.1778 122.958 89.6644 117.615ZM84.5909 126.76C81.0823 127.42 77.7081 124.315 77.4025 119.327C77.0968 114.339 79.6275 109.547 82.7327 109.131C85.8379 108.715 88.7719 112.175 89.2365 117.09C89.7011 122.004 88.0629 126.112 84.5909 126.76Z" fill="#4A5F70"/>
</g>
<path d="M87.0357 118.764C87.3291 121.466 86.2166 123.801 84.2239 124.192C82.2312 124.583 80.2996 122.823 80.0795 120.121C79.8595 117.419 81.3021 114.974 83.1358 114.595C84.9696 114.216 86.7301 116.074 87.0357 118.764Z" fill="black"/>
<g style="mix-blend-mode:multiply" opacity="0.4">
<path d="M83.0505 115.378C82.0847 113.409 82.3903 111.062 83.6495 110.39C84.9087 109.717 86.6569 110.977 87.5127 112.933C88.3684 114.889 88.4418 117.224 87.1581 117.823C85.8745 118.422 84.0162 117.321 83.0505 115.378Z" fill="#4A5F70"/>
</g>
<g style="mix-blend-mode:overlay" opacity="0.4">
<path d="M78.5391 117.309C78.4413 119.461 78.6736 123.654 81.6687 125.109C83.4047 125.952 79.297 126.148 78.1601 121.673C77.2554 118.201 78.6736 114.595 78.5391 117.309Z" fill="white"/>
</g>
<g style="mix-blend-mode:overlay" opacity="0.4">
<path d="M78.8691 114.962C79.3092 115.023 79.1625 116.184 78.5268 116.074C77.8911 115.964 78.2456 114.852 78.8691 114.962Z" fill="white"/>
</g>
<path d="M83.9671 114.864C83.2458 113.36 83.4414 111.6 84.3705 111.123C85.2996 110.646 86.5955 111.587 87.2557 113.079C87.9158 114.57 87.9281 116.331 86.9867 116.746C86.0454 117.162 84.6762 116.367 83.9671 114.864Z" fill="white"/>
<path d="M125.668 122.59C127.905 127.248 133.834 129.827 138.81 129.094C139.128 129.094 139.421 128.984 139.715 128.911C139.182 129.273 138.683 129.682 138.223 130.133C139.886 129.326 141.548 128.507 143.113 127.688L144.213 126.942C145.144 126.343 146.111 125.804 147.111 125.329C147.771 124.888 148.443 124.424 149.079 123.935C147.481 124.343 145.941 124.951 144.495 125.744C144.732 125.433 144.948 125.106 145.143 124.766C146.332 122.477 146.992 119.949 147.074 117.37C147.857 112.211 146.475 106.282 142.38 102.81C141.289 101.835 139.998 101.111 138.598 100.688C137.198 100.266 135.722 100.155 134.274 100.365C132.832 100.716 131.478 101.363 130.298 102.263C129.117 103.164 128.136 104.299 127.416 105.597C125.882 108.193 124.915 111.085 124.58 114.081C124.131 116.963 124.508 119.914 125.668 122.59Z" fill="#A05627"/>
<path d="M125.655 112.089C126.263 109.422 127.444 106.919 129.115 104.754C129.937 103.619 131.01 102.69 132.251 102.039C133.492 101.388 134.866 101.033 136.267 101.001C137.659 101.089 139.018 101.468 140.254 102.115C141.49 102.761 142.577 103.66 143.443 104.754C146.026 108.122 147.248 112.337 146.866 116.564C146.85 116.558 146.833 116.556 146.816 116.558C146.799 116.56 146.782 116.566 146.768 116.576C146.754 116.585 146.742 116.598 146.734 116.613C146.725 116.628 146.72 116.644 146.719 116.661C146.206 119.486 145.778 122.493 144.274 124.975C143.496 126.162 142.429 127.133 141.175 127.798C139.92 128.462 138.518 128.799 137.098 128.777C132.025 128.899 126.707 125.745 125.46 120.622C124.848 117.803 124.915 114.878 125.655 112.089Z" fill="white"/>
<g style="mix-blend-mode:multiply">
<path d="M146.829 113.91C146.259 110.808 144.687 107.978 142.355 105.854C141.109 104.782 139.638 104.005 138.05 103.582C136.462 103.159 134.8 103.099 133.186 103.409C130.664 104.112 128.488 105.718 127.073 107.92C127.612 106.762 128.285 105.67 129.078 104.668C129.9 103.533 130.973 102.604 132.214 101.953C133.455 101.302 134.829 100.947 136.23 100.915C137.622 101.003 138.981 101.382 140.217 102.029C141.453 102.675 142.54 103.574 143.406 104.668C145.523 107.365 146.722 110.667 146.829 114.094V113.91Z" fill="#DADBDC"/>
</g>
<path d="M141.89 117.798C142.257 123.141 140.35 127.505 136.597 128.092C132.843 128.679 129.335 125.182 129.103 119.815C128.87 114.449 131.78 109.228 135.215 108.886C138.65 108.544 141.523 112.456 141.89 117.798Z" fill="#2D8E73"/>
<g style="mix-blend-mode:multiply" opacity="0.6">
<path d="M141.89 117.798C141.524 112.456 138.516 108.544 135.154 108.886C131.792 109.228 128.871 114.449 129.042 119.815C129.213 125.182 132.709 128.691 136.536 128.092C140.362 127.493 142.257 123.092 141.89 117.798ZM130.509 114.791C131.621 113.226 131.854 114.143 131.511 115.488C131.169 116.832 130.142 121.282 132.391 123.911C133.467 125.133 134.837 125.574 134.971 126.014C135.105 126.454 132.196 126.918 130.717 124.143C129.005 120.952 129.384 116.38 130.509 114.791Z" fill="#4A5F70"/>
</g>
<g style="mix-blend-mode:multiply" opacity="0.4">
<path d="M140.411 118.422C140.118 114.754 137.966 112.309 135.521 112.7L135.032 112.822C134.702 112.26 132.086 114.241 131.585 117.077C131.339 118.005 131.236 118.966 131.279 119.925C131.462 123.593 133.969 125.903 136.621 125.476C139.274 125.048 140.692 122.04 140.411 118.422Z" fill="#4A5F70"/>
</g>
<g style="mix-blend-mode:multiply" opacity="0.6">
<path d="M141.89 117.798C141.524 112.456 138.516 108.544 135.154 108.886C131.792 109.228 128.871 114.449 129.042 119.815C129.213 125.182 132.709 128.691 136.536 128.092C140.362 127.493 142.257 123.092 141.89 117.798ZM136.524 126.759C132.991 127.322 129.702 124.07 129.543 119.131C129.384 114.192 131.988 109.351 135.142 109.082C138.296 108.813 141.096 112.297 141.426 117.224C141.756 122.15 140.057 126.234 136.524 126.759Z" fill="#4A5F70"/>
</g>
<path d="M139.225 118.874C139.445 121.576 138.271 123.887 136.266 124.204C134.261 124.522 132.391 122.737 132.244 120.036C132.098 117.334 133.565 114.913 135.447 114.595C137.33 114.277 138.993 116.172 139.225 118.874Z" fill="black"/>
<g style="mix-blend-mode:multiply" opacity="0.4">
<path d="M135.338 115.366C134.421 113.373 134.8 111.038 136.071 110.402C137.342 109.767 139.066 111.075 139.873 113.043C140.68 115.011 140.68 117.371 139.372 117.933C138.064 118.495 136.242 117.346 135.338 115.366Z" fill="#4A5F70"/>
</g>
<g style="mix-blend-mode:overlay" opacity="0.4">
<path d="M130.777 117.187C130.631 119.327 130.777 123.532 133.687 125.06C135.399 125.941 131.242 126.038 130.276 121.539C129.482 118.055 131.046 114.534 130.777 117.187Z" fill="white"/>
</g>
<g style="mix-blend-mode:overlay" opacity="0.4">
<path d="M131.169 114.839C131.609 114.925 131.426 116.062 130.79 115.952C130.35 115.854 130.545 114.717 131.169 114.839Z" fill="white"/>
</g>
<path d="M136.266 114.889C135.594 113.36 135.839 111.612 136.78 111.148C137.721 110.683 138.993 111.686 139.604 113.189C140.215 114.693 140.191 116.453 139.237 116.857C138.284 117.26 136.939 116.405 136.266 114.889Z" fill="white"/>
<path d="M132.734 111.82C128.791 111.825 124.982 113.256 122.012 115.849C119.041 118.442 117.109 122.022 116.572 125.928C106.242 119.143 99.1022 123.96 97.0117 125.782C96.3613 121.643 94.1313 117.917 90.7906 115.388C87.45 112.86 83.2589 111.725 79.0988 112.223C74.9387 112.72 71.1337 114.812 68.4839 118.057C65.834 121.303 64.5459 125.449 64.8903 129.625C65.2346 133.8 67.1847 137.68 70.3305 140.447C73.4762 143.215 77.5725 144.654 81.7579 144.464C85.9433 144.273 89.8918 142.467 92.773 139.425C95.6543 136.383 97.2438 132.343 97.2073 128.153C97.2073 127.75 97.2073 127.359 97.2073 126.931C97.9775 126.112 105.08 119.143 116.535 126.931C116.535 127.31 116.535 127.689 116.535 128.08C116.535 131.31 117.493 134.468 119.288 137.154C121.083 139.84 123.633 141.933 126.618 143.17C129.602 144.406 132.886 144.729 136.055 144.099C139.223 143.469 142.133 141.913 144.417 139.629C146.702 137.345 148.257 134.435 148.887 131.266C149.518 128.098 149.194 124.814 147.958 121.83C146.722 118.845 144.628 116.294 141.942 114.5C139.256 112.705 136.099 111.747 132.868 111.747L132.734 111.82ZM80.9233 143.52C77.8805 143.523 74.9054 142.623 72.3744 140.934C69.8434 139.245 67.8703 136.843 66.7047 134.032C65.5392 131.221 65.2336 128.128 65.8266 125.144C66.4197 122.159 67.8846 119.418 70.0362 117.266C72.1878 115.115 74.9292 113.65 77.9137 113.057C80.8981 112.464 83.9914 112.769 86.8021 113.935C89.6128 115.1 92.0146 117.073 93.7036 119.604C95.3926 122.135 96.2928 125.111 96.2904 128.153C96.2839 132.227 94.6628 136.132 91.7823 139.012C88.9018 141.893 84.9969 143.514 80.9233 143.52ZM132.795 143.52C129.752 143.523 126.777 142.623 124.246 140.934C121.715 139.245 119.742 136.843 118.576 134.032C117.411 131.221 117.105 128.128 117.698 125.144C118.291 122.159 119.756 119.418 121.908 117.266C124.059 115.115 126.801 113.65 129.785 113.057C132.77 112.464 135.863 112.769 138.674 113.935C141.484 115.1 143.886 117.073 145.575 119.604C147.264 122.135 148.164 125.111 148.162 128.153C148.159 130.176 147.757 132.177 146.98 134.044C146.203 135.911 145.065 137.607 143.632 139.034C142.2 140.461 140.5 141.592 138.629 142.362C136.759 143.132 134.756 143.525 132.734 143.52H132.795Z" fill="#231F20"/>
<path d="M147.147 122.382L163.761 102.479L164.581 104.093L147.636 123.69L147.147 122.382Z" fill="#231F20"/>
<path d="M68.4776 117.737L55.7389 102.479L54.9198 104.093L67.7318 118.91C67.9398 118.495 68.1897 118.101 68.4776 117.737Z" fill="#231F20"/>
<g style="mix-blend-mode:screen">
<path d="M70.8981 155C65.6428 149.121 62.3521 141.749 61.4847 133.912C61.1123 131.556 60.8917 129.18 60.8245 126.796C60.8245 126.576 60.4945 126.699 60.4822 126.87C60.4822 129.034 60.2622 131.173 60.4089 133.349C60.536 135.455 60.9052 137.539 61.5092 139.56C62.6924 143.252 64.3835 146.761 66.5337 149.988C67.7341 151.833 69.0965 153.568 70.6047 155.171C70.727 155.318 71.0082 155.11 70.8981 155Z" fill="#FBD0B4"/>
</g>
<g style="mix-blend-mode:screen">
<path d="M101.706 129.009C101.439 128.81 101.108 128.718 100.777 128.752C100.121 128.89 99.5282 129.238 99.0872 129.743C98.6462 130.248 98.3812 130.883 98.3321 131.551C98.2002 132.224 98.3362 132.921 98.7111 133.495C98.9272 133.744 99.2215 133.913 99.5458 133.973C99.8701 134.033 100.205 133.981 100.496 133.825C101.081 133.525 101.569 133.064 101.902 132.497C102.235 131.93 102.401 131.28 102.379 130.622C102.403 130.319 102.355 130.015 102.238 129.734C102.121 129.453 101.939 129.204 101.706 129.009Z" fill="#FBD0B4"/>
</g>
<g style="mix-blend-mode:screen">
<path d="M104.224 127.982C104.167 127.955 104.104 127.94 104.041 127.94C103.978 127.94 103.915 127.955 103.858 127.982H103.784H103.711H103.613L103.466 128.067C103.41 128.113 103.357 128.162 103.307 128.214L103.234 128.312V128.422V128.532C103.216 128.579 103.216 128.631 103.234 128.679C103.229 128.707 103.229 128.736 103.234 128.764C103.262 128.774 103.292 128.774 103.32 128.764C103.351 128.776 103.386 128.776 103.418 128.764H103.515H103.601C103.661 128.776 103.724 128.776 103.784 128.764C103.882 128.744 103.974 128.702 104.053 128.642L104.188 128.532C104.188 128.532 104.188 128.532 104.273 128.41C104.298 128.371 104.319 128.33 104.334 128.287C104.334 128.287 104.334 128.165 104.334 128.153C104.316 128.086 104.278 128.026 104.224 127.982Z" fill="#FBD0B4"/>
</g>
<g style="mix-blend-mode:screen">
<path d="M106.303 160.22C103.747 160.017 101.217 159.567 98.7477 158.875C96.3027 158.179 93.7843 157.469 91.4126 156.65C91.2781 156.65 91.0336 156.834 91.1925 156.919C92.2868 157.548 93.413 158.119 94.5667 158.631C95.7868 159.128 97.041 159.537 98.3198 159.853C100.909 160.494 103.579 160.741 106.242 160.587C106.364 160.575 106.596 160.245 106.303 160.22Z" fill="#FBD0B4"/>
</g>
<g style="mix-blend-mode:screen">
<path d="M109.359 159.694C109.041 159.816 108.736 159.975 108.418 160.109C108.363 160.13 108.316 160.166 108.283 160.215C108.25 160.263 108.233 160.32 108.234 160.378C108.234 160.488 108.357 160.525 108.455 160.513C108.809 160.465 109.158 160.379 109.494 160.256C109.588 160.22 109.669 160.156 109.726 160.073C109.755 159.994 109.755 159.907 109.726 159.828C109.714 159.645 109.506 159.645 109.359 159.694Z" fill="#FBD0B4"/>
</g>
<g style="mix-blend-mode:screen">
<path d="M156.719 136.172C156.451 137.212 156.035 138.214 155.693 139.217C155.35 140.219 154.971 141.307 154.543 142.322C153.735 144.334 152.648 146.223 151.316 147.933C151.023 148.3 151.45 148.483 151.732 148.227C153.407 146.655 154.724 144.741 155.595 142.615C156.033 141.581 156.389 140.514 156.658 139.424C156.915 138.336 157.013 137.236 157.172 136.136C157.184 135.867 156.719 135.989 156.719 136.172Z" fill="#FBD0B4"/>
</g>
<path d="M208.445 82.1376C208.069 81.4079 207.475 80.8137 206.745 80.4383C205.601 79.8486 204.358 79.4755 203.078 79.338C201.784 79.2112 200.506 78.9532 199.264 78.5678C198.048 78.1113 196.941 77.4078 196.012 76.5018C194.282 74.6111 193.128 72.2655 192.686 69.7412C192.132 66.8233 192.042 63.8363 192.417 60.8902C192.825 58.0007 192.853 55.0705 192.503 52.1736C191.87 48.9186 190.145 45.9772 187.613 43.836C186.705 43.0384 185.698 42.3605 184.618 41.8188C185.188 41.4551 185.727 41.0463 186.231 40.5963C187.246 39.6916 188.799 38.0412 188.151 36.5253C188.116 36.4428 188.051 36.3761 187.97 36.3378C187.889 36.2995 187.797 36.2923 187.711 36.3175C184.703 37.2466 181.696 38.5791 178.493 38.5913C176.984 38.5497 175.499 38.2034 174.127 37.5731C172.755 36.9428 171.525 36.0417 170.51 34.9238C166.842 31.1706 165.326 25.9749 163.028 21.476C161.892 19.133 160.371 16.9966 158.529 15.1556C156.618 13.3367 154.399 11.8714 151.976 10.8279C146.988 8.76641 141.553 8.0213 136.194 8.664C132.211 8.91974 128.349 10.1317 124.934 12.1971C124.923 11.0452 124.587 9.91985 123.964 8.95084C123.341 7.98183 122.457 7.20857 121.413 6.72019C121.341 6.70431 121.266 6.70362 121.193 6.71815C121.12 6.73267 121.051 6.7621 120.99 6.80459C120.93 6.84708 120.878 6.9017 120.839 6.96502C120.801 7.02834 120.776 7.09899 120.765 7.17252C120.909 8.06651 121.211 8.92765 121.658 9.71537C121.816 10.1569 121.864 10.6304 121.798 11.0948C121.732 11.5592 121.554 12.0005 121.279 12.3805C120.185 13.836 118.676 14.9269 116.951 15.5101C115.3 16.046 113.601 16.4226 111.878 16.6348C110.097 13.3829 107.502 10.649 104.347 8.70067C100.948 6.50402 97.0683 5.16185 93.0386 4.7886C88.824 4.43465 84.5936 5.25113 80.8134 7.14807C76.2656 9.38528 71.9012 12.1604 66.791 12.9184C64.351 13.3516 61.845 13.2346 59.4559 12.5761C57.1428 11.7863 55.0018 10.5622 53.1477 8.96963C52.8543 8.73735 52.3164 9.0552 52.243 9.37306C52.0951 10.1488 52.1653 10.9504 52.4459 11.6885C52.7265 12.4267 53.2064 13.0725 53.8323 13.5541C53.0985 13.4623 52.3588 13.4255 51.6195 13.4441C47.8044 13.5679 44.0655 14.5455 40.678 16.3048C37.7234 17.9936 35.2912 20.4638 33.6485 23.4443C31.7902 26.4517 29.9809 29.5569 27.218 31.733C23.8927 34.3492 19.6628 35.6084 15.6529 33.7868C15.3351 33.6524 14.9439 33.9947 14.8338 34.2636C14.137 35.914 15.2984 37.3566 16.6187 38.249C17.0397 38.5336 17.481 38.787 17.939 39.007C15.9191 39.9351 14.0386 41.1407 12.3521 42.589C8.58722 45.6992 5.58457 49.6302 3.57441 54.0807C1.5071 58.6219 1.14259 63.7554 2.54749 68.5431C3.38713 70.9196 4.67815 73.1115 6.34954 74.9981C8.14856 76.8162 9.56958 78.9726 10.5306 81.3429C10.9303 82.4871 11.0368 83.7133 10.8403 84.9093C10.6439 86.1053 10.1507 87.2329 9.40584 88.1891C8.79085 89.0435 7.94165 89.7016 6.9608 90.084C6.41962 90.2555 5.84464 90.2917 5.28623 90.1894C4.72782 90.0871 4.20302 89.8494 3.75779 89.4972C3.39103 89.2404 2.68197 89.7784 2.95092 90.194C3.46576 90.9654 4.14938 91.6096 4.95002 92.0777C5.75065 92.5457 6.6473 92.8255 7.57206 92.8958C5.57788 94.8279 4.1925 97.3011 3.58663 100.011C2.53527 106.27 8.6601 111.16 14.027 112.786C15.4529 113.142 16.8199 113.702 18.0858 114.449L18.2814 114.596C18.8315 115.121 19.3694 115.659 19.8829 116.209C20.2213 116.689 20.5197 117.196 20.7753 117.725C20.8487 117.884 21.0443 117.872 21.2032 117.725C22.6867 119.599 23.4847 121.924 23.4648 124.315C23.4668 125.74 22.9496 127.118 22.01 128.19C20.9007 129.334 19.5344 130.198 18.0246 130.708C17.829 130.782 17.4867 131.149 17.6945 131.381C20.1396 133.936 23.037 131.699 24.9686 129.192C25.0881 129.622 25.2649 130.033 25.4942 130.415C26.8146 132.567 29.553 132.86 31.5213 134.083C32.9661 135.055 34.0087 136.519 34.4553 138.202C34.6942 139.095 34.8053 140.017 34.7854 140.941C34.9 141.804 34.6814 142.678 34.1741 143.386C33.6891 143.778 33.3247 144.299 33.1228 144.89C33.0631 145.138 33.0828 145.4 33.1793 145.636C33.2758 145.873 33.4442 146.074 33.6607 146.21C34.6876 146.65 36.1057 145.611 36.8392 144.987C37.342 144.57 37.7934 144.094 38.184 143.569C38.2471 144.587 38.436 145.593 38.7464 146.565C39.3752 148.81 40.5954 150.845 42.2795 152.457C42.5811 152.523 42.8879 152.564 43.1964 152.579C43.7319 152.575 44.2651 152.51 44.7856 152.384C44.369 151.988 44.0544 151.497 43.8687 150.953C43.4661 149.638 43.4031 148.241 43.6854 146.895C43.9004 145.546 44.3123 144.236 44.9079 143.007C45.6563 141.649 46.6561 140.446 47.8542 139.462C48.3921 138.96 48.9544 138.423 49.4679 137.86C49.1983 139.233 49.3082 140.653 49.7858 141.968C50.2054 143.081 51.0309 143.994 52.0963 144.523C52.5134 144.441 52.9225 144.322 53.3188 144.168C53.4614 144.098 53.6001 144.021 53.7345 143.936C53.426 143.498 53.2059 143.004 53.0866 142.481C52.9288 141.534 53.0129 140.563 53.3311 139.657C53.988 137.831 55.1811 136.246 56.7541 135.109C58.383 134.012 59.5801 132.383 60.1405 130.501C60.6167 128.35 60.4596 126.108 59.6882 124.046C58.8784 122.09 57.9306 120.194 56.8519 118.373C55.8617 116.539 54.8592 114.596 55.4216 112.468C56.0518 110.611 57.2173 108.982 58.7713 107.786C60.312 106.486 61.9465 105.301 63.6614 104.241L65.2507 103.214C64.5318 104.919 64.2953 106.789 64.5669 108.619C64.8386 110.45 65.6079 112.17 66.791 113.593C67.5344 114.47 68.4468 115.189 69.474 115.705C70.5011 116.222 71.6218 116.527 72.7692 116.601C72.8499 116.604 72.9304 116.591 73.0055 116.561C73.0806 116.531 73.1487 116.486 73.2052 116.429C73.2617 116.371 73.3055 116.302 73.3336 116.226C73.3616 116.151 73.3735 116.07 73.3682 115.989C73.0504 113.899 71.4244 112.322 70.6909 110.427C69.7985 108.08 70.6909 105.537 71.7912 103.373C72.9601 101.144 74.5895 99.19 76.5712 97.6392C78.6037 96.2286 80.8853 95.2164 83.2951 94.6562C87.8551 93.4337 93.0753 92.4801 96.1071 88.4458C98.8089 84.7782 98.3688 80.1204 97.1707 76.0372C96.7022 74.6866 96.3425 73.3008 96.0949 71.8929C95.9084 70.4507 96.2096 68.9875 96.9507 67.7363C97.4949 66.651 98.286 65.7085 99.2606 64.9845C100.235 64.2605 101.366 63.7752 102.562 63.5675C102.457 64.6037 102.557 65.6504 102.855 66.6482C103.992 70.3158 107.061 73.2988 110.191 75.3526C113.32 77.4064 117.183 78.8368 120.753 80.4138C123.565 81.6364 126.426 83.3723 127.453 86.4531C128.406 89.3016 127.599 92.4801 127.453 95.402C127.306 98.3238 127.538 101.209 129.641 103.238C132.636 106.136 136.732 105.121 140.424 104.681C142.114 104.395 143.85 104.573 145.448 105.194C146.77 105.793 147.873 106.789 148.602 108.043C150.693 111.564 149.605 115.843 149.935 119.693C150.178 122.619 151.396 125.379 153.395 127.53C154.07 127.78 154.778 127.933 155.497 127.982C155.333 127.816 155.178 127.64 155.033 127.456C154.629 126.94 154.304 126.368 154.067 125.757C153.587 124.534 153.338 123.232 153.333 121.918C153.333 118.728 154.703 115.916 155.852 113.019C156.312 111.98 156.636 110.887 156.818 109.767C158.725 111.221 160.889 112.786 161.708 115.048C162.204 116.842 162.254 118.731 161.854 120.549C161.995 121.018 162.188 121.469 162.429 121.894C162.736 122.464 163.083 123.011 163.468 123.532C163.468 123.532 163.468 123.447 163.468 123.41C163.47 122.307 163.699 121.217 164.141 120.207C164.947 118.08 166.402 116.319 167.405 114.302C167.459 115.513 167.711 116.706 168.15 117.835C168.15 119.706 167.661 121.588 167.576 123.434C167.505 125.378 168.048 127.294 169.128 128.911C170.213 130.302 171.041 131.875 171.573 133.557C171.807 135.594 171.309 137.648 170.168 139.352C170.045 139.584 170.033 139.89 170.339 139.987C172.429 140.648 174.116 138.386 175.009 136.845L175.265 136.356C175.57 135.974 175.84 135.565 176.072 135.134C176.705 135.834 177.47 136.403 178.322 136.809C179.18 137.338 180.205 137.525 181.195 137.334C181.598 137.2 182.099 136.699 181.684 136.308C180.571 135.293 179.52 133.863 179.923 132.273C180.439 130.872 181.374 129.664 182.601 128.813C184.055 127.591 185.645 126.564 187.161 125.427C188.019 124.809 188.836 124.135 189.606 123.41C189.312 124.192 188.921 125.342 189.606 125.855C190.29 126.368 191.439 125.855 192.051 125.439C192.907 124.733 193.632 123.88 194.19 122.921C195.565 121.004 196.324 118.714 196.366 116.356C196.27 114.74 195.885 113.154 195.229 111.674C194.655 110.243 193.86 108.862 193.383 107.395C192.97 106.173 192.832 104.874 192.98 103.593C193.018 103.251 193.096 102.914 193.212 102.59L194.887 101.123C197.282 99.2734 199.384 97.0725 201.122 94.5951C202.626 92.1501 203.567 88.837 202.552 86.0374C202.373 85.609 202.152 85.1994 201.892 84.8149C203.41 84.9287 204.937 84.8008 206.415 84.4359C207.528 84.1547 208.946 83.409 208.445 82.1376Z" fill="#432007"/>
<path d="M207.357 83.0786C207.259 83.1764 207.357 83.0786 207.173 83.2131C206.963 83.3216 206.741 83.4076 206.513 83.4698C206.163 83.5626 205.808 83.632 205.449 83.6777C204.591 83.7918 203.724 83.8327 202.858 83.7999C202.283 83.7999 201.635 83.7999 201.109 83.6899C200.233 82.7919 199.162 82.1062 197.98 81.6849C198.729 82.2113 199.433 82.8002 200.083 83.4454C200.77 84.1729 201.259 85.0656 201.501 86.0371C201.578 86.3866 201.618 86.743 201.623 87.1007C201.878 88.4435 201.849 89.8249 201.537 91.1556C201.225 92.4864 200.638 93.7371 199.814 94.8271C197.89 97.2436 195.682 99.4191 193.236 101.306C192.755 102.07 192.373 102.891 192.1 103.751L192.258 103.58C192.141 104.107 192.076 104.643 192.063 105.182C192.063 107.859 193.395 110.072 194.337 112.517C194.905 113.754 195.211 115.096 195.234 116.458C195.257 117.819 194.997 119.171 194.471 120.427C194.032 121.384 193.508 122.3 192.906 123.165C192.466 123.789 191.855 124.73 191.073 124.95C189.85 125.28 190.779 123.263 190.926 122.823C191.066 122.401 191.137 121.959 191.134 121.515C191.386 121.078 191.552 120.596 191.623 120.097C191.354 120.317 191.085 120.537 190.791 120.745C190.452 121.264 190.04 121.734 189.569 122.138C188.548 123.161 187.43 124.082 186.231 124.889C184.654 126.014 183.053 127.089 181.598 128.361C180.31 129.332 179.332 130.657 178.786 132.175C178.625 132.839 178.626 133.532 178.788 134.195C178.949 134.859 179.267 135.474 179.715 135.989C179.435 135.87 179.162 135.735 178.896 135.586C178.097 135.18 177.399 134.599 176.855 133.887L176.745 133.667C176.903 133.213 177.038 132.752 177.148 132.285C177.49 130.806 177.674 128.899 176.696 127.652C176.79 129.156 176.675 130.666 176.353 132.138C176.058 133.752 175.282 135.239 174.128 136.405C173.591 137.395 172.661 138.948 171.5 138.997C172.448 137.429 172.919 135.62 172.857 133.789C172.559 131.955 171.802 130.227 170.656 128.764C170.099 127.995 169.612 127.176 169.202 126.319C168.792 125.269 168.605 124.145 168.652 123.018C168.652 121.943 168.798 120.879 168.835 119.815V119.339C169.343 120.242 169.982 121.066 170.73 121.784C170.964 122.015 171.213 122.232 171.476 122.432C169.908 120.645 168.949 118.406 168.737 116.038C168.311 114.708 168.137 113.311 168.224 111.918C168.456 111.117 168.628 110.3 168.737 109.473C168.732 109.424 168.732 109.375 168.737 109.326C168.737 109.241 168.737 109.192 168.737 109.167C168.841 108.185 168.865 107.195 168.81 106.209C168.653 104.17 168.188 102.166 167.429 100.267C166.305 98.2469 164.783 96.4753 162.955 95.0593C165.161 97.872 166.677 101.163 167.38 104.668C167.815 106.941 167.748 109.282 167.184 111.527C166.913 112.641 166.502 113.718 165.962 114.73C165.363 115.83 164.617 116.845 164.03 117.945C163.592 118.729 163.216 119.547 162.906 120.39C163.385 118.371 163.313 116.26 162.698 114.277C161.708 111.759 159.165 110.219 156.879 108.947C156.879 108.788 156.879 108.629 156.879 108.47C156.741 107.032 156.222 105.656 155.375 104.485C153.822 102.284 151.426 101.086 149.262 99.5949C148.264 98.9864 147.426 98.1481 146.817 97.1499C146.585 96.7301 146.419 96.2763 146.328 95.8051C146.31 96.214 146.334 96.6238 146.402 97.0276C146.558 97.933 146.877 98.8027 147.343 99.5949C149.14 101.343 151.536 102.333 153.272 104.167C154.434 105.227 155.209 106.644 155.475 108.194C155.741 109.744 155.482 111.339 154.739 112.725C153.615 115.671 152.196 118.544 152.196 121.771C152.207 122.668 152.309 123.561 152.502 124.437C151.982 123.565 151.571 122.633 151.279 121.661C150.167 117.688 151.536 113.471 150.35 109.51C149.994 108.152 149.283 106.914 148.29 105.922C147.298 104.929 146.06 104.218 144.702 103.862C140.961 102.932 137.233 104.95 133.516 104.167C131.868 103.848 130.414 102.89 129.47 101.502C128.735 100.315 128.315 98.9601 128.247 97.5655C128.052 94.7415 128.663 91.9541 128.663 89.1301C128.689 87.6832 128.37 86.251 127.732 84.952C127.094 83.653 126.156 82.5247 124.995 81.6605C122.183 79.4966 118.65 78.3597 115.484 76.8315C112.002 75.2942 108.892 73.0261 106.364 70.181C105.08 68.7846 104.135 67.1114 103.601 65.2909C103.469 64.7298 103.399 64.1558 103.393 63.5794C103.45 63.5916 103.508 63.5916 103.564 63.5794C103.564 63.4205 103.564 63.2738 103.564 63.1148H103.405C103.418 62.6136 103.475 62.1144 103.577 61.6234C103.624 60.9728 103.722 60.327 103.87 59.6918C103.206 60.4242 102.78 61.3406 102.648 62.3202C102.648 62.5769 102.562 62.8459 102.525 63.1026C101.546 63.1639 100.588 63.4179 99.707 63.85C98.8259 64.2822 98.0387 64.884 97.3907 65.621C96.4842 66.5041 95.7848 67.5773 95.343 68.7632C94.9011 69.9492 94.7279 71.2184 94.8356 72.4793C95.1168 75.0222 96.2537 77.3694 96.6205 79.9367C97.0291 82.1064 96.8389 84.3464 96.0704 86.4161C94.0165 91.1595 88.3562 92.2475 83.8451 93.4823C81.3492 94.0617 78.9631 95.04 76.779 96.3797C74.6683 97.8437 72.893 99.7398 71.571 101.942C70.1529 104.192 68.8326 107.113 69.3949 109.827C69.835 112.004 71.571 113.605 72.2312 115.659C70.3451 115.226 68.6578 114.175 67.4373 112.673C66.2168 111.171 65.5332 109.305 65.4951 107.37C65.3677 105.449 65.9122 103.543 67.0354 101.979L67.8912 101.392C68.3924 100.561 68.967 99.7783 69.456 98.947C69.8903 98.2481 70.1851 97.4718 70.324 96.6608C70.117 97.0061 69.8925 97.3407 69.6516 97.6633C68.6125 98.9959 67.3166 100.108 66.2775 101.478L63.6124 103.14C61.8124 104.252 60.0851 105.477 58.4411 106.808C56.8585 108.016 55.5641 109.561 54.6513 111.331C54.2303 112.248 54.0194 113.248 54.0343 114.257C54.0491 115.265 54.2891 116.258 54.7369 117.163C55.6538 119.167 56.8518 121.038 57.8176 123.031C58.8544 125.008 59.3201 127.234 59.1624 129.461C59.0899 130.622 58.6963 131.739 58.0255 132.689C57.4015 133.414 56.7006 134.07 55.9349 134.645C54.2015 135.989 52.9215 137.832 52.2674 139.926C51.9689 140.947 51.9186 142.024 52.1207 143.068C51.6357 142.614 51.2632 142.053 51.0326 141.43C50.571 140.091 50.5031 138.649 50.837 137.273C51.3627 135.599 52.0083 133.965 52.7686 132.383C53.265 131.108 53.4453 129.733 53.2943 128.373C52.6674 126.355 51.5935 124.503 50.1524 122.957C50.6414 124.18 51.1427 125.292 51.5828 126.503C52.0072 127.521 52.2194 128.615 52.2062 129.718C52.1142 130.794 51.8457 131.847 51.4116 132.835C50.9593 133.948 50.4091 135.024 49.9935 136.148C49.0576 137.321 47.9958 138.386 46.8271 139.327C45.5692 140.361 44.5372 141.643 43.7953 143.092C42.5614 145.494 42.1327 148.228 42.5728 150.892C41.4095 149.55 40.5132 147.998 39.9321 146.32C39.455 145.014 39.1988 143.638 39.1742 142.249C39.1742 142.175 39.1742 142.114 39.1742 142.053C39.1742 141.992 39.2842 141.772 39.3453 141.625C39.183 140.994 38.9704 140.377 38.7096 139.779C38.7096 139.914 38.7096 140.048 38.7096 140.17C38.5667 140.567 38.4603 140.977 38.3917 141.393C38.0236 142.423 37.4257 143.355 36.6435 144.119C36.3501 144.4 34.7486 145.77 34.4063 145.195C34.064 144.62 34.8953 144.241 35.1398 143.972C35.5793 143.474 35.8751 142.866 35.9956 142.212C36.3066 140.65 36.1953 139.034 35.673 137.53C35.1508 136.025 34.2367 134.687 33.0249 133.654C31.3133 132.322 28.9294 132.065 27.3279 130.586C26.7922 130.07 26.4039 129.42 26.2032 128.703C25.4527 127.317 25.227 125.707 25.5675 124.168C25.3132 124.743 25.1127 125.34 24.9684 125.952C24.8098 126.691 24.7604 127.449 24.8217 128.202C23.3303 130.329 21.0686 132.994 19.0392 131.332C20.2035 130.928 21.2699 130.284 22.1692 129.442C23.0685 128.599 23.7807 127.577 24.2594 126.441C24.6532 124.996 24.7282 123.482 24.4791 122.004C24.23 120.526 23.6628 119.121 22.8168 117.884C21.6341 116.063 20.2067 114.414 18.5747 112.982C16.8893 112.228 15.2734 111.328 13.7457 110.292C14.2469 110.818 14.7726 111.331 15.3227 111.845C14.6504 111.625 13.9902 111.404 13.33 111.148C12.0235 110.63 10.7905 109.944 9.66247 109.106C7.1852 107.459 5.45514 104.903 4.84573 101.991C4.4423 99.057 5.95822 96.343 7.75533 94.1424L7.88981 93.9957C8.23518 93.3681 8.64489 92.7782 9.11233 92.2353C10.0189 91.2044 10.9865 90.2287 12.0097 89.3135C10.7333 90.0398 9.56466 90.9409 8.53775 91.9908C7.49965 91.9909 6.47816 91.7303 5.56702 91.2328C8.48884 91.3551 11.2395 88.2377 12.0097 85.4381C12.5387 83.1016 12.1259 80.6507 10.8605 78.6164C9.57689 76.3058 7.62085 74.5332 6.12938 72.3693C4.61918 70.2596 3.61902 67.8282 3.20755 65.2665C2.86157 62.7365 3.00266 60.1638 3.62321 57.6868C4.94681 52.8441 7.58253 48.4611 11.2395 45.0215C13.3169 42.8736 15.7644 41.1177 18.4646 39.838C19.2348 39.1412 20.0661 38.4932 20.9097 37.8331L19.4671 38.371C18.8895 38.1582 18.3329 37.8921 17.8045 37.5763C16.9487 37.0629 15.714 36.0971 15.7751 34.9846C17.328 35.5709 18.9913 35.8069 20.646 35.6759C22.3007 35.5449 23.9061 35.05 25.3474 34.2266C28.5401 32.4067 31.2031 29.7858 33.0738 26.6225C34.8464 23.8474 36.3379 20.7667 38.9663 18.6761C42.0788 16.4436 45.7279 15.0768 49.5411 14.7152C51.7114 14.4086 53.9215 14.5543 56.0327 15.1431C56.4362 15.2531 56.8274 15.3876 57.2553 15.5098C58.2822 15.5098 59.3091 15.4365 60.3238 15.4365C59.3213 15.0575 58.3311 14.654 57.3286 14.2995L56.4729 14.0428C55.177 13.1626 53.5632 11.9889 53.331 10.4852C54.6939 11.631 56.2232 12.5627 57.8665 13.2481C59.7581 14.0016 61.7852 14.3554 63.8202 14.2873C66.2531 14.2308 68.6622 13.7935 70.9597 12.9914C73.3395 12.1183 75.6487 11.0639 77.867 9.83731C79.9057 8.66378 82.0406 7.66586 84.2486 6.85435C86.2254 6.21873 88.285 5.87685 90.3612 5.83966C94.4444 5.77755 98.4745 6.77138 102.061 8.72481C104.046 9.78898 105.883 11.1083 107.525 12.6491C108.519 13.6968 109.435 14.8164 110.264 15.9988C110.504 16.2409 110.729 16.4982 110.936 16.769C111.199 17.1122 111.44 17.4715 111.658 17.8448C111.878 17.7724 112.103 17.7112 112.33 17.6614C112.323 17.6169 112.323 17.5715 112.33 17.527L112.868 17.4536C116.279 17.0013 120.325 15.7665 122.245 12.6613C122.33 12.5146 122.403 12.3557 122.477 12.209C122.45 12.1094 122.457 12.0036 122.497 11.9084C122.537 11.8133 122.607 11.7341 122.697 11.6833C122.92 11.1159 122.975 10.4963 122.856 9.89843C122.614 9.2242 122.302 8.57687 121.927 7.96684C122.714 8.60916 123.31 9.45476 123.65 10.4119C123.979 11.2296 124.08 12.1208 123.944 12.9914L123.638 13.2604C123.638 13.4315 123.638 13.5904 123.638 13.7616C124.406 13.2418 125.225 12.8034 126.083 12.4535C129.05 10.9836 132.27 10.0916 135.57 9.82508C140.777 9.19837 146.057 9.89206 150.925 11.8422C153.348 12.858 155.564 14.3081 157.465 16.1211C159.283 17.9733 160.783 20.1129 161.903 22.4537C164.177 26.9159 165.754 31.9405 169.324 35.5959C171.499 37.9946 174.537 39.4323 177.772 39.5935C181.06 39.5935 184.275 38.371 187.344 37.2952C187.613 38.3832 186.219 39.6424 185.522 40.2292C184.968 40.7042 184.361 41.1144 183.713 41.4517C182.783 41.1017 181.807 40.8876 180.816 40.816C182.169 41.4381 183.435 42.2355 184.581 43.1877C185.135 43.5358 185.666 43.9197 186.17 44.3369C188.414 46.1243 190.077 48.5364 190.95 51.2686C192.491 56.6232 190.535 62.2713 191.048 67.6626C191.488 72.4182 193.493 77.4428 198.151 79.4355C200.474 80.4258 203.127 80.1323 205.486 81.1226C206.27 81.4359 206.922 82.0102 207.332 82.7485C207.373 82.8457 207.398 82.949 207.406 83.0542C207.406 83.1031 207.381 83.0542 207.357 83.0786Z" fill="#9C5B3D"/>
<g style="mix-blend-mode:screen">
<path d="M6.06825 72.3691C6.93624 73.5917 7.97539 74.8142 8.94118 75.9511C8.32134 73.8409 7.50265 71.7941 6.49613 69.8385C5.2465 67.5147 4.364 65.0115 3.87994 62.4178C3.19532 57.4299 5.95822 52.5276 9.56467 49.2635C12.7118 46.4817 16.5527 44.6029 20.6806 43.826C24.8084 43.049 29.0695 43.4029 33.0126 44.8502C31.9186 43.5912 30.5898 42.5572 29.1006 41.8061C26.9924 40.8158 24.731 40.1915 22.4134 39.9601C21.9121 39.9601 21.7043 39.1532 22.2789 39.0187C25.7889 38.2518 29.0001 36.4806 31.5212 33.9208C33.6372 31.5743 35.4486 28.9701 36.9125 26.17C39.6053 21.5842 43.3836 17.7303 47.9152 14.9473C44.6349 15.4399 41.5225 16.7192 38.8441 18.676C36.2157 20.7665 34.7242 23.8472 32.9515 26.6224C31.0809 29.7856 28.4179 32.4065 25.2252 34.2264C23.7839 35.0498 22.1785 35.5447 20.5238 35.6757C18.869 35.8068 17.2058 35.5707 15.6528 34.9844C15.6528 36.0969 16.8753 37.0627 17.6822 37.5762C18.2106 37.892 18.7672 38.158 19.3448 38.3708L20.7874 37.8329C19.9683 38.493 19.137 39.141 18.3424 39.8378C15.6856 41.13 13.2804 42.8853 11.2395 45.0213C7.58253 48.4609 4.94681 52.8439 3.62321 57.6866C3.00266 60.1636 2.86157 62.7363 3.20755 65.2663C3.60069 67.8228 4.57977 70.2538 6.06825 72.3691Z" fill="#9C5B3D"/>
</g>
<g style="mix-blend-mode:screen">
<path d="M33.8561 76.4033C33.0954 78.2496 32.5895 80.1909 32.3524 82.1736C32.1279 84.0734 32.2104 85.997 32.5969 87.8706C33.0981 89.8796 33.8197 91.827 34.7486 93.6776C36.6068 97.7241 38.7218 101.722 39.8342 106.049C40.5702 108.777 40.683 111.635 40.1643 114.412C41.9064 111.295 42.649 107.719 42.2915 104.167C41.9759 101.874 41.3208 99.6408 40.3477 97.5407C39.602 95.8781 38.6729 94.3011 37.9027 92.6506C36.4648 89.6586 35.358 86.5185 34.6019 83.2861C34.0542 81.0342 33.8035 78.7203 33.8561 76.4033Z" fill="#9C5B3D"/>
</g>
<g style="mix-blend-mode:screen">
<path d="M25.9096 100.903C25.384 99.9001 24.6871 98.9955 24.1492 98.0419C23.1083 96.5088 22.408 94.7705 22.0954 92.944C21.973 91.9248 22.0689 90.8914 22.3766 89.9121C22.0569 90.5024 21.791 91.1202 21.5819 91.7581C20.8925 93.7231 20.7822 95.8448 21.2641 97.8707C21.7237 99.5545 22.6223 101.086 23.868 102.308C25.0906 103.531 26.5209 104.754 27.6823 106.049C27.5112 105.389 27.34 104.729 27.1444 104.069C26.8292 102.978 26.4159 101.919 25.9096 100.903Z" fill="#9C5B3D"/>
</g>
<g style="mix-blend-mode:screen">
<path d="M162.673 77.382C159.763 75.8136 156.734 74.4769 153.615 73.3843C151.151 72.4978 148.774 71.3888 146.512 70.0713C146.942 70.5067 147.4 70.915 147.881 71.2938C150.188 72.965 152.644 74.4217 155.216 75.646C157.902 77.0013 160.435 78.6407 162.771 80.5361C167.647 84.622 171.288 89.9857 173.285 96.0254C173.119 92.2805 172.05 88.6313 170.167 85.3895C168.439 82.0918 165.85 79.3244 162.673 77.382Z" fill="#9C5B3D"/>
</g>
<g style="mix-blend-mode:screen">
<path d="M139.604 79.9492C139.677 80.1693 139.751 80.3893 139.836 80.5972C140.737 82.6509 142.005 84.5234 143.577 86.123C145.633 88.1047 147.939 89.8102 150.435 91.1964L147.538 88.5069C144.621 85.9198 141.963 83.0536 139.604 79.9492Z" fill="#9C5B3D"/>
</g>
<g style="mix-blend-mode:screen">
<path d="M136.853 71.7457C136.951 72.2591 137.086 72.7726 137.232 73.2738C137.049 71.33 136.951 69.374 136.78 67.4424C136.554 68.8701 136.579 70.3264 136.853 71.7457Z" fill="#9C5B3D"/>
</g>
<g style="mix-blend-mode:screen">
<path d="M130.949 70.5228C128.735 68.9085 126.42 67.4384 124.017 66.1217C123.977 66.0862 123.932 66.0573 123.882 66.0361C126.621 68.7868 129.543 71.3786 131.315 74.8627C133.638 79.4105 133.589 84.6429 134.359 89.533C135.837 85.7677 136.227 81.6629 135.484 77.6868C135.17 76.0204 134.503 74.4406 133.528 73.0534C132.786 72.0977 131.918 71.2464 130.949 70.5228Z" fill="#9C5B3D"/>
</g>
<g style="mix-blend-mode:screen">
<path d="M118.149 60.1802C117.542 58.9283 117.079 57.6118 116.768 56.2559C116.84 57.6699 117.319 59.0328 118.149 60.1802Z" fill="#9C5B3D"/>
</g>
<g style="mix-blend-mode:screen">
<path d="M59.3699 80.1571C61.0703 79.4571 62.7065 78.6103 64.26 77.6264C68.0132 75.1814 71.534 71.7461 72.6343 67.2961C73.0948 65.4076 73.0569 63.4319 72.5243 61.5625C70.8861 69.3011 65.4336 75.4137 59.3699 80.1571Z" fill="#9C5B3D"/>
</g>
<g style="mix-blend-mode:multiply" opacity="0.51">
<path d="M207.332 82.7485C206.893 82.0202 206.214 81.467 205.413 81.1837C203.09 80.1935 200.437 80.4869 198.077 79.4966C193.432 77.5039 191.415 72.4793 190.975 67.7237C190.461 62.2957 192.417 56.721 190.877 51.3297C190.018 48.5932 188.367 46.1726 186.133 44.3736C185.629 43.9563 185.098 43.5725 184.544 43.2244C183.398 42.2722 182.132 41.4748 180.779 40.8527C181.77 40.9243 182.746 41.1384 183.676 41.4884C184.324 41.1511 184.931 40.7409 185.485 40.2659C186.182 39.6791 187.576 38.4199 187.307 37.3318C184.239 38.4321 181.023 39.6913 177.735 39.6302C174.501 39.469 171.462 38.0313 169.287 35.6325C165.937 32.1972 164.336 27.5761 162.27 23.3217C162.16 23.664 162.038 23.9941 161.94 24.3364C161.47 26.0716 161.211 27.8572 161.17 29.6544C161.042 31.7019 161.185 33.7573 161.597 35.767C161.927 37.6918 162.772 39.4915 164.042 40.975C165.487 42.3705 167.136 43.5372 168.933 44.4347C170.747 45.3539 172.491 46.404 174.153 47.5766C175.759 48.8269 177.133 50.3496 178.211 52.0755C180.649 55.6567 181.704 60.0004 181.182 64.3007C181.097 64.7897 180.375 64.7286 180.253 64.3007C179.929 63.0879 179.368 61.9513 178.602 60.9566C177.836 59.962 176.881 59.129 175.791 58.5059C171.744 56.122 166.842 55.7552 162.429 54.4105C160.266 53.8244 158.239 52.8192 156.463 51.452C155.288 50.4573 154.363 49.2012 153.761 47.7844C153.699 49.1608 153.872 50.5377 154.274 51.8554C154.839 53.5863 155.783 55.1693 157.037 56.4888C159.567 58.9447 162.452 61.0053 165.595 62.6014C168.757 64.2257 171.761 66.1411 174.568 68.3228C180.962 73.7385 185.779 84.2156 180.974 92.1008C180.935 92.1618 180.882 92.2135 180.821 92.2522C180.759 92.291 180.69 92.3158 180.618 92.3251C180.546 92.3345 180.473 92.328 180.403 92.3061C180.334 92.2843 180.27 92.2476 180.216 92.1986C178.786 90.6949 178.664 88.5311 177.967 86.6728C176.396 82.8463 173.971 79.4297 170.876 76.6848C168.599 74.314 165.862 72.4336 162.832 71.159C165.647 73.3304 168.322 75.6783 170.84 78.1885C173.423 80.7979 175.562 83.8126 177.172 87.1129C178.75 90.5069 179.69 94.1618 179.947 97.8956C180.485 104.962 178.407 112.566 172.417 116.832C172.335 116.883 172.239 116.908 172.143 116.903C172.047 116.899 171.954 116.865 171.877 116.807C171.801 116.749 171.743 116.669 171.713 116.577C171.683 116.486 171.681 116.387 171.708 116.295C173.099 112.587 173.569 108.597 173.077 104.668C172.031 98.0234 168.671 91.9615 163.59 87.5531C159.799 84.1495 155.291 81.6426 150.399 80.2179C154.04 82.9754 157.032 86.4974 159.165 90.536C160.438 93.1245 161.316 95.8898 161.769 98.7391C162.313 101.548 162.024 104.455 160.937 107.101C160.888 107.18 160.817 107.243 160.733 107.283C160.648 107.324 160.555 107.339 160.462 107.327C160.37 107.316 160.282 107.278 160.21 107.218C160.139 107.159 160.085 107.08 160.057 106.991C159.24 104.072 157.53 101.481 155.167 99.5827C153.131 97.9246 150.969 96.4286 148.7 95.1082C146.527 93.7795 144.627 92.0495 143.101 90.0103C140.656 86.6239 139.836 82.4796 139.506 78.3719C139.05 79.5568 138.718 80.786 138.516 82.0395C137.952 85.6065 138.224 89.2558 139.311 92.6999C140.208 95.9688 142.122 98.8676 144.775 100.976C145.191 101.282 144.959 102.015 144.409 101.857C143.594 101.637 142.779 101.404 141.964 101.16C139.304 100.524 136.832 99.2669 134.751 97.4922C132.831 95.3844 131.76 92.6409 131.743 89.7903C131.462 85.5114 131.291 81.2326 129.029 77.455C126.902 73.8852 123.076 71.6725 120.032 68.9952C118.99 68.1546 118.087 67.1563 117.354 66.0367C116.758 65.0404 116.243 63.9979 115.814 62.9192C114.737 60.321 114.009 57.5913 113.65 54.8017C113.369 52.5156 113.296 49.8138 114.567 47.7844C115.097 46.9092 115.913 46.2441 116.878 45.9017C118.225 45.5962 119.635 45.7467 120.887 46.3296C123.843 47.4817 126.577 49.1361 128.968 51.2197C130.467 52.5024 131.78 53.9878 132.868 55.633C131.093 51.3428 128.516 47.4302 125.276 44.1046C123.271 41.9774 120.68 40.1681 119.567 37.3563C119.107 36.1521 119.06 34.8296 119.431 33.5954C119.803 32.3611 120.573 31.2848 121.621 30.5346C124.836 27.9306 129.164 26.6348 133.162 25.8768C137.759 24.9355 142.5 24.9355 147.098 25.8768C148.892 26.241 150.622 26.8671 152.233 27.735C151.658 27.1115 151.01 26.5125 150.448 25.9257C146.879 22.4336 142.351 20.0842 137.44 19.1774C132.166 18.4771 126.813 19.6402 122.306 22.466C121.914 22.6982 121.364 22.2092 121.658 21.8058C123.028 19.9613 124.625 18.2977 126.413 16.8546C130.031 13.7353 134.169 11.2772 138.638 9.5928C137.611 9.5928 136.597 9.66615 135.582 9.77618C132.282 10.0427 129.062 10.9347 126.095 12.4046C125.237 12.7545 124.418 13.1929 123.65 13.7127C123.65 13.5415 123.65 13.3826 123.65 13.2115L123.956 12.9425C124.092 12.0719 123.991 11.1807 123.663 10.363C123.322 9.40586 122.726 8.56026 121.939 7.91795C122.314 8.52797 122.626 9.1753 122.868 9.84953C122.987 10.4474 122.932 11.067 122.709 11.6344C122.619 11.6852 122.549 11.7644 122.509 11.8595C122.469 11.9547 122.462 12.0605 122.489 12.1601C122.416 12.3068 122.342 12.4657 122.257 12.6124C120.337 15.7176 116.291 16.9524 112.88 17.4047L112.342 17.4781C112.335 17.5226 112.335 17.568 112.342 17.6125C112.115 17.6623 111.89 17.7235 111.67 17.7959C111.452 17.4226 111.211 17.0633 110.948 16.7201C110.735 16.4657 110.507 16.2248 110.264 15.9988C109.368 14.8091 108.383 13.6893 107.317 12.6491C105.675 11.1083 103.838 9.78898 101.853 8.72481C98.2665 6.77138 94.2364 5.77755 90.1532 5.83966C88.077 5.87685 86.0174 6.21873 84.0406 6.85435C81.8326 7.66586 79.6977 8.66378 77.659 9.83731C75.4407 11.0639 73.1315 12.1183 70.7517 12.9914C68.4853 13.7836 66.11 14.2207 63.71 14.2873C61.675 14.3554 59.6479 14.0016 57.7563 13.2481C56.113 12.5627 54.5837 11.631 53.2208 10.4852C53.4531 11.9889 55.0668 13.1626 56.3627 14.0428L57.2184 14.2995C58.2209 14.654 59.2111 15.0575 60.2136 15.4365C59.1989 15.4365 58.172 15.4365 57.1451 15.5098C56.7539 15.3876 56.3627 15.2531 55.9226 15.1431C53.8113 14.5543 51.6012 14.4086 49.431 14.7152C48.8441 14.7885 48.2451 14.8863 47.6339 15.0086C49.4888 17.5141 52.0397 19.4188 54.969 20.4855C57.4478 21.4872 60.0747 22.0737 62.7442 22.2215C64.4362 22.2687 66.1292 22.1747 67.8055 21.9403C70.0427 21.6835 72.2677 21.3657 74.5049 21.1701C81.0454 20.62 88.3072 21.5368 93.0995 26.4636C96.657 30.1312 97.9895 35.2535 97.8795 40.2292C97.6944 45.7628 96.2963 51.1881 93.7841 56.122C93.7346 56.201 93.6636 56.2643 93.5794 56.3043C93.4952 56.3443 93.4014 56.3594 93.3088 56.3479C93.2163 56.3363 93.1291 56.2986 93.0573 56.239C92.9856 56.1795 92.9323 56.1007 92.9039 56.012C92.3045 53.8494 91.2219 51.8513 89.7375 50.1683C85.422 45.3516 78.6003 43.6645 72.1943 43.7623C75.7396 44.5884 79.0716 46.1503 81.9745 48.3468C85.3298 50.8956 87.7666 54.465 88.9184 58.5181C90.0484 62.8223 89.7568 67.3764 88.0871 71.5013C84.9697 79.4111 77.3167 87.2719 68.1233 85.8782C68.0526 85.8596 67.9872 85.8251 67.932 85.7772C67.8768 85.7293 67.8333 85.6694 67.805 85.6021C67.7766 85.5347 67.7641 85.4617 67.7684 85.3888C67.7728 85.3159 67.7938 85.2449 67.8299 85.1814C69.896 82.4551 72.72 80.1323 73.9425 76.8804C74.2925 75.9474 74.5784 74.9917 74.7983 74.0197L74.5905 74.3376C70.984 79.2277 65.3849 82.015 60.7882 85.7804C58.4819 87.6066 56.4734 89.7801 54.8345 92.2231C53.2067 94.8462 51.9363 97.6748 51.0569 100.634C51.031 100.723 50.9795 100.803 50.9088 100.863C50.8381 100.924 50.7513 100.962 50.659 100.974C50.5668 100.986 50.4731 100.97 50.3896 100.929C50.3061 100.888 50.2363 100.824 50.1889 100.744C49.0548 98.496 48.1575 96.136 47.5116 93.7023C45.47 85.866 46.4969 77.8095 49.0886 70.2177C47.4131 71.8008 46.067 73.6995 45.1277 75.8046C44.1004 78.2916 43.5528 80.9505 43.514 83.641C43.5912 88.6994 44.2475 93.7323 45.47 98.6413C45.9468 101.086 46.4358 103.531 46.7659 105.976C47.1076 108.024 47.2061 110.104 47.0593 112.175C46.3013 119.51 41.1423 130.574 32.0711 128.789C32.0001 128.769 31.9346 128.733 31.8794 128.684C31.8243 128.634 31.781 128.573 31.7527 128.505C31.7245 128.437 31.7121 128.363 31.7164 128.29C31.7207 128.216 31.7417 128.144 31.7777 128.08C32.9082 126.018 33.9324 123.901 34.8463 121.735C36.1543 117.7 36.3903 113.394 35.5309 109.241C35.3201 107.928 35.0302 106.63 34.6629 105.353C35.1274 111.025 34.0516 116.967 28.8315 120.023C28.4891 120.219 27.9757 119.889 28.1224 119.485C28.9302 117.651 29.2178 115.629 28.9537 113.642C28.6461 112.269 27.8941 111.035 26.8143 110.133C24.7116 108.25 22.0098 107.15 19.7114 105.524C17.0952 103.666 14.3201 100.732 14.4668 97.2721C14.6502 93.1767 18.3422 90.2671 20.6406 87.2474C22.2274 85.2184 23.3011 82.8363 23.7702 80.3035C24.0185 78.8243 24.0473 77.3166 23.8558 75.8291C23.4279 80.6458 21.7286 85.5359 17.5476 88.201C17.0952 88.4822 16.5451 87.7976 16.973 87.443C17.5065 87.0247 17.9471 86.5001 18.267 85.9024C18.5869 85.3047 18.7791 84.647 18.8312 83.9711C18.8503 82.5463 18.5275 81.1377 17.8899 79.8634C15.4448 74.4476 10.6648 70.7067 7.26615 65.9633C5.55897 63.6545 4.27953 61.0584 3.48856 58.2981C2.9861 60.5698 2.8909 62.9126 3.20738 65.2176C3.60052 67.7741 4.5796 70.2051 6.06808 72.3204C7.55956 74.4843 9.5156 76.257 10.7992 78.5675C12.0646 80.6018 12.4774 83.0527 11.9484 85.3892C11.2394 88.2377 8.42755 91.3062 5.50572 91.2328C6.41687 91.7303 7.43836 91.9909 8.47645 91.9908C9.50336 90.9409 10.672 90.0398 11.9484 89.3135C10.9252 90.2287 9.95764 91.2044 9.05104 92.2353C8.58359 92.7782 8.17388 93.3681 7.82851 93.9957L7.69404 94.1424C5.89693 96.343 4.381 99.0325 4.78443 101.991C5.39385 104.903 7.12391 107.459 9.60117 109.106C10.7292 109.944 11.9622 110.63 13.2687 111.148C13.9289 111.404 14.5891 111.625 15.2615 111.845C14.7113 111.331 14.1856 110.818 13.6844 110.292C15.2121 111.328 16.828 112.228 18.5134 112.982C20.1308 114.369 21.5536 115.969 22.7433 117.737C23.5893 118.974 24.1565 120.38 24.4056 121.857C24.6547 123.335 24.5797 124.849 24.1859 126.295C23.7071 127.43 22.995 128.452 22.0957 129.295C21.1964 130.137 20.13 130.781 18.9657 131.185C20.9951 132.848 23.2567 130.182 24.7482 128.055C24.6869 127.302 24.7363 126.544 24.8949 125.806C25.0392 125.194 25.2397 124.596 25.494 124.021C25.1534 125.56 25.3791 127.17 26.1297 128.556C26.3304 129.273 26.7187 129.923 27.2544 130.439C28.8559 131.918 31.2398 132.175 32.9514 133.508C34.1631 134.541 35.0773 135.879 35.5995 137.383C36.1217 138.887 36.2331 140.504 35.9221 142.065C35.8016 142.719 35.5058 143.327 35.0663 143.826C34.8218 144.095 34.0761 144.608 34.3328 145.048C34.5895 145.488 36.2766 144.254 36.57 143.972C37.3522 143.208 37.9501 142.276 38.3182 141.246C38.3868 140.83 38.4931 140.421 38.6361 140.024C38.6361 139.901 38.6361 139.767 38.6361 139.633C38.8969 140.23 39.1094 140.847 39.2718 141.479C39.2718 141.625 39.1618 141.772 39.1006 141.906C39.0395 142.041 39.1006 142.029 39.1006 142.102C39.1253 143.492 39.3815 144.868 39.8586 146.173C40.425 147.848 41.3045 149.399 42.4504 150.745C42.0103 148.082 42.439 145.347 43.6729 142.946C44.4148 141.496 45.4468 140.214 46.7047 139.18C47.8733 138.24 48.9352 137.174 49.8711 136.002C50.2867 134.877 50.8369 133.801 51.2892 132.689C51.7233 131.7 51.9917 130.647 52.0838 129.571C52.097 128.468 51.8848 127.374 51.4603 126.356C51.0202 125.133 50.519 123.984 50.03 122.811C51.4711 124.357 52.545 126.208 53.1719 128.226C53.3229 129.586 53.1425 130.962 52.6462 132.236C51.8859 133.818 51.2403 135.452 50.7146 137.126C50.3807 138.502 50.4486 139.945 50.9102 141.283C51.1408 141.906 51.5133 142.467 51.9983 142.921C51.7962 141.877 51.8465 140.8 52.145 139.779C52.7991 137.685 54.0791 135.842 55.8125 134.498C56.5781 133.924 57.2791 133.268 57.903 132.542C58.5739 131.592 58.9675 130.475 59.04 129.314C59.1977 127.088 58.732 124.861 57.6952 122.884C56.7294 120.891 55.5313 119.021 54.6145 117.016C54.1667 116.112 53.9266 115.119 53.9118 114.11C53.897 113.101 54.1078 112.101 54.5289 111.184C55.4417 109.415 56.7361 107.87 58.3187 106.661C59.9627 105.33 61.69 104.105 63.49 102.994L66.1551 101.331C67.1942 99.9861 68.4901 98.8858 69.5292 97.5166C69.7701 97.194 69.9945 96.8594 70.2016 96.5141C70.0627 97.3251 69.7679 98.1014 69.3336 98.8003C68.8446 99.6316 68.27 100.414 67.7688 101.245L66.913 101.832C65.7898 103.396 65.2452 105.302 65.3726 107.223C65.4108 109.158 66.0944 111.025 67.3149 112.527C68.5353 114.028 70.2227 115.079 72.1087 115.512C71.4486 113.458 69.6637 111.845 69.2725 109.681C68.7101 106.967 70.0305 104.045 71.4486 101.795C72.7706 99.5931 74.5459 97.697 76.6565 96.233C78.8407 94.8933 81.2268 93.915 83.7227 93.3356C88.1849 92.1131 93.8452 91.0128 95.9479 86.2694C96.7651 84.1827 96.9894 81.9107 96.5959 79.7045C96.2291 77.1616 95.0922 74.8144 94.811 72.2471C94.7032 70.9861 94.8765 69.7169 95.3183 68.531C95.7602 67.345 96.4595 66.2718 97.3661 65.3887C98.0141 64.6517 98.8012 64.0499 99.6824 63.6178C100.563 63.1856 101.521 62.9316 102.501 62.8703C102.501 62.6136 102.501 62.3446 102.623 62.0879C102.755 61.1083 103.182 60.1919 103.845 59.4595C103.697 60.0947 103.599 60.7405 103.552 61.3911C103.451 61.8822 103.393 62.3813 103.381 62.8825H103.54C103.54 63.0415 103.54 63.1882 103.54 63.3471C103.483 63.3593 103.425 63.3593 103.369 63.3471C103.375 63.9235 103.444 64.4975 103.576 65.0586C104.11 66.8791 105.055 68.5523 106.339 69.9487C108.867 72.7938 111.978 75.062 115.459 76.5993C118.626 78.1274 122.159 79.2644 124.971 81.4282C126.131 82.2924 127.07 83.4207 127.707 84.7197C128.345 86.0187 128.664 87.4509 128.638 88.8978C128.638 91.7219 128.027 94.5092 128.223 97.3332C128.29 98.7278 128.711 100.082 129.445 101.27C130.389 102.657 131.844 103.616 133.492 103.935C137.159 104.717 140.937 102.712 144.678 103.629C146.035 103.986 147.273 104.697 148.266 105.689C149.258 106.682 149.969 107.92 150.326 109.277C151.548 113.238 150.142 117.456 151.255 121.429C151.547 122.401 151.957 123.333 152.477 124.204C152.285 123.329 152.182 122.436 152.172 121.539C152.172 118.312 153.59 115.427 154.715 112.493C155.457 111.106 155.716 109.512 155.45 107.962C155.185 106.412 154.41 104.995 153.248 103.935C151.512 102.101 149.115 101.111 147.318 99.3626C146.853 98.5704 146.534 97.7007 146.377 96.7953C146.31 96.3915 146.285 95.9818 146.304 95.5728C146.395 96.044 146.56 96.4978 146.793 96.9176C147.401 97.9158 148.239 98.7541 149.238 99.3626C151.402 100.854 153.798 102.052 155.35 104.253C156.197 105.424 156.716 106.799 156.854 108.238C156.854 108.397 156.854 108.556 156.854 108.715C159.14 109.937 161.683 111.527 162.673 114.045C163.289 116.027 163.36 118.138 162.881 120.158C163.191 119.314 163.567 118.497 164.006 117.713C164.593 116.612 165.338 115.598 165.937 114.497C166.478 113.485 166.888 112.409 167.16 111.294C167.724 109.05 167.79 106.709 167.355 104.436C166.652 100.931 165.137 97.6398 162.93 94.8271C164.758 96.243 166.28 98.0146 167.404 100.035C168.163 101.934 168.629 103.937 168.786 105.976C168.841 106.963 168.816 107.952 168.712 108.935C168.712 108.935 168.712 109.008 168.712 109.094C168.707 109.143 168.707 109.192 168.712 109.241C168.603 110.067 168.432 110.885 168.199 111.686C168.112 113.079 168.286 114.476 168.712 115.806C168.924 118.173 169.883 120.412 171.451 122.199C171.189 122 170.94 121.783 170.705 121.551C169.957 120.834 169.319 120.01 168.81 119.106V119.583C168.81 120.647 168.639 121.71 168.627 122.786C168.58 123.913 168.768 125.036 169.177 126.087C169.588 126.944 170.074 127.762 170.632 128.532C171.778 129.994 172.535 131.723 172.832 133.557C172.894 135.387 172.423 137.197 171.475 138.765C172.637 138.765 173.566 137.163 174.104 136.173C175.258 135.007 176.033 133.52 176.329 131.906C176.65 130.434 176.766 128.924 176.671 127.42C177.649 128.642 177.466 130.574 177.123 132.053C177.013 132.52 176.879 132.981 176.72 133.434L176.83 133.654C177.374 134.367 178.072 134.948 178.872 135.354C179.137 135.503 179.411 135.637 179.691 135.757C179.243 135.242 178.925 134.626 178.763 133.963C178.601 133.299 178.601 132.607 178.762 131.943C179.308 130.425 180.285 129.099 181.573 128.129C183.028 126.906 184.63 125.781 186.207 124.657C187.405 123.849 188.523 122.928 189.544 121.906C190.015 121.501 190.427 121.032 190.767 120.512C191.06 120.304 191.329 120.084 191.598 119.864C191.528 120.364 191.362 120.846 191.109 121.282C191.112 121.727 191.042 122.169 190.901 122.591C190.755 123.031 189.862 125.036 191.048 124.718C191.83 124.498 192.442 123.556 192.882 122.933C193.483 122.068 194.007 121.152 194.447 120.194C194.973 118.938 195.232 117.587 195.209 116.225C195.186 114.864 194.881 113.522 194.312 112.285C193.371 109.84 192.002 107.602 192.038 104.95C192.051 104.411 192.117 103.874 192.234 103.348L192.075 103.519C192.348 102.659 192.73 101.837 193.212 101.074C195.657 99.1868 197.865 97.0113 199.789 94.5948C200.614 93.5049 201.201 92.2542 201.512 90.9234C201.824 89.5926 201.853 88.2112 201.598 86.8684C201.594 86.5107 201.553 86.1543 201.476 85.8048C201.234 84.8333 200.746 83.9406 200.058 83.2131C199.408 82.5679 198.705 81.979 197.955 81.4527C199.138 81.8739 200.208 82.5597 201.085 83.4576C201.672 83.4576 202.307 83.5554 202.833 83.5676C203.699 83.6004 204.566 83.5595 205.425 83.4454C205.784 83.3997 206.139 83.3303 206.488 83.2375C206.717 83.1754 206.938 83.0893 207.149 82.9808C207.32 82.883 207.234 82.9808 207.332 82.8463C207.43 82.7119 207.332 82.8463 207.332 82.7608C207.332 82.7567 207.332 82.7526 207.332 82.7485Z" fill="#9C5B3D"/>
</g>
<path d="M149.873 0.118212C149.555 -0.199644 149.005 0.179338 149.042 0.594996C149.218 1.65845 149.32 2.73274 149.348 3.81023C149.286 5.11793 149.055 6.41222 148.663 7.66118C148.039 9.64166 146.707 12.6368 144.25 12.698C143.993 12.698 143.724 13.1625 144.091 13.1748C146.169 13.2481 147.685 11.6466 148.651 9.95952C149.844 7.89447 150.515 5.56976 150.607 3.18674C150.757 2.10804 150.495 1.01232 149.873 0.118212Z" fill="#673A22"/>
<path d="M175.571 26.9889C174.351 26.3251 172.988 25.9682 171.599 25.9491C170.21 25.9299 168.838 26.249 167.6 26.8788C165.038 28.0207 163.009 30.0979 161.928 32.6858C161.756 33.0892 162.417 33.0037 162.539 32.6858C163.59 30.3699 165.502 28.5544 167.869 27.6246C168.995 27.1688 170.203 26.9509 171.417 26.9845C172.63 27.0182 173.824 27.3027 174.923 27.8202C175.314 28.0036 176.036 27.27 175.571 26.9889Z" fill="#673A22"/>
<path d="M197.674 53.5911C196.065 54.7484 194.271 55.6247 192.368 56.1829C190.413 56.6962 188.358 56.6962 186.402 56.1829C186.121 56.1095 185.718 56.5985 186.085 56.7086C188.149 57.3087 190.329 57.3998 192.437 56.974C194.544 56.5482 196.518 55.6182 198.188 54.2635C198.738 53.8356 198.285 53.1633 197.674 53.5911Z" fill="#673A22"/>
<path d="M193.077 61.1591C190.974 61.0674 188.866 61.1164 186.769 61.3058C186.439 61.3058 186.133 61.8926 186.561 61.8926C188.474 61.7642 190.394 61.7642 192.307 61.8926C193.263 61.982 194.19 62.2648 195.033 62.7239C195.814 63.2555 196.472 63.9473 196.965 64.7533C197.16 65.01 197.674 64.7533 197.662 64.4477C197.539 62.2227 194.984 61.3791 193.077 61.1591Z" fill="#673A22"/>
<path d="M61.2891 2.06169C61.0569 1.90277 60.6168 2.3062 60.8857 2.48958C63.1606 4.02695 65.0547 6.0632 66.4237 8.44326C67.7601 10.8679 68.1932 13.6879 67.6463 16.4019C67.5362 16.952 68.4654 16.6831 68.5754 16.3041C70.2991 10.4237 65.8492 5.20358 61.2891 2.06169Z" fill="#673A22"/>
<path d="M73.1478 14.678C72.5071 13.0655 72.0399 11.3894 71.7541 9.67792C71.5617 7.92968 71.2265 6.20014 70.7516 4.50665C70.6294 4.16434 70.0304 4.50665 70.1159 4.78783C70.5502 6.53973 70.8203 8.32826 70.9228 10.1303C70.9366 11.8949 71.4587 13.6181 72.4265 15.0937C72.6588 15.3626 73.2823 15.0203 73.1478 14.678Z" fill="#673A22"/>
<path d="M10.1146 53.4074C8.54842 53.9651 6.8812 54.1818 5.2245 54.0432C3.52506 53.8066 1.89554 53.2106 0.44444 52.295C0.224386 52.1605 -0.166821 52.5395 0.0776833 52.6984C3.03619 54.5077 6.80156 55.828 10.1146 54.1043C10.2857 54.0187 10.4813 53.8476 10.4447 53.6397C10.4298 53.5661 10.3873 53.501 10.3259 53.4578C10.2645 53.4146 10.1889 53.3966 10.1146 53.4074Z" fill="#673A22"/>
<path d="M11.9363 50.9627C8.75772 50.8282 4.79675 49.3612 3.37862 46.3049C3.24414 46.0115 2.66956 46.4027 2.81626 46.7083C4.34441 49.9725 8.17091 51.8062 11.6551 51.8307C12.1197 51.8429 12.5964 50.9627 11.9363 50.9627Z" fill="#673A22"/>
<path d="M19.8949 108.777C19.8215 108.263 18.978 108.715 18.9657 109.082C18.9457 110.139 18.6688 111.176 18.1589 112.102C17.6196 112.987 16.9138 113.759 16.0806 114.376C14.3953 115.689 12.4215 116.581 10.3225 116.98C9.96797 117.053 9.82127 117.64 10.3225 117.554C12.6593 117.154 14.8698 116.212 16.7774 114.804C18.5745 113.422 20.2738 111.209 19.8949 108.777Z" fill="#673A22"/>
<path d="M21.374 110.708C21.2509 110.731 21.138 110.792 21.0506 110.881C20.9631 110.971 20.9053 111.085 20.8849 111.209C20.2522 113.749 18.852 116.033 16.8751 117.749C16.5205 118.092 17.034 118.336 17.3274 118.067C19.3568 116.172 21.5696 113.923 21.8141 111.013C21.8263 110.769 21.5818 110.671 21.374 110.708Z" fill="#673A22"/>
<path d="M64.6516 52.1857C64.0697 53.0736 63.27 53.7976 62.3288 54.2885C61.2432 54.9438 60.0642 55.4302 58.8324 55.731C56.7541 56.2445 54.0768 56.3423 52.5975 54.5085C52.2674 54.1051 51.4606 54.6797 51.7173 55.132C53.0865 57.577 56.4851 57.3081 58.7712 56.6968C61.0574 56.0856 63.9792 54.7041 65.165 52.3446C65.3484 51.9412 64.8227 51.8923 64.6516 52.1857Z" fill="#673A22"/>
<path d="M61.5706 58.824C59.3701 60.2299 55.3724 62.3938 53.2574 59.7776C52.9151 59.3497 52.0349 59.9732 52.3283 60.4378C52.8836 61.1265 53.6465 61.6175 54.5034 61.8378C55.3602 62.0581 56.2653 61.9958 57.0839 61.6603C58.7989 61.0996 60.4158 60.2747 61.8762 59.2152C62.2674 59.0196 61.9496 58.5795 61.5706 58.824Z" fill="#673A22"/>
<path d="M128.357 78.237C127.98 80.8592 126.679 83.2609 124.689 85.0098C123.28 86.2877 121.653 87.3022 119.885 88.0049C119.546 88.1504 119.17 88.1888 118.809 88.115C118.54 88.0294 118.332 87.7238 118.161 87.4793C117.99 87.2347 117.415 87.4793 117.391 87.8216C117.269 88.7874 118.1 89.2275 118.968 89.1663C120.062 88.9939 121.103 88.5759 122.012 87.9438C124.018 86.8389 125.765 85.3174 127.134 83.4816C128.156 81.854 128.772 80.0052 128.932 78.0903C129.005 77.748 128.406 77.9558 128.357 78.237Z" fill="#673A22"/>
<path d="M130.117 85.328C128.953 87.0174 127.572 88.5464 126.01 89.8758C125.212 90.6087 124.325 91.2372 123.369 91.7463C122.984 91.9551 122.573 92.1114 122.146 92.2108C121.765 92.2597 121.379 92.2597 120.997 92.2108C120.692 92.2108 120.08 92.7609 120.508 92.9932C120.854 93.1415 121.226 93.218 121.602 93.218C121.979 93.218 122.351 93.1415 122.697 92.9932C123.511 92.7015 124.278 92.2894 124.971 91.7707C126.534 90.5717 127.936 89.1744 129.139 87.6141C129.665 86.954 130.191 86.2816 130.655 85.5725C130.814 85.1935 130.288 85.0713 130.117 85.328Z" fill="#673A22"/>
<path d="M198.041 105.023C197.228 105.105 196.409 105.105 195.596 105.023C194.728 104.849 193.899 104.517 193.151 104.045C192.374 103.644 191.7 103.071 191.178 102.37C190.657 101.669 190.303 100.857 190.143 99.9983C190.143 99.7049 189.544 99.925 189.569 100.182C189.679 101.134 190.003 102.049 190.515 102.86C191.027 103.67 191.715 104.355 192.527 104.864C194.031 105.879 196.415 106.759 198.102 105.683C198.285 105.475 198.408 105.035 198.041 105.023Z" fill="#673A22"/>
<path d="M196.134 108.592C193.505 109.485 190.669 107.736 188.42 106.587C188.102 106.428 187.552 106.93 187.894 107.125C190.437 108.556 193.31 110.487 196.329 109.375C196.892 109.167 196.794 108.421 196.134 108.592Z" fill="#673A22"/>
</g>
</svg>
