<svg width="250" height="270" viewBox="0 0 250 270" fill="none" xmlns="http://www.w3.org/2000/svg">
<path d="M52.1856 123.386L49.1295 100.835C49.1295 100.835 47.0863 88.0332 42.8744 85.9958C38.6625 83.9584 35.3817 84.1073 35.3817 84.1073L39.0916 78.649L28.0349 81.4132L36.0355 72.2479L24.541 74.7231L38.5078 64.1743L68.1139 51.6612L78.0818 49.7697C78.0818 49.7697 80.4811 57.8463 82.9534 61.5561C85.4257 65.266 88.5547 71.3752 94.9557 72.029C101.357 72.6829 107.031 73.1236 112.052 68.3921C117.072 63.6606 116.996 63.3746 119.471 54.8632C121.947 46.3517 121.363 44.0254 121.363 44.0254C121.363 44.0254 128.782 42.7148 136.567 42.061C144.352 41.4072 152.933 42.9367 152.933 42.9367C152.933 42.9367 177.373 50.2105 178.173 51.0103C178.972 51.81 171.845 53.5555 171.845 53.5555L178.826 58.5001L179.334 60.3185L168.788 60.7534L174.752 64.6093L166.462 69.0576C166.462 69.0576 165.516 79.5305 165.954 83.8942C166.392 88.2579 167.262 92.7705 167.481 93.4973C167.7 94.2241 167.408 106.518 169.01 109.428C170.613 112.339 169.886 112.846 169.886 112.846C169.886 112.846 161.666 120.412 161.156 121.139C160.645 121.866 148.062 132.196 143.844 133.433C139.626 134.671 126.748 140.488 117.656 140.634C108.564 140.78 90.306 140.272 79.5383 136.84C79.5383 136.84 63.4612 129.931 61.2808 128.401C59.1004 126.872 52.1856 123.386 52.1856 123.386Z" fill="url(#paint0_linear_276_4802)"/>
<path d="M136.894 95.3071C136.894 95.3071 117.253 100.981 102.414 109.274C102.414 109.274 83.3184 115.713 75.6798 116.913C68.0411 118.112 52.1128 115.713 51.7859 115.386C51.459 115.059 49.8215 102.292 49.8215 102.292C49.8215 102.292 58.114 98.3632 61.8239 97.4904C65.5338 96.6177 89.9735 93.9878 92.9215 93.9878C95.8696 93.9878 119.775 93.8769 123.473 94.4227C127.172 94.9685 136.894 95.3071 136.894 95.3071Z" fill="url(#paint1_linear_276_4802)"/>
<path d="M51.2399 132.951L52.0017 122.472C52.0017 122.472 62.3141 128.853 64.5528 130.219C66.7916 131.585 80.8109 137.257 86.1028 138.018C91.3947 138.78 105.636 140.966 105.636 140.966C105.636 140.966 121.839 141.185 125.875 139.548C129.912 137.91 140.659 134.854 140.659 134.854C140.659 134.854 154.244 127.435 156.713 124.638C159.183 121.842 163.803 118.748 163.803 118.748L171.007 110.835C171.007 110.835 173.844 122.184 174.769 123.821C175.695 125.458 176.08 128.077 176.08 128.077C176.08 128.077 174.39 136.314 174.933 137.079C175.476 137.843 176.57 149.898 179.79 155.082C183.009 160.266 188.736 167.303 188.736 167.303C188.471 172.46 187.688 177.577 186.401 182.578C184.326 190.272 178.651 204.347 176.634 208.165C175.256 210.685 173.628 213.061 171.777 215.257C171.777 215.257 173.143 221.095 173.307 221.314C173.47 221.533 178.38 237.026 180.998 238.007C183.616 238.988 178.488 238.883 173.701 241.664C168.914 244.446 153.432 257.616 153.432 257.616C153.432 257.616 149.451 262.254 148.304 256.691V255.281C148.304 255.281 143.613 258.007 143.45 255.497C143.286 252.987 144.705 248.784 144.705 248.784L138.485 239.128L133.955 232.908L117.481 232.744C117.481 232.744 116.021 240.818 115.951 242.73C115.881 244.642 115.68 249.385 115.899 252.441C116.118 255.497 113.272 256.478 113.225 256.819C113.178 257.161 110.388 258.401 110.388 258.401C110.388 258.401 100.785 259.11 98.4934 258.457C96.2021 257.803 84.0917 255.728 81.1437 253.436C78.1956 251.145 76.5611 249.782 77.4338 246.18C78.3065 242.578 75.4169 232.488 73.0146 226.869C70.6124 221.25 65.16 218.696 65.16 218.696C65.16 218.696 53.9749 207.949 52.1739 201.947C50.373 195.946 47.4833 186.833 47.1009 178.433C46.7186 170.032 47.3753 172.213 47.3753 172.213C47.3753 172.213 51.739 168.83 51.847 168.558C51.955 168.287 55.6123 160.155 55.6123 160.155L56.6485 147.989C56.6485 147.989 55.3934 136.752 53.3765 135.114C51.3596 133.477 51.2399 132.951 51.2399 132.951Z" fill="url(#paint2_linear_276_4802)"/>
<path d="M79.3896 252.322C79.7165 252.214 92.3756 258.434 94.7749 257.996C97.1742 257.558 108.523 258.98 109.396 258.542C110.268 258.104 113.435 257.561 113.435 257.561C113.435 257.561 114.854 262.69 112.889 264.108C110.925 265.527 79.8274 267.272 71.7538 267.272C63.6802 267.272 57.1303 267.053 57.1303 267.053C57.1303 267.053 53.9662 260.614 56.4765 257.234C58.9867 253.854 69.0276 252.856 71.316 252.76C73.6044 252.663 79.3896 252.322 79.3896 252.322Z" fill="url(#paint3_linear_276_4802)"/>
<path d="M152.495 257.996C152.825 257.343 166.681 246.105 173.555 242.503C180.429 238.901 186.322 237.593 190.578 237.701C194.834 237.809 197.125 239.774 199.305 246.321C201.486 252.868 200.397 255.369 200.397 255.369C200.397 255.369 188.721 257.553 177.592 258.425C166.462 259.298 153.587 259.625 153.587 259.625L152.495 257.996Z" fill="url(#paint4_linear_276_4802)"/>
<path d="M176.065 126.296C176.065 126.296 186.468 131.39 187.195 130.444C187.922 129.499 187.703 128.985 188.795 136.845C189.886 144.706 192.297 150.009 192.431 150.374C192.566 150.739 199.842 162.377 199.842 162.377C199.842 162.377 198.243 164.128 195.406 163.468C192.569 162.809 188.64 160.05 188.64 160.05L188.278 166.813C188.278 166.813 183.33 162.596 181.074 159.105C178.818 155.614 175.838 147.029 175.838 144.627C175.838 142.225 175.911 125.932 175.911 125.932" fill="url(#paint5_linear_276_4802)"/>
<path d="M220.73 129.061C220.73 129.061 225.458 125.351 229.53 126.142C233.602 126.933 234.913 129.061 235.931 131.743C236.95 134.426 237.683 139.236 236.588 141.273C235.493 143.311 234.405 147.82 229.53 149.493C224.656 151.165 222.256 153.203 222.256 153.203C222.256 153.203 223.859 150.22 223.567 143.965C223.275 137.709 220.73 129.061 220.73 129.061Z" fill="url(#paint6_linear_276_4802)"/>
<path d="M56.526 151.603C56.491 154.344 56.2195 156.795 55.6007 158.27C54.7017 160.4 54.3252 162.835 53.4612 165.053C52.9845 166.391 52.226 167.612 51.237 168.631C50.7904 169.078 50.3613 169.487 49.9965 169.846C47.9533 171.819 46.8704 172.674 46.8704 172.674L46.2165 164.268L32.6905 163.629C32.6905 163.629 35.0898 165.914 33.6683 168.865C32.2469 171.816 31.38 173.885 31.38 173.885C31.38 173.885 32.0338 179.122 31.9229 179.446C31.8119 179.77 29.1996 186.218 26.5784 187.619C24.1616 188.918 19.6052 189.119 14.4534 187.776C14.0273 187.674 13.5778 187.543 13.1545 187.411C7.48027 185.66 5.08972 185.885 3.9893 172.353C2.88889 158.821 9.33959 154.676 14.4622 150.532C19.5848 146.387 21.5609 143.007 25.6006 141.582C29.6403 140.158 45.5656 136.46 45.5656 136.46L49.4944 136.67L51.2458 132.969C51.2458 132.969 55.0607 135.473 55.8284 140.929C56.3185 144.465 56.5516 148.033 56.526 151.603Z" fill="url(#paint7_linear_276_4802)"/>
<path d="M120.198 51.2263C119.004 56.3489 118.129 58.7599 118.129 58.7599C118.129 58.7599 112.019 74.0343 102.416 73.1616C92.8133 72.2889 84.9586 66.5007 84.0859 64.7553C83.6947 63.9788 82.4542 60.628 81.2049 57.1662C79.6521 52.8696 78.0818 48.3921 78.0818 48.3921C78.0818 48.3921 77.749 31.4627 81.4677 27.7732C85.1863 24.0838 95.2068 15.0032 103.178 19.6909C111.15 24.3786 115.397 28.4212 117.58 34.6442C119.004 38.7014 120.189 42.3442 120.513 45.8001C120.707 47.6139 120.601 49.4472 120.198 51.2263Z" fill="url(#paint8_linear_276_4802)"/>
<path d="M92.1011 46.2055C92.1011 46.2055 96.8472 43.9142 99.3982 43.4793C101.949 43.0444 105.89 42.0607 105.89 42.0607C105.89 42.0607 104.582 37.2037 102.618 36.1675C100.653 35.1313 96.0153 34.749 94.5412 36.3865C93.0672 38.0239 91.815 39.3871 91.6516 41.6784C91.5799 43.2013 91.7313 44.7265 92.1011 46.2055Z" fill="url(#paint9_linear_276_4802)"/>
<path d="M79.9353 9.38124C79.9353 9.38124 78.7911 7.85467 86.7012 4.4717C94.6114 1.08874 95.1018 1.1442 95.9745 1.84472C96.8472 2.54525 99.4771 6.75718 99.1852 8.28374C98.8934 9.81031 99.0772 11.0654 95.8023 11.6667C92.4423 12.2231 89.0558 12.605 85.6563 12.8109C83.6364 12.9218 81.672 14.3929 80.5278 12.0491C79.3836 9.70524 79.9353 9.38124 79.9353 9.38124Z" fill="url(#paint10_linear_276_4802)"/>
<path d="M24.833 45.999C24.833 45.999 34.9819 48.0159 35.6328 49.598C35.6328 49.598 34.7572 51.1275 32.4221 51.4544C30.087 51.7813 23.8581 55.2723 21.6748 53.3079C19.4915 51.3435 18.8377 49.4345 21.0764 48.1794C23.3152 46.9243 24.833 45.999 24.833 45.999Z" fill="url(#paint11_linear_276_4802)"/>
<path d="M7.48903 85.8702C7.59994 85.7068 10.5451 78.9963 11.9637 76.6496C13.3822 74.3028 13.9835 73.2666 13.9835 73.2666C13.9835 73.2666 10.5451 73.2666 7.81886 74.7932C5.09264 76.3197 0.997467 79.1714 1.05293 81.886C1.10838 84.6005 2.03366 87.3968 3.99806 86.9619C5.18995 86.6953 6.35762 86.3302 7.48903 85.8702Z" fill="url(#paint12_linear_276_4802)"/>
<path d="M188.794 136.845C188.794 136.845 187.195 120.73 190.905 117.35C194.615 113.97 196.36 111.238 198.87 111.784C201.381 112.33 204.107 110.146 204.653 110.146C205.198 110.146 213.929 113.311 215.452 115.602C216.976 117.893 223.094 136.775 223.193 139.718C223.292 142.66 221.994 155.322 221.775 156.411C221.556 157.499 215.992 163.068 214.247 163.395C212.501 163.722 207.808 165.147 204.323 164.487C200.838 163.827 197.23 159.685 196.15 157.613C195.07 155.541 190.149 145.938 190.149 145.938L188.794 136.845Z" fill="#A7B8BC"/>
<path d="M245.243 152.92C240.774 158.045 235.424 159.248 235.424 159.248C235.424 159.248 232.56 160.874 229.653 160.707C228.77 160.668 227.908 160.428 227.131 160.007C223.628 158.037 221.676 153.463 222.878 152.587C224.081 151.711 226.579 151.49 228.132 150.947C229.685 150.404 232.163 148.871 235 144.619C237.837 140.366 237.627 131.849 235.987 130.316C234.346 128.784 230.75 125.515 229.005 125.515C227.259 125.515 221.585 128.343 221.585 128.343L215.248 116.235C215.248 116.235 216.346 110.885 217.98 109.47C218.879 108.684 222.423 107.601 225.686 106.773C228.331 106.092 230.785 105.585 231.524 105.541C233.156 105.436 240.47 110.237 242.548 115.911C244.627 121.586 247.674 133.807 247.674 133.807C247.674 133.807 249.711 147.797 245.243 152.92Z" fill="#A7B8BC"/>
<path d="M120.198 51.2265C119.004 56.3491 118.129 58.7601 118.129 58.7601C118.129 58.7601 112.019 74.0345 102.416 73.1618C92.8133 72.2891 84.9586 66.5009 84.0859 64.7554C83.6948 63.979 82.4542 60.6282 81.205 57.1664C82.6644 54.5394 86.1991 49.1424 92.1011 46.209C100.122 42.2305 114.804 41.9328 117.965 43.2609C118.637 43.5528 119.553 44.4547 120.513 45.8003C120.707 47.6141 120.601 49.4474 120.198 51.2265Z" fill="url(#paint13_linear_276_4802)"/>
<path d="M77.9855 39.4751C77.9855 39.4751 77.9447 47.8084 78.6685 48.0244C79.3924 48.2404 85.0638 38.2783 93.3563 34.7144C101.649 31.1505 110.741 29.1131 114.664 31.2117C118.587 33.3104 112.171 25.4732 111.698 25.015C111.226 24.5567 102.942 16.8743 93.7883 18.7686C84.6347 20.663 79.1998 30.7768 77.9855 39.4751Z" fill="url(#paint14_linear_276_4802)"/>
<path d="M92.3375 20.3832C92.3375 20.3832 98.759 23.0744 102.244 31.2238L110.268 30.9319C110.268 30.9319 104.632 18.5297 92.3375 20.3832Z" fill="url(#paint15_linear_276_4802)"/>
<path d="M105.408 42.7884C105.408 42.7884 106.158 44.7528 104.932 45.7919C103.707 46.831 98.33 48.2467 96.6662 50.538C95.0025 52.8293 102.449 47.1812 105.913 48.1357C109.378 49.0902 109.597 52.155 109.76 57.6191C109.924 63.0833 105.948 70.6139 102.373 71.8136C98.797 73.0132 109.979 70.1761 110.198 70.1236C110.417 70.071 118.053 62.7563 113.701 42.7884C113.689 42.7884 112.843 39.3996 105.408 42.7884Z" fill="url(#paint16_linear_276_4802)"/>
<path d="M80.6623 11.2907C80.6623 11.2907 90.8112 10.1991 92.3377 9.03445C93.8643 7.86982 92.8135 1.99414 92.8135 1.99414H95.0552C95.0552 1.99414 96.1468 5.25452 96.1089 7C96.071 8.74549 97.6822 8.09166 98.2659 8.05371C98.8497 8.01577 98.6658 9.36428 98.6658 9.47228C98.6658 9.58028 92.2443 12.2773 85.9746 12.4904C79.7049 12.7035 80.6623 11.2907 80.6623 11.2907Z" fill="url(#paint17_linear_276_4802)"/>
<path d="M102.244 31.2229C104.308 34.4677 105.413 38.2297 105.432 42.0752C105.432 42.0752 111.433 41.3251 112.816 42.0752C114.2 42.8254 113.774 42.0752 113.774 42.0752C113.774 42.0752 112.784 35.5574 109.941 30.8872C107.39 30.3283 104.737 30.444 102.244 31.2229Z" fill="url(#paint18_linear_276_4802)"/>
<path d="M51.1379 105.996C51.1379 105.996 63.3154 100.065 80.1164 98.9904C96.9174 97.9163 100.84 97.2654 101.941 101.121C103.041 104.977 99.0219 107.23 94.1211 109.122C89.2203 111.013 69.4246 116.469 53.1315 114.869C53.1315 114.869 56.4765 118.725 66.2956 118.29C76.1146 117.855 91.8678 113.827 98.3593 110.602C104.851 107.376 119.807 100.351 124.404 98.9904C129.002 97.6303 135.257 94.8661 135.257 94.8661C135.257 94.8661 106.669 93.8678 90.385 94.2181C74.1006 94.5683 59.1531 98.3629 54.912 100.908C50.6709 103.453 50.2681 105.616 50.2681 105.616L51.1379 105.996Z" fill="url(#paint19_linear_276_4802)"/>
<path d="M132.201 42.5488C132.201 42.5488 136.579 65.9932 135.995 94.5047C135.995 94.5047 154.11 91.8777 158.981 93.0452C163.853 94.2128 162.192 92.8263 162.192 92.8263C162.192 92.8263 158.689 72.0002 161.316 68.518C163.943 65.0358 172.081 63.947 172.081 63.947C172.081 63.947 171.646 61.9038 167.28 61.0282C164.811 60.5168 162.305 60.2006 159.787 60.0825C159.787 60.0825 168.082 54.992 178.193 58.9149C188.304 62.8379 175.695 56.2441 175.695 56.2441L169.098 52.9488L160.006 54.1864C160.006 54.1864 165.642 47.3329 177.773 51.5944C189.904 55.856 172.574 47.4584 172.574 47.4584C172.574 47.4584 151.188 41.2879 132.201 42.5488Z" fill="url(#paint20_linear_276_4802)"/>
<path d="M166.585 116.343C166.585 116.343 165.957 116.997 162.265 120.462C158.573 123.926 140.665 134.875 140.665 134.875C138.424 125.281 137.516 113.077 137.163 104.785C132.125 104.977 126.191 106.425 117.863 110.161C111.48 112.978 104.908 115.347 98.1958 117.251C106.909 113.871 109.536 111.682 122.393 106.253C130.248 102.925 134.746 101.947 137.04 101.693C136.909 97.8026 136.909 95.3215 136.909 95.3215C151.418 91.9006 162.277 94.8166 162.277 94.8166C163.809 104.761 166.585 116.343 166.585 116.343Z" fill="url(#paint21_linear_276_4802)"/>
<path d="M140.659 134.861C140.659 134.861 142.659 161.461 151.395 179.286C163.52 204.018 126.474 218.46 101.304 219.19C76.135 219.92 57.5564 210.433 57.5564 210.433C57.5564 210.433 70.9277 222.842 71.8121 226.908C72.6966 230.974 74.9149 231.931 74.9149 231.931C74.9149 231.931 86.675 230.968 97.0049 235.04C107.335 239.111 105.735 247.988 98.3154 247.772C90.8957 247.556 87.2588 245.88 87.2588 245.88C87.2588 245.88 91.929 249.444 99.6231 250.609C99.6231 250.609 100.499 254.246 97.8046 254.695C95.1105 255.145 79.5471 250.696 79.5471 250.696C79.5471 250.696 80.0959 253.39 87.466 255.504C94.8362 257.617 107.454 259.832 111.109 257.678C114.763 255.524 110.744 253.822 111.255 244.511C111.766 235.2 112.37 232.5 112.37 232.5C121.148 232.784 129.934 232.221 138.605 230.819C152.425 228.51 152.063 228.192 154.463 231.946C156.862 235.699 159.381 240.76 160.814 241.035C162.247 241.309 160.648 243.857 157.02 246.257C154.727 247.798 152.666 249.658 150.896 251.779C150.896 251.779 158.348 246.563 161.713 245.244C165.079 243.925 160.061 249.307 160.061 249.307L171.903 242.83L176.573 239.342C176.573 239.342 165.651 224.937 170.671 216.867C175.692 208.796 180.339 203.574 184.343 191.598C188.348 179.622 188.325 165.912 188.325 165.912C188.325 165.912 179.656 161.119 176.162 145.626L174.994 134.216C174.994 134.216 171.261 127.412 166.456 115.827C166.468 115.827 158.176 127.929 140.659 134.861Z" fill="url(#paint22_linear_276_4802)"/>
<path d="M175.271 133.711C175.271 133.711 180.096 138.089 189.156 141.39C189.156 141.39 192.685 154.193 194.834 157.249C196.982 160.305 199.378 162.45 197.925 162.304C196.471 162.158 190.432 158.802 189.752 160.013C189.072 161.224 188.733 166.595 188.733 166.595C188.733 166.595 182.04 161.904 179.168 155.03C176.296 148.156 175.271 133.711 175.271 133.711Z" fill="url(#paint23_linear_276_4802)"/>
<path d="M233.993 135.497C234.405 137.984 234.848 143.536 231.681 147.867C231.226 148.495 230.896 148.982 230.668 149.368C228.367 150.926 225.858 152.151 223.214 153.008C223.214 153.008 224.089 143.912 222.881 138.308C221.673 132.704 220.736 127.894 220.736 127.894L224.218 127.135C224.218 127.135 224.078 135.287 227.936 137.523C230.199 138.839 232.499 137.287 233.993 135.497Z" fill="url(#paint24_linear_276_4802)"/>
<path d="M238.112 153.209C235.572 159.782 232.411 160.156 229.647 160.716C228.764 160.676 227.902 160.437 227.125 160.016C223.622 158.045 221.67 153.471 222.872 152.596C224.075 151.72 226.573 151.498 228.126 150.955C229.679 150.412 232.157 148.88 234.994 144.627C237.832 140.375 237.621 131.857 235.981 130.325C234.341 128.792 230.745 125.523 228.999 125.523C227.254 125.523 221.579 128.352 221.579 128.352L215.242 116.244C215.242 116.244 216.34 110.894 217.974 109.478C218.873 108.693 222.417 107.61 225.68 106.781C228.859 108.36 234.916 112.701 237.832 123.007C241.822 137.137 240.677 146.6 238.112 153.209Z" fill="#79888C"/>
<path d="M194.451 111.536C194.451 111.536 202.253 107.584 208.634 119.368C215.015 131.151 217.195 137.949 216.106 150.153C215.018 162.357 210.785 164.917 205.946 165.057C201.106 165.197 193.421 157.573 191.185 148.159C188.949 138.746 188.068 126.522 190.196 120.027C192.323 113.533 194.451 111.536 194.451 111.536Z" fill="#79888C"/>
<path d="M215.628 151.793L223.004 150.503L221.676 154.575L214.892 155.926L215.628 151.793Z" fill="#79888C"/>
<path d="M239.997 147.841L247.373 146.551L246.042 150.626L239.262 151.974L239.997 147.841Z" fill="#79888C"/>
<path d="M193.961 113.529C193.961 113.529 189.582 125.815 190.75 142.937C191.918 160.059 186.812 128.658 188.462 124.495C190.111 120.333 193.961 113.529 193.961 113.529Z" fill="#A7B8BC"/>
<path d="M58.4583 73.9581C58.4583 73.9581 58.6772 70.5576 57.4221 70.9925C56.167 71.4274 51.1845 76.8507 51.24 81.2494C51.2954 85.6482 54.9498 86.8682 56.5494 86.1415C58.1489 85.4147 58.6159 82.0317 58.4729 79.7404C58.3299 77.4491 58.4583 73.9581 58.4583 73.9581Z" fill="url(#paint25_linear_276_4802)"/>
<path d="M57.46 71.3926C57.46 71.3926 56.4501 72.9221 56.2049 77.2595C55.9597 81.5969 54.7864 84.5567 52.9037 83.8883C52.9037 83.8883 54.3631 86.343 56.7216 85.0879C59.08 83.8328 58.0321 79.6034 58.0321 79.6034L57.7403 71.3926H57.46Z" fill="url(#paint26_linear_276_4802)"/>
<path d="M12.3052 74.0488C12.3052 74.0488 8.59239 75.2485 6.10259 79.7056C4.19949 83.1061 3.33843 85.4704 1.95488 84.8516C0.571339 84.2328 2.4832 86.8276 4.06523 86.6291C5.64725 86.4307 7.85975 84.6327 8.93973 81.9064C10.0197 79.1802 12.9765 74.0488 12.9765 74.0488H12.3052Z" fill="url(#paint27_linear_276_4802)"/>
<path d="M36.3859 49.6037C34.2026 50.0737 31.9259 51.0865 29.5937 52.0644C29.331 51.9067 28.6684 51.9418 27.4717 52.292C25.0286 53.0072 23.3094 52.4321 22.3666 51.898C23.753 51.6382 25.4139 50.5991 28.2393 49.6037C32.3579 48.1531 36.3859 49.6037 36.3859 49.6037Z" fill="url(#paint28_linear_276_4802)"/>
<path d="M55.2184 161.878C54.707 162.978 54.1219 164.043 53.4671 165.065C52.4057 166.728 51.2489 168.328 50.0024 169.858C47.9592 171.831 46.8763 172.686 46.8763 172.686L46.2224 164.28L32.6906 163.629C32.6906 163.629 35.0899 165.914 33.6684 168.865C32.2469 171.816 31.38 173.886 31.38 173.886C31.38 173.886 32.0338 179.122 31.9229 179.446C31.812 179.77 29.1996 186.218 26.5785 187.619C24.1616 188.918 19.6053 189.119 14.4535 187.777C14.4535 187.777 24.6841 187.219 24.544 179.294C24.4039 171.37 16.8732 167.771 16.8732 167.771C16.8732 167.771 23.1926 167.666 27.0163 170.336C27.0163 170.336 30.5598 167.336 28.2714 165.538C25.983 163.74 20.5218 161.93 20.5218 161.93C20.5218 161.93 29.4156 153.045 41.5377 153.369C51.996 153.661 55.7234 152.059 56.5436 151.618C56.6105 151.588 56.675 151.553 56.7362 151.513C56.7362 151.513 57.9504 155.923 55.2184 161.878Z" fill="url(#paint29_linear_276_4802)"/>
<path d="M91.7743 257.4C91.7743 257.4 99.0715 259.195 99.9967 261.598C100.922 264 99.9967 266.834 99.9967 266.834L105.869 266.542L107.306 265.742C107.306 265.742 107.031 261.157 109.349 260.43C111.666 259.703 112.087 259.592 112.355 259.54C112.624 259.487 111.135 258.019 111.135 258.019C107.21 258.298 103.271 258.298 99.3458 258.019C93.4672 257.561 91.7743 257.4 91.7743 257.4Z" fill="url(#paint30_linear_276_4802)"/>
<path d="M174.702 241.919C174.702 241.919 182.758 239.847 185.303 244.283C187.849 248.72 189.577 257.1 189.577 257.1L195.771 256.169C195.771 256.169 192.215 244.575 192.358 241.738C192.501 238.901 195.771 241.446 195.771 241.446C195.771 241.446 194.603 237.719 191.559 237.334C188.514 236.948 176.827 239.847 174.702 241.919Z" fill="url(#paint31_linear_276_4802)"/>
<path d="M50.2563 137.135L51.3859 138.302C51.3859 138.302 33.1985 139.315 23.3064 146.151C13.4144 152.987 3.08451 167.392 9.26667 183.542L8.02907 184.417C8.02907 184.417 1.05589 176.636 3.48731 167.033C5.91872 157.43 13.6304 146.084 22.5067 142.222C31.3829 138.361 42.8074 136.916 50.2563 137.135Z" fill="#FFEC00"/>
<path d="M38.7443 82.9779C38.7443 82.9779 44.9644 82.2248 48.2919 86.3404C51.6194 90.456 52.9037 100.491 52.9037 100.491L49.9848 103.638C49.9848 103.638 47.6264 88.2143 44.1471 86.0894C40.6678 83.9645 38.7443 82.9779 38.7443 82.9779Z" fill="#FFEC00"/>
<path d="M54.9002 118.308V124.788L51.3859 122.733L51.7974 116.624L54.9002 118.308Z" fill="#FFEC00"/>
<path d="M77.0983 252.923C77.0983 252.923 64.9879 254.178 61.6604 257.777C58.3329 261.376 60.5687 266.826 60.5687 266.826L56.9026 266.534C56.9026 266.534 52.9301 260.661 56.4765 257.226C60.0229 253.79 69.7427 252.304 71.3627 252.062C72.9827 251.82 77.0983 252.923 77.0983 252.923Z" fill="#FFEC00"/>
<path d="M181.258 58.0595C180.706 57.6888 180.181 57.2889 179.603 56.9474C179.025 56.6059 178.47 56.244 177.875 55.9229C177.28 55.6018 176.681 55.2954 176.08 54.986C175.479 54.6766 174.848 54.4255 174.218 54.1687C174.801 54.1424 175.385 54.1278 175.969 54.1336C176.629 54.1336 177.284 54.1599 177.936 54.2125C178.59 54.2621 179.241 54.3263 179.883 54.4168C180.525 54.5072 181.162 54.6182 181.786 54.7466C182.096 54.8196 182.411 54.8838 182.709 54.9655C183.006 55.0472 183.33 55.1377 183.558 55.2107L192.75 58.4798L185.105 52.934C180.175 49.3613 174.419 46.8511 168.467 45.0093C162.516 43.1675 156.272 41.9853 149.994 41.2147C143.676 40.4496 137.321 40.0374 130.957 39.9801C127.77 39.945 124.575 39.9849 121.374 40.0997C120.656 40.126 119.938 40.1698 119.22 40.2048V44.7349C119.918 44.6823 120.613 44.6211 121.31 44.5744C124.424 44.3798 127.537 44.2533 130.651 44.1949C136.845 44.0737 143.042 44.2959 149.212 44.8604C155.341 45.4442 161.383 46.4191 167.171 48.0128C170.523 48.9212 173.794 50.1024 176.953 51.5446C176.699 51.5446 176.445 51.5154 176.188 51.5125C175.464 51.5125 174.728 51.5125 174.01 51.5592C173.292 51.6059 172.551 51.6497 171.833 51.7431C171.115 51.8365 170.373 51.9387 169.664 52.035C168.955 52.1313 168.228 52.3269 167.51 52.4699L159.582 54.0665L167.531 55.0385C167.755 55.0647 168.094 55.1231 168.383 55.1815C168.672 55.2399 168.99 55.307 169.294 55.3829C169.901 55.5347 170.505 55.7069 171.1 55.9054C172.286 56.3013 173.447 56.7692 174.577 57.3064C175.128 57.5983 175.697 57.8523 176.229 58.1646C176.661 58.3981 177.075 58.6579 177.493 58.9147C176.503 58.9147 175.517 58.9439 174.527 58.9731C173.287 59.014 172.043 59.0694 170.8 59.1541C169.556 59.2387 168.304 59.3555 167.058 59.446L159.76 60.0297L166.617 62.0029C166.909 62.0905 167.274 62.2043 167.601 62.3152C167.927 62.4261 168.266 62.5517 168.599 62.6742C169.256 62.9282 169.904 63.2025 170.534 63.4974C170.922 63.6783 171.299 63.871 171.672 64.0811C171.448 64.1599 171.223 64.2358 170.998 64.3234C169.75 64.782 168.558 65.3792 167.443 66.1039L166.611 66.6877L165.82 67.3444L165.446 67.7093L165.263 67.8903L165.169 67.9808L165.122 68.0274L165.099 68.0508L164.997 68.1705L164.857 68.3485C164.766 68.4799 164.679 68.6171 164.597 68.7572C164.493 68.9453 164.403 69.1403 164.326 69.3409C163.92 70.519 163.673 71.7461 163.593 72.9895C163.452 75.1935 163.437 77.4038 163.549 79.6095C163.648 81.7782 163.777 83.9382 164.016 86.0777C164.495 90.3568 165.049 94.6125 165.881 98.8244C166.296 100.932 166.734 103.033 167.268 105.123C167.542 106.168 167.831 107.207 168.161 108.247C168.477 109.315 168.867 110.361 169.329 111.376L172.043 110.298C171.722 109.388 171.459 108.381 171.223 107.38C170.986 106.378 170.773 105.336 170.581 104.318C170.178 102.259 169.82 100.185 169.507 98.0947C168.899 93.9207 168.304 89.7321 167.927 85.5202C167.746 83.4157 167.531 81.3171 167.42 79.2155C167.284 77.139 167.264 75.0565 167.361 72.9779C167.379 72.0471 167.51 71.1219 167.749 70.2224C167.77 70.1378 167.814 70.0677 167.814 70.0444C167.804 70.063 167.789 70.0783 167.77 70.0882L167.863 69.9597L167.925 69.8955L168.044 69.7671L168.284 69.5073L168.826 69.014L169.41 68.5499C170.273 67.9332 171.192 67.3987 172.154 66.9533C173.143 66.5014 174.163 66.1219 175.207 65.8179L178.179 65.167L175.963 63.512C175.022 62.8162 174.026 62.1974 172.986 61.6614C173.462 61.641 173.935 61.6089 174.41 61.5943C175.622 61.5563 176.833 61.5242 178.041 61.5242C179.25 61.5242 180.467 61.5242 181.646 61.5534L186.004 61.6526L182.793 59.2387C182.309 58.8418 181.795 58.4448 181.258 58.0595Z" fill="#006B4C"/>
<path d="M77.9855 46.6318C75.4666 47.2652 72.9593 47.9337 70.4724 48.6751C64.3673 50.4473 58.3656 52.558 52.4951 54.9973C46.6573 57.4521 40.9977 60.2717 35.7408 63.6605C30.4839 67.0493 25.6357 71.0219 21.8616 75.7942L16.0005 83.2023L23.9661 77.566C24.1646 77.4347 24.4506 77.2537 24.7162 77.1019C24.9818 76.9501 25.2679 76.7925 25.5452 76.6407C26.1144 76.3488 26.6923 76.0569 27.2965 75.8088C27.9007 75.5607 28.4991 75.3097 29.112 75.085C29.725 74.8602 30.3526 74.6588 30.9859 74.4749C31.5435 74.3144 32.1126 74.183 32.6818 74.0371C32.1418 74.4545 31.6193 74.8865 31.1115 75.3272C30.6036 75.768 30.0986 76.2321 29.6345 76.7137C29.1704 77.1953 28.6917 77.6711 28.2481 78.1731C27.8044 78.6752 27.3724 79.1831 26.955 79.688C26.5376 80.193 26.1581 80.7388 25.7583 81.2642L23.3298 84.4545L27.495 83.179C28.6246 82.8345 29.7951 82.4901 30.9597 82.1749C32.1243 81.8596 33.2948 81.5503 34.4623 81.2584C34.9235 81.1475 35.3876 81.0511 35.8517 80.9431C34.995 81.7398 34.2043 82.6047 33.4874 83.5292L31.8003 85.7213L34.8359 85.5433C35.923 85.552 37.008 85.6418 38.0817 85.8118C39.1292 85.9779 40.1584 86.2437 41.1553 86.6057L41.85 86.8976L42.5067 87.2245L42.7986 87.4113L42.9475 87.5018L43.0234 87.5485L43.1489 87.6449C43.1283 87.6415 43.1091 87.6324 43.0934 87.6186C43.0934 87.639 43.1605 87.6974 43.2043 87.7703C43.68 88.5711 44.0564 89.4268 44.3252 90.3185C44.9797 92.2939 45.5234 94.3042 45.9539 96.3401C46.418 98.3833 46.777 100.47 47.174 102.546C47.9504 106.699 48.5108 110.894 49.0567 115.079C49.3194 117.172 49.5354 119.271 49.7046 121.358C49.798 122.403 49.8739 123.445 49.9148 124.481C49.9557 125.517 49.979 126.548 49.9148 127.514L52.8337 127.806C53.0068 126.703 53.1044 125.591 53.1256 124.475C53.1577 123.386 53.1547 122.306 53.1256 121.226C53.0759 119.069 52.9271 116.927 52.7578 114.805C52.4163 110.523 51.8004 106.276 51.1028 102.026C50.7554 99.9011 50.2943 97.7908 49.801 95.6717C49.3135 93.5193 48.7024 91.3966 47.9708 89.3144C47.533 88.2374 47.1477 87.1983 46.2779 85.9986C46.1475 85.8262 46.0061 85.6624 45.8547 85.5082C45.7408 85.3973 45.6211 85.2864 45.4956 85.1842L45.3147 85.0529L45.1804 84.9653L45.1541 84.9478L45.0958 84.9157L44.9819 84.8544L44.7542 84.7289L44.2989 84.4808L43.3561 84.0634L42.3987 83.719C41.1292 83.3227 39.8192 83.0701 38.4933 82.9659C38.2539 82.9455 38.0175 82.9309 37.7811 82.9163C38.073 82.6244 38.394 82.3325 38.7209 82.0581C39.2463 81.6028 39.7951 81.162 40.3613 80.7417C40.6532 80.5316 40.9451 80.3243 41.237 80.1259C41.5289 79.9274 41.8208 79.723 42.1127 79.5596L48.1752 75.7709L40.9889 77.1865C39.763 77.4288 38.5195 77.6273 37.3082 77.9075C36.0969 78.1877 34.8768 78.4475 33.6713 78.7423C32.7081 78.9787 31.7536 79.2327 30.8021 79.4895C31.129 79.1276 31.4588 78.7686 31.812 78.4271C32.2411 77.9805 32.7168 77.5747 33.1693 77.1515C34.1122 76.3281 35.1045 75.5629 36.1407 74.8602C36.6573 74.5099 37.1944 74.1801 37.7373 73.8707C38.0087 73.716 38.2831 73.5788 38.5575 73.43C38.8319 73.2811 39.1413 73.1381 39.3397 73.0622L46.7274 69.974L38.6655 70.5841C37.9358 70.6395 37.2061 70.6658 36.4734 70.7475C35.7408 70.8293 35.014 70.9051 34.3018 71.0394C33.5896 71.1737 32.8657 71.2992 32.1564 71.4539C31.4471 71.6086 30.7437 71.7983 30.049 71.9997C29.8038 72.0698 29.5645 72.1603 29.3193 72.2361C31.9707 69.9929 34.8017 67.9711 37.784 66.1912C43.0251 63.095 48.5243 60.4581 54.2201 58.3102C60.008 56.0971 65.9142 54.2067 71.9114 52.6476C73.9254 52.1193 75.954 51.6318 77.9885 51.1648L77.9855 46.6318Z" fill="#006B4C"/>
<path d="M92.647 40.5986C93.6161 37.455 96.4416 35.3972 99.34 35.7007C99.6854 35.7387 100.026 35.8091 100.359 35.9109C102.916 36.699 104.498 39.2705 104.422 42.1106C104.95 42.1106 105.481 42.1281 106.018 42.1106C106.091 38.5904 104.069 35.3972 100.832 34.3902C100.4 34.2555 99.956 34.1636 99.5064 34.1158C95.8432 33.7305 92.3143 36.2612 91.1205 40.1287C90.4657 42.1882 90.5956 44.4172 91.4853 46.3867C91.5671 46.5677 91.6634 46.737 91.7568 46.9092C92.1174 46.4994 92.5459 46.1547 93.0236 45.8905C92.9944 45.8321 92.9623 45.7796 92.9331 45.7183C92.2081 44.1058 92.1062 42.2819 92.647 40.5986Z" fill="#006B4C"/>
<path d="M96.246 44.2711C97.1976 43.8924 98.1725 43.5756 99.1649 43.3225C97.542 42.5081 98.1374 40.0154 99.7487 39.7498C99.6409 39.6951 99.5297 39.6473 99.4159 39.6067C98.811 39.4177 98.1614 39.4273 97.5624 39.6344C96.9634 39.8414 96.4464 40.2349 96.0874 40.7572C95.7283 41.2794 95.546 41.903 95.5672 42.5364C95.5884 43.1699 95.812 43.7798 96.2051 44.2769L96.246 44.2711Z" fill="#006B4C"/>
<path d="M80.6563 9.69381C80.6533 9.72292 80.6533 9.75226 80.6563 9.78137C80.6563 9.84267 80.6563 9.94775 80.6884 10.0879C80.7506 10.4704 80.8971 10.8344 81.1175 11.1532C81.49 11.6217 82.024 11.934 82.6149 12.0289C83.0471 12.0987 83.485 12.127 83.9225 12.1135C84.4684 12.096 85.0171 12.0668 85.6155 12.026C88.3139 11.837 90.9972 11.4724 93.6482 10.9343C94.3633 10.7768 95.0697 10.582 95.7644 10.3506C96.4078 10.1545 97.0222 9.87377 97.5916 9.51577C97.8193 9.38442 97.974 9.1655 97.8426 9.29685L97.8222 9.33188L97.7755 9.46615L97.8105 9.32021L97.8835 9.02832C97.886 8.9199 97.8947 8.81171 97.9098 8.70431C97.9626 8.04495 97.9489 7.38195 97.8689 6.72533C97.723 5.37973 97.2618 4.01078 96.5612 3.30733C96.2555 2.97104 95.8431 2.75043 95.3937 2.68269C95.1894 2.66809 95.0026 2.65935 94.88 2.66227C94.7574 2.66519 94.556 2.66227 94.3925 2.66227C94.0481 2.6827 93.6949 2.71772 93.3417 2.76443C91.9567 2.95862 90.59 3.26614 89.2553 3.68388C88.0402 4.05249 86.8539 4.51002 85.706 5.05281C83.5752 6.0423 82.0399 7.30035 81.3043 8.24314C81.0322 8.55658 80.8328 8.92639 80.7206 9.32603C80.6938 9.43924 80.6762 9.55442 80.668 9.67046L80.6563 9.69381ZM78.6715 9.60333C78.6715 9.60333 78.6715 9.53327 78.6978 9.39608C78.719 9.19763 78.7611 9.00196 78.8233 8.81231C79.0307 8.16296 79.3751 7.56573 79.8332 7.06099C80.9044 5.81755 82.7171 4.6792 84.9237 3.53209C86.0387 2.96583 87.2588 2.39082 88.5811 1.85958C89.9789 1.28001 91.4132 0.792492 92.8747 0.40015C93.2659 0.303827 93.6657 0.213338 94.086 0.140366C94.302 0.108259 94.4947 0.0673927 94.7516 0.0469606C95.0084 0.0265285 95.2156 0.00900536 95.4025 0.000248755C96.5374 -0.0113 97.6398 0.379606 98.514 1.10359C99.2994 1.77482 99.9213 2.61636 100.332 3.56419C100.709 4.43312 100.974 5.3462 101.121 6.28166C101.279 7.22167 101.293 8.1802 101.164 9.12463C101.118 9.41974 101.056 9.71208 100.977 10.0003L100.875 10.2922L100.826 10.4323C100.753 10.6425 100.794 10.514 100.77 10.5724L100.75 10.6162L100.709 10.7008L100.618 10.8672C100.253 11.4537 99.7215 11.9188 99.0919 12.204C98.2651 12.5798 97.4 12.8647 96.5116 13.0534C95.7002 13.249 94.9062 13.3716 94.1357 13.5117C91.3544 13.9553 88.5475 14.2195 85.7322 14.3027C85.1222 14.3231 84.5092 14.3348 83.9547 14.3319C83.3456 14.3308 82.7382 14.2672 82.142 14.1422C81.0476 13.9024 80.0807 13.2661 79.4275 12.3558C79.0361 11.7552 78.7903 11.0716 78.7095 10.3593C78.6877 10.1752 78.676 9.99009 78.6744 9.80473C78.6715 9.68214 78.6715 9.615 78.6715 9.60333Z" fill="#006B4C"/>
<path d="M122.174 42.2746C122.174 42.2746 122.239 42.8584 122.364 43.9675C122.396 44.2594 122.428 44.5513 122.469 44.8928C122.51 45.2343 122.501 45.6634 122.522 46.0954C122.578 47.089 122.578 48.0849 122.522 49.0785C122.44 51.7326 122.019 54.3653 121.269 56.9127C120.328 60.2654 118.762 63.4104 116.655 66.183C116.363 66.5625 116.071 66.9507 115.75 67.3272L114.714 68.4101L114.185 68.956C114.001 69.1311 113.797 69.2887 113.602 69.4551C113.212 69.7878 112.813 70.1216 112.405 70.4563C111.982 70.7686 111.529 71.04 111.083 71.3319L110.408 71.7727C110.175 71.9099 109.927 72.0237 109.682 72.1492C109.194 72.3914 108.704 72.6425 108.202 72.876L106.617 73.4364C106.084 73.6291 105.535 73.7746 104.976 73.8713L104.136 74.0494L103.712 74.1369L103.549 74.1574H103.499H103.403H103.207L101.634 74.2887C101.097 74.3267 100.429 74.2683 99.8274 74.2537C97.4187 74.1171 95.0581 73.5227 92.8718 72.5024C88.4556 70.5088 84.7311 67.0266 82.0428 62.9081L81.5291 62.1404C81.3685 61.8748 81.2372 61.6033 81.0708 61.3348L80.1718 59.7119C79.6814 58.5794 79.0918 57.479 78.7124 56.2968C77.7929 53.988 77.2821 51.5449 76.8443 49.1047L76.6371 47.2746L76.5378 46.3989C76.5115 46.1071 76.5115 45.7685 76.497 45.4562L76.4327 43.556C76.4327 42.9313 76.4853 42.3155 76.5086 41.6967C76.5086 40.4561 76.7626 39.236 76.8998 38.0101L77.2763 36.1975C77.3434 35.9056 77.4018 35.5933 77.4777 35.2956L77.7433 34.4199C79.0918 29.703 81.6166 25.3014 85.2214 22.1169C86.9868 20.532 89.0358 19.2951 91.2606 18.4712C93.375 17.6643 95.6203 17.2546 97.8835 17.2628L99.6144 17.3183L101.229 17.5693C101.494 17.616 101.763 17.6481 102.025 17.7065L102.793 17.9225C103.301 18.0743 103.812 18.2144 104.305 18.372L105.729 18.9558C105.966 19.055 106.205 19.1426 106.433 19.2476L107.095 19.6008L108.403 20.3043C108.815 20.564 109.209 20.8443 109.606 21.1099C112.451 23.0937 114.897 25.596 116.815 28.4859C118.311 30.6719 119.518 33.0422 120.405 35.5378C120.748 36.4512 121.041 37.3827 121.281 38.3283C121.494 39.0186 121.665 39.7215 121.792 40.4328L122.151 42.2162L122.174 42.2746ZM118.275 42.7708C118.257 42.6716 118.158 42.1374 117.983 41.2092C117.881 40.5722 117.739 39.9424 117.557 39.3236C117.354 38.4761 117.102 37.6409 116.804 36.8221L116.281 35.3627L115.586 33.8186C115.342 33.2577 115.066 32.711 114.76 32.1811C114.466 31.594 114.135 31.0257 113.771 30.4795C112.176 27.901 110.109 25.6462 107.679 23.8332C107.344 23.5938 107.011 23.3399 106.663 23.1035L105.563 22.473C104.845 21.9943 104.013 21.7374 103.228 21.3609C102.816 21.215 102.387 21.104 101.961 20.9698L101.319 20.7742C101.103 20.7217 100.878 20.6954 100.656 20.6545L99.3166 20.421L98.009 20.3539C96.0783 20.2968 94.156 20.6315 92.3581 21.3376C90.4817 22.0422 88.757 23.0982 87.2763 24.4491C84.1998 27.1753 81.9436 31.0632 80.7439 35.3131L80.5046 36.1099C80.4374 36.3785 80.3878 36.6528 80.3294 36.9243L79.9879 38.5618C79.8741 39.6739 79.6493 40.7801 79.6435 41.9097C79.6231 42.4701 79.5822 43.0393 79.5793 43.5968L79.6347 45.2518C79.6347 45.5291 79.6347 45.7977 79.6698 46.0837L79.769 46.9594L79.9646 48.6669C80.3907 50.8911 80.8694 53.1182 81.7159 55.2023C82.0661 56.2764 82.6178 57.2454 83.0644 58.2816L83.8875 59.7411C84.0276 59.9804 84.1561 60.2256 84.302 60.4621L84.7719 61.1451C87.2092 64.8141 90.5309 67.8088 94.2612 69.4463C96.0518 70.2648 97.981 70.7372 99.9471 70.8386C100.417 70.8386 100.823 70.9116 101.334 70.8736L102.904 70.7277L103.1 70.7073H103.199H103.245C103.286 70.7073 103.064 70.7248 103.178 70.7073L103.52 70.6285L104.2 70.4708C104.653 70.3906 105.096 70.2664 105.525 70.1001L106.801 69.6302L107.994 69.0143C108.19 68.9092 108.394 68.8188 108.578 68.7049L109.124 68.3284C109.486 68.0774 109.857 67.8468 110.201 67.5841L111.179 66.7376C111.339 66.5946 111.509 66.4662 111.661 66.3173L112.093 65.8503L112.948 64.9308C113.21 64.6068 113.45 64.2712 113.698 63.9472C115.482 61.5206 116.793 58.7797 117.562 55.8678C117.751 55.24 117.902 54.6016 118.015 53.9559C118.154 53.3613 118.257 52.7589 118.324 52.152C118.4 51.5682 118.47 51.0107 118.537 50.4766C118.605 49.9424 118.587 49.4229 118.61 48.9355C118.658 48.0828 118.658 47.2282 118.61 46.3756C118.593 46.002 118.61 45.678 118.569 45.3452C118.529 45.0125 118.494 44.6943 118.464 44.42C118.359 43.4976 118.295 42.9401 118.275 42.7708Z" fill="#006B4C"/>
<path d="M79.5616 56.2293C79.5616 56.2293 79.6842 56.0746 79.9061 55.7827C80.1279 55.4908 80.4636 55.1114 80.8897 54.6152C82.0703 53.2837 83.3317 52.0262 84.6667 50.8498C86.5416 49.197 88.5618 47.717 90.703 46.4277C91.912 45.7061 93.1582 45.0484 94.4362 44.4575C95.0842 44.1452 95.7613 43.8737 96.4327 43.6052C97.1186 43.3687 97.7958 43.0944 98.4992 42.8871C99.2027 42.6799 99.8916 42.4464 100.604 42.2888C101.316 42.1311 102.016 41.9502 102.726 41.8276C104.111 41.5672 105.511 41.3927 106.917 41.3051C108.233 41.2159 109.552 41.1974 110.869 41.2497C111.5 41.2497 112.113 41.2905 112.7 41.3606C113.286 41.4306 113.867 41.4569 114.404 41.5328C115.487 41.7196 116.497 41.8247 117.367 42.0115C118.237 42.1983 119.016 42.3209 119.629 42.4989L121.59 42.9835L120.759 45.4674L118.963 44.8077C118.394 44.5859 117.682 44.4079 116.868 44.1656C116.053 43.9233 115.116 43.7249 114.095 43.5059C113.584 43.4038 113.044 43.3425 112.489 43.2549C111.935 43.1673 111.354 43.1002 110.758 43.0594C109.509 42.9341 108.253 42.8951 106.999 42.9426C105.656 42.9847 104.318 43.1202 102.994 43.3483C102.317 43.4563 101.64 43.5906 100.969 43.7657C100.297 43.9408 99.623 44.1189 98.9546 44.3203C98.2862 44.5217 97.6411 44.7902 96.9844 45.0179C96.348 45.3098 95.703 45.5462 95.0871 45.8498C93.8719 46.4275 92.6951 47.0826 91.564 47.8113C89.5647 49.1112 87.7061 50.6158 86.0182 52.3005C84.8297 53.4806 83.7393 54.7555 82.7578 56.1125C82.3988 56.5971 82.1507 56.9882 81.9843 57.2596L81.7479 57.6595L79.5616 56.2293Z" fill="#006B4C"/>
<path d="M77.3698 49.5453L77.647 49.052C77.8251 48.7426 78.0965 48.3077 78.4468 47.759C79.4161 46.2679 80.4787 44.8397 81.6284 43.4828C83.2382 41.573 85.0194 39.8144 86.9495 38.2289C88.0383 37.3369 89.1734 36.5029 90.35 35.7303C90.9337 35.3275 91.5788 34.9743 92.2005 34.5949C92.8456 34.2592 93.4761 33.8856 94.1386 33.582C94.8012 33.2785 95.4521 32.9399 96.1322 32.6801C96.8123 32.4203 97.4807 32.1372 98.1754 31.9124C99.507 31.4503 100.866 31.0711 102.244 30.777C103.533 30.4953 104.836 30.28 106.147 30.1319C106.771 30.0531 107.382 29.9918 107.974 29.9743C108.567 29.9568 109.142 29.8984 109.685 29.8955C110.782 29.9189 111.795 29.8634 112.685 29.9335C113.575 30.0035 114.361 29.9947 114.994 30.0823L117.005 30.275L116.538 32.864L114.667 32.4787C114.083 32.3415 113.339 32.2685 112.498 32.1489C111.658 32.0292 110.703 31.9708 109.661 31.9037C109.139 31.8774 108.596 31.9037 108.032 31.9037C107.469 31.9037 106.888 31.9037 106.281 31.9621C105.028 32.0232 103.781 32.1704 102.548 32.4028C101.226 32.6397 99.9215 32.9694 98.6454 33.3894C97.9915 33.5966 97.3406 33.8301 96.7014 34.1016C96.0622 34.373 95.4229 34.6503 94.7925 34.9451C94.162 35.2399 93.5607 35.6019 92.9448 35.923C92.3611 36.2937 91.7539 36.6352 91.1935 37.0263C90.0755 37.7747 89.0078 38.5957 87.9973 39.484C86.2121 41.0624 84.5969 42.8233 83.1783 44.7379C82.175 46.0797 81.2827 47.501 80.5105 48.9878C80.2186 49.519 80.0405 49.951 79.9267 50.2371L79.7515 50.6662L77.3698 49.5453Z" fill="#006B4C"/>
<path d="M90.7118 57.2102C90.7118 57.2102 90.7439 57.108 90.811 56.9183C90.9049 56.6439 91.0141 56.3749 91.138 56.1127C91.2839 55.7624 91.5028 55.3655 91.7509 54.9014C92.0447 54.3911 92.3673 53.898 92.7171 53.4244L93.3242 52.613L94.0539 51.8044C94.5902 51.2265 95.1667 50.6871 95.7789 50.1903C96.4532 49.7233 97.0983 49.1483 97.8893 48.7717C98.2717 48.5674 98.6511 48.3427 99.0568 48.1529L100.289 47.6597L100.91 47.4261L101.555 47.2714L102.837 46.9795C103.258 46.8872 103.687 46.8363 104.118 46.8278L105.37 46.7344C106.193 46.7344 106.987 46.8336 107.732 46.8861C108.427 46.9709 109.115 47.1095 109.79 47.3006C110.366 47.4126 110.929 47.5828 111.471 47.8085C111.958 47.9982 112.376 48.1821 112.72 48.331C113.403 48.6229 113.783 48.8126 113.783 48.8126C113.783 48.8126 113.353 48.7688 112.615 48.6637C112.25 48.6083 111.806 48.547 111.307 48.4565C110.748 48.3632 110.184 48.3076 109.617 48.2901L108.657 48.223C108.318 48.1793 107.976 48.1666 107.635 48.185C106.935 48.223 106.199 48.2201 105.446 48.2697C104.702 48.3952 103.926 48.4711 103.158 48.6316L102.011 48.9235L101.427 49.0753L100.872 49.3001L99.7515 49.7145C99.3896 49.878 99.0422 50.0736 98.692 50.2487C98.0035 50.6006 97.335 50.9904 96.6896 51.4162C96.3744 51.6264 96.1059 51.8745 95.7906 52.0817C95.4947 52.2833 95.2119 52.5036 94.9441 52.7414C94.41 53.1967 93.905 53.6317 93.4847 54.0724C93.0644 54.5132 92.6645 54.9276 92.3026 55.2896C91.9406 55.6515 91.6633 55.9989 91.4415 56.2907C90.9687 56.8599 90.7118 57.2102 90.7118 57.2102Z" fill="#006B4C"/>
<path d="M82.5798 269.269C69.9294 269.269 57.4775 269.053 56.4939 269.035L55.4781 269.018L54.9936 268.124C53.3707 265.144 51.7215 258.343 57.0922 253.939C61.5289 250.299 70.4898 250.118 75.6358 250.36C74.6697 248.081 75.0783 246.099 75.7234 244.905C75.4578 236.379 68.4992 224.242 67.2908 222.196C41.3858 203.515 44.366 172.762 45.6123 164.94C41.9545 164.471 38.2545 164.433 34.5878 164.826C35.0863 165.608 35.3869 166.499 35.4634 167.424C35.6707 169.875 34.2638 171.919 33.3502 172.969C33.7617 175.628 34.4127 183.162 29.5352 187.491C26.5697 190.118 21.6193 191.349 16.6076 190.701C11.5959 190.054 7.32849 187.593 4.95253 183.988C0.282343 176.913 -1.11871 161.177 14.1616 146.837C26.7127 135.045 43.9106 134.61 48.9807 134.764C49.7046 131.594 49.798 126.422 49.763 124.464L53.2656 124.402C53.2656 124.758 53.397 133.139 51.9229 137.181L51.4647 138.433L50.1337 138.32C49.9323 138.302 29.9935 136.781 16.5667 149.382C2.84803 162.245 3.86379 175.976 7.88015 182.073C9.70153 184.829 13.0524 186.714 17.0775 187.246C21.0472 187.768 25.0343 186.846 27.2322 184.893C31.5784 181.04 29.8038 172.882 29.7833 172.8L29.5586 171.799L30.3233 171.116C30.8283 170.655 32.1243 169.137 31.9988 167.721C31.917 166.813 31.2223 165.938 29.9351 165.126L26.3799 162.885L30.4663 161.948C30.7903 161.872 38.5516 160.141 47.9591 161.784L49.7746 162.1L49.3573 163.898C49.2755 164.254 41.4763 199.581 69.62 219.584L69.9119 219.791L70.0958 220.097C70.4694 220.705 79.226 235.144 79.226 245.413V246.014L78.8582 246.487C78.7502 246.645 77.6498 248.419 80.3906 251.157L83.9225 254.692L78.9604 254.128C74.9148 253.667 63.4904 253.224 59.3164 256.65C55.8459 259.499 56.9609 263.746 57.6731 265.579C73.6393 265.845 103.333 266.052 108.415 265.013C110.146 264.657 111.231 264.044 111.625 263.189C111.958 262.485 112.069 261.105 110.703 258.518L109.912 257.018L111.401 256.157C111.465 256.113 113.756 254.61 113.356 249.736C112.831 243.372 115.108 232.456 115.207 231.995L118.622 232.713C118.599 232.821 116.354 243.594 116.836 249.45C117.221 254.12 115.624 256.779 114.404 258.104C115.508 260.664 115.639 262.862 114.795 264.648C113.893 266.551 111.984 267.812 109.118 268.399C105.826 269.088 94.121 269.269 82.5798 269.269Z" fill="#006B4C"/>
<path d="M95.1163 230.231L105.271 230.628L110.16 230.76C111.894 230.809 113.721 230.804 115.604 230.827C117.487 230.85 119.436 230.827 121.409 230.795C123.383 230.763 125.385 230.713 127.384 230.602C129.384 230.491 131.374 230.369 133.336 230.22L136.255 229.945L139.083 229.607C140.934 229.35 142.723 229.096 144.41 228.787C146.097 228.477 147.679 228.121 149.145 227.785C150.604 227.397 151.929 227.064 153.097 226.691C154.264 226.317 155.271 225.964 156.124 225.696L158.751 224.697L158.167 225.132C157.773 225.401 157.212 225.844 156.45 226.317C155.689 226.79 154.76 227.394 153.622 227.928C153.062 228.22 152.469 228.533 151.824 228.804L149.781 229.68L147.513 230.529C146.722 230.821 145.89 231.037 145.041 231.306C143.333 231.802 141.512 232.269 139.612 232.648C137.711 233.028 135.732 233.343 133.713 233.576C131.693 233.81 129.626 233.976 127.583 234.073C123.561 234.253 119.531 234.194 115.516 233.898C113.599 233.76 111.751 233.556 110.005 233.334C108.26 233.112 106.614 232.861 105.099 232.599C102.075 232.076 99.5822 231.478 97.8513 231.017C96.1204 230.555 95.1163 230.231 95.1163 230.231Z" fill="#006B4C"/>
<path d="M68.905 219.059L69.5851 219.549C69.9908 219.841 70.6446 220.267 71.4181 220.775C71.8092 221.023 72.2442 221.274 72.6995 221.554C73.1549 221.834 73.6394 222.138 74.1589 222.398L75.741 223.273C76.2751 223.583 76.8472 223.831 77.4076 224.114L79.0889 224.94L80.7527 225.664L82.3201 226.338C82.8134 226.566 83.3008 226.721 83.7445 226.89L86.7188 227.982L83.5927 227.415C83.1257 227.322 82.6061 227.255 82.0807 227.123L80.4024 226.721L78.6044 226.286L76.7684 225.749C76.1554 225.562 75.5279 225.407 74.9324 225.191L73.1811 224.59C72.5973 224.403 72.0603 224.184 71.5407 223.983C71.0212 223.781 70.5279 223.597 70.0813 223.399C69.1823 223.014 68.435 222.698 67.8951 222.43L67.0807 222.036L68.905 219.059Z" fill="#006B4C"/>
<path d="M188.187 132.444C183.876 131.857 179.707 130.488 175.887 128.405L175.44 128.142L175.207 127.678C172.706 122.672 167.892 107.806 167.688 107.176L171.01 106.102C171.059 106.25 175.639 120.404 178.097 125.632C181.396 127.329 184.957 128.461 188.631 128.98L188.187 132.444Z" fill="#006B4C"/>
<path d="M166.585 221.752C167.46 220.614 168.269 219.469 169.051 218.29C169.834 217.111 170.587 215.926 171.36 214.755C172.075 213.544 172.82 212.356 173.511 211.139C174.203 209.922 174.898 208.71 175.525 207.461C176.153 206.212 176.833 204.995 177.402 203.722C177.971 202.449 178.596 201.206 179.153 199.928C179.667 198.634 180.201 197.353 180.738 196.075C181.275 194.796 181.675 193.448 182.151 192.16C182.373 191.504 182.627 190.859 182.822 190.193L183.406 188.197L183.99 186.206C184.2 185.547 184.376 184.877 184.518 184.201L185.435 180.152L185.665 179.139L185.826 178.115L186.15 176.072L186.486 174.028L186.658 173.007L186.751 171.974C186.877 170.596 187.005 169.221 187.157 167.843C187.304 166.467 187.378 165.083 187.379 163.699C187.408 162.312 187.475 160.926 187.536 159.539L187.732 155.085L190.534 158.269C190.628 158.357 190.826 158.535 190.989 158.669C191.153 158.804 191.351 158.961 191.535 159.093C191.915 159.364 192.309 159.624 192.703 159.857C193.097 160.091 193.535 160.301 193.964 160.499C194.395 160.688 194.835 160.853 195.283 160.996C195.504 161.075 195.729 161.141 195.957 161.194C196.185 161.247 196.41 161.32 196.64 161.358L197.332 161.48C197.56 161.53 197.796 161.53 198.03 161.559C198.262 161.588 198.496 161.606 198.73 161.612H199.434C199.904 161.612 200.374 161.547 200.844 161.527L201.258 164.992C200.674 165.03 200.091 165.105 199.483 165.103H198.593C198.301 165.103 198.009 165.059 197.717 165.038C197.426 165.018 197.134 164.997 196.842 164.936L195.966 164.781C195.674 164.729 195.382 164.641 195.09 164.571C194.801 164.503 194.516 164.42 194.235 164.323C193.651 164.148 193.117 163.923 192.569 163.696C192.02 163.468 191.497 163.185 190.984 162.887C190.47 162.589 189.974 162.268 189.489 161.918C189.25 161.737 189.008 161.562 188.774 161.363C188.541 161.165 188.327 160.987 188.039 160.704L191.039 159.437C191.074 160.876 191.115 162.318 191.118 163.763C191.169 165.207 191.146 166.653 191.048 168.094C190.957 169.536 190.844 170.981 190.727 172.42L190.636 173.503L190.473 174.574L190.134 176.72L189.784 178.859L189.606 179.93L189.361 180.987L188.336 185.202C188.182 185.911 187.957 186.597 187.735 187.286L187.078 189.352L186.416 191.413C186.179 192.096 185.887 192.759 185.628 193.433C185.079 194.767 184.591 196.127 183.99 197.438C183.389 198.748 182.767 200.065 182.137 201.343C181.506 202.622 180.756 203.874 180.067 205.138C179.378 206.402 178.543 207.581 177.787 208.801C177.031 210.021 176.138 211.153 175.315 212.324C174.492 213.494 173.546 214.583 172.644 215.692C171.742 216.801 170.756 217.846 169.746 218.859C168.748 219.882 167.692 220.848 166.585 221.752Z" fill="#006B4C"/>
<path d="M134.533 231.554C136.36 234.231 138.17 236.91 139.953 239.616C140.846 240.97 141.731 242.327 142.6 243.702L143.891 245.792C144.346 246.526 144.763 247.283 145.14 248.06C145.192 248.186 145.233 248.241 145.297 248.425C145.33 248.521 145.362 248.597 145.411 248.778C145.492 249.057 145.547 249.342 145.575 249.63C145.622 250.158 145.597 250.689 145.502 251.21C145.315 252.046 145.077 252.871 144.79 253.679C144.706 253.911 144.661 254.156 144.655 254.403C144.676 254.508 144.638 254.403 144.702 254.482C144.562 254.365 144.585 254.458 144.813 254.42C145.12 254.375 145.421 254.301 145.715 254.201C146.074 254.091 146.471 253.953 146.935 253.831C147.502 253.661 148.098 253.609 148.686 253.679C149.107 253.739 149.507 253.899 149.854 254.146L149.985 254.245L150.049 254.298C150.464 254.747 150.169 254.429 150.265 254.534C150.361 254.668 150.436 254.816 150.487 254.972C150.544 255.153 150.566 255.343 150.554 255.532C150.547 255.631 150.531 255.728 150.508 255.824C150.484 255.915 150.47 255.944 150.449 256.005C150.361 256.223 150.242 256.428 150.096 256.612C149.866 256.886 149.651 257.172 149.454 257.471C149.346 257.631 149.277 257.813 149.25 258.005C149.239 258.147 149.272 258.29 149.343 258.413C149.462 258.63 149.613 258.827 149.793 258.997L149.83 259.035L149.781 258.988L149.81 259.015L149.868 259.064L149.895 259.088L149.874 259.064C149.829 259.025 149.778 258.995 149.722 258.974C149.652 258.949 149.578 258.94 149.504 258.948C149.696 258.862 149.876 258.75 150.038 258.615C150.295 258.419 150.569 258.174 150.846 257.917C151.401 257.401 151.964 256.831 152.533 256.259C153.672 255.115 154.836 253.953 156.036 252.832C158.442 250.583 160.985 248.485 163.651 246.551C168.997 242.723 174.723 239.456 180.738 236.802L180.122 239.306C177.341 235.804 175.353 231.858 173.791 227.812C173.012 225.769 172.35 223.726 171.777 221.633C171.486 220.588 171.232 219.54 170.995 218.48L170.66 216.887C170.557 216.347 170.461 215.833 170.368 215.246L173.824 214.759C173.891 215.214 173.981 215.74 174.075 216.236L174.366 217.742C174.582 218.746 174.821 219.746 175.082 220.742C175.602 222.73 176.222 224.69 176.938 226.615C178.374 230.445 180.207 234.134 182.665 237.278L183.97 238.945L182.046 239.782C176.205 242.293 170.636 245.396 165.429 249.044C162.846 250.88 160.379 252.876 158.044 255.019C156.877 256.09 155.735 257.199 154.585 258.335C154.002 258.901 153.418 259.476 152.799 260.054C152.481 260.346 152.151 260.638 151.763 260.929C151.297 261.306 150.76 261.584 150.184 261.747C149.719 261.866 149.229 261.848 148.774 261.694C148.525 261.609 148.293 261.484 148.085 261.323L148.003 261.259L147.971 261.233L147.916 261.183L147.793 261.07L147.726 260.999C147.329 260.604 146.999 260.145 146.751 259.642C146.454 259.042 146.333 258.37 146.401 257.704C146.473 257.09 146.684 256.5 147.017 255.979C147.263 255.602 147.533 255.242 147.825 254.899C147.863 254.864 147.884 254.782 147.79 254.995L147.758 255.106C147.736 255.18 147.724 255.257 147.72 255.334C147.714 255.498 147.736 255.662 147.784 255.818C147.828 255.951 147.894 256.076 147.98 256.186C148.067 256.28 147.767 255.953 148.173 256.394C148.208 256.417 148.248 256.426 148.222 256.42C148.008 256.41 147.793 256.438 147.589 256.504C147.271 256.583 146.9 256.706 146.491 256.831C146.016 256.984 145.527 257.089 145.032 257.147C144.646 257.198 144.254 257.171 143.879 257.066C143.504 256.961 143.155 256.781 142.851 256.537C142.554 256.286 142.311 255.975 142.139 255.626C141.967 255.277 141.867 254.897 141.847 254.508C141.838 253.946 141.925 253.386 142.104 252.853C142.365 252.143 142.586 251.419 142.767 250.684C142.821 250.41 142.84 250.129 142.822 249.849C142.81 249.736 142.79 249.624 142.764 249.514C142.746 249.437 142.723 249.362 142.694 249.289C142.694 249.289 142.633 249.161 142.606 249.099C142.349 248.515 141.917 247.786 141.532 247.12L140.292 245.077C139.451 243.714 138.584 242.36 137.711 241.008C135.96 238.303 134.185 235.612 132.387 232.935L134.533 231.554Z" fill="#006B4C"/>
<path d="M179.013 237.52C179.769 237.246 180.473 237.039 181.197 236.834C181.92 236.63 182.656 236.461 183.389 236.312C184.878 235.999 186.392 235.812 187.913 235.754C189.504 235.677 191.098 235.849 192.636 236.265C193.456 236.488 194.241 236.822 194.971 237.258C195.721 237.712 196.395 238.282 196.967 238.948L197.364 239.473L197.414 239.537L197.437 239.572L197.493 239.654L197.563 239.768L197.703 239.999C197.887 240.308 198.073 240.582 198.26 240.924C198.633 241.612 198.969 242.319 199.267 243.043C199.58 243.738 199.801 244.456 200.047 245.168C200.292 245.88 200.473 246.601 200.63 247.325C200.788 248.049 200.951 248.784 201.077 249.499C201.202 250.215 201.308 250.959 201.398 251.686C201.488 252.412 201.553 253.145 201.596 253.884C201.64 254.622 201.672 255.343 201.672 256.119L201.69 256.995L200.814 257.237C199.766 257.529 198.771 257.725 197.755 257.967L194.708 258.551C192.665 258.945 190.622 259.187 188.578 259.514C187.56 259.663 186.535 259.748 185.508 259.867L182.437 260.203C181.413 260.328 180.394 260.398 179.358 260.463L176.278 260.667L173.193 260.871C172.166 260.938 171.15 260.933 170.111 260.965L163.937 261.111C162.907 261.154 161.879 261.111 160.849 261.111L157.764 261.046L151.59 260.918L151.783 257.415L157.866 257.69L160.907 257.827C161.923 257.871 162.951 257.935 163.952 257.917H170.07C171.086 257.917 172.113 257.941 173.117 257.9L176.156 257.772L179.197 257.643C180.213 257.605 181.24 257.561 182.236 257.462L185.265 257.205C186.272 257.112 187.288 257.053 188.295 256.931C190.298 256.659 192.323 256.47 194.314 256.131L197.3 255.629C198.272 255.425 199.293 255.247 200.219 255.01L199.375 256.119C199.352 255.471 199.305 254.759 199.232 254.076C199.159 253.393 199.075 252.699 198.972 252.013C198.87 251.327 198.748 250.647 198.602 249.969C198.456 249.292 198.31 248.624 198.117 247.964C197.925 247.304 197.726 246.654 197.507 246.011C197.288 245.369 197.043 244.736 196.745 244.137C196.448 243.539 196.162 242.97 195.87 242.415C195.695 242.123 195.481 241.832 195.286 241.54L195.137 241.318L195.064 241.204L195.093 241.248L195.076 241.227L195.044 241.189L194.784 240.868C193.324 239.219 190.677 238.787 188.07 238.971C186.738 239.07 185.416 239.281 184.118 239.602C183.462 239.759 182.808 239.943 182.16 240.142C181.512 240.34 180.855 240.571 180.277 240.804L179.013 237.52Z" fill="#006B4C"/>
<path d="M79.5413 251.598L79.877 251.77C80.0901 251.878 80.4082 252.038 80.8256 252.234C81.243 252.43 81.7538 252.657 82.3376 252.926C82.9214 253.194 83.5927 253.474 84.3341 253.755C85.811 254.338 87.5594 254.943 89.4567 255.524C90.4053 255.815 91.4007 256.061 92.4077 256.326C93.4264 256.542 94.4509 256.817 95.49 256.992C96.5291 257.167 97.5682 257.392 98.6015 257.488C99.6348 257.584 100.645 257.736 101.637 257.78C102.583 257.86 103.531 257.892 104.48 257.876C105.382 257.856 106.231 257.876 107.022 257.789L109.159 257.602L110.785 257.31L112.201 257.062L112.533 258.775L111.039 258.962L109.328 259.169L107.101 259.286C106.284 259.356 105.402 259.306 104.474 259.286C104.007 259.286 103.529 259.286 103.038 259.26L101.544 259.155C100.528 259.105 99.5005 258.971 98.4322 258.828C97.3639 258.685 96.3102 258.512 95.2419 258.331C94.1736 258.15 93.1257 257.888 92.0837 257.675C91.0533 257.412 90.0405 257.161 89.0656 256.884C87.1158 256.332 85.3148 255.751 83.7941 255.188C82.2734 254.625 81.0095 254.137 80.1368 253.761C79.7019 253.574 79.3545 253.419 79.1181 253.308L78.7649 253.145L79.5413 251.598Z" fill="#006B4C"/>
<path d="M109.045 141.944C76.2137 141.944 51.5434 123.847 51.2778 123.669L52.3199 122.268C52.5767 122.461 78.505 141.419 112.335 140.138C148.327 138.774 166.707 115.076 170.026 110.339L171.456 111.343C168.053 116.197 149.217 140.488 112.399 141.88C111.275 141.924 110.151 141.944 109.045 141.944Z" fill="#006B4C"/>
<path d="M46.9259 173.822L46.1932 172.237C46.272 172.202 54.3661 168.235 55.6212 154.353C57.1069 137.765 50.7058 133.267 50.6387 133.223L51.5931 131.764C51.885 131.959 58.9516 136.746 57.3608 154.51C56.0211 169.467 47.2966 173.652 46.9259 173.822Z" fill="#006B4C"/>
<path d="M188.584 168.3C169.515 151.799 175.204 125.544 175.263 125.278L176.967 125.664C176.909 125.918 171.462 151.175 189.729 166.98L188.584 168.3Z" fill="#006B4C"/>
<path d="M184.982 189.128C155.674 162.858 162.551 120.05 162.621 119.621L163.482 119.767C163.409 120.19 156.623 162.543 185.566 188.477L184.982 189.128Z" fill="#006B4C"/>
<path d="M174.962 210.751C147.303 185.065 145.937 133.027 145.928 132.505L146.804 132.487C146.804 133.004 148.173 184.665 175.56 210.112L174.962 210.751Z" fill="#006B4C"/>
<path d="M172.113 243.086C165.572 234.329 163.648 225.453 163.26 223.267C161.794 223.673 160.304 223.991 158.8 224.221L158.529 224.262L158.374 224.035C134.439 188.424 129.95 138.839 129.906 138.342L130.782 138.267C130.826 138.76 135.277 187.905 158.949 223.314C160.48 223.077 161.993 222.732 163.476 222.283L163.978 222.117L164.048 222.642C164.048 222.742 165.464 232.721 172.805 242.566L172.113 243.086Z" fill="#006B4C"/>
<path d="M140.881 231.154C140.767 231.066 129.606 222.152 125.262 198.118C120.945 174.219 118.806 140.827 118.782 140.491L119.658 140.436C119.679 140.771 121.815 174.113 126.126 197.961C130.402 221.635 141.304 230.38 141.418 230.465L140.881 231.154Z" fill="#006B4C"/>
<path d="M163.762 247.769C155.452 240.979 152.265 227.844 152.233 227.698L153.082 227.497C153.111 227.626 156.237 240.504 164.317 247.094L163.762 247.769Z" fill="#006B4C"/>
<path d="M156.413 254.114C151.909 251.954 151.38 249.923 150.957 248.276C150.744 247.462 150.578 246.817 149.901 246.306C147.621 244.584 143.599 232.319 143.146 230.927L143.978 230.658C145.181 234.371 148.683 244.292 150.429 245.612C151.345 246.303 151.567 247.156 151.801 248.058C152.201 249.59 152.653 251.327 156.789 253.312L156.413 254.114Z" fill="#006B4C"/>
<path d="M112.624 232.599C112.586 232.444 108.666 216.927 106.938 196.008C105.21 175.088 101.185 141.154 101.129 140.818L102.005 140.716C102.046 141.054 106.091 175.045 107.816 195.935C109.541 216.825 113.444 232.222 113.47 232.383L112.624 232.599Z" fill="#006B4C"/>
<path d="M98.8992 258.507L98.2921 257.88C99.7515 256.461 99.6552 255.769 99.4304 254.254C99.1561 252.688 99.1374 251.087 99.375 249.514C100.058 244.844 98.1899 233.169 97.8513 231.125C94.8887 230.644 90.738 229.082 90.5541 229L90.1076 228.831L90.3148 228.399C99.5997 209.4 87.9272 139.082 87.8075 138.375L88.6686 138.229C89.1531 141.11 100.344 208.525 91.2955 228.347C92.5069 228.787 95.9336 229.981 98.2775 230.311L98.5927 230.355L98.6452 230.667C98.7416 231.225 100.98 244.386 100.23 249.64C100.011 251.126 100.038 252.637 100.309 254.114C100.531 255.72 100.688 256.773 98.8992 258.507Z" fill="#006B4C"/>
<path d="M107.659 258.799L106.949 258.288C107.936 256.919 107.913 256.414 107.846 254.911C107.744 252.882 107.829 250.847 108.099 248.834C108.949 241.828 108.099 232.074 108.099 231.974L108.975 231.898C108.975 231.998 109.851 241.846 108.975 248.939C108.712 250.905 108.63 252.891 108.73 254.873C108.788 256.449 108.82 257.182 107.659 258.799Z" fill="#006B4C"/>
<path d="M71.4123 222.59L70.8285 221.945C70.8839 221.892 76.6662 216.32 82.2296 191.396C87.8134 166.337 78.9984 136.72 78.9079 136.425L79.7456 136.171C79.8361 136.463 88.7153 166.305 83.0819 191.583C77.4485 216.86 71.6429 222.371 71.4123 222.59Z" fill="#006B4C"/>
<path d="M87.2296 255.959C86.1905 254.456 86.1671 251.817 86.1379 248.478C86.1175 246.143 86.0971 243.484 85.7001 240.804C84.7777 234.549 80.6446 226.627 80.6038 226.545L81.3743 226.14C81.5495 226.469 85.6184 234.275 86.5641 240.676C86.9698 243.416 86.9932 246.102 87.0136 248.469C87.0369 251.534 87.0603 254.178 87.9476 255.46L87.2296 255.959Z" fill="#006B4C"/>
<path d="M56.2341 208.437L55.5598 207.876C78.6189 180.08 68.8202 133.06 68.7181 132.587L69.5733 132.403C69.6813 132.879 79.5587 180.308 56.2341 208.437Z" fill="#006B4C"/>
<path d="M51.672 113.398L51.7304 113.468C51.7507 113.482 51.7685 113.499 51.7829 113.518C51.9678 113.683 52.1628 113.836 52.3667 113.976C53.304 114.591 54.3229 115.072 55.3936 115.404C57.1766 115.98 59.0197 116.35 60.8869 116.507C63.3811 116.748 65.8908 116.787 68.3913 116.624C71.1642 116.51 74.1706 116.081 77.3376 115.588C78.0703 115.465 78.9284 115.281 79.734 115.129C80.5396 114.978 81.316 114.753 82.1216 114.566L84.5677 113.889L87.0458 113.112C93.695 110.92 100.531 107.689 107.454 104.575C110.913 103.013 114.401 101.478 117.889 100.074C121.377 98.6698 124.871 97.4118 128.301 96.326C134.577 94.3314 141.054 93.0392 147.615 92.4731C150.243 92.2494 152.88 92.1646 155.517 92.2191C157.872 92.2717 159.93 92.3709 161.614 92.549C163.304 92.6745 164.618 92.8876 165.52 92.9926L166.9 93.1707L166.275 96.6091L164.965 96.3727C164.107 96.2209 162.855 95.964 161.24 95.7889C159.632 95.5612 157.668 95.3803 155.403 95.2548C152.874 95.1439 150.34 95.1663 147.814 95.3219C146.418 95.3744 144.977 95.5554 143.476 95.6955C141.988 95.9086 140.441 96.1071 138.87 96.4252C135.561 97.0437 132.289 97.8496 129.072 98.8391C122.358 100.882 115.435 103.877 108.552 107.012C101.669 110.147 94.7633 113.425 87.9419 115.789L85.3879 116.624L82.8455 117.362C81.9903 117.572 81.1292 117.803 80.3032 117.993C79.4771 118.182 78.7124 118.334 77.8426 118.492C74.7771 119.052 71.6849 119.454 68.5781 119.697C65.9186 119.926 63.245 119.94 60.5833 119.738C58.4689 119.606 56.3768 119.23 54.3486 118.617C52.9574 118.212 51.6306 117.612 50.4082 116.834C50.0487 116.597 49.7073 116.333 49.3866 116.046C49.2494 115.906 49.1443 115.798 49.0713 115.728L49.0129 115.663L51.672 113.398Z" fill="#006B4C"/>
<path d="M48.3531 102.828L48.5487 102.636C48.7758 102.42 49.0145 102.216 49.2638 102.026C49.9498 101.404 50.8721 100.914 52.0747 100.149L54.1179 99.1682L55.2855 98.6166L56.5698 98.1612L59.3835 97.1659C60.3818 96.8565 61.4501 96.6288 62.5505 96.3311C63.6509 96.0334 64.801 95.7035 66.0035 95.4963L69.7338 94.8688L71.6749 94.5389L72.6673 94.3755L73.6743 94.2791L77.8045 93.8997C79.2143 93.7742 80.6125 93.6078 82.0894 93.5086L86.4356 93.3101L90.8519 93.1058C92.3376 93.0591 93.8349 93.0532 95.3294 93.024C98.3183 92.9715 101.307 92.916 104.238 92.9423C107.168 92.9686 110.076 92.9423 112.851 93.0123L128.1 93.3042C130.33 93.3451 132.373 93.3947 134.174 93.3714C135.975 93.348 137.557 93.3918 138.844 93.3305L142.878 93.1729L143.015 95.5635L138.876 95.6277C137.557 95.6627 135.978 95.5868 134.153 95.5635L128.056 95.4117L120.855 95.2132C118.301 95.1227 115.601 95.1023 112.828 95.0672C110.055 95.0322 107.168 95.0264 104.249 95.041C102.79 95.041 101.316 95.041 99.842 95.076L95.4111 95.2219C93.9312 95.2745 92.4572 95.3066 90.9803 95.3766L86.567 95.6685L82.2266 95.94C80.8431 96.0538 79.4274 96.2494 78.0614 96.3924L74.0246 96.874L73.0438 96.9937L72.0865 97.1805L70.2096 97.5512L66.5961 98.2459C65.4285 98.4794 64.3661 98.8589 63.3123 99.1391C62.2586 99.4193 61.2487 99.7024 60.3205 100.035L57.7285 101.071L56.561 101.538L55.5336 102.081L53.7297 103.03C52.7665 103.704 51.9025 104.227 51.5727 104.577C51.401 104.708 51.2391 104.852 51.0881 105.006L50.9013 105.207L48.3531 102.828Z" fill="#006B4C"/>
<path d="M50.9247 112.216L50.3409 110.569C50.5978 110.479 76.4093 101.503 121.217 99.2793L121.302 101.031C76.7479 103.234 51.1787 112.125 50.9247 112.216Z" fill="#006B4C"/>
<path d="M206.386 166.384C202.884 166.384 199.235 164.09 195.957 159.776C192.388 155.082 189.609 148.474 188.132 141.168C184.971 125.511 188.716 111.98 196.672 110.38C200.633 109.586 204.895 111.872 208.669 116.834C212.239 121.527 215.015 128.135 216.492 135.441C217.969 142.747 217.971 149.913 216.492 155.625C214.942 161.662 211.906 165.427 207.942 166.23C207.43 166.331 206.909 166.383 206.386 166.384ZM198.214 112.849C197.875 112.849 197.536 112.882 197.204 112.949C190.911 114.218 187.939 126.904 190.715 140.649C192.113 147.575 194.72 153.807 198.056 158.191C201.141 162.251 204.562 164.251 207.449 163.661C210.336 163.071 212.703 159.913 213.984 154.974C215.353 149.636 215.339 142.884 213.938 135.958C212.536 129.032 209.933 122.803 206.6 118.416C203.85 114.823 200.852 112.841 198.199 112.841L198.214 112.849Z" fill="#006B4C"/>
<path d="M207.037 166.352L206.664 163.76C208.802 163.436 210.922 163 213.015 162.456C213.625 162.304 214.116 162.184 214.475 162.114C220.762 160.844 223.736 148.159 220.96 134.417C218.185 120.675 210.517 110.115 204.227 111.402L203.967 111.451C202.507 111.743 198.602 112.523 197.09 112.972L196.346 110.459C197.788 110.033 200.902 109.394 203.456 108.883L203.71 108.833C211.655 107.216 220.347 118.235 223.529 133.897C226.711 149.56 222.945 163.086 214.988 164.683C214.667 164.747 214.221 164.858 213.66 164.998C211.478 165.564 209.267 166.016 207.037 166.352Z" fill="#006B4C"/>
<path d="M230.327 161.916C227.087 161.916 223.789 159.931 220.782 156.148L222.826 154.52C225.371 157.73 228.117 159.406 230.619 159.289C230.815 159.284 231.01 159.263 231.203 159.228L231.296 159.207C237.566 158.04 240.928 145.489 238.637 131.77C237.47 124.803 235.079 118.489 231.894 113.991C228.949 109.829 225.593 107.719 222.694 108.206C219.796 108.693 217.379 111.642 215.92 116.507L213.412 115.754C215.164 109.881 218.316 106.282 222.262 105.623C226.209 104.963 230.435 107.392 234.031 112.479C237.44 117.29 239.991 123.988 241.22 131.341C243.821 146.948 239.676 160.322 231.787 161.788L231.679 161.814C231.361 161.869 231.04 161.903 230.718 161.916C230.599 161.913 230.464 161.916 230.327 161.916Z" fill="#006B4C"/>
<path d="M230.742 161.907L230.45 159.304C232.599 159.053 234.734 158.689 236.845 158.215C237.458 158.084 237.951 157.979 238.304 157.923C244.632 156.866 248.033 144.289 245.727 130.459C244.559 123.489 242.166 117.173 238.982 112.675C236.036 108.515 232.685 106.402 229.781 106.89L229.565 106.928C228.223 107.146 224.136 107.803 222.595 108.218L221.938 105.684C223.596 105.252 227.624 104.592 229.142 104.341L229.352 104.306C233.351 103.647 237.525 106.075 241.121 111.163C244.527 115.973 247.081 122.675 248.31 130.027C250.937 145.789 246.731 159.169 238.733 160.506C238.409 160.559 237.96 160.655 237.397 160.778C235.199 161.269 232.978 161.646 230.742 161.907Z" fill="#006B4C"/>
<path d="M222.799 154.268L222.075 151.749C229.431 149.63 232.639 147.307 234.79 142.543C236.194 139.429 235.958 134.627 234.238 131.125C233.5 129.63 232.169 127.739 230.009 127.231C224.901 126.034 221.929 129.332 221.807 129.475L219.822 127.765C219.985 127.575 223.908 123.095 230.607 124.683C233.103 125.266 235.169 127.097 236.585 129.969C238.66 134.178 238.903 139.791 237.169 143.62C234.355 149.872 229.77 152.26 222.799 154.268Z" fill="#006B4C"/>
<path d="M55.0228 87.4988C54.1091 87.495 53.2201 87.2017 52.4834 86.6611C50.7729 85.4206 49.9936 83.1585 50.3497 80.4819C51.3421 73.0125 57.9183 69.1275 58.1985 68.9669L59.9499 67.9453L59.4712 69.9272C58.9107 72.2623 59.1034 74.6179 59.3077 77.1164C59.4819 78.8063 59.5453 80.5058 59.4974 82.204C59.3807 84.5391 58.3824 86.3254 56.7537 87.1077C56.213 87.3651 55.6217 87.4987 55.0228 87.4988ZM57.4426 71.6669C55.5657 73.2285 52.6673 76.2991 52.0806 80.7154C51.8121 82.7586 52.3316 84.399 53.5079 85.2513C53.8589 85.5239 54.2779 85.6953 54.7194 85.7467C55.1609 85.7982 55.608 85.7278 56.0123 85.5432C57.0427 85.0499 57.6819 83.7919 57.7636 82.1281C57.8064 80.5068 57.745 78.8845 57.5797 77.2711C57.4309 75.4293 57.2762 73.5525 57.4426 71.6669Z" fill="#006B4C"/>
<path d="M23.5894 54.936C22.1125 54.936 20.8457 54.4428 19.9758 53.4912C19.4709 52.926 19.1286 52.2346 18.9852 51.4904C18.8418 50.7462 18.9027 49.977 19.1615 49.2647C19.8533 47.2652 21.7885 45.87 24.4563 45.4322C31.879 44.2121 37.5182 49.3814 37.7517 49.6033L39.2404 50.9927L37.1972 51.1123C34.8037 51.2495 32.6 52.1193 30.2678 53.0388C28.7012 53.695 27.0934 54.2478 25.4546 54.6938C24.8451 54.8505 24.2187 54.9318 23.5894 54.936ZM26.6951 46.9967C26.039 46.9953 25.3839 47.0481 24.7365 47.1544C22.7167 47.4842 21.2864 48.462 20.8106 49.8368C20.6525 50.2513 20.611 50.7012 20.6908 51.1376C20.7706 51.5741 20.9685 51.9802 21.2631 52.312C22.0366 53.1555 23.4114 53.4095 25.0401 53.0008C26.6041 52.5723 28.1388 52.0428 29.6344 51.4159C31.3448 50.7417 33.0962 50.0499 34.9467 49.6646C33.2188 48.5233 30.2386 46.9967 26.6951 46.9967Z" fill="#006B4C"/>
<path d="M4.30747 87.5017H4.1119C3.3553 87.4555 2.62523 87.2057 1.9989 86.7787C1.37258 86.3518 0.873281 85.7635 0.553808 85.0761C-0.362716 83.173 0.0225747 80.8204 1.60752 78.6254C6.02377 72.5221 13.6595 72.2243 13.9806 72.2039L16.0238 72.1426L14.6636 73.6604C13.0612 75.4468 12.1096 77.6155 11.1055 79.9126C10.4569 81.4818 9.70614 83.0068 8.85798 84.4777C7.68752 86.4129 6.0296 87.5017 4.30747 87.5017ZM12.0337 74.2296C9.64024 74.7141 5.63263 76.0393 3.02317 79.647C1.82351 81.3049 1.4966 83.0066 2.12708 84.3172C2.30697 84.7229 2.59483 85.0714 2.95926 85.3246C3.32369 85.5779 3.75068 85.7261 4.19364 85.7533C5.36118 85.8058 6.49078 85.0148 7.35769 83.5816C8.16664 82.1705 8.88232 80.708 9.50013 79.2033C10.2357 77.5221 10.9917 75.8087 12.0337 74.2296Z" fill="#006B4C"/>
<defs>
<linearGradient id="paint0_linear_276_4802" x1="21.4227" y1="91.5185" x2="178.213" y2="91.5185" gradientUnits="userSpaceOnUse">
<stop stop-color="#C0DC2E"/>
<stop offset="1" stop-color="#41BF68"/>
</linearGradient>
<linearGradient id="paint1_linear_276_4802" x1="42.4745" y1="111.35" x2="129.005" y2="111.35" gradientUnits="userSpaceOnUse">
<stop stop-color="white"/>
<stop offset="1" stop-color="#BEFFFF"/>
</linearGradient>
<linearGradient id="paint2_linear_276_4802" x1="53.8068" y1="179.623" x2="194.672" y2="179.623" gradientUnits="userSpaceOnUse">
<stop stop-color="#F1DD13"/>
<stop offset="1" stop-color="#FF7A8B"/>
</linearGradient>
<linearGradient id="paint3_linear_276_4802" x1="54.3107" y1="260.835" x2="112.367" y2="260.835" gradientUnits="userSpaceOnUse">
<stop stop-color="#C0DC2E"/>
<stop offset="1" stop-color="#41BF68"/>
</linearGradient>
<linearGradient id="paint4_linear_276_4802" x1="153.744" y1="247.888" x2="201.617" y2="247.888" gradientUnits="userSpaceOnUse">
<stop stop-color="#C0DC2E"/>
<stop offset="1" stop-color="#41BF68"/>
</linearGradient>
<linearGradient id="paint5_linear_276_4802" x1="174.701" y1="147.323" x2="199.015" y2="147.323" gradientUnits="userSpaceOnUse">
<stop stop-color="#C0DC2E"/>
<stop offset="1" stop-color="#41BF68"/>
</linearGradient>
<linearGradient id="paint6_linear_276_4802" x1="228.677" y1="133.713" x2="245.289" y2="133.713" gradientUnits="userSpaceOnUse">
<stop stop-color="#C0DC2E"/>
<stop offset="1" stop-color="#41BF68"/>
</linearGradient>
<linearGradient id="paint7_linear_276_4802" x1="-3.90016" y1="166.163" x2="49.445" y2="166.163" gradientUnits="userSpaceOnUse">
<stop stop-color="#C0DC2E"/>
<stop offset="1" stop-color="#41BF68"/>
</linearGradient>
<linearGradient id="paint8_linear_276_4802" x1="83.4909" y1="42.0298" x2="125.754" y2="42.0298" gradientUnits="userSpaceOnUse">
<stop stop-color="white"/>
<stop offset="1" stop-color="#BEFFFF"/>
</linearGradient>
<linearGradient id="paint9_linear_276_4802" x1="82.0219" y1="47.8904" x2="96.2013" y2="47.8904" gradientUnits="userSpaceOnUse">
<stop stop-color="#00AE40"/>
<stop offset="1" stop-color="#2A957D"/>
</linearGradient>
<linearGradient id="paint10_linear_276_4802" x1="85.1056" y1="3.79316" x2="104.392" y2="3.79316" gradientUnits="userSpaceOnUse">
<stop stop-color="#C0DC2E"/>
<stop offset="1" stop-color="#41BF68"/>
</linearGradient>
<linearGradient id="paint11_linear_276_4802" x1="28.5322" y1="43.5122" x2="44.3888" y2="43.5122" gradientUnits="userSpaceOnUse">
<stop stop-color="white"/>
<stop offset="1" stop-color="#BEFFFF"/>
</linearGradient>
<linearGradient id="paint12_linear_276_4802" x1="2.45135" y1="78.975" x2="15.5483" y2="78.975" gradientUnits="userSpaceOnUse">
<stop stop-color="white"/>
<stop offset="1" stop-color="#BEFFFF"/>
</linearGradient>
<linearGradient id="paint13_linear_276_4802" x1="90.6903" y1="50.5771" x2="129.85" y2="37.8214" gradientUnits="userSpaceOnUse">
<stop stop-color="#C0DC2E"/>
<stop offset="1" stop-color="#41BF68"/>
</linearGradient>
<linearGradient id="paint14_linear_276_4802" x1="73.9296" y1="49.7166" x2="113.708" y2="36.7589" gradientUnits="userSpaceOnUse">
<stop stop-color="#C0DC2E"/>
<stop offset="1" stop-color="#41BF68"/>
</linearGradient>
<linearGradient id="paint15_linear_276_4802" x1="94.4204" y1="24.1789" x2="112.24" y2="24.1789" gradientUnits="userSpaceOnUse">
<stop stop-color="#00AE40"/>
<stop offset="1" stop-color="#2A957D"/>
</linearGradient>
<linearGradient id="paint16_linear_276_4802" x1="89.7581" y1="61.4863" x2="108.248" y2="61.4863" gradientUnits="userSpaceOnUse">
<stop stop-color="#00AE40"/>
<stop offset="1" stop-color="#2A957D"/>
</linearGradient>
<linearGradient id="paint17_linear_276_4802" x1="81.3452" y1="6.63508" x2="99.6601" y2="6.63508" gradientUnits="userSpaceOnUse">
<stop stop-color="#00AE40"/>
<stop offset="1" stop-color="#2A957D"/>
</linearGradient>
<linearGradient id="paint18_linear_276_4802" x1="107.576" y1="32.4931" x2="119.317" y2="32.4931" gradientUnits="userSpaceOnUse">
<stop stop-color="#C2FFFF"/>
<stop offset="1" stop-color="#69C1B3"/>
</linearGradient>
<linearGradient id="paint19_linear_276_4802" x1="48.1786" y1="108.189" x2="132.648" y2="108.189" gradientUnits="userSpaceOnUse">
<stop stop-color="#C2FFFF"/>
<stop offset="1" stop-color="#69C1B3"/>
</linearGradient>
<linearGradient id="paint20_linear_276_4802" x1="137.368" y1="65.0617" x2="186.957" y2="65.0617" gradientUnits="userSpaceOnUse">
<stop stop-color="#00AE40"/>
<stop offset="1" stop-color="#2A957D"/>
</linearGradient>
<linearGradient id="paint21_linear_276_4802" x1="94.4042" y1="118.011" x2="162.379" y2="118.011" gradientUnits="userSpaceOnUse">
<stop stop-color="#00AE40"/>
<stop offset="1" stop-color="#2A957D"/>
</linearGradient>
<linearGradient id="paint22_linear_276_4802" x1="49.339" y1="191.659" x2="181.802" y2="191.659" gradientUnits="userSpaceOnUse">
<stop stop-color="#FF7A8B"/>
<stop offset="1" stop-color="#C97EBA"/>
</linearGradient>
<linearGradient id="paint23_linear_276_4802" x1="184.953" y1="143.171" x2="207.905" y2="143.171" gradientUnits="userSpaceOnUse">
<stop stop-color="#00AE40"/>
<stop offset="1" stop-color="#2A957D"/>
</linearGradient>
<linearGradient id="paint24_linear_276_4802" x1="212.971" y1="145.719" x2="226.693" y2="145.719" gradientUnits="userSpaceOnUse">
<stop stop-color="#00AE40"/>
<stop offset="1" stop-color="#2A957D"/>
</linearGradient>
<linearGradient id="paint25_linear_276_4802" x1="42.1561" y1="85.3401" x2="49.3703" y2="85.3401" gradientUnits="userSpaceOnUse">
<stop stop-color="white"/>
<stop offset="1" stop-color="#BEFFFF"/>
</linearGradient>
<linearGradient id="paint26_linear_276_4802" x1="60.3232" y1="73.0088" x2="65.6553" y2="73.0088" gradientUnits="userSpaceOnUse">
<stop stop-color="#C2FFFF"/>
<stop offset="1" stop-color="#69C1B3"/>
</linearGradient>
<linearGradient id="paint27_linear_276_4802" x1="10.4942" y1="73.7134" x2="22.1385" y2="73.7134" gradientUnits="userSpaceOnUse">
<stop stop-color="#C2FFFF"/>
<stop offset="1" stop-color="#69C1B3"/>
</linearGradient>
<linearGradient id="paint28_linear_276_4802" x1="17.3711" y1="54.4525" x2="31.3031" y2="54.4525" gradientUnits="userSpaceOnUse">
<stop stop-color="#C2FFFF"/>
<stop offset="1" stop-color="#69C1B3"/>
</linearGradient>
<linearGradient id="paint29_linear_276_4802" x1="21.183" y1="165.357" x2="63.4601" y2="165.357" gradientUnits="userSpaceOnUse">
<stop stop-color="#2A957D"/>
<stop offset="1" stop-color="#00AE40"/>
</linearGradient>
<linearGradient id="paint30_linear_276_4802" x1="83.8528" y1="268.173" x2="104.349" y2="268.173" gradientUnits="userSpaceOnUse">
<stop stop-color="#2A957D"/>
<stop offset="1" stop-color="#00AE40"/>
</linearGradient>
<linearGradient id="paint31_linear_276_4802" x1="165.35" y1="254.107" x2="186.289" y2="254.107" gradientUnits="userSpaceOnUse">
<stop stop-color="#2A957D"/>
<stop offset="1" stop-color="#00AE40"/>
</linearGradient>
</defs>
</svg>
