<svg width="196" height="175" viewBox="0 0 196 175" fill="none" xmlns="http://www.w3.org/2000/svg">
<g opacity="0.7">
<path d="M157.044 133.006C157.044 133.006 160.346 138.379 164.618 132.326C168.889 126.273 166.515 118.323 161.809 117.541C157.102 116.759 155.654 122.407 155.654 122.407C155.552 111.529 154.695 100.672 153.091 89.9128C147.212 85.5687 141.507 74.6794 141.507 74.6794C141.507 74.6794 142.246 86.9877 139.668 87.1615C132.877 87.1615 126.085 74.8676 126.085 74.8676C126.085 74.8676 121.495 84.0337 118.845 83.3097C116.195 82.5857 119.946 74.3174 119.946 74.3174C98.8333 84.7722 96.7771 82.021 100.672 77.2135C75.8963 88.7978 71.8563 87.118 78.2856 79.9647C62.8495 93.3591 50.3674 93.1853 50.3674 93.1853C48.9244 97.7451 48.5479 102.575 49.2669 107.304C49.8544 113.188 49.6106 119.125 48.5428 124.941C44.5028 118.323 36.9585 123.493 36.7992 130.255C36.6399 137.018 43.214 143.114 48.1663 140.724C49.2669 154.119 65.789 166.702 65.789 166.702C65.789 166.702 94.9815 185.15 135.729 165.052C158.782 152.526 157.044 133.006 157.044 133.006Z" fill="#FBD0B4"/>
<path d="M97.8199 175C78.2279 175 65.7748 167.282 65.6589 167.21C64.9494 166.674 49.4264 154.713 47.877 141.507C45.3719 142.391 42.2586 141.377 39.8838 138.93C37.6518 136.643 36.4132 133.567 36.4375 130.372C36.5678 125.651 40.0721 121.524 43.9383 121.524C44.8115 121.539 45.6689 121.759 46.4413 122.166C47.2136 122.574 47.8791 123.158 48.3838 123.87C49.3004 118.46 49.4806 112.951 48.9196 107.493C48.1831 102.682 48.5697 97.7652 50.0491 93.1282L50.1649 92.8241H50.4835C51.0192 92.8241 63.1828 92.6649 78.0831 79.7194L78.7203 80.371C75.9979 83.4119 76.0414 84.4689 76.1862 84.7151C76.331 84.9613 77.1419 85.193 77.6342 85.193C79.9511 85.193 85.8157 83.7449 100.629 76.8233L102.425 75.9834L101.179 77.5328C99.4996 79.618 99.6589 80.4289 99.7313 80.5882C99.8037 80.7475 100.615 81.0226 101.02 81.0226C103.047 81.0226 107.971 79.7918 119.845 73.8982L120.974 73.319L120.453 74.492C119.714 76.1717 117.919 80.9068 118.657 82.4851C118.689 82.5747 118.743 82.6549 118.814 82.7181C118.884 82.7814 118.97 82.8258 119.063 82.8471H119.251C120.945 82.8471 124.102 77.7935 125.695 74.6078L126.086 73.8403L126.506 74.5933C126.506 74.7236 133.239 86.6555 139.683 86.6555C140.914 86.5686 141.406 80.3855 141.131 74.6657L141 72.5371L142 74.4195C142 74.5354 147.705 85.2219 153.425 89.5081L153.584 89.624V89.8122C155.093 99.8824 155.944 110.04 156.132 120.221C156.569 119.295 157.253 118.507 158.109 117.945C158.965 117.383 159.96 117.068 160.983 117.035C161.298 117.038 161.613 117.063 161.925 117.108C162.978 117.346 163.954 117.848 164.76 118.567C165.565 119.287 166.174 120.2 166.529 121.22C167.247 123.092 167.49 125.112 167.237 127.1C166.985 129.089 166.244 130.984 165.081 132.616C163.633 134.658 162.185 135.701 160.578 135.701C159.449 135.65 158.384 135.162 157.609 134.339C157.494 139.002 155.626 154.858 136.15 165.516C124.28 171.603 111.159 174.85 97.8199 175ZM48.6879 140.074V140.74C49.7739 153.772 65.9775 166.269 66.1368 166.385C66.2961 166.5 78.4596 174.03 97.7765 174.03C110.936 173.878 123.882 170.681 135.599 164.69C147.285 158.29 152.368 150.036 154.554 144.23C155.972 140.683 156.652 136.884 156.552 133.065L156.379 131.139L157.392 132.79C157.729 133.32 158.177 133.77 158.704 134.11C159.232 134.45 159.826 134.671 160.448 134.759C161.678 134.759 162.938 133.862 164.198 132.066C165.29 130.573 165.994 128.832 166.247 127C166.5 125.167 166.293 123.301 165.646 121.568C165.353 120.689 164.84 119.901 164.156 119.277C163.471 118.653 162.638 118.216 161.736 118.006C157.552 117.311 156.132 122.48 156.118 122.538L155.206 126.028V122.422C155.097 111.632 154.25 100.863 152.672 90.1887C148.197 86.7424 143.983 79.8642 142.086 76.6351C142.202 80.6317 142.086 87.4664 139.726 87.6402C133.63 87.6402 127.751 78.5465 126.144 75.8386C124.971 78.0397 121.684 83.8318 119.265 83.8318C119.121 83.8478 118.975 83.8478 118.831 83.8318C118.609 83.7683 118.404 83.656 118.231 83.5032C118.059 83.3503 117.922 83.1608 117.832 82.9485C117.021 81.2253 118.368 77.3301 119.164 75.3463C110.085 79.7773 103.989 82.0362 101.006 82.0362C99.9051 82.0362 99.1811 81.7032 98.877 81.0805C98.7514 80.6349 98.7346 80.1656 98.8278 79.7121C98.921 79.2586 99.1216 78.8341 99.4128 78.4741C88.2773 83.6001 80.9358 86.1921 77.5908 86.1921C76.4034 86.1921 75.6359 85.8591 75.3463 85.1785C75.228 84.7892 75.2004 84.378 75.2657 83.9764C75.3309 83.5748 75.4873 83.1934 75.7228 82.8616C63.009 92.7807 52.7279 93.664 50.8165 93.7509C49.5089 98.1637 49.173 102.807 49.8319 107.362C50.4171 113.295 50.1685 119.281 49.0934 125.144L48.8617 126.303L48.2535 125.289C47.8553 124.462 47.242 123.756 46.4778 123.247C45.7136 122.737 44.8265 122.442 43.9094 122.393C40.5789 122.393 37.4366 126.172 37.3353 130.328C37.3183 131.79 37.5897 133.241 38.1338 134.597C38.678 135.954 39.4842 137.19 40.5065 138.235C42.8089 140.595 45.7773 141.464 48.0508 140.363L48.6879 140.074Z" fill="#B56A4D"/>
<g style="mix-blend-mode:multiply" opacity="0.6">
<path d="M60.5618 137.669C60.5618 137.669 70.5243 136.771 79.6035 145.532L79.227 142.636C79.227 142.636 90.4204 140.696 88.7551 124.724C88.2628 120.032 85.2798 113.791 80.3275 112.213C74.7815 110.446 69.9885 114.356 68.1205 119.163C67.0411 121.943 66.4011 124.875 66.2236 127.851C66.2236 128.387 66.4843 134.107 66.8173 134.049C64.3915 134.537 62.1935 135.809 60.5618 137.669Z" fill="#FBD0B4"/>
</g>
<path d="M62.1547 137.032C62.4106 136.962 62.6723 136.913 62.9366 136.888C63.6422 136.795 64.3538 136.756 65.0652 136.772C65.4996 136.772 65.9775 136.859 66.5133 136.902C67.0436 136.932 67.5686 137.024 68.0772 137.177L69.7279 137.641C70.2782 137.8 70.7995 138.075 71.3497 138.292C71.9 138.509 72.4213 138.77 72.9281 139.06L74.3761 139.987C74.8395 140.291 75.2739 140.595 75.6794 140.884C76.0848 141.174 76.4034 141.565 76.7075 141.854C77.9817 143.071 78.7492 143.925 78.7492 143.925C78.7492 143.925 77.779 143.259 76.4179 142.216C76.0703 141.956 75.7373 141.652 75.3174 141.377C74.8974 141.101 74.4341 140.884 73.9852 140.609L72.5371 139.74C72.0448 139.48 71.509 139.291 70.9877 139.06C70.4664 138.828 69.9741 138.553 69.4528 138.365L67.8889 137.887C67.4144 137.728 66.9309 137.597 66.4409 137.496C65.963 137.409 65.5141 137.293 65.0942 137.235C64.4076 137.137 63.7165 137.075 63.0235 137.047C62.4588 137.018 62.1547 137.032 62.1547 137.032Z" fill="#B56A4D"/>
<path d="M87.2056 123.117C88.0103 127.676 87.1522 132.372 84.7874 136.352C82.9484 139.248 78.387 141.319 75.0131 140.261C71.1613 139.06 68.5693 135.135 67.7729 131.313C66.4262 124.782 68.077 115.5 74.2746 112.488C79.7192 109.853 84.8598 114.776 86.5105 120.047C86.8162 121.052 87.0485 122.078 87.2056 123.117Z" fill="#FEF6EC"/>
<path d="M87.2059 123.117C87.2059 123.117 87.2059 123.406 87.3072 123.971C87.4196 124.787 87.4777 125.609 87.481 126.433C87.5033 127.713 87.4113 128.992 87.2059 130.255C86.9181 131.892 86.4318 133.487 85.7578 135.005L85.0772 136.236C84.8138 136.647 84.5287 137.043 84.2229 137.423C83.8899 137.771 83.4989 138.133 83.1224 138.48C82.7459 138.828 82.2825 139.103 81.8192 139.378C79.8866 140.571 77.5837 141.014 75.3464 140.623C74.7763 140.476 74.2194 140.283 73.6812 140.044C73.1434 139.753 72.6214 139.434 72.1173 139.088C71.1464 138.339 70.3009 137.439 69.6122 136.424C68.2176 134.355 67.3615 131.971 67.1215 129.488C66.8564 127.037 66.9786 124.559 67.4836 122.146C67.9195 119.804 68.8527 117.582 70.2203 115.63C71.5352 113.777 73.4391 112.425 75.6215 111.793C76.6075 111.547 77.6347 111.516 78.6338 111.701C79.633 111.886 80.5809 112.282 81.4137 112.864C82.81 113.787 83.9985 114.99 84.9035 116.398C85.6144 117.47 86.1747 118.634 86.5687 119.859C86.9887 121.915 87.2059 123.117 87.2059 123.117ZM87.2059 123.117C87.2059 123.117 86.9452 121.915 86.4094 119.873C86.0117 118.658 85.4411 117.507 84.7152 116.456C83.8152 115.067 82.6184 113.895 81.211 113.024C80.4015 112.505 79.4926 112.161 78.5426 112.014C77.5926 111.867 76.6224 111.92 75.6939 112.169C73.6509 112.839 71.8917 114.175 70.6982 115.963C68.2566 119.98 67.2747 124.716 67.918 129.372C68.1003 131.731 68.8829 134.004 70.1914 135.975C71.3813 137.913 73.2334 139.353 75.4043 140.03C77.5043 140.453 79.6868 140.098 81.544 139.031C81.9929 138.784 82.3984 138.48 82.8183 138.22C83.2382 137.959 83.5713 137.583 83.9043 137.235C84.221 136.876 84.5159 136.499 84.7876 136.106C85.0193 135.7 85.2655 135.309 85.4972 134.918C86.2292 133.436 86.76 131.863 87.0755 130.241C87.301 128.984 87.4221 127.71 87.4376 126.433C87.4443 125.61 87.4008 124.788 87.3072 123.971C87.2059 123.406 87.2059 123.117 87.2059 123.117Z" fill="#9E5116"/>
<g style="mix-blend-mode:multiply" opacity="0.5">
<g style="mix-blend-mode:multiply" opacity="0.5">
<path d="M74.2894 112.474L74.8686 112.242C69.2213 115.051 67.6284 123.522 68.9461 129.503C69.6846 133.007 72.0594 136.613 75.5927 137.713C77.275 138.063 79.0231 137.911 80.6194 137.275C82.2157 136.639 83.5897 135.547 84.5705 134.137C86.7354 130.476 87.526 126.164 86.8005 121.973C86.6437 121.018 86.4211 120.074 86.1344 119.149C86.0185 118.787 85.8882 118.425 85.7434 118.078C86.0524 118.709 86.3138 119.362 86.5254 120.033C86.8366 121.042 87.0737 122.073 87.2349 123.117C88.0396 127.676 87.1815 132.372 84.8167 136.352C82.9777 139.248 78.4163 141.319 75.0424 140.262C71.1906 139.06 68.5986 135.136 67.8022 131.313C66.441 124.782 68.0918 115.5 74.2894 112.474Z" fill="#BBAC9A"/>
</g>
</g>
<g style="mix-blend-mode:screen">
<g style="mix-blend-mode:screen">
<path d="M83.4265 126.172C83.4265 126.028 83.2238 126.172 83.2383 126.245C83.1787 127.956 82.8664 129.649 82.3115 131.269C82.0178 132.133 81.5352 132.92 80.899 133.574C80.2628 134.228 79.4889 134.732 78.6335 135.049C78.3005 135.208 78.0253 136.033 78.6335 136.106C80.5739 136.41 82.1233 134.658 82.9776 132.775C83.7477 130.661 83.9033 128.372 83.4265 126.172Z" fill="#3F634A"/>
</g>
</g>
<g style="mix-blend-mode:screen">
<g style="mix-blend-mode:screen">
<path d="M73.9855 133.007C72.962 130.72 72.3586 128.268 72.2044 125.767C72.2044 125.579 72.0017 125.637 71.9728 125.767C71.5239 128.229 71.6542 131.762 73.4208 133.601C73.6959 133.876 74.1738 133.34 73.9855 133.007Z" fill="#739963"/>
</g>
</g>
<g style="mix-blend-mode:multiply" opacity="0.6">
<path d="M142.868 134.802C134.792 135.297 127.242 138.973 121.872 145.026L122.045 141.782C122.045 141.782 109.129 140.609 109.679 122.957C109.838 117.773 112.691 110.693 118.194 108.549C124.362 106.146 130.154 109.998 132.674 115.109C134.141 118.029 135.119 121.169 135.57 124.405C135.657 124.985 135.816 131.269 135.425 131.24C138.227 131.59 140.839 132.84 142.868 134.802Z" fill="#FBD0B4"/>
</g>
<path d="M141.001 134.237C140.7 134.245 140.4 134.274 140.103 134.324C139.324 134.408 138.551 134.534 137.786 134.7C137.294 134.802 136.801 134.975 136.266 135.106C135.708 135.252 135.162 135.436 134.629 135.656L132.892 136.322C132.298 136.554 131.762 136.901 131.183 137.191C130.604 137.481 130.039 137.77 129.489 138.074C128.938 138.378 128.461 138.798 127.954 139.131L126.506 140.101C126.088 140.413 125.686 140.746 125.304 141.101C123.856 142.375 122.784 143.186 122.784 143.186C122.784 143.186 123.61 142.172 124.942 140.71C125.304 140.362 125.637 139.928 126.071 139.566L127.519 138.465L129.054 137.307C129.605 136.974 130.213 136.67 130.806 136.351C131.4 136.032 131.965 135.714 132.588 135.497L134.412 134.874C134.974 134.669 135.557 134.529 136.15 134.454C136.714 134.353 137.25 134.237 137.743 134.179C138.543 134.124 139.346 134.124 140.146 134.179C140.432 134.178 140.718 134.198 141.001 134.237Z" fill="#B56A4D"/>
<path d="M112.315 122.451C111.84 127.166 113.124 131.89 115.92 135.715C118.093 138.495 123.074 140.247 126.564 138.915C130.546 137.395 132.978 133.196 133.514 129.242C134.441 122.509 131.95 113.198 125.144 110.621C119.193 108.362 114.139 113.792 112.822 119.309C112.567 120.341 112.398 121.392 112.315 122.451Z" fill="#FEF6EC"/>
<path d="M112.315 122.451V123.348C112.269 124.197 112.269 125.048 112.315 125.897C112.387 126.447 112.46 127.041 112.547 127.707C112.634 128.373 112.822 129.054 113.039 129.778C113.5 131.436 114.213 133.013 115.153 134.455C116.201 136.181 117.789 137.515 119.671 138.249C121.693 139.153 123.967 139.322 126.1 138.727C128.317 137.92 130.165 136.335 131.299 134.267C132.546 132.162 133.206 129.762 133.21 127.316C133.324 124.872 133.036 122.426 132.356 120.076C131.715 117.79 130.611 115.661 129.112 113.82C127.683 112.107 125.72 110.924 123.537 110.461C122.558 110.29 121.555 110.315 120.586 110.533C119.617 110.752 118.701 111.161 117.89 111.735C116.482 112.714 115.305 113.989 114.444 115.471C113.763 116.599 113.246 117.818 112.909 119.091C112.677 120.163 112.561 121.017 112.46 121.596C112.358 122.175 112.315 122.451 112.315 122.451ZM112.315 122.451C112.315 122.451 112.315 122.132 112.445 121.553C112.576 120.974 112.634 120.105 112.865 119.033C113.167 117.748 113.655 116.514 114.313 115.37C115.175 113.868 116.339 112.562 117.731 111.532C118.549 110.911 119.482 110.457 120.475 110.196C121.469 109.935 122.505 109.872 123.523 110.012C125.826 110.427 127.922 111.606 129.474 113.357C131.134 115.208 132.352 117.411 133.036 119.801C133.771 122.245 134.104 124.793 134.021 127.345C133.956 129.932 133.218 132.458 131.878 134.672C131.222 135.758 130.401 136.735 129.445 137.568C128.944 137.957 128.417 138.31 127.867 138.625C127.332 138.916 126.769 139.154 126.187 139.335C123.903 139.89 121.497 139.634 119.381 138.611C118.413 138.157 117.512 137.572 116.703 136.873C116.34 136.511 116.007 136.149 115.674 135.773C115.341 135.396 115.139 134.947 114.863 134.556C113.984 133.073 113.302 131.481 112.836 129.821C112.634 129.083 112.503 128.373 112.373 127.736C112.243 127.099 112.228 126.462 112.17 125.911C112.113 125.063 112.113 124.211 112.17 123.363L112.315 122.451Z" fill="#9E5116"/>
<g style="mix-blend-mode:multiply" opacity="0.5">
<g style="mix-blend-mode:multiply" opacity="0.5">
<path d="M125.144 110.62C124.946 110.544 124.743 110.481 124.536 110.432C130.719 112.835 132.993 121.321 132.153 127.49C131.956 129.396 131.264 131.217 130.147 132.774C129.029 134.331 127.525 135.569 125.782 136.366C124.046 136.862 122.204 136.853 120.473 136.34C118.742 135.827 117.193 134.832 116.007 133.47C113.433 129.961 112.251 125.622 112.691 121.292C112.773 120.316 112.928 119.348 113.155 118.396C113.246 118.014 113.357 117.637 113.488 117.266C113.212 117.933 112.989 118.621 112.822 119.323C112.565 120.369 112.395 121.434 112.315 122.508C111.84 127.223 113.124 131.947 115.92 135.772C118.093 138.553 123.074 140.305 126.564 138.972C130.546 137.452 132.978 133.253 133.514 129.3C134.441 122.508 131.95 113.197 125.144 110.62Z" fill="#BBAC9A"/>
</g>
</g>
<path d="M97.6174 134.237C97.758 134.542 97.8602 134.863 97.9215 135.193C98.1378 136.094 98.072 137.039 97.7332 137.901C97.4927 138.478 97.1437 139.004 96.7051 139.45C96.4734 139.696 96.1838 139.885 95.9232 140.116C95.6625 140.348 95.315 140.478 94.9964 140.638L93.9973 141.058L92.9257 141.347C92.613 141.418 92.3111 141.53 92.0279 141.68C91.845 141.829 91.7134 142.032 91.6515 142.259C91.5558 142.881 91.6517 143.518 91.9266 144.084C92.1807 144.699 92.5063 145.282 92.8968 145.822C93.2559 146.337 93.658 146.822 94.0986 147.27C94.4951 147.682 94.9263 148.06 95.3874 148.399C95.7839 148.68 96.2001 148.931 96.6327 149.152C96.9654 149.323 97.3147 149.459 97.6753 149.558L98.6455 149.746C98.3127 149.765 97.9791 149.765 97.6463 149.746C97.2571 149.691 96.874 149.599 96.5024 149.471C95.9932 149.325 95.5061 149.11 95.0543 148.834C94.5419 148.518 94.0575 148.16 93.6063 147.762C93.0672 147.339 92.581 146.853 92.1583 146.314C91.6905 145.743 91.3054 145.11 91.0143 144.432C90.6493 143.692 90.5326 142.854 90.6813 142.042C90.7379 141.803 90.8429 141.578 90.9899 141.382C91.1368 141.185 91.3225 141.02 91.5356 140.898C91.8809 140.702 92.2585 140.57 92.6506 140.507L93.6497 140.261L94.5765 139.914L95.4308 139.494C95.6625 139.32 95.9377 139.161 96.1549 138.972C96.577 138.618 96.9263 138.186 97.183 137.698C97.5592 136.935 97.7242 136.085 97.6608 135.236C97.6808 134.903 97.6663 134.568 97.6174 134.237Z" fill="#B56A4D"/>
<path d="M95.2856 122.045C95.2856 122.045 101.99 133.47 98.0224 139.074C96.9364 141.376 106.45 136.438 95.2856 122.045Z" fill="#FCECE3"/>
<path d="M95.8937 141.086C96.1254 141.419 95.7199 142.085 94.9814 142.534C94.2429 142.983 93.5334 143.171 93.2583 142.838C92.9831 142.505 93.4465 141.839 94.1705 141.39C94.8945 140.942 95.6475 140.753 95.8937 141.086Z" fill="#FCECE3"/>
<path d="M45.5312 129.025C44.0832 127.403 39.4205 126.245 39.5798 129.43C39.5798 129.619 39.8984 129.43 39.8984 129.43C40.0142 127.562 41.9401 127.982 43.1275 128.533C44.0494 128.939 44.8089 129.643 45.2851 130.531C45.5117 130.927 45.7101 131.338 45.8788 131.762C45.8366 131.797 45.7978 131.835 45.7629 131.878C45.5457 132.24 45.4733 132.66 45.2561 133.022C45.0769 133.271 44.8481 133.481 44.5839 133.638C44.3198 133.795 44.0261 133.896 43.7212 133.934C43.1531 134.045 42.5651 133.989 42.0281 133.773C41.491 133.558 41.0279 133.191 40.6948 132.717C40.6079 132.602 40.4341 132.717 40.4776 132.862C40.7911 133.51 41.3239 134.025 41.9814 134.316C42.6389 134.608 43.3784 134.657 44.0687 134.455C44.528 134.323 44.9546 134.096 45.3211 133.789C45.6877 133.483 45.9861 133.103 46.1973 132.674C46.4537 133.381 46.5296 134.14 46.4184 134.883C46.3071 135.627 46.0122 136.331 45.5602 136.931C45.3285 137.192 45.4443 137.655 45.8788 137.496C49.2093 136.164 47.1675 130.922 45.5312 129.025Z" fill="#9F5216"/>
<path d="M159.289 124.231C160.288 122.464 164.444 120.539 164.878 123.507C164.878 123.695 164.589 123.623 164.56 123.507C164.125 121.813 162.417 122.595 161.403 123.261C160.632 123.812 160.063 124.6 159.781 125.505C159.645 125.917 159.538 126.338 159.463 126.765C159.507 126.786 159.546 126.815 159.579 126.852C159.854 127.142 159.984 127.518 160.259 127.808C160.471 128.008 160.721 128.163 160.995 128.263C161.269 128.362 161.561 128.405 161.852 128.387C162.396 128.377 162.926 128.215 163.382 127.918C163.838 127.621 164.201 127.201 164.429 126.707C164.429 126.577 164.676 126.707 164.647 126.794C164.476 127.449 164.081 128.023 163.531 128.418C162.981 128.812 162.31 129.001 161.635 128.952C161.186 128.915 160.749 128.786 160.352 128.572C159.956 128.357 159.609 128.063 159.332 127.706C159.226 128.404 159.294 129.118 159.532 129.782C159.769 130.447 160.169 131.043 160.694 131.515C160.954 131.703 160.94 132.166 160.505 132.094C157.189 131.558 158.159 126.258 159.289 124.231Z" fill="#9F5216"/>
<g style="mix-blend-mode:multiply" opacity="0.5">
<path d="M161.823 117.556C157.131 116.774 155.669 122.421 155.669 122.421C155.566 111.543 154.704 100.686 153.091 89.9274C147.299 85.5833 141.507 74.694 141.507 74.694C141.507 74.694 142.246 87.0024 139.668 87.1762C132.877 87.1762 126.085 74.8823 126.085 74.8823C126.085 74.8823 121.495 84.0484 118.845 83.3244C116.195 82.6003 119.96 74.332 119.96 74.332C98.8478 84.7869 96.7915 82.0356 100.672 77.2281C75.8963 88.8124 71.8563 87.1327 78.2856 79.9794C62.8639 93.3738 50.3818 93.2 50.3818 93.2C48.9389 97.7598 48.5624 102.59 49.2813 107.318C49.8679 113.203 49.6193 119.141 48.5428 124.956C44.5028 118.338 36.9585 123.507 36.7992 130.27C36.6399 137.032 43.214 143.128 48.1808 140.739C49.2813 154.134 65.8035 166.717 65.8035 166.717C65.8035 166.717 94.9815 185.165 135.744 165.066C158.681 152.483 156.943 132.978 156.943 132.978C156.943 132.978 160.245 138.35 164.516 132.297C168.788 126.244 166.515 118.338 161.823 117.556ZM98.9491 171.133C53.7847 168.932 44.4304 141.116 57.0863 135.338C52.4525 120.22 56.7967 103.698 56.7967 103.698C57.6365 98.746 64.5147 99.3542 72.4934 91.8678C73.3188 97.3703 91.2166 92.418 95.6621 87.4513C96.2268 95.1693 109.708 88.0015 113.849 84.7C113.01 92.4181 121.828 90.2026 123.986 85.5254C132.804 97.9206 138.032 99.5714 139.914 93.2434C146.807 110.866 145.417 122.972 145.142 130.892C165.863 140.319 138.596 170.656 98.9491 171.162V171.133Z" fill="#EDB89A"/>
</g>
<g style="mix-blend-mode:multiply" opacity="0.8">
<path d="M161.823 117.556C157.131 116.774 155.669 122.421 155.669 122.421C155.566 111.543 154.705 100.686 153.091 89.9274C147.299 85.5833 141.507 74.694 141.507 74.694C141.507 74.694 142.246 87.0024 139.668 87.1762C132.877 87.1762 126.085 74.8823 126.085 74.8823C126.085 74.8823 121.495 84.0484 118.845 83.3244C116.195 82.6004 119.96 74.332 119.96 74.332C98.8478 84.7869 96.7916 82.0356 100.672 77.2281C75.8964 88.8124 71.8563 87.1327 78.2856 79.9794C62.864 93.3738 50.3819 93.2 50.3819 93.2C48.939 97.7598 48.5625 102.59 49.2814 107.318C49.868 113.203 49.6194 119.141 48.5429 124.956C45.9944 120.785 42.0557 121.292 39.4492 123.942C42.5191 123.145 46.5446 123.696 49.5855 129.908C52.4816 134.643 50.0489 110.055 52.7422 97.4138C61.0974 95.6182 72.3776 88.3925 73.956 87.2775C72.146 92.0126 87.4952 89.9854 96.2848 82.3107C95.6042 86.8286 106.899 85.482 116.137 79.4147C114.559 86.4087 120.206 89.5509 126.274 79.6463C133.036 94.1267 142.506 94.7494 143.418 87.3065C151.079 95.8934 154.018 113.024 154.467 127.924C156.306 123.421 160.259 118.454 164.314 118.946C163.642 118.243 162.774 117.758 161.823 117.556Z" fill="#EDB89A"/>
</g>
<g style="mix-blend-mode:multiply" opacity="0.6">
<path d="M96.6617 127.214C96.6617 127.214 98.1098 138.147 90.16 139.913C85.1498 141.361 85.1498 147.284 96.6617 149.934C103.149 150.831 106.986 146.111 105.509 143.157C104.032 140.203 99.8619 149.934 91.4633 143.302C89.8704 141.086 92.8244 142.273 95.8074 139.609C98.7903 136.945 98.7903 132.557 96.6617 127.214Z" fill="#FBD0B4"/>
</g>
<path d="M131.038 126.375C131.646 132.703 129.59 137.959 125.101 138.756C120.612 139.552 116.413 135.541 115.964 129.199C115.515 122.856 118.86 116.572 122.769 116.051C126.679 115.529 130.43 120.062 131.038 126.375Z" fill="#2C7CAC"/>
<g style="mix-blend-mode:multiply" opacity="0.6">
<path d="M131.038 126.375C130.429 120.062 126.694 115.529 122.769 116.051C118.845 116.572 115.529 122.842 115.964 129.199C116.398 135.556 120.67 139.581 125.101 138.756C129.532 137.93 131.646 132.703 131.038 126.375ZM117.47 123.204C118.729 121.307 119.048 122.393 118.671 123.986C118.295 125.579 117.223 130.893 119.989 133.934C121.307 135.382 122.972 135.816 123.117 136.338C123.262 136.859 119.859 137.51 118.02 134.267C115.891 130.531 116.166 125.115 117.47 123.204Z" fill="#4A5F70"/>
</g>
<g style="mix-blend-mode:multiply" opacity="0.4">
<path d="M129.3 127.214C128.851 122.87 126.173 119.974 123.262 120.611C123.066 120.653 122.872 120.706 122.683 120.77C122.277 120.104 119.251 122.537 118.744 125.911C118.483 127.015 118.39 128.153 118.469 129.285C118.802 133.629 121.857 136.279 124.971 135.685C128.084 135.092 129.749 131.443 129.3 127.214Z" fill="#4A5F70"/>
</g>
<g style="mix-blend-mode:multiply" opacity="0.6">
<path d="M131.038 126.375C130.429 120.062 126.694 115.529 122.769 116.051C118.845 116.572 115.529 122.842 115.964 129.199C116.398 135.556 120.67 139.581 125.101 138.756C129.532 137.93 131.646 132.703 131.038 126.375ZM124.97 137.235C120.814 138.017 116.818 134.267 116.456 128.431C116.094 122.596 119.091 116.847 122.769 116.355C126.447 115.862 129.923 119.96 130.473 125.781C131.023 131.603 129.199 136.439 124.97 137.235Z" fill="#4A5F70"/>
</g>
<path d="M127.925 127.736C128.272 130.936 126.955 133.702 124.594 134.165C122.234 134.629 119.946 132.544 119.686 129.343C119.425 126.143 121.134 123.247 123.306 122.798C125.478 122.349 127.563 124.55 127.925 127.736Z" fill="black"/>
<g style="mix-blend-mode:multiply" opacity="0.4">
<path d="M123.204 123.725C122.06 121.394 122.422 118.613 123.913 117.817C125.405 117.021 127.475 118.512 128.489 120.829C129.503 123.146 129.59 125.911 128.069 126.621C126.549 127.331 124.348 126.027 123.204 123.725Z" fill="#4A5F70"/>
</g>
<g style="mix-blend-mode:overlay" opacity="0.4">
<path d="M117.861 126.013C117.745 128.561 118.02 133.528 121.568 135.251C123.624 136.25 118.759 136.482 117.412 131.182C116.355 127.099 118.02 122.871 117.861 126.013Z" fill="white"/>
</g>
<g style="mix-blend-mode:overlay" opacity="0.4">
<path d="M118.252 123.233C118.773 123.305 118.599 124.681 117.846 124.55C117.311 124.449 117.513 123.102 118.252 123.233Z" fill="white"/>
</g>
<path d="M124.29 123.117C123.436 121.336 123.668 119.251 124.768 118.686C125.869 118.121 127.404 119.236 128.185 121.003C128.967 122.769 128.982 124.854 127.867 125.347C126.752 125.839 125.13 124.898 124.29 123.117Z" fill="white"/>
<path d="M84.3823 127.519C84.9905 133.847 82.9343 139.103 78.4454 139.885C73.9564 140.667 69.7571 136.67 69.3082 130.328C68.8593 123.985 72.2043 117.701 76.1285 117.194C80.0527 116.687 83.7742 121.205 84.3823 127.519Z" fill="#2C7CAC"/>
<g style="mix-blend-mode:multiply" opacity="0.6">
<path d="M84.3818 127.519C83.7736 121.205 80.0377 116.673 76.128 117.194C72.2183 117.715 68.8878 123.971 69.3077 130.328C69.7276 136.685 74.0138 140.71 78.4448 139.885C82.8758 139.06 84.99 133.847 84.3818 127.519ZM70.8137 124.318C72.0735 122.422 72.392 123.508 72.03 125.115C71.668 126.722 70.582 132.008 73.3477 135.048C74.651 136.497 76.2438 136.945 76.461 137.467C76.6782 137.988 73.2029 138.625 71.3639 135.382C69.2353 131.675 69.5249 126.244 70.8137 124.318Z" fill="#4A5F70"/>
</g>
<g style="mix-blend-mode:multiply" opacity="0.4">
<path d="M82.6441 128.3C82.1952 123.956 79.5164 121.06 76.6203 121.697L76.0266 121.856C75.6356 121.205 72.5947 123.638 72.1024 126.997C71.8275 128.104 71.7345 129.248 71.8273 130.385C72.1458 134.657 75.2012 137.379 78.3145 136.786C81.4278 136.192 83.1075 132.572 82.6441 128.3Z" fill="#4A5F70"/>
</g>
<g style="mix-blend-mode:multiply" opacity="0.6">
<path d="M84.3818 127.519C83.7736 121.205 80.0377 116.673 76.128 117.194C72.2183 117.715 68.8878 123.971 69.3077 130.328C69.7276 136.685 74.0138 140.71 78.4448 139.885C82.8758 139.06 84.99 133.847 84.3818 127.519ZM78.3145 138.364C74.1586 139.146 70.162 135.396 69.8145 129.56C69.467 123.725 72.4355 117.976 76.1135 117.484C79.7915 116.991 83.2668 121.104 83.8315 126.91C84.3963 132.717 82.4849 137.583 78.3145 138.364Z" fill="#4A5F70"/>
</g>
<path d="M81.2691 128.88C81.6167 132.08 80.299 134.846 77.9386 135.295C75.5783 135.743 73.3049 133.673 73.0298 130.473C72.7547 127.272 74.4778 124.376 76.6499 123.942C78.822 123.508 80.9071 125.68 81.2691 128.88Z" fill="black"/>
<g style="mix-blend-mode:multiply" opacity="0.4">
<path d="M76.5481 124.855C75.4041 122.538 75.7661 119.743 77.2721 118.961C78.778 118.179 80.8198 119.656 81.8334 121.959C82.847 124.261 82.9339 127.056 81.4135 127.751C79.893 128.446 77.692 127.215 76.5481 124.855Z" fill="#4A5F70"/>
</g>
<g style="mix-blend-mode:overlay" opacity="0.4">
<path d="M71.2774 127.214C71.1615 129.748 71.4222 134.73 74.9699 136.438C77.0261 137.437 72.1752 137.684 70.814 132.384C69.7135 128.228 71.3643 123.927 71.2774 127.214Z" fill="white"/>
</g>
<g style="mix-blend-mode:overlay" opacity="0.4">
<path d="M71.5957 124.318C72.1314 124.405 71.9432 125.766 71.1902 125.651C70.6689 125.593 70.8572 124.318 71.5957 124.318Z" fill="white"/>
</g>
<path d="M77.6344 124.318C76.7801 122.522 77.0118 120.452 78.1268 119.873C79.2418 119.293 80.7477 120.437 81.5297 122.189C82.3116 123.942 82.3406 126.041 81.2256 126.533C80.1106 127.026 78.5177 126.027 77.6344 124.318Z" fill="white"/>
<path d="M116.037 152.41C114.526 152.564 113.123 153.258 112.083 154.365C110.766 155.494 109.549 156.725 108.232 157.855C105.355 160.32 101.842 161.926 98.0953 162.489C95.8798 162.814 93.6319 162.858 91.4054 162.619C89.827 162.474 87.293 161.779 86.2793 163.502C86.0168 164.096 85.9525 164.759 86.0959 165.393C86.2393 166.027 86.5829 166.598 87.0758 167.021C89.2044 169.41 92.7376 170.511 95.764 170.916C102.439 171.865 109.223 170.217 114.719 166.311C117.208 164.54 118.911 161.872 119.468 158.868C119.946 156.291 119.367 152.483 116.037 152.41Z" fill="#AA8571"/>
<path d="M116.659 163.922C114.679 166.083 112.19 167.716 109.419 168.672C106.651 169.782 103.711 170.405 100.731 170.511C97.2813 170.747 93.8273 170.12 90.6813 168.686C89.2362 168.077 87.9917 167.073 87.0902 165.79C86.6558 165.052 86.3951 163.879 87.2495 163.299C87.9055 163.007 88.6165 162.859 89.3346 162.865C91.734 163.185 94.1582 163.277 96.5748 163.14C99.668 162.883 102.675 161.99 105.408 160.519C107.811 158.929 110.039 157.09 112.054 155.031C113.256 153.96 114.748 152.613 116.5 153.033C117.148 153.216 117.725 153.591 118.156 154.107C118.588 154.624 118.853 155.259 118.918 155.929C119.144 157.345 119.058 158.794 118.668 160.174C118.278 161.554 117.593 162.833 116.659 163.922Z" fill="#9E0000"/>
<path d="M93.4757 166.138C95.927 166.381 98.4015 166.069 100.716 165.226C103.511 164.304 106.152 162.966 108.55 161.258C111.33 159.289 114.342 156.349 115.341 152.961C114.066 153.319 112.915 154.021 112.011 154.988C110.011 157.06 107.797 158.914 105.408 160.52C102.689 161.99 99.6973 162.887 96.618 163.155C94.2013 163.292 91.7771 163.2 89.3778 162.88H89.2474C89.5705 163.768 90.1396 164.546 90.8883 165.123C91.637 165.7 92.5344 166.052 93.4757 166.138Z" fill="#FEF6EC"/>
<path d="M104.583 167.485C102.292 168.052 100.139 169.076 98.2546 170.497C99.0945 170.497 99.9199 170.497 100.76 170.497C104.862 170.316 108.872 169.212 112.489 167.268C109.875 166.694 107.161 166.769 104.583 167.485Z" fill="#E84F65"/>
<g style="mix-blend-mode:multiply" opacity="0.5">
<path d="M166.92 118.136C166.806 116.852 166.431 115.606 165.82 114.472L165.704 114.327C163.925 112.771 161.983 111.411 159.912 110.273L158.073 109.216L155.104 107.507L149.964 105.06C149.567 104.696 149.141 104.367 148.69 104.075C137.467 96.806 107.334 96.6611 106.03 96.6611H95.2714C93.9971 96.6611 63.8634 96.748 52.6555 104.075C50.256 105.821 48.5813 108.387 47.9494 111.286C46.9213 111.808 42.1573 114.284 40.0721 117.455C37.6539 121.09 39.7101 125.68 39.8114 125.883L40.159 126.665L40.7382 126.027C41.0292 125.676 41.3912 125.39 41.8004 125.187C42.2096 124.985 42.6569 124.872 43.113 124.854H43.2433C44.861 125.012 46.3846 125.687 47.5874 126.78C47.7032 127.62 47.8481 128.446 47.9929 129.257C49.5423 137.163 52.9307 145.532 56.4349 146.213C62.2271 147.343 86.8438 149.312 89.624 143.853C90.5363 142.057 94.055 136.178 100.716 136.106C107.377 136.033 110.852 142.057 111.822 143.853C112.373 144.91 113.705 145.75 115.935 146.416C120.456 147.504 125.101 147.991 129.749 147.864C136.598 147.864 143.477 147.038 146.141 145.532C150.152 143.274 153.714 135.15 154.829 126.346C154.931 126.056 157.204 119.555 162.229 120.554C163.504 120.806 164.642 121.517 165.429 122.552L166.023 123.32L166.399 122.407C166.898 121.042 167.076 119.581 166.92 118.136ZM149.776 121.799C149.529 129.879 145.996 138.394 142.043 140.377C139.726 141.55 133.355 142.347 126.81 142.289C119.83 142.202 114.748 141.159 113.864 139.625C112.423 137.515 110.508 135.772 108.273 134.535C106.037 133.298 103.544 132.601 100.991 132.5C95.532 132.5 89.7543 137.423 87.8429 140.768C85.9315 144.113 68.7288 142.216 60.6777 140.768C58.1871 140.334 54.8855 133.528 53.5244 126.172C51.946 117.368 53.5244 110.664 57.6513 108.231C67.6428 102.439 95.7927 102.323 96.0678 102.323H105.929C106.219 102.323 134.354 102.323 144.36 108.231C149.341 111.171 149.891 117.991 149.776 121.799Z" fill="#EDB89A"/>
</g>
<path d="M148.675 101.802C137.467 94.4746 107.333 94.3877 106.044 94.3877H95.271C93.9968 94.3877 63.8631 94.4746 52.6552 101.802C46.3707 105.9 46.0956 117.469 47.9346 126.925C49.484 134.831 52.8724 143.187 56.3767 143.882C62.1688 145.011 86.7855 146.981 89.5658 141.521C90.478 139.726 93.9968 133.847 100.658 133.76C107.319 133.673 110.794 139.726 111.764 141.521C112.314 142.578 113.647 143.418 115.877 144.084C120.398 145.173 125.043 145.659 129.691 145.532C136.54 145.532 143.418 144.707 146.083 143.201C150.76 140.566 154.771 129.981 155.147 119.613C155.263 114.675 154.684 105.711 148.675 101.802ZM154.018 119.627C153.699 129.459 149.819 139.827 145.518 142.26C141.217 144.693 124.275 145.431 116.21 142.998C113.849 142.289 113.053 141.55 112.778 141C111.793 139.06 107.985 132.717 100.658 132.63C93.3307 132.544 89.5368 139.06 88.5521 141C86.3656 145.344 63.4142 144.099 56.5939 142.767C54.0598 142.26 50.6859 135.063 49.0641 126.708C47.283 117.614 47.4568 106.537 53.2779 102.743C64.2106 95.6185 94.9669 95.5027 95.271 95.5027H106.03C106.349 95.5027 137.105 95.5896 148.023 102.743C153.598 106.363 154.163 114.877 154.018 119.627Z" fill="#BEC0C2"/>
<path opacity="0.51" d="M148.024 102.742C137.091 95.6178 106.334 95.502 106.03 95.502H95.2714C94.9673 95.502 64.211 95.5888 53.2783 102.742C47.4861 106.536 47.2834 117.614 49.0645 126.707C50.6863 135.062 54.0602 142.259 56.5943 142.766C63.4145 144.098 86.366 145.271 88.5525 140.999C89.5372 139.059 93.3455 132.717 100.658 132.63C107.971 132.543 111.794 139.059 112.778 140.999C113.053 141.521 113.85 142.288 116.21 142.998C124.276 145.43 141.334 144.619 145.518 142.259C149.703 139.899 153.7 129.458 154.018 119.626C154.163 114.877 153.598 106.362 148.024 102.742ZM150.92 119.554C150.659 128.155 146.923 136.93 142.579 139.117C137.902 141.492 115.501 142.462 112.894 137.915C111.549 135.983 109.777 134.388 107.715 133.253C105.653 132.118 103.357 131.473 101.006 131.37C96.1692 131.37 90.6666 135.873 88.8566 139.045C87.814 140.869 83.8174 141.448 79.1402 141.448C72.8928 141.292 66.6646 140.688 60.504 139.638C57.0721 139.044 53.7127 131.283 52.4239 124.13C50.7587 114.833 52.4963 107.68 57.0866 105.001C67.3532 99.0062 94.9239 98.9483 96.0823 98.9483H105.943C107.116 98.9483 134.687 98.9483 144.939 105.001C148.994 107.376 151.122 112.545 150.92 119.554Z" fill="white"/>
<path d="M144.925 105.002C134.673 99.0072 107.102 98.9492 105.929 98.9492H96.0679C94.9095 98.9492 67.3388 98.9492 57.0722 105.002C52.4819 107.681 50.7443 114.834 52.4095 124.131C53.6983 131.284 57.0577 139.045 60.4896 139.639C66.6503 140.689 72.8784 141.293 79.1259 141.449C83.803 141.449 87.8141 140.87 88.8422 139.045C90.6523 135.874 96.1548 131.414 100.991 131.371C103.343 131.474 105.639 132.119 107.701 133.254C109.762 134.389 111.535 135.984 112.88 137.916C115.486 142.463 137.887 141.493 142.565 139.118C146.909 136.931 150.645 128.156 150.905 119.555C151.122 112.546 148.994 107.377 144.925 105.002ZM149.776 119.482C149.53 127.562 145.996 136.077 142.043 138.061C139.726 139.234 133.355 140.03 126.81 139.958C119.83 139.885 114.748 138.843 113.864 137.308C112.423 135.199 110.508 133.456 108.273 132.219C106.038 130.982 103.544 130.285 100.991 130.183C95.5322 130.183 89.7545 135.107 87.8431 138.437C85.9317 141.768 68.7289 139.885 60.6778 138.437C58.1872 138.003 54.8857 131.197 53.5245 123.841C51.9462 115.037 53.5245 108.333 57.6514 105.9C67.6429 100.108 95.7928 99.9918 96.0679 99.9918H105.929C106.219 99.9918 134.354 100.064 144.36 105.9C149.341 108.897 149.892 115.718 149.776 119.526V119.482Z" fill="#BEC0C2"/>
<path d="M166.92 115.862C166.805 114.578 166.431 113.332 165.82 112.198L165.704 112.053C163.925 110.497 161.983 109.137 159.912 107.999L158.073 106.942L155.104 105.233L146.879 101.323L149.268 103.684C155.683 110.011 153.714 123.681 153.685 123.811L154.8 124.072C154.8 124.072 157.088 117.252 162.199 118.28C163.477 118.527 164.617 119.239 165.4 120.278L165.993 121.046L166.37 120.133C166.878 118.77 167.067 117.309 166.92 115.862ZM165.588 118.758C164.715 117.909 163.612 117.335 162.417 117.107C158.797 116.383 156.422 118.772 155.075 120.872C155.292 116.861 155.075 109.809 151.716 104.827L154.612 106.174L157.508 107.868L159.347 108.925C161.323 110.007 163.178 111.299 164.878 112.777C165.397 113.745 165.708 114.81 165.791 115.905C165.888 116.88 165.819 117.864 165.588 118.816V118.758Z" fill="#BEC0C2"/>
<path opacity="0.51" d="M164.864 112.835C163.164 111.357 161.309 110.066 159.332 108.984L157.493 107.927L154.597 106.232L151.701 104.886C155.061 109.867 155.278 116.919 155.061 120.93C156.407 118.83 158.782 116.441 162.402 117.165C163.598 117.394 164.701 117.967 165.574 118.816C165.798 117.868 165.862 116.889 165.762 115.92C165.678 114.841 165.372 113.791 164.864 112.835Z" fill="white"/>
<path d="M48.9339 109.549L49.3538 108.274L48.1519 108.854C47.9202 108.969 42.3598 111.619 40.0719 115.124C37.784 118.628 39.7099 123.349 39.8112 123.551L40.1587 124.333L40.738 123.696C41.029 123.344 41.391 123.058 41.8002 122.856C42.2094 122.654 42.6567 122.541 43.1127 122.523H43.2431C44.9206 122.727 46.4887 123.463 47.7175 124.623L48.9483 125.796L48.6732 124.13C47.1817 114.964 48.9194 109.592 48.9339 109.549ZM47.341 122.871C46.1447 122 44.7207 121.497 43.2431 121.423H43.0838C42.1621 121.455 41.2746 121.779 40.5497 122.349C40.1475 121.29 39.9818 120.155 40.0643 119.024C40.1469 117.893 40.4756 116.794 41.0276 115.804C42.8016 113.604 45.0163 111.798 47.5293 110.504C46.7745 114.587 46.7108 118.767 47.341 122.871Z" fill="#BEC0C2"/>
<path opacity="0.51" d="M41.0277 115.76C40.4758 116.75 40.147 117.849 40.0645 118.98C39.9819 120.111 40.1476 121.246 40.5498 122.305C41.2747 121.735 42.1623 121.411 43.0839 121.379H43.2432C44.7208 121.453 46.1448 121.956 47.3411 122.827C46.7061 118.709 46.7697 114.514 47.5294 110.417C45.0123 111.724 42.7973 113.544 41.0277 115.76Z" fill="white"/>
<g style="mix-blend-mode:multiply" opacity="0.5">
<g style="mix-blend-mode:multiply" opacity="0.5">
<path d="M70.336 159.158C68.1787 156.382 66.3606 153.358 64.9204 150.151C64.9204 149.991 64.5729 150.151 64.6308 150.281C65.9073 153.591 67.7118 156.671 69.974 159.404C70.1044 159.563 70.4519 159.331 70.336 159.158Z" fill="#EDB89A"/>
</g>
<g style="mix-blend-mode:multiply" opacity="0.5">
<path d="M71.2772 158.101C70.336 156.653 69.2355 155.205 68.2508 153.757C67.2326 152.277 66.3918 150.683 65.7457 149.007C65.7457 148.848 65.4126 149.007 65.4416 149.138C65.9731 150.838 66.7382 152.455 67.715 153.945C68.6804 155.454 69.7345 156.905 70.8718 158.289C71.0455 158.564 71.422 158.304 71.2772 158.101Z" fill="#EDB89A"/>
</g>
<g style="mix-blend-mode:multiply" opacity="0.5">
<path d="M71.5814 155.639C71.3932 155.291 71.176 154.958 70.9732 154.611L71.3208 154.234C71.3485 154.21 71.3707 154.18 71.3859 154.146C71.4011 154.112 71.409 154.076 71.409 154.039C71.409 154.002 71.4011 153.965 71.3859 153.931C71.3707 153.898 71.3485 153.868 71.3208 153.843C71.1759 153.727 70.9732 153.843 70.8719 153.945L70.6836 154.133L69.9596 152.916L70.1623 152.641C70.3506 152.381 69.9451 152.265 69.7858 152.468L69.1487 151.367C69.3514 151.121 69.5541 150.875 69.7858 150.643C70.0175 150.411 69.67 150.252 69.4817 150.44C69.2935 150.629 69.1197 150.831 68.946 151.02C68.5984 150.44 68.2509 149.876 67.9179 149.282C67.8165 149.123 67.4834 149.354 67.5848 149.528C67.9179 150.151 68.2654 150.759 68.6129 151.382C67.4942 152.656 66.4774 154.017 65.572 155.451L64.2833 153.872C64.1095 153.684 63.6896 153.988 63.8489 154.191L65.2969 155.957C64.9928 156.421 64.6887 156.899 64.3991 157.405C64.1095 157.912 64.6598 157.724 64.7901 157.521L65.5431 156.319L66.1657 157.058L65.4707 157.956C65.4503 157.982 65.4362 158.013 65.4296 158.045C65.4229 158.078 65.4238 158.111 65.4322 158.144C65.4406 158.176 65.4562 158.206 65.478 158.231C65.4997 158.256 65.5269 158.276 65.5576 158.289C65.6384 158.304 65.7218 158.294 65.7968 158.26C65.8718 158.226 65.9348 158.171 65.9775 158.1L66.4988 157.449C66.716 157.709 66.9622 157.956 67.1938 158.187C66.9042 158.549 66.6146 158.911 66.3105 159.259C66.0064 159.606 66.5277 159.983 66.8318 159.621C67.1359 159.259 67.3821 158.969 67.6427 158.636C67.8165 158.796 68.2509 158.462 68.0771 158.274L67.9613 158.144C68.8591 157.058 69.7424 155.972 70.6836 154.915C70.8574 155.219 71.0311 155.537 71.2194 155.841C71.4076 156.146 71.7117 155.856 71.5814 155.639ZM66.0933 156.189L65.7892 155.827C66.6881 154.426 67.6849 153.091 68.7722 151.83C68.9749 152.207 69.2066 152.569 69.4238 152.945C68.4102 154.162 67.4111 155.378 66.4409 156.623L66.0933 156.189ZM67.5414 157.753L66.8463 156.971C67.802 155.755 68.7867 154.567 69.7424 153.336L70.423 154.48C69.3815 155.514 68.4001 156.607 67.4834 157.753H67.5414Z" fill="#EDB89A"/>
</g>
</g>
<g style="mix-blend-mode:multiply" opacity="0.5">
<g style="mix-blend-mode:multiply" opacity="0.5">
<path d="M130.778 149.645C129.663 153.062 128.721 156.509 127.375 159.781C127.23 160.143 127.795 160.042 127.896 159.781C129.417 156.552 130.01 152.961 131.096 149.645C131.169 149.442 130.836 149.5 130.778 149.645Z" fill="#EDB89A"/>
</g>
<g style="mix-blend-mode:multiply" opacity="0.5">
<path d="M133.254 150.383C132.645 152.034 132.182 153.728 131.574 155.364C130.816 156.757 130.256 158.248 129.909 159.795C129.909 160.114 130.387 159.954 130.444 159.795C130.893 158.246 131.661 156.899 132.197 155.35C132.732 153.8 133.167 152.063 133.717 150.455C133.818 150.006 133.341 150.079 133.254 150.383Z" fill="#EDB89A"/>
</g>
<g style="mix-blend-mode:multiply" opacity="0.5">
<path d="M138.221 151.412H137.004C137.032 151.337 137.066 151.264 137.106 151.194C137.221 150.948 136.787 150.948 136.7 151.194L136.57 151.455C133.325 151.237 130.066 151.496 126.897 152.222C126.593 152.295 126.448 152.845 126.897 152.744C129.973 152.121 133.12 151.917 136.251 152.136L135.73 153.164C132.961 153.194 130.196 153.378 127.447 153.714C127.244 153.714 127.056 154.09 127.317 154.076C128.895 153.946 130.474 153.859 132.066 153.801L135.469 153.685C135.049 154.51 134.629 155.336 134.224 156.176L131.328 155.886C129.634 155.727 127.911 155.727 126.231 155.452C125.985 155.452 125.623 155.857 125.941 155.915C127.621 156.219 129.301 156.364 130.98 156.581C131.965 156.711 132.935 156.856 133.876 156.929C133.688 157.349 133.514 157.769 133.341 158.188C132.387 157.987 131.418 157.861 130.445 157.812C129.258 157.726 128.078 157.566 126.911 157.334C126.651 157.334 126.26 157.725 126.607 157.826C127.737 158.097 128.884 158.295 130.039 158.42L133.008 158.826C133.008 158.985 132.877 159.115 132.819 159.274C132.761 159.434 133.225 159.506 133.341 159.274L133.514 158.898C133.79 158.898 134.152 158.449 133.79 158.333C133.992 157.884 134.209 157.435 134.412 156.972C134.966 157.016 135.523 157.016 136.077 156.972C136.382 156.972 136.628 156.393 136.208 156.378L134.76 156.263C135.165 155.408 135.556 154.554 135.947 153.7C136.237 153.7 136.512 153.7 136.787 153.7C137.062 153.7 137.236 153.337 136.917 153.309H136.179L136.657 152.251C137.106 152.251 137.54 152.251 137.974 152.251C138.409 152.251 138.713 151.426 138.221 151.412Z" fill="#EDB89A"/>
</g>
</g>
<path d="M86.5252 116.369C86.612 115.732 86.7134 115.11 86.8148 114.487C85.6274 110.838 83.7015 107.348 80.1972 105.509C78.059 104.4 75.6425 103.942 73.2466 104.191C72.0786 104.352 70.9581 104.759 69.9595 105.385C68.9608 106.012 68.1069 106.844 67.4545 107.826C65.8357 109.952 64.9926 112.568 65.0652 115.24C64.9993 115.28 64.9448 115.336 64.9069 115.403C64.8691 115.471 64.8492 115.546 64.8492 115.624C64.8492 115.701 64.8691 115.777 64.9069 115.844C64.9448 115.911 64.9993 115.967 65.0652 116.007C66.2051 114.886 67.5334 113.975 68.9894 113.314C74.6367 110.736 82.21 111.721 86.5252 116.369Z" fill="#655252"/>
<path d="M134.687 107.42C133.1 105.374 130.929 103.859 128.461 103.076C125.642 102.105 122.575 102.131 119.773 103.148C117.052 104.239 114.638 105.973 112.735 108.202C111.243 109.788 110.038 111.62 109.173 113.618C109.495 114.467 109.862 115.298 110.273 116.108C111.721 115.181 113.169 114.284 114.617 113.458C116.912 112.165 119.394 111.237 121.974 110.707C124.121 110.331 126.311 110.272 128.475 110.533C131.512 110.733 134.419 111.843 136.816 113.719C137.468 111.503 135.918 109.085 134.687 107.42Z" fill="#655252"/>
<path d="M141.551 105.276C141.807 105.291 142.063 105.291 142.318 105.276C142.492 105.609 142.666 105.942 142.854 106.261L141.551 105.276Z" fill="#45FFA0"/>
<path d="M192.913 58.4181C192.11 55.9303 191.112 53.5094 189.93 51.1779C189.197 49.7395 188.303 48.389 187.265 47.1523C189.377 48.0051 191.533 48.7446 193.724 49.3678C194.201 49.4982 194.925 48.9334 194.621 48.4411C193.81 47.1599 192.874 45.9619 191.827 44.8644C190.74 43.6462 189.72 42.37 188.771 41.0416C186.787 38.2324 184.847 35.3943 182.718 32.6864C179.706 28.5281 176.09 24.8432 171.988 21.7537L173.943 22.1592C175.684 22.5833 177.457 22.8642 179.243 22.999C179.692 22.999 180.242 22.4922 179.982 22.0433C176.463 15.6864 169.107 12.1243 162.605 9.63362C159.274 8.30163 155.834 7.25998 152.324 6.52032C148.33 5.72016 144.235 5.55402 140.189 6.02799L138.872 6.23072C139.921 4.56395 140.795 2.79267 141.478 0.945382C141.638 0.539931 141.16 0.322728 140.841 0.496493C133.601 4.42068 125.115 3.94282 117.122 4.24691C112.011 4.43516 106.638 5.02886 102.063 7.49053C102.384 6.5546 102.807 5.65637 103.322 4.81165C104.235 3.36361 105.567 2.2631 105.871 0.467526C105.871 0.192398 105.654 0.0475899 105.422 0.0331095C100.904 -0.357861 96.7338 2.7844 93.6929 5.72392C91.0783 8.07086 88.8842 10.8477 87.2057 13.9343C85.8733 12.6374 85.0336 10.9172 84.8309 9.06889C84.4689 6.17281 86.279 3.58081 87.2926 0.916415C87.4229 0.583366 87.0609 0.482009 86.8148 0.583372C83.08 2.0267 79.9109 4.63712 77.779 8.0263C76.7476 9.61296 76.0618 11.399 75.7662 13.2682C74.6465 12.4993 73.4414 11.8627 72.1751 11.3713C68.9882 10.1963 65.5546 9.85247 62.1981 10.3721C61.8505 10.3721 61.4596 10.9224 61.7926 11.1975C63.0887 12.2641 64.3216 13.4051 65.4851 14.6149C59.8957 12.6745 53.423 12.9351 47.7032 13.9053C37.9 15.5706 28.0678 19.3789 20.4656 25.8951C16.1214 29.5731 11.9076 33.8738 9.8659 39.246C9.69214 39.6804 10.2858 39.7963 10.561 39.5646C12.678 37.7886 15.0957 36.4057 17.6998 35.4811C18.9229 35.0513 20.1833 34.7363 21.4647 34.5399L20.48 35.2784C16.4255 38.4351 13.153 42.5186 9.08396 45.6319C7.92773 46.5192 6.67436 47.2722 5.34802 47.8764C3.99455 48.4422 2.67466 49.0852 1.39487 49.8022C1.32476 49.8375 1.26379 49.8886 1.21678 49.9514C1.16976 50.0142 1.13798 50.0871 1.12394 50.1644C1.10991 50.2416 1.11399 50.321 1.13588 50.3964C1.15776 50.4717 1.19685 50.541 1.25007 50.5987C2.69811 51.8874 5.20321 51.7426 7.04223 51.7571C8.49632 51.7633 9.94871 51.6568 11.3863 51.4385C9.86726 52.4497 8.42934 53.5777 7.08567 54.8125C4.34887 57.4479 1.29351 60.4743 0.0337112 64.0944C-0.111093 64.4854 0.236438 64.717 0.583968 64.6446C3.23388 64.1523 5.2901 62.2988 7.60696 61.0535C8.8378 60.3874 10.0976 59.7213 11.4008 59.1421C9.69963 61.3633 8.24315 63.7616 7.05671 66.2954C4.37612 71.9652 3.06186 78.1843 3.2194 84.4538C3.31847 88.0336 3.91798 91.5819 5.00049 94.9956C5.18873 95.6182 6.12996 95.1838 6.2458 94.7349C6.81772 91.7106 7.82236 88.7845 9.22877 86.0467C10.0064 84.7517 10.8674 83.5086 11.8063 82.3252C10.1221 90.268 10.9939 98.5401 14.2969 105.957C15.8054 109.211 17.7544 112.242 20.0891 114.964C20.4076 115.355 21.1461 114.964 21.262 114.573C21.4455 113.562 21.3959 112.522 21.1172 111.532C20.9095 110.401 20.8173 109.251 20.842 108.1C20.8413 105.632 21.1034 103.171 21.624 100.759C21.9518 99.2493 22.3824 97.764 22.9127 96.3133C22.7232 97.2951 22.583 98.2859 22.4928 99.2818C22.1389 104.823 23.0964 110.369 25.2875 115.471C25.9826 117.18 26.7356 119.728 28.618 120.539C28.8932 120.669 29.3131 120.409 29.4434 120.177C30.8914 117.411 32.2236 114.385 34.5115 112.256C34.3157 112.971 34.1609 113.696 34.0482 114.428C32.9852 116.764 32.2682 119.242 31.9196 121.784C31.5967 123.807 31.7353 125.876 32.325 127.837C32.4698 128.286 33.078 128.141 33.3242 127.837C34.8942 125.663 36.2382 123.334 37.3352 120.887C38.2656 119.298 39.3161 117.783 40.4775 116.354C39.4648 118.158 39.0588 120.239 39.3195 122.291C39.5803 124.343 40.4939 126.257 41.9255 127.75C42.7509 128.807 43.5763 129.864 44.3727 130.95C46.0379 133.18 47.6018 135.468 49.0499 137.843C49.2671 138.205 49.9621 137.843 49.9477 137.438C49.7739 134.961 49.5567 132.485 49.5277 129.995C49.5059 127.556 49.7881 125.124 50.3676 122.755C51.3358 118.682 52.9074 114.778 55.0303 111.17C55.1896 110.881 55.3778 110.62 55.5516 110.345C54.9579 112.082 54.3352 113.82 53.6257 115.5C53.5972 115.56 53.5852 115.627 53.5909 115.693C53.5965 115.759 53.6197 115.823 53.658 115.877C53.6962 115.932 53.7482 115.975 53.8087 116.003C53.8692 116.031 53.9359 116.042 54.0022 116.036C57.6054 115.743 61.0838 114.581 64.1384 112.647C67.2923 110.765 70.0909 108.344 72.4068 105.494C73.3087 104.435 74.0592 103.255 74.6367 101.99C74.7236 104.325 75.2135 106.627 76.0848 108.795C76.2585 109.201 76.9246 108.984 76.997 108.607C77.7464 104.919 79.3316 101.451 81.6308 98.4709C83.3642 96.3183 85.342 94.3745 87.5243 92.6787C87.3363 93.0905 87.1814 93.5166 87.0609 93.953C86.6033 95.6746 86.3458 97.4432 86.2935 99.2239C86.0919 103.291 86.5466 107.364 87.6401 111.286C88.3197 113.932 89.462 116.437 91.0141 118.685C91.3616 119.149 92.2304 118.57 92.1001 118.077C90.9995 113.473 91.2611 108.649 92.8531 104.191C93.5449 102.147 94.5727 100.234 95.894 98.5288C97.1402 97.034 98.5217 95.6573 100.021 94.4164C101.092 93.4896 102.178 92.5629 103.221 91.6216C104.037 92.877 104.942 94.0723 105.929 95.1983C110.186 99.7203 115.631 102.952 121.64 104.524C124.9 105.623 128.378 105.917 131.776 105.378C132.24 105.277 132.862 104.48 132.167 104.234C128.523 102.845 125.552 100.108 123.87 96.5884C126.477 98.5578 129.966 99.4845 132.862 100.802C137.03 102.625 140.537 105.683 142.912 109.563C144.276 111.787 145.039 114.326 145.127 116.933C145.127 117.339 145.605 117.353 145.866 117.165C147.02 116.092 147.797 114.675 148.081 113.125C148.5 111.467 148.777 109.776 148.907 108.071L148.994 106.898C149.458 107.697 149.986 108.458 150.572 109.172C151.499 110.316 152.527 111.358 153.468 112.517C153.859 112.98 154.221 113.574 154.626 114.153C157.204 119.221 157.233 124.984 157.523 130.516C157.523 131.269 158.449 130.936 158.739 130.516C161.881 126.172 165.574 122.262 168.426 117.715C169.526 116.018 170.384 114.176 170.975 112.242C171.278 111.142 171.481 110.018 171.583 108.882C172.437 111.778 172.481 115.007 174.407 117.397C174.711 117.788 175.391 117.527 175.58 117.151C176.187 115.923 176.621 114.617 176.868 113.27C180.517 110.605 182.545 106.03 183.949 101.859C185.744 97.1152 186.552 92.0549 186.324 86.9879C186.166 85.1205 185.806 83.2757 185.253 81.4854C185.895 82.2319 186.481 83.0258 187.005 83.8601C188.047 85.5833 188.684 87.5382 189.901 89.16C190.234 89.6089 190.856 89.0876 190.943 88.7111C192.435 81.2605 191.469 73.5271 188.192 66.6719C190.277 69.1336 191.551 72.4641 193.854 74.6651C194.216 75.0271 194.882 74.4334 194.925 74.0569C195.313 68.7617 194.628 63.4427 192.913 58.4181Z" fill="#4F3F3F"/>
<path d="M193.753 72.7389C191.276 69.6691 189.959 65.4987 186.324 63.5873C186.672 64.9629 187.005 66.3386 187.294 67.7287C188.575 70.3972 189.467 73.2351 189.944 76.1563C190.605 79.8686 190.659 83.6635 190.103 87.3931C189.336 86.0464 188.771 84.5839 187.96 83.2517C186.787 81.3258 185.064 79.6895 183.804 77.8505C183.804 78.8207 183.718 79.7909 183.718 80.7466C185.289 85.1719 185.639 89.9389 184.731 94.5464C183.967 98.9053 182.572 103.13 180.59 107.086C179.685 108.866 178.507 110.493 177.1 111.908C177.452 109.996 177.66 108.06 177.723 106.116C177.723 105.045 177.65 103.959 177.549 102.887C177.115 101.685 176.651 100.498 176.202 99.3104C176.202 99.5131 176.202 99.7159 176.202 99.9331C176.333 101.902 176.535 103.872 176.506 105.841C176.439 107.784 176.231 109.72 175.884 111.633C175.694 113.007 175.374 114.36 174.928 115.673C174.25 114.242 173.763 112.728 173.48 111.17C173.171 109.17 172.504 107.242 171.511 105.479C171.178 104.972 170.222 105.479 170.236 106.044C170.351 108.219 170.122 110.399 169.556 112.502C168.957 114.395 168.094 116.194 166.993 117.845C164.517 121.712 161.447 125.086 158.667 128.764C158.669 124.673 158.094 120.602 156.958 116.672C157.287 116.842 157.646 116.946 158.015 116.977C158.213 116.973 158.405 116.9 158.555 116.77C158.706 116.641 158.807 116.463 158.84 116.267C159.072 114.66 158.102 113.096 157.667 111.604L157.58 111.315C157.32 110.779 157.059 110.243 156.784 109.707C156.333 109.07 155.849 108.457 155.336 107.868C155.684 109.316 156.046 110.692 156.451 112.097C156.906 113.221 157.293 114.372 157.609 115.543C157.016 115.131 156.501 114.616 156.089 114.023C155.408 113.168 154.786 112.256 154.047 111.445C152.193 109.741 150.51 107.859 149.023 105.827C149.078 104.574 149.025 103.319 148.863 102.076C148.197 101.222 147.517 100.367 146.807 99.5421C147.85 102.266 148.208 105.205 147.85 108.1C147.747 109.615 147.534 111.12 147.213 112.603C147.019 113.719 146.631 114.792 146.069 115.775C145.757 111.545 143.877 107.584 140.798 104.668C139.146 103.039 137.263 101.663 135.208 100.585C133.128 99.5908 130.991 98.7205 128.808 97.9782C126.772 97.2462 124.866 96.1953 123.161 94.865C122.754 93.877 122.42 92.8606 122.161 91.8241C121.571 91.2027 121.019 90.545 120.511 89.8547C121.351 95.8351 124.305 101.555 129.648 104.465C127.474 104.489 125.308 104.196 123.218 103.597C120.138 102.771 117.168 101.58 114.371 100.049C111.966 98.7811 109.76 97.1661 107.826 95.2559C107.247 94.6622 106.696 94.054 106.161 93.4169C102.879 90.4822 100.621 86.5755 99.7168 82.267C99.8546 83.8416 100.22 85.3879 100.803 86.8573C101.356 88.2669 102.034 89.6238 102.83 90.9118C100.144 93.0196 97.6396 95.3495 95.3437 97.8769C92.5274 101.489 90.8354 105.85 90.4783 110.417C90.3263 112.011 90.3263 113.616 90.4783 115.21C89.0316 112.024 88.1075 108.626 87.7415 105.146C87.3216 101.945 87.3216 98.703 87.7415 95.5021C87.838 94.4548 88.0969 93.4289 88.509 92.4612C88.509 91.9109 88.6538 91.3462 88.7551 90.796C88.7565 90.7719 88.7565 90.7477 88.7551 90.7236C84.3277 93.7681 80.6892 97.8235 78.141 102.554C77.4402 103.955 76.8869 105.426 76.4902 106.942C75.4326 103.321 75.2294 99.5042 75.8965 95.7917C76.5166 91.5102 77.9941 87.3977 80.2407 83.7006C80.4724 83.3385 80.0958 83.0055 79.7338 83.1937C74.7381 85.9016 73.7245 91.882 72.4936 97.008C70.8803 92.1111 70.6597 86.8621 71.8565 81.8471C72.5855 78.3872 73.8561 75.064 75.6214 72.0004C75.216 72.4348 74.825 72.8692 74.434 73.3181C73.7969 74.2593 73.1887 75.215 72.624 76.2142C70.8247 80.4622 69.932 85.0391 70.003 89.652C69.9997 92.8717 70.6964 96.0536 72.0448 98.9774C72.2185 99.3683 72.8846 98.9774 72.957 98.6733C74.101 94.1409 74.7671 88.1171 78.6044 84.9169C76.8104 88.3294 75.5875 92.0128 74.9843 95.8207C74.7549 97.2581 74.6242 98.7095 74.5933 100.165C74.5335 100.206 74.484 100.261 74.4485 100.324C74.0592 101.389 73.5746 102.416 73.0005 103.394C72.404 104.269 71.7355 105.092 71.0022 105.856C69.556 107.423 67.955 108.839 66.2236 110.084C63.0235 112.415 58.9834 114.703 54.9144 114.891C56.0286 112.355 56.9436 109.736 57.6512 107.057C57.6512 106.478 57.7816 105.913 57.796 105.334C57.8105 104.755 57.796 104.118 57.796 103.51C57.3471 104.697 56.9127 105.899 56.5073 107.101C54.5452 109.764 52.8798 112.634 51.5405 115.659C49.6315 119.82 48.5636 124.318 48.3983 128.894C48.3983 131.109 48.5865 133.31 48.7458 135.511C47.7322 133.861 46.6606 132.224 45.5167 130.646C44.783 129.632 44.03 128.633 43.2577 127.649C42.5175 126.82 41.8445 125.934 41.2449 124.999C39.2901 121.465 40.7816 116.803 42.5192 113.501C42.7654 113.023 42.1283 112.835 41.8531 113.197C39.9133 115.432 38.1235 117.793 36.4954 120.264C35.3514 122.218 34.5405 124.419 33.1938 126.273C32.6515 123.021 33.0018 119.683 34.2075 116.614C34.3378 116.238 34.4826 115.876 34.6129 115.514C34.6775 115.473 34.7318 115.418 34.772 115.352C34.8121 115.287 34.8369 115.214 34.8446 115.138C34.8517 115.046 34.8517 114.954 34.8446 114.862C36.1305 111.74 37.9048 108.841 40.101 106.275C41.3052 104.764 42.7779 103.488 44.4451 102.511C44.923 102.25 44.865 101.497 44.2569 101.772C41.5654 103.16 38.7484 104.29 35.8438 105.146C33.3444 105.74 30.7409 105.74 28.2415 105.146C28.9013 105.04 29.5541 104.895 30.1964 104.712C31.3962 104.322 32.5632 103.838 33.6862 103.264C35.8397 102.175 37.8856 100.885 39.7969 99.4118C42.0089 97.7017 43.9985 95.7219 45.7194 93.5183C45.8352 93.0114 45.9656 92.5191 46.0959 92.0702C44.1296 94.6907 41.7988 97.0166 39.1743 98.9774C37.2429 100.422 35.1772 101.678 33.0056 102.728C31.9016 103.28 30.7476 103.726 29.5593 104.06C28.4571 104.225 27.3717 104.486 26.3157 104.842C25.9971 104.972 25.6351 105.566 26.1274 105.74C29.1725 106.759 32.4405 106.914 35.5686 106.189C37.475 105.717 39.3283 105.052 41.1001 104.205C39.2252 105.943 37.5978 107.931 36.2637 110.113L35.8293 110.851C35.8293 110.446 35.3659 110.388 35.0763 110.591C32.0209 112.676 30.457 115.977 28.7484 119.134C28.2936 118.661 27.9172 118.118 27.6334 117.527C27.1845 116.687 26.808 115.818 26.446 114.949C25.467 112.617 24.7294 110.191 24.245 107.709C23.6978 105.145 23.4452 102.526 23.492 99.9041C23.5534 98.4456 23.7228 96.9935 23.9988 95.56C24.0528 93.6012 24.3445 91.6563 24.8676 89.7678L24.6504 90.2891C24.0109 91.2621 23.4306 92.2727 22.9128 93.3155C20.9606 97.3991 19.8337 101.828 19.5967 106.348C19.5026 107.727 19.5026 109.11 19.5967 110.489C19.5967 111.17 19.8429 111.937 19.9588 112.603C16.6151 108.279 14.2532 103.279 13.0371 97.9493C11.7768 92.1506 11.8362 86.1427 13.2109 80.3701C13.3267 80.2253 13.4281 80.0515 13.5439 79.8922C13.6453 78.1401 13.8335 76.3879 14.1087 74.6503C13.44 76.2849 12.8694 77.958 12.4 79.6605C10.7928 81.5693 9.34018 83.6029 8.05587 85.7423C6.94573 87.7701 6.12678 89.9443 5.62316 92.2006C4.2972 86.9431 4.1096 81.4631 5.07291 76.1273C6.1162 70.3034 8.43 64.7809 11.8497 59.9527C12.1249 59.5762 12.4145 59.2432 12.7041 58.8956C12.9937 58.1716 13.3123 57.4476 13.6598 56.7525L12.9937 57.3462C11.2094 58.0857 9.46458 58.917 7.76626 59.8369C5.68108 60.8794 3.81311 62.5881 1.58313 63.3121C2.29171 61.862 3.17691 60.505 4.21856 59.2721C5.42363 57.8158 6.71469 56.4329 8.08483 55.1307C9.50474 53.8027 11.0143 52.5737 12.6027 51.4527C12.9792 50.8735 13.3702 50.3087 13.7756 49.7585L13.3267 50.0626C11.4571 50.4486 9.55829 50.6763 7.65042 50.7432C5.9581 50.9476 4.2415 50.7287 2.65468 50.106C4.69233 49.2868 6.66699 48.3188 8.56268 47.2099C10.6765 45.6919 12.6447 43.9807 14.4417 42.0984C16.9955 39.4637 19.7345 37.0151 22.6376 34.7713C23.0741 34.0913 23.558 33.4429 24.0857 32.8309L23.2458 33.3232C18.9425 33.7407 14.8383 35.3393 11.3864 37.9425C13.5309 33.9625 16.4332 30.4403 19.9298 27.5745C23.6509 24.2459 27.873 21.524 32.4409 19.5089C36.7995 17.5515 41.3658 16.0942 46.0524 15.1648C50.2433 14.2803 54.5362 13.9782 58.8097 14.267C61.6699 14.49 64.476 15.1695 67.1214 16.2798L68.2219 16.497C68.0354 16.1177 67.8758 15.7257 67.7441 15.3241C66.296 13.8761 64.848 12.3411 63.3131 10.98C66.1296 10.7333 68.9656 11.1244 71.6103 12.1239C72.5872 12.5238 73.5271 13.0083 74.4195 13.572C75.4187 14.0209 76.4034 14.4698 77.3156 14.9476V14.5277L76.6785 13.9629C76.7842 11.853 77.4488 9.80902 78.6044 8.04045C80.389 5.15902 82.9968 2.87907 86.0907 1.49531C84.8454 4.26106 83.1947 6.83858 83.8173 10.0098C84.1283 11.673 84.9599 13.1943 86.1921 14.3539C87.156 14.781 88.1937 15.017 89.2475 15.049C88.6936 14.9268 88.1678 14.7008 87.6981 14.3829C88.4446 13.0135 89.3276 11.723 90.3335 10.5311C92.6377 7.60947 95.4007 5.08115 98.5149 3.04472C100.226 1.87834 102.237 1.22981 104.307 1.17676C104.027 1.83952 103.646 2.45496 103.178 3.00128C102.636 3.68947 102.152 4.42074 101.73 5.18781C101.191 6.20941 100.74 7.27518 100.383 8.3735C99.926 8.68139 99.4906 9.02007 99.0797 9.38714L99.5575 9.28577C100.371 8.8831 101.219 8.55359 102.092 8.30111C104.095 7.35192 106.205 6.64696 108.376 6.20144C111.318 5.6538 114.303 5.37273 117.296 5.36159C121.09 5.24575 124.898 5.36157 128.678 4.91268C132.545 4.57678 136.321 3.55185 139.827 1.88628C139.147 3.48083 138.318 5.00798 137.351 6.44762C136.454 6.65035 135.541 6.88204 134.658 7.17164H134.861C135.974 7.08508 137.092 7.08508 138.206 7.17164C142.322 6.55936 146.511 6.63765 150.601 7.40331C154.009 8.07691 157.352 9.04593 160.592 10.2994C163.997 11.5063 167.276 13.0437 170.381 14.8897C173.366 16.6157 175.963 18.9373 178.012 21.71C175.116 21.4059 172.35 20.4212 169.469 20.2619C168.722 19.8752 167.953 19.5319 167.167 19.2338C168.504 20.2589 169.785 21.3562 171.004 22.5209C172.744 23.8358 174.376 25.2885 175.884 26.865C179.897 31.2906 183.58 36.0045 186.903 40.9689C187.912 42.4354 189.005 43.8424 190.176 45.1827C190.871 45.9791 191.624 46.761 192.247 47.5864C189.727 46.7466 187.294 45.704 184.833 44.6903C183.848 43.7926 182.805 42.9382 181.777 42.0839C182.675 43.3871 183.602 44.6759 184.5 45.9646L184.673 46.0515C186.034 47.3703 187.2 48.877 188.134 50.5259C190.659 55.1967 192.363 60.266 193.173 65.5132C193.608 67.8963 193.802 70.317 193.753 72.7389Z" fill="#76797B"/>
<g style="mix-blend-mode:screen">
<path d="M44.6042 86.7855C45.7196 86.2726 46.8028 85.6923 47.8479 85.0479C55.0881 80.5879 61.4015 73.0436 63.3708 64.6016C60.591 69.8211 57.1873 74.6835 53.2346 79.082C50.6549 81.9645 47.76 84.5485 44.6042 86.7855Z" fill="#76797B"/>
</g>
<g style="mix-blend-mode:screen">
<path d="M45.2995 35.3076C43.1835 35.6187 41.1093 36.1676 39.1164 36.9439C37.6718 37.4573 36.3813 38.3293 35.366 39.478C37.7213 39.2973 40.0625 38.9636 42.3745 38.4788C49.7305 37.0308 57.9264 34.8732 65.1521 37.0308C63.5974 36.3356 61.9773 35.7971 60.3157 35.4235C55.3612 34.4502 50.2685 34.4109 45.2995 35.3076Z" fill="#76797B"/>
</g>
<g style="mix-blend-mode:screen">
<path d="M46.3129 58.7075C49.7162 57.5495 52.6694 55.3511 54.7549 52.423C55.8487 50.9388 56.6452 49.2572 57.1008 47.4707C53.6399 52.6836 48.1953 56.2893 42.6204 59.1854C43.8701 59.2554 45.1221 59.0934 46.3129 58.7075Z" fill="#76797B"/>
</g>
<g style="mix-blend-mode:screen">
<path d="M144.982 24.6211C139.852 21.9878 134.065 20.906 128.33 21.5078C127.577 21.5078 126.882 21.6526 126.086 21.754C134.593 22.5642 142.86 25.0234 150.427 28.9942C148.878 27.2336 147.036 25.7541 144.982 24.6211Z" fill="#76797B"/>
</g>
<g style="mix-blend-mode:screen">
<path d="M107.71 49.8889C104.481 54.3924 103.67 60.2714 104.221 65.6726C104.597 70.4246 106.27 74.9823 109.057 78.8497C108.652 76.8804 108.261 74.8966 107.928 72.9128C106.805 67.3928 106.517 61.7355 107.073 56.13C107.43 52.8666 108.6 49.7449 110.476 47.0508C109.423 47.8599 108.492 48.8157 107.71 49.8889Z" fill="#76797B"/>
</g>
<g style="mix-blend-mode:screen">
<path d="M127.505 62.2411C126.992 59.8804 126.658 57.4843 126.506 55.0732C125.8 61.0971 126.428 67.2023 128.345 72.9565C130.039 77.9957 133.094 83.2811 138.148 85.4821C137.269 82.9506 136.036 80.5568 134.484 78.3722C132.891 76.0653 131.469 73.6455 130.227 71.132C129.004 68.2743 128.091 65.2936 127.505 62.2411Z" fill="#76797B"/>
</g>
<g style="mix-blend-mode:multiply" opacity="0.57">
<path d="M193.752 72.7396C193.844 70.3713 193.704 67.9996 193.332 65.6587C192.522 60.4115 190.818 55.3422 188.293 50.6715C187.359 49.0226 186.193 47.5158 184.832 46.197L184.659 46.1102C183.761 44.8214 182.834 43.5326 181.936 42.2294C182.964 43.0837 184.007 43.9381 184.992 44.8359C187.453 45.8205 189.886 46.8631 192.406 47.732C191.74 46.9066 190.958 46.1246 190.335 45.3282C189.164 43.9879 188.071 42.5809 187.062 41.1144C183.739 36.15 180.056 31.4361 176.043 27.0105C174.535 25.434 172.903 23.9813 171.163 22.6664C169.945 21.5017 168.663 20.4044 167.326 19.3793C168.112 19.6774 168.881 20.0207 169.628 20.4074C172.524 20.5957 175.304 21.5804 178.171 21.8555C176.122 19.0828 173.525 16.7613 170.54 15.0352C167.435 13.1892 164.156 11.6518 160.751 10.4449C157.511 9.19146 154.168 8.22244 150.76 7.54884C146.67 6.78318 142.481 6.70487 138.365 7.31715C137.251 7.23059 136.133 7.23059 135.02 7.31715H134.817C135.7 7.02754 136.613 6.79586 137.51 6.59313C138.477 5.15349 139.306 3.62636 139.987 2.03181C136.48 3.69738 132.704 4.72231 128.837 5.05821C125.057 5.4347 121.249 5.39126 117.455 5.5071C114.463 5.51824 111.477 5.79933 108.535 6.34697C106.364 6.79249 104.254 7.49743 102.251 8.44662C101.378 8.6991 100.53 9.02863 99.7166 9.4313L99.2387 9.53265C99.6496 9.16558 100.085 8.82692 100.542 8.51903C100.899 7.42071 101.35 6.35494 101.889 5.33334C102.311 4.56627 102.795 3.835 103.337 3.14681C103.805 2.60049 104.186 1.98503 104.466 1.32227C102.396 1.37532 100.385 2.02387 98.674 3.19025C95.5598 5.22668 92.7967 7.755 90.4926 10.6766C89.4867 11.8686 88.6037 13.159 87.8571 14.5284C88.3269 14.8463 88.8526 15.0723 89.4065 15.1945C88.3527 15.1625 87.3151 14.9265 86.3512 14.4994C85.119 13.3398 84.2873 11.8185 83.9764 10.1553C83.3682 6.98411 85.0045 4.36315 86.2498 1.64084C83.1558 3.0246 80.548 5.30455 78.7634 8.18598C77.6079 9.95455 76.9432 11.9985 76.8375 14.1085L77.4747 14.6732V15.0931C76.49 14.6153 75.5053 14.1664 74.5786 13.7175C73.6862 13.1538 72.7462 12.6693 71.7694 12.2694C69.1246 11.2699 66.2887 10.8789 63.4721 11.1255C65.0215 12.5011 66.4551 14.0216 67.9031 15.4696C68.0348 15.8713 68.1945 16.2632 68.381 16.6425L67.2805 16.4253C64.6351 15.3151 61.829 14.6356 58.9687 14.4126C54.6953 14.1237 50.4024 14.4258 46.2115 15.3103C41.5248 16.2397 36.9585 17.6971 32.5999 19.6545C28.032 21.6696 23.81 24.3914 20.0889 27.72C16.5922 30.5859 13.6899 34.108 11.5454 38.088C14.9974 35.4848 19.1016 33.8862 23.4049 33.4688L24.2447 32.9764C23.7171 33.5884 23.2332 34.2368 22.7967 34.9168C19.8935 37.1606 17.1546 39.6092 14.6008 42.2439C12.8037 44.1262 10.8356 45.8375 8.72174 47.3555C6.82605 48.4643 4.85139 49.4323 2.81374 50.2516C4.40056 50.8742 6.11716 51.0931 7.80948 50.8887C9.71735 50.8218 11.6162 50.5941 13.4858 50.2081L13.9347 49.904C13.5292 50.4543 13.1383 51.019 12.7618 51.5982C11.1733 52.7193 9.6638 53.9482 8.24389 55.2763C6.87375 56.5784 5.58269 57.9613 4.37762 59.4176C3.33597 60.6505 2.45077 62.0075 1.74219 63.4577C3.97217 62.7337 5.84014 61.025 7.92532 59.9824C9.62364 59.0625 11.3685 58.2312 13.1527 57.4918L13.8188 56.8981C13.4713 57.5931 13.1527 58.3461 12.8631 59.0411C12.5735 59.3887 12.2839 59.7217 12.0088 60.0982C8.58906 64.9264 6.27526 70.4489 5.23196 76.2728C4.26866 81.6086 4.45626 87.0886 5.78222 92.3461C6.28584 90.0898 7.10479 87.9157 8.21493 85.8878C9.49924 83.7485 10.9519 81.7148 12.559 79.806C13.0285 78.1035 13.599 76.4304 14.2677 74.7958C13.9926 76.5335 13.8044 78.2856 13.703 80.0377C13.5872 80.197 13.4858 80.3708 13.3699 80.5156C11.9953 86.2882 11.9359 92.2961 13.1962 98.0948C14.4122 103.424 16.7741 108.425 20.1178 112.749C20.002 112.039 19.7992 111.301 19.7558 110.635C19.6617 109.256 19.6617 107.872 19.7558 106.493C19.9928 101.973 21.1196 97.5446 23.0718 93.4611C23.5897 92.4183 24.1699 91.4076 24.8095 90.4347L25.0267 89.9134C24.5036 91.8018 24.2119 93.7468 24.1578 95.7055C23.8818 97.1391 23.7125 98.5911 23.651 100.05C23.6043 102.671 23.8569 105.29 24.404 107.855C24.8885 110.337 25.626 112.763 26.605 115.095C26.967 115.964 27.3435 116.832 27.7924 117.672C28.0762 118.264 28.4526 118.807 28.9074 119.28C30.6161 116.123 32.18 112.821 35.2354 110.736C35.525 110.533 36.0463 110.591 35.9883 110.997L36.4227 110.258C37.7569 108.077 39.3842 106.089 41.2592 104.35C39.4874 105.197 37.634 105.862 35.7277 106.334C32.5996 107.06 29.3316 106.904 26.2865 105.885C25.7941 105.711 26.1561 105.118 26.4747 104.987C27.4788 104.586 28.5156 104.271 29.5735 104.046C30.7619 103.712 31.9159 103.266 33.0199 102.714C35.1915 101.664 37.2572 100.408 39.1885 98.9636C41.8131 97.0028 44.1438 94.6769 46.1101 92.0565C45.9798 92.5488 45.8495 93.0411 45.7336 93.5045C44.0128 95.7081 42.0232 97.688 39.8112 99.398C37.8999 100.871 35.8539 102.161 33.7004 103.25C32.5774 103.824 31.4105 104.309 30.2107 104.698C29.5683 104.882 28.9155 105.027 28.2558 105.132C30.7551 105.726 33.3587 105.726 35.858 105.132C38.7627 104.276 41.5796 103.146 44.2711 101.758C44.8793 101.483 44.9372 102.236 44.4594 102.497C42.7921 103.474 41.3194 104.75 40.1152 106.262C37.919 108.827 36.1448 111.726 34.8589 114.849C34.866 114.94 34.866 115.032 34.8589 115.124C34.8512 115.2 34.8264 115.273 34.7862 115.339C34.7461 115.404 34.6917 115.459 34.6272 115.5C34.4969 115.862 34.3521 116.224 34.2217 116.601C33.0161 119.669 32.6658 123.007 33.2081 126.259C34.5548 124.406 35.3657 122.205 36.5096 120.25C38.1378 117.779 39.9276 115.418 41.8674 113.183C42.1425 112.821 42.7796 113.01 42.5335 113.487C40.7958 116.789 39.3043 121.452 41.2592 124.985C41.8587 125.92 42.5318 126.806 43.272 127.635C44.0443 128.6 44.7972 129.599 45.5309 130.632C46.6749 132.211 47.7464 133.847 48.76 135.498C48.6008 133.297 48.3836 131.154 48.4125 128.88C48.5779 124.305 49.6457 119.807 51.5548 115.645C52.894 112.62 54.5595 109.751 56.5215 107.087C56.927 105.885 57.3614 104.683 57.8103 103.496C57.8103 104.104 57.8103 104.712 57.8103 105.321C57.8103 105.929 57.7234 106.464 57.6655 107.044C56.9579 109.722 56.0428 112.341 54.9287 114.878C59.0266 114.689 63.0377 112.401 66.2379 110.07C67.9693 108.825 69.5703 107.409 71.0164 105.842C71.7498 105.078 72.4182 104.255 73.0147 103.38C73.5889 102.403 74.0735 101.375 74.4628 100.31C74.4983 100.247 74.5478 100.192 74.6076 100.151C74.6385 98.6957 74.7691 97.2443 74.9985 95.8069C75.6018 91.999 76.8246 88.3157 78.6186 84.9031C74.7813 88.1033 74.1152 94.1272 72.9713 98.6595C72.9713 98.9491 72.2328 99.3546 72.059 98.9636C70.7106 96.0399 70.014 92.8579 70.0173 89.6382C69.9462 85.0254 70.8389 80.4485 72.6382 76.2004C73.203 75.2013 73.8111 74.2456 74.4483 73.3044C74.8392 72.8555 75.2302 72.421 75.6357 71.9866C73.8459 75.0602 72.5555 78.3985 71.8129 81.8767C70.6161 86.8918 70.8367 92.1408 72.45 97.0377C73.7098 91.9117 74.7234 85.9312 79.6902 83.2234C80.0522 83.0352 80.4287 83.3682 80.197 83.7302C77.9505 87.4274 76.4729 91.5398 75.8529 95.8214C75.1858 99.5339 75.389 103.351 76.4466 106.971C76.8412 105.42 77.3994 103.915 78.1118 102.482C80.66 97.7518 84.2985 93.6964 88.726 90.6519C88.7274 90.676 88.7274 90.7002 88.726 90.7243C88.6246 91.2745 88.5377 91.8393 88.4798 92.3895C88.0619 93.3754 87.8029 94.4213 87.7123 95.4883C87.2924 98.6892 87.2924 101.931 87.7123 105.132C88.0783 108.612 89.0024 112.01 90.4491 115.196C90.2971 113.602 90.2971 111.997 90.4491 110.403C90.8062 105.836 92.4982 101.476 95.3145 97.8631C97.6104 95.3358 100.115 93.0059 102.801 90.898C102.005 89.6101 101.326 88.2531 100.774 86.8435C100.191 85.3741 99.8254 83.8278 99.6876 82.2532C100.592 86.5617 102.85 90.4684 106.131 93.4031C106.667 94.0403 107.217 94.6485 107.797 95.2421C109.731 97.1524 111.937 98.7673 114.342 100.035C117.139 101.567 120.109 102.758 123.189 103.583C125.279 104.183 127.445 104.475 129.619 104.452C124.275 101.556 121.321 95.7635 120.481 89.841C120.987 90.5159 121.533 91.1591 122.118 91.7669C122.376 92.8034 122.71 93.8197 123.117 94.8077C124.823 96.1381 126.729 97.189 128.764 97.921C130.947 98.6633 133.084 99.5336 135.165 100.528C137.219 101.605 139.103 102.981 140.754 104.611C143.834 107.527 145.714 111.488 146.025 115.717C146.588 114.735 146.975 113.662 147.169 112.546C147.49 111.063 147.703 109.557 147.806 108.043C148.165 105.148 147.806 102.209 146.763 99.4849C147.473 100.31 148.211 101.165 148.82 102.019C148.981 103.262 149.034 104.517 148.979 105.769C150.466 107.802 152.149 109.684 154.004 111.388C154.742 112.199 155.365 113.111 156.045 113.965C156.458 114.559 156.972 115.073 157.566 115.486C157.249 114.315 156.863 113.164 156.407 112.039C156.002 110.591 155.64 109.23 155.292 107.811C155.806 108.399 156.289 109.013 156.74 109.65C157.016 110.186 157.276 110.722 157.537 111.257L157.624 111.547C158.058 112.995 159.072 114.602 158.797 116.21C158.763 116.406 158.662 116.584 158.512 116.713C158.361 116.843 158.17 116.915 157.971 116.919C157.602 116.889 157.243 116.785 156.914 116.615C158.05 120.545 158.625 124.616 158.623 128.706C161.403 125.072 164.415 121.654 166.949 117.788C168.05 116.136 168.913 114.338 169.512 112.445C170.078 110.341 170.308 108.162 170.193 105.987C170.193 105.48 171.134 104.915 171.467 105.422C172.46 107.185 173.127 109.113 173.436 111.113C173.719 112.671 174.206 114.185 174.884 115.616C175.33 114.303 175.651 112.95 175.84 111.576C176.187 109.663 176.395 107.727 176.463 105.784C176.463 103.815 176.289 101.845 176.159 99.8759C176.159 99.6587 176.159 99.456 176.159 99.2532C176.607 100.441 177.071 101.628 177.505 102.83C177.607 103.901 177.679 104.987 177.679 106.059C177.616 108.003 177.408 109.939 177.056 111.851C178.464 110.435 179.641 108.808 180.546 107.029C182.528 103.072 183.923 98.848 184.688 94.4892C185.596 89.8817 185.245 85.1147 183.674 80.6893C183.674 79.7047 183.674 78.7345 183.761 77.7933C185.093 79.6323 186.744 81.2686 187.917 83.1945C188.728 84.5267 189.292 85.9892 190.06 87.3359C190.615 83.6063 190.561 79.8114 189.901 76.0991C189.423 73.1779 188.531 70.34 187.251 67.6715C186.961 66.2234 186.628 64.9057 186.28 63.5301C190.016 65.5284 191.276 69.6698 193.752 72.7396ZM176.057 65.7456C173.827 62.7755 171.11 60.205 168.021 58.1434C168.663 58.9705 169.239 59.8468 169.744 60.7643C172.217 65.6357 173.601 70.9869 173.798 76.4466C174.279 81.5275 173.667 86.6526 172.003 91.4773C171.965 91.5931 171.891 91.694 171.792 91.7656C171.693 91.8371 171.574 91.8756 171.452 91.8756C171.33 91.8756 171.212 91.8371 171.113 91.7656C171.014 91.694 170.94 91.5931 170.902 91.4773C169.454 88.0454 169.28 84.2371 168.759 80.6604C168.496 77.353 167.459 74.1536 165.733 71.3205C165.199 72.6322 164.324 73.7771 163.199 74.6365C161.775 75.8879 160.055 76.7551 158.203 77.1561C157.696 77.1561 157.189 76.6204 157.653 76.2004C160.026 73.9312 161.643 70.9869 162.285 67.767C162.928 64.547 162.564 61.2074 161.244 58.2013C160.733 59.8887 159.902 61.4619 158.797 62.835C157.41 64.5067 155.699 65.8813 153.769 66.8766C151.838 67.8718 149.726 68.4672 147.56 68.6272C143.071 68.9602 138.958 67.0488 134.962 65.2243C134.962 67.2081 136.569 69.0471 137.858 70.3938C139.147 71.7405 140.899 73.2899 142.463 74.6365C144.282 76.3173 145.94 78.1644 147.415 80.1536C150.644 84.3674 153.352 89.3631 153.54 94.7643C153.536 94.8748 153.5 94.9818 153.437 95.0727C153.374 95.1636 153.287 95.2346 153.185 95.2772C153.083 95.3198 152.971 95.3324 152.862 95.3133C152.753 95.2943 152.652 95.2445 152.57 95.1697C148.458 91.68 144.765 87.7268 140.653 84.2515C142.675 87.9801 143.972 92.0584 144.475 96.2703C144.475 96.7916 143.824 96.9943 143.505 96.6757C141.275 94.4602 138.799 92.5343 136.381 90.5505C134.164 88.8141 132.113 86.875 130.256 84.7583C128.59 82.7213 127.256 80.4343 126.303 77.9815C125.315 75.456 124.55 72.8494 124.015 70.191C123.741 67.9041 123.306 65.6395 122.711 63.4142C118.758 69.6408 122.205 77.7209 122.248 84.5267C122.244 84.6372 122.208 84.7442 122.145 84.8351C122.082 84.926 121.995 84.9969 121.893 85.0395C121.791 85.0822 121.678 85.0947 121.57 85.0757C121.461 85.0566 121.359 85.0068 121.278 84.9321C119.596 83.3649 118.234 81.4864 117.267 79.4006C114.139 72.6238 115.066 64.9202 115.819 57.68C114.953 58.8334 114.269 60.1129 113.792 61.4739C113.16 63.2704 112.675 65.1155 112.343 66.9909C111.943 68.8362 111.686 70.7098 111.576 72.5948C111.417 77.3733 113.198 81.8767 114.168 86.4815C114.192 86.5899 114.185 86.7031 114.147 86.8074C114.109 86.9118 114.042 87.0031 113.953 87.0702C113.864 87.1374 113.759 87.1777 113.648 87.1863C113.537 87.1948 113.426 87.1714 113.328 87.1186C110.664 85.7844 108.303 83.9163 106.392 81.6306C102.823 77.3498 100.498 72.1702 99.6731 66.6578C99.1634 63.451 99.2419 60.1781 99.9048 56.9994C99.795 57.1631 99.6935 57.3323 99.6007 57.5062C97.5027 60.8695 95.7374 64.4292 94.3299 68.1348C92.9431 71.9389 92.3134 75.9775 92.4764 80.0233C92.4764 80.7183 91.5641 80.7473 91.3614 80.1825C89.4425 75.2226 88.7664 69.8684 89.3921 64.5871C90.0417 60.4504 91.5335 56.491 93.7752 52.9541C96.0169 49.4172 98.9607 46.3781 102.424 44.025C109.165 39.3706 117.054 36.6558 125.231 36.1766C123.994 35.8275 122.737 35.5566 121.466 35.3657C113.212 34.1204 102.41 35.7567 98.6161 44.2567C98.3699 44.8069 97.559 44.4883 97.559 43.967C97.6181 40.7959 98.6886 37.7266 100.614 35.2064C101.874 33.3674 103.337 31.6008 104.495 29.6749C102.653 30.9606 100.91 32.3837 99.2822 33.9321C97.5934 35.4418 96.0427 37.0991 94.6484 38.8844C91.8392 42.7652 90.3043 47.3265 87.7558 51.381C87.7038 51.4648 87.6313 51.534 87.5452 51.582C87.459 51.6299 87.362 51.6551 87.2634 51.6551C87.1648 51.6551 87.0678 51.6299 86.9817 51.582C86.8955 51.534 86.823 51.4648 86.7711 51.381C84.7294 48.3112 84.7004 44.5608 84.0922 40.9986C83.4479 39.7887 82.6603 38.6608 81.7464 37.6391C77.6132 33.5264 72.2278 30.9076 66.4406 30.1962C63.6454 29.7024 60.7976 29.5758 57.9696 29.8197C55.9477 29.9659 53.9769 30.5226 52.1774 31.456C56.6774 31.3037 61.1721 31.8857 65.4849 33.1791C69.878 34.6161 73.7409 37.3343 76.5769 40.9841C79.3389 44.747 81.0573 49.1729 81.5582 53.8137C82.007 57.3763 82.007 60.9811 81.5582 64.5437C81.1817 67.5701 80.588 71.5522 77.9815 73.5071C77.9052 73.5498 77.8202 73.5746 77.7328 73.5797C77.6455 73.5848 77.5582 73.5701 77.4774 73.5367C77.3966 73.5032 77.3244 73.452 77.2663 73.3866C77.2081 73.3213 77.1655 73.2437 77.1416 73.1595C76.5045 68.4968 76.49 63.5011 74.7379 59.186C74.6563 60.7649 74.4725 62.3369 74.1876 63.8921C72.7396 71.9866 68.8009 79.2992 64.2541 86.076C62.3886 88.9781 60.224 91.6765 57.7958 94.1272C55.6772 96.432 52.848 97.9613 49.7592 98.4713C49.6587 98.4726 49.5597 98.4471 49.4724 98.3974C49.385 98.3477 49.3125 98.2756 49.2624 98.1886C49.2122 98.1015 49.1861 98.0026 49.1869 97.9021C49.1877 97.8017 49.2153 97.7032 49.2669 97.6169C50.4574 95.4041 51.8127 93.284 53.3214 91.2745C56.0002 87.5965 58.9253 84.0343 60.6919 79.6902C61.2711 78.2421 61.7634 76.7941 62.2268 75.3461C61.9227 75.795 61.6042 76.2294 61.2856 76.6493C57.266 81.8142 52.3635 86.2265 46.8052 89.6817C44.1306 91.418 41.3109 92.9199 38.3776 94.1706C35.8925 95.3651 33.1306 95.8654 30.3844 95.6186C30.2898 95.5895 30.2043 95.5366 30.136 95.465C30.0677 95.3934 30.0188 95.3054 29.9942 95.2096C29.9695 95.1138 29.9697 95.0132 29.995 94.9175C30.0202 94.8218 30.0695 94.7342 30.1383 94.6629C31.7601 93.2149 33.4253 91.8537 35.105 90.4781C40.8972 85.7285 47.2251 80.559 50.0198 73.4057C44.9517 74.6221 39.8836 76.5045 34.7865 74.2311C34.3231 74.0284 34.4969 73.3188 34.9168 73.1885C38.3559 72.4629 41.5785 70.9458 44.329 68.7575C42.3026 68.7529 40.2776 68.6465 38.2618 68.4389C35.9164 68.1131 33.7066 67.146 31.8759 65.6442C30.5186 64.4512 29.4105 63.0016 28.6152 61.3789C27.82 59.7561 27.3534 57.9922 27.2422 56.1885C26.2553 57.3332 25.4584 58.6287 24.8819 60.0258C22.232 66.3682 23.2311 73.5071 21.841 80.1246C21.7396 80.6314 21.059 80.6314 20.7984 80.2549C19.1935 77.7291 18.2017 74.8628 17.9023 71.8853C17.3814 65.9991 18.4569 60.0814 21.0156 54.755C22.5311 51.3689 24.6509 48.2874 27.2711 45.6612C24.577 46.9275 21.974 48.379 19.4807 50.0054C19.3829 50.0581 19.2719 50.0816 19.1611 50.073C19.0503 50.0644 18.9443 50.0241 18.8558 49.957C18.7673 49.8898 18.6999 49.7986 18.6618 49.6942C18.6237 49.5898 18.6164 49.4767 18.6408 49.3682C19.4146 47.1706 20.5127 45.1012 21.8989 43.2285C26.3299 37.2626 33.0923 33.657 39.9994 31.2243C36.2137 30.913 32.4067 30.9712 28.6323 31.3981C28.5448 31.3965 28.4588 31.3751 28.3807 31.3355C28.3027 31.2959 28.2346 31.2391 28.1817 31.1694C28.1287 31.0997 28.0923 31.019 28.075 30.9332C28.0577 30.8474 28.0601 30.7588 28.082 30.674C28.5947 29.2192 29.5586 27.9661 30.8333 27.0974C32.2329 26.0368 33.7201 25.0971 35.2788 24.2882C42.2358 20.642 50.0361 18.908 57.8827 19.2635C64.8703 19.5451 71.6614 21.6573 77.576 25.3887C75.8972 22.3283 74.0103 19.3867 71.9287 16.5846C71.6246 16.1357 72.1314 15.6724 72.5658 15.7448C74.9715 16.2034 77.2981 17.0082 79.473 18.134C79.0223 15.4285 79.3332 12.6509 80.3708 10.1119C80.559 9.63403 81.312 9.5037 81.4568 10.1119C82.2532 13.3989 83.7302 17.1204 86.858 18.8001C86.9405 18.8347 87.0107 18.8932 87.0597 18.968C87.1088 19.0428 87.1343 19.1306 87.1331 19.22C87.3938 19.4517 87.6544 19.6834 87.9006 19.9296C88.587 20.63 89.124 21.4626 89.4789 22.3768C90.3834 20.4543 91.7209 18.7674 93.3866 17.4485C95.0523 16.1295 97.0008 15.2143 99.0794 14.7746C99.1993 14.7489 99.3243 14.7619 99.4363 14.8117C99.5483 14.8615 99.6417 14.9456 99.7028 15.0519C99.764 15.1581 99.7899 15.2811 99.7767 15.403C99.7636 15.5249 99.7121 15.6395 99.6297 15.7303C96.7521 18.3486 94.3556 21.4509 92.5488 24.8964C92.4185 25.186 92.3171 25.4756 92.2012 25.7507C93.037 24.8256 93.9216 23.9459 94.8512 23.1153C99.6941 19.0064 105.19 15.7369 111.113 13.4424C114.088 12.1456 117.176 11.123 120.337 10.387C123.11 9.63814 126.025 9.58838 128.822 10.2422C128.918 10.2696 129.005 10.3212 129.075 10.392C129.145 10.4629 129.195 10.5506 129.222 10.6467C129.248 10.7427 129.249 10.8439 129.225 10.9405C129.2 11.037 129.151 11.1257 129.083 11.1979C126.085 13.9202 122.943 16.4977 120.062 19.3504C119.729 19.6834 119.424 20.0454 119.106 20.3785C120.511 19.6932 121.963 19.1077 123.45 18.6263C131.912 16.1042 140.956 16.3273 149.283 19.2635C157.662 21.9735 164.901 27.3938 169.86 34.6706C170.164 35.1195 169.671 35.5829 169.223 35.5105C166.457 35.0471 163.966 33.5846 161.316 32.7447C160.418 32.4696 159.521 32.2379 158.608 32.0207C159.289 32.5275 159.941 33.0633 160.578 33.6136C162.704 35.5565 164.643 37.6945 166.37 39.9994C168.072 42.1761 169.662 44.4379 171.134 46.7762C174.493 52.2354 177.317 58.6212 177.187 65.1664C177.225 65.2405 177.248 65.3214 177.255 65.4045C177.261 65.4876 177.252 65.5712 177.226 65.6505C177.201 65.7298 177.16 65.8034 177.106 65.8669C177.052 65.9304 176.986 65.9827 176.912 66.0207C176.837 66.0587 176.757 66.0818 176.673 66.0885C176.59 66.0953 176.507 66.0856 176.427 66.0601C176.348 66.0345 176.275 65.9936 176.211 65.9396C176.148 65.8857 176.095 65.8197 176.057 65.7456Z" fill="#76797B"/>
</g>
<path d="M161.896 60.9091C161.896 60.3878 161.172 60.5327 160.984 60.9091C160.146 62.7802 159.044 64.5212 157.711 66.0786C156.183 67.6185 154.368 68.8435 152.368 69.6843C150.202 70.7125 147.81 71.171 145.417 71.0165C142.91 70.7205 140.539 69.7159 138.583 68.1204C138.409 67.9901 138.061 68.3086 138.25 68.4679C139.82 69.764 141.624 70.7471 143.564 71.364C145.365 71.8486 147.253 71.9081 149.081 71.5378C152.886 70.816 156.349 68.8681 158.942 65.9918C159.806 64.9742 160.536 63.8501 161.114 62.6468C161.21 63.6332 161.249 64.6244 161.23 65.6153C161.235 67.0524 161.05 68.4839 160.68 69.8725C160.254 71.2976 159.512 72.6082 158.509 73.7064C157.506 74.8046 156.268 75.6621 154.888 76.2149C154.395 76.4321 154.468 77.1417 155.061 76.91C156.531 76.3357 157.858 75.4472 158.948 74.3066C160.039 73.1661 160.867 71.801 161.375 70.3069C161.83 68.8377 162.078 67.3123 162.113 65.7746C162.215 64.1672 161.997 62.5454 161.896 60.9091Z" fill="#4F3F3F"/>
<path d="M40.8685 68.526C39.2761 68.9709 37.5984 69.016 35.9844 68.6574C34.3703 68.2987 32.8697 67.5473 31.6155 66.4698C29.1972 64.1278 27.5677 61.0914 26.9528 57.7816C26.9528 57.4196 26.3881 57.5933 26.2143 57.7816C25.2882 59.0003 24.8821 60.5361 25.0849 62.0533C25.1017 63.5375 25.2276 65.0185 25.4614 66.4843C25.8088 69.5525 27.128 72.4293 29.2263 74.6947C30.0575 75.0264 30.9214 75.2691 31.8038 75.4187C32.1223 75.4187 32.4554 75.5201 32.774 75.549C31.3666 74.9159 30.1224 73.9698 29.1361 72.7828C28.1499 71.5958 27.4478 70.1993 27.0832 68.6998C26.5938 67.0287 26.2832 65.3104 26.1564 63.5737C26.0554 62.6651 26.0119 61.751 26.0261 60.8369C26.042 60.273 26.1295 59.7134 26.2867 59.1717C26.9629 62.3348 28.6139 65.2063 31.0074 67.3821C32.3835 68.4561 33.9989 69.1816 35.7159 69.4968C37.4329 69.8119 39.2006 69.7074 40.8685 69.1921C41.2016 69.0907 41.3753 68.3957 40.8685 68.526Z" fill="#4F3F3F"/>
<path d="M37.1323 54.8123C37.1323 54.6241 37.1323 54.4214 37.1323 54.2331C36.8267 53.3565 36.6558 52.4386 36.6255 51.5108C36.6551 49.5773 36.5778 47.6436 36.3938 45.7186C36.3938 45.5449 36.1331 45.4869 35.9883 45.5159C33.5846 46.1386 32.9185 49.3822 32.4261 51.4384C32.1198 52.6294 31.9881 53.8586 32.0352 55.0874C32.5056 56.2539 33.1936 57.3203 34.0624 58.2297C33.0931 56.3068 32.7974 54.1141 33.2226 52.0031C33.4127 50.9272 33.6838 49.8671 34.0335 48.8319C34.2369 47.8925 34.7462 47.0472 35.4815 46.4282C35.6842 48.4265 35.4815 50.4392 35.6987 52.4375C35.8456 54.0868 36.5095 55.6477 37.5956 56.8975C37.3739 56.2191 37.2188 55.5208 37.1323 54.8123Z" fill="#4F3F3F"/>
</g>
</svg>
