<svg width="183" height="175" viewBox="0 0 183 175" fill="none" xmlns="http://www.w3.org/2000/svg">
<g opacity="0.7">
<path d="M149.219 134.807C152.963 136.055 156.962 132.892 159.246 130.226C161.984 126.765 163.896 122.724 164.834 118.412C166.107 113.649 166.354 108.67 165.557 103.804C164.898 99.706 163.105 95.8741 160.38 92.7421C159.19 91.403 157.668 90.4015 155.968 89.8387C154.267 89.276 152.448 89.1719 150.694 89.5369C149.387 89.8251 148.168 90.4206 147.137 91.2739C146.106 92.1273 145.293 93.2139 144.766 94.4439C143.651 97.1939 143.11 100.143 143.177 103.109C143.177 104.669 143.177 106.23 143.333 107.79C143.095 108.637 142.948 109.507 142.894 110.385C142.738 112.682 142.78 115.023 142.894 117.32C142.921 119.966 143.178 122.604 143.659 125.206C144.241 128.68 145.347 133.516 149.219 134.807Z" fill="#A05627"/>
<path d="M144.056 120.894C143.872 118.569 143.9 116.243 143.9 113.917C143.9 113.236 143.9 112.498 143.9 111.832C144.014 111.832 144.113 111.832 144.113 111.69C144.113 111.137 144.113 110.584 144.042 110.017V109.761C144.105 109.051 144.233 108.349 144.425 107.662C144.496 107.379 144.226 107.138 143.957 107.067C143.957 105.336 143.957 103.62 144.028 101.89C144.131 99.1963 144.823 96.5579 146.056 94.1606C146.691 93.0163 147.602 92.0493 148.707 91.3481C149.812 90.647 151.075 90.234 152.381 90.147C156.139 89.835 159.16 92.0049 161.174 95.0116C166.181 102.486 165.826 112.328 163.174 120.54C162.082 124.411 160.05 127.953 157.26 130.85C154.962 133.077 150.835 135.828 147.914 133.091C146.667 131.776 145.808 130.142 145.432 128.369C144.723 125.93 144.262 123.426 144.056 120.894Z" fill="#F6C3A4"/>
<g style="mix-blend-mode:multiply">
<path d="M144.056 120.894C143.872 118.568 143.9 116.242 143.9 113.916C143.9 113.235 143.9 112.498 143.9 111.831C144.014 111.831 144.113 111.831 144.113 111.689C144.113 111.136 144.113 110.583 144.042 110.016V109.76C144.105 109.05 144.233 108.348 144.425 107.661C144.496 107.378 144.226 107.137 143.957 107.066C143.957 105.335 143.957 103.619 144.028 101.889C144.131 99.1954 144.823 96.557 146.056 94.1597C146.811 92.7994 147.957 91.6975 149.346 90.9971C148.785 93.5767 148.65 96.231 148.949 98.8541C148.949 99.5065 149.984 99.3647 150.055 98.769C150.282 96.6558 151.899 93.1953 154.466 93.3655C156.281 93.479 157.501 95.1241 158.267 96.5991C159.8 99.6837 160.596 103.082 160.593 106.527C160.601 109.13 160.145 111.714 159.245 114.157C158.82 115.348 158.309 116.497 157.827 117.646C157.345 118.795 156.764 119.731 156.409 120.823C155.129 124.499 154.918 128.462 155.799 132.254C153.473 134.026 150.339 135.374 147.999 133.175C146.752 131.86 145.893 130.226 145.517 128.453C144.774 125.989 144.284 123.456 144.056 120.894Z" fill="#F6C3A4"/>
</g>
<path d="M150.112 114.881C149.786 111.468 149.828 108.031 150.24 104.627C150.435 103.002 150.738 101.391 151.147 99.8052C151.395 98.652 151.96 97.5909 152.778 96.7418C154.82 94.8272 157.033 96.912 158.139 98.7273C160.04 101.748 160.281 105.407 160.323 108.882C160.323 109.137 159.855 109.01 159.841 108.768C159.893 105.848 159.332 102.95 158.196 100.259C157.657 98.9 156.711 97.7409 155.487 96.9404C154.48 96.4724 153.658 97.2807 153.161 98.0891C152.568 99.1973 152.179 100.403 152.012 101.649C151.729 103.067 151.516 104.585 151.374 106.06C151.098 109.039 151.041 112.035 151.204 115.023C151.204 115.448 151.204 115.86 151.303 116.285H151.403C151.706 116.194 152 116.075 152.282 115.931C152.893 115.618 153.465 115.232 153.984 114.782C155.033 113.942 155.865 112.862 156.409 111.633C156.508 111.406 156.962 111.633 156.877 111.832C156.371 113.143 155.615 114.342 154.65 115.363C154.16 115.876 153.602 116.32 152.991 116.682C152.519 117.031 151.959 117.242 151.374 117.292C151.629 119.902 152.055 122.469 152.339 125.064C152.339 125.362 151.842 125.206 151.785 125.064C150.901 121.732 150.341 118.321 150.112 114.881Z" fill="#A05627"/>
<path d="M41.5178 136.438C41.7376 133.8 41.7376 131.148 41.5178 128.51C41.3618 126.212 41.1916 123.886 40.837 121.617C40.7088 120.745 40.4853 119.889 40.1704 119.064C40.1704 117.504 40.0854 115.944 39.9152 114.384C39.7207 111.418 38.9245 108.523 37.5751 105.875C36.9344 104.702 36.0266 103.697 34.9253 102.941C33.8239 102.184 32.5599 101.698 31.2355 101.521C29.4553 101.308 27.6506 101.57 26.0043 102.28C24.358 102.99 22.9286 104.123 21.861 105.563C19.419 108.929 17.974 112.915 17.6914 117.065C17.3585 121.994 18.0889 126.937 19.8329 131.559C21.1345 135.796 23.3906 139.677 26.4277 142.905C28.938 145.344 33.1927 148.153 36.8092 146.578C40.4257 145.004 41.1065 139.983 41.5178 136.438Z" fill="#A05627"/>
<path d="M40.0139 139.728C39.786 141.524 39.0753 143.225 37.9575 144.649C35.277 147.628 30.8663 145.259 28.4411 143.231C25.4026 140.592 23.068 137.239 21.6477 133.474C18.2865 125.489 17.0527 115.731 21.3783 107.846C23.1369 104.669 25.945 102.244 29.7175 102.173C31.0253 102.15 32.3182 102.453 33.4796 103.054C34.6409 103.656 35.634 104.538 36.3691 105.619C37.8053 107.93 38.7066 110.532 39.007 113.235C39.2623 114.937 39.4183 116.653 39.5459 118.384C39.2764 118.483 39.0212 118.752 39.1204 119.022C39.3671 119.7 39.5569 120.397 39.6877 121.107C39.6946 121.187 39.6946 121.268 39.6877 121.348L39.7728 123.021C39.7728 123.149 39.8863 123.163 39.9998 123.135C40.0707 123.83 40.1416 124.553 40.1983 125.22C40.3969 127.545 40.6379 129.843 40.6521 132.183C40.6892 134.713 40.4754 137.24 40.0139 139.728Z" fill="#F6C3A4"/>
<g style="mix-blend-mode:multiply">
<path d="M40.6669 132.212C40.6669 129.871 40.4116 127.574 40.213 125.248C40.213 124.553 40.0854 123.83 40.0145 123.163C39.901 123.163 39.7876 123.163 39.7876 123.05L39.7025 121.376C39.7093 121.296 39.7093 121.215 39.7025 121.135C39.5701 120.435 39.3803 119.747 39.1352 119.079C39.0359 118.809 39.2912 118.54 39.5607 118.44C39.433 116.71 39.277 114.994 39.0217 113.292C38.7214 110.589 37.8201 107.986 36.3838 105.676C35.5043 104.399 34.2654 103.412 32.824 102.84C33.6167 105.357 33.9857 107.988 33.9161 110.626C33.9161 111.293 32.9233 111.236 32.8098 110.626C32.3844 108.541 30.4839 105.237 27.9311 105.62C26.1441 105.903 25.0946 107.648 24.4422 109.179C23.1959 112.371 22.7104 115.809 23.024 119.221C23.2364 121.813 23.9188 124.346 25.0379 126.695C25.5626 127.843 26.1725 128.964 26.7965 130.056C27.4205 131.148 28.0304 132.041 28.5268 133.091C30.1312 136.643 30.6872 140.579 30.1294 144.437C32.6113 145.997 35.8023 147.06 38.0006 144.664C39.1184 143.239 39.8291 141.539 40.057 139.742C40.5081 137.258 40.7124 134.736 40.6669 132.212Z" fill="#F6C3A4"/>
</g>
<path d="M34.1002 126.779C34.1318 123.348 33.7846 119.923 33.0649 116.568C32.7384 114.969 32.2976 113.395 31.7459 111.86C31.3985 110.727 30.7401 109.715 29.8455 108.938C27.6472 107.222 25.6617 109.491 24.6973 111.391C23.0663 114.568 23.1372 118.227 23.3925 121.702C23.3925 121.957 23.8889 121.787 23.8747 121.546C23.5649 118.632 23.8692 115.684 24.7682 112.895C25.1754 111.487 26.0197 110.245 27.1792 109.349C28.1294 108.796 29.0229 109.534 29.576 110.299C30.2507 111.349 30.731 112.512 30.9943 113.732C31.3914 115.15 31.7459 116.568 32.0154 118.071C32.5428 121.019 32.865 124 32.9798 126.992C32.9798 127.403 32.9798 127.829 32.9798 128.254H32.8663C32.5541 128.194 32.2497 128.099 31.9587 127.971C31.3221 127.71 30.7177 127.377 30.1575 126.978C29.0461 126.225 28.1238 125.225 27.4629 124.056C27.3494 123.844 26.9097 124.056 27.0232 124.297C27.6397 125.558 28.4974 126.686 29.5477 127.616C30.0826 128.08 30.6734 128.476 31.3063 128.793C31.8151 129.088 32.392 129.244 32.9798 129.247C32.9798 131.871 32.7671 134.466 32.6962 137.076C32.6962 137.374 33.2209 137.175 33.2493 136.962C33.8607 133.603 34.1456 130.193 34.1002 126.779Z" fill="#A05627"/>
<path d="M148.779 99.1523C149.508 92.9713 149.508 86.726 148.779 80.545C148.779 80.545 148.538 93.9474 145.077 88.9836C141.425 83.9589 136.733 79.7796 131.321 76.73C131.321 76.73 138.724 82.8568 136.412 83.0837C125.804 84.1474 108.203 73.0284 108.203 73.0284C108.203 73.0284 116.174 80.9989 114.784 80.7719C99.6797 78.2475 96.985 71.752 96.985 71.752C96.985 74.8721 94.4464 84.9274 93.3969 83.0979C91.0426 78.9141 91.4397 71.752 91.4397 71.752C80.4484 84.5161 64.7343 83.6652 66.6915 82.9702C73.4848 80.5734 78.0374 72.8015 78.0374 72.8015C62.3233 86.3173 48.9068 85.9769 50.637 85.055C55.4488 82.2416 59.4352 78.2111 62.1957 73.3687C50.637 85.9769 34.6818 90.1323 34.6818 90.1323C38.1565 99.9607 33.2636 111.987 33.1785 118.696C33.1785 118.696 28.5267 145.94 60.8625 166.632C88.7167 184.459 146.666 172.192 150.013 125.39C149.999 110.909 147.616 110.597 148.779 99.1523Z" fill="#F6C3A4"/>
<path d="M90.6029 175C79.4556 175 68.7053 172.376 60.5363 167.157C43.7018 156.378 37.0077 143.785 34.3556 135.119C32.5672 129.807 31.9668 124.166 32.597 118.597C32.7632 115.961 33.1426 113.343 33.7316 110.768C34.9371 104.57 36.4263 96.8692 34.1145 90.3169C34.0585 90.1757 34.0585 90.0185 34.1145 89.8773C34.1502 89.8076 34.2002 89.7463 34.2614 89.6974C34.3225 89.6485 34.3933 89.6131 34.4691 89.5936C34.6251 89.5936 50.3959 85.3389 61.7134 73.0002C61.8015 72.8982 61.9246 72.8328 62.0585 72.817C62.1924 72.8013 62.3274 72.8363 62.4367 72.9152C62.5473 72.9951 62.6255 73.1122 62.6567 73.2451C62.688 73.3779 62.6703 73.5176 62.6069 73.6385C60.0275 78.1697 56.3994 82.0166 52.0269 84.8567C55.5583 84.644 65.7412 82.5734 77.5551 72.3762C77.6533 72.2904 77.7793 72.2432 77.9097 72.2432C78.0401 72.2432 78.1661 72.2904 78.2643 72.3762C78.3667 72.4597 78.436 72.5771 78.4594 72.7071C78.4828 72.8372 78.4588 72.9714 78.3919 73.0853C78.2217 73.3832 74.4776 79.7227 68.6202 82.701C77.2435 81.9728 85.2399 77.9007 90.9008 71.3551C90.9765 71.2643 91.0793 71.2002 91.1942 71.1721C91.309 71.144 91.4299 71.1535 91.539 71.1991C91.6444 71.2428 91.7337 71.3181 91.7946 71.4146C91.8555 71.5111 91.8851 71.624 91.8793 71.738C91.8793 71.8089 91.539 78.4888 93.6379 82.5308C95.1458 79.1135 96.0848 75.4726 96.4177 71.7522C96.4155 71.6249 96.4585 71.501 96.539 71.4023C96.6194 71.3037 96.7322 71.2367 96.8574 71.2133C96.9831 71.1867 97.1141 71.2047 97.228 71.2642C97.3418 71.3238 97.4314 71.4211 97.4814 71.5395C97.4814 71.5395 100.204 77.5386 113.947 80.0489C112.912 78.7016 110.274 75.8934 107.792 73.4115C107.677 73.3194 107.604 73.1854 107.588 73.0391C107.572 72.8929 107.615 72.7462 107.707 72.6315C107.799 72.5168 107.933 72.4434 108.079 72.4274C108.226 72.4114 108.372 72.4542 108.487 72.5464C108.657 72.6457 125.945 83.481 136.256 82.4741C134.759 80.4294 132.972 78.6139 130.952 77.0848C130.847 76.9964 130.778 76.8729 130.757 76.7373C130.736 76.6017 130.765 76.4632 130.838 76.3473C130.912 76.2291 131.028 76.144 131.163 76.1096C131.298 76.0752 131.441 76.0943 131.562 76.1629C137.062 79.2392 141.825 83.4791 145.517 88.5867C146.042 89.3384 146.382 89.4802 146.51 89.4518C147.432 89.1681 148.141 84.5731 148.212 80.4602C148.212 80.322 148.264 80.1891 148.359 80.0888C148.454 79.9885 148.584 79.9285 148.722 79.9213C148.86 79.9084 148.998 79.948 149.109 80.032C149.219 80.1161 149.294 80.2385 149.318 80.3751C150.039 86.6087 150.039 92.9047 149.318 99.1384C148.805 103.342 148.9 107.598 149.602 111.775C150.265 116.258 150.578 120.787 150.538 125.319C149.205 144.011 138.965 159.059 121.691 167.739C112.022 172.511 101.385 174.995 90.6029 175ZM35.4335 90.5155C37.575 97.2096 36.0859 104.825 34.8945 110.981C34.3154 113.518 33.9408 116.098 33.7741 118.696C33.7741 119.05 29.5194 145.926 61.1887 166.15C76.7893 176.163 102.076 176.432 121.251 166.802C138.156 158.293 148.198 143.6 149.488 125.347C149.528 120.881 149.215 116.419 148.552 112.002C147.843 107.735 147.748 103.389 148.268 99.0958C148.674 95.1194 148.835 91.122 148.751 87.1259C148.382 88.8703 147.8 90.3027 146.893 90.5864C145.985 90.87 145.475 90.3737 144.666 89.2958C142.352 86.0746 139.581 83.208 136.44 80.7864C137.164 81.6941 137.575 82.4741 137.419 82.9846C137.356 83.1753 137.234 83.3412 137.071 83.4584C136.908 83.5756 136.712 83.6382 136.511 83.637C128.683 84.4171 117.323 78.8292 111.564 75.624C115.89 80.1765 115.649 80.6587 115.479 80.9849C115.409 81.1134 115.299 81.2158 115.166 81.2771C115.034 81.3385 114.885 81.3553 114.741 81.3253C103.693 79.4816 99.1407 75.5389 97.4388 73.4115C96.9566 76.9004 95.3966 83.4668 93.9358 83.8356C93.7419 83.8886 93.5354 83.8689 93.3551 83.7801C93.1748 83.6912 93.0332 83.5394 92.9572 83.3534C91.1986 80.2191 90.9149 75.5956 90.9008 73.2272C81.1575 83.5519 68.0813 84.3036 66.4787 83.6938C66.345 83.6568 66.227 83.5773 66.1426 83.4672C66.0581 83.3572 66.0118 83.2226 66.0107 83.0839C66.0143 82.9321 66.0698 82.786 66.1678 82.6699C66.2658 82.5539 66.4005 82.4748 66.5496 82.4457C69.9392 81.039 72.902 78.7704 75.1441 75.8651C62.38 85.5658 51.8425 86.4593 50.3959 85.7928C50.2711 85.7432 50.1625 85.66 50.0824 85.5523C50.0022 85.4446 49.9536 85.3167 49.942 85.1829C49.9466 85.0402 49.9916 84.9017 50.072 84.7836C50.1524 84.6656 50.2647 84.5728 50.3959 84.5163C53.4439 82.809 56.1469 80.5485 58.3664 77.8506C51.6313 83.5421 43.8376 87.8462 35.4335 90.5155Z" fill="#B37E62"/>
<path d="M75.1442 124.837C74.5826 125.191 74.1075 125.667 73.7541 126.229C73.4007 126.791 73.1778 127.425 73.1019 128.085C73.059 128.557 73.059 129.031 73.1019 129.503C73.6334 128.295 74.5513 127.297 75.7115 126.667C78.4735 125.386 81.5514 124.947 84.5613 125.404C83.3147 124.587 81.8987 124.063 80.4201 123.873C78.6031 123.597 76.7461 123.936 75.1442 124.837Z" fill="white"/>
<g style="mix-blend-mode:multiply">
<path d="M147.772 125.674C146.098 132.386 143.38 138.795 139.717 144.664C132.952 154.932 121.691 161.13 110.26 164.845C97.8076 168.901 84.1074 169.639 71.5985 165.427C59.7624 161.21 49.628 153.242 42.7374 142.735C38.3335 136.16 35.0284 128.913 32.9516 121.277C32.7246 128.567 34.5258 149.755 60.8483 166.661C88.7025 184.488 146.652 172.22 149.999 125.418C149.999 121.958 149.857 119.306 149.673 117.107C149.162 119.972 148.552 122.837 147.772 125.674Z" fill="#F6C3A4"/>
</g>
<g style="mix-blend-mode:multiply" opacity="0.9">
<path d="M91.0423 137.53C89.0617 138.558 86.8834 139.15 84.6546 139.265C82.4257 139.38 80.1981 139.016 78.1221 138.196C76.5709 137.59 75.1326 136.727 73.8674 135.643C74.2645 136.452 74.7042 137.232 75.158 137.998C76.8461 140.991 79.1348 143.603 81.8805 145.67C83.086 146.552 84.4554 147.183 85.9083 147.528C87.5696 147.844 89.2828 147.752 90.9005 147.259C92.263 146.871 93.5018 146.137 94.496 145.128C95.4902 144.118 96.206 142.869 96.5734 141.501C97.247 138.776 97.119 135.914 96.2047 133.261C94.7691 134.997 93.0174 136.446 91.0423 137.53Z" fill="#F6C3A4"/>
</g>
<g style="mix-blend-mode:multiply" opacity="0.9">
<path d="M121.222 146.337C119.686 145.75 118.004 145.661 116.415 146.082C114.593 146.599 112.911 147.52 111.493 148.776C109.899 150.225 107.936 151.206 105.82 151.613C103.367 151.684 100.916 151.426 98.5307 150.847C97.4066 150.648 96.2538 150.677 95.1411 150.932C93.89 151.361 92.7476 152.058 91.7941 152.974C90.2053 154.371 88.3328 155.406 86.3055 156.009C84.1857 156.402 82.0171 156.454 79.8809 156.165C78.4639 156.079 77.0431 156.079 75.6262 156.165C74.2077 156.09 72.7981 156.43 71.57 157.144C71.3602 157.309 71.201 157.529 71.1107 157.78C71.0204 158.031 71.0026 158.302 71.0594 158.562C71.1286 158.51 71.211 158.477 71.2975 158.469C71.384 158.46 71.4712 158.476 71.5492 158.514C71.6273 158.553 71.6931 158.612 71.7393 158.685C71.7856 158.759 71.8104 158.844 71.8111 158.931C71.8138 159.11 71.8574 159.286 71.9385 159.446C72.0196 159.606 72.1361 159.745 72.2791 159.853C73.4057 160.65 74.7207 161.138 76.0942 161.271C77.889 161.578 79.7052 161.744 81.526 161.767C83.282 161.812 85.0391 161.751 86.7877 161.583C87.9503 161.537 89.0924 161.262 90.1489 160.775C92.2054 159.711 93.8647 157.938 96.0913 157.243C98.7576 156.35 101.552 157.484 104.147 158.151C106.825 158.985 109.689 159.02 112.387 158.25C114.795 157.722 117.087 156.761 119.152 155.414C120.114 154.817 120.945 154.032 121.596 153.106C122.247 152.18 122.703 151.132 122.939 150.024C123.141 149.306 123.079 148.539 122.764 147.863C122.449 147.186 121.902 146.645 121.222 146.337Z" fill="#F6C3A4"/>
</g>
<g style="mix-blend-mode:multiply" opacity="0.9">
<path d="M124.428 136.92C123.342 137.041 122.302 137.42 121.393 138.026C122.822 137.424 124.417 137.338 125.903 137.785C127.586 138.397 128.989 139.602 129.846 141.175C129.859 140.436 129.688 139.705 129.349 139.047C128.834 138.243 128.091 137.61 127.214 137.231C126.337 136.852 125.367 136.744 124.428 136.92Z" fill="#F6C3A4"/>
</g>
<g style="mix-blend-mode:multiply" opacity="0.9">
<path d="M35.8731 99.9045C38.3463 99.0365 40.6711 97.7928 42.7657 96.2171C43.2479 95.8625 43.8152 96.5433 43.5457 96.9971C42.3828 99.011 41.1064 100.94 39.8158 102.869C43.8436 102.869 47.687 101.323 51.4595 100.032C55.7285 98.5908 59.9182 96.9244 64.0109 95.0399C64.1301 94.9597 64.2754 94.9276 64.4173 94.9503C64.5593 94.9731 64.6873 95.0488 64.7755 95.1622C64.8638 95.2757 64.9057 95.4184 64.8927 95.5616C64.8798 95.7047 64.813 95.8376 64.7059 95.9334C63.0323 97.8055 61.217 99.5216 59.5009 101.351C62.3374 101.479 65.5426 100.287 68.1947 99.5925C70.8468 98.8975 73.8677 98.0608 76.6049 97.1956C82.246 95.6424 87.6512 93.3334 92.6735 90.3314C92.78 90.2669 92.9051 90.2402 93.0287 90.2556C93.1522 90.2711 93.2669 90.3277 93.3543 90.4165C97.0133 94.0188 102.105 95.593 106.771 97.5077C110.926 99.2381 115.259 100.508 119.691 101.294C119.078 99.3836 118.315 97.5246 117.408 95.7349C117.359 95.6472 117.333 95.5483 117.334 95.4479C117.334 95.3474 117.361 95.2489 117.411 95.1617C117.461 95.0746 117.532 95.0019 117.619 94.9507C117.705 94.8996 117.804 94.8717 117.904 94.8697C121.988 94.8697 125.931 97.2666 129.463 99.1245C132.167 100.482 134.774 102.027 137.263 103.748C137.017 101.667 136.885 99.5745 136.866 97.4793C136.867 97.3918 136.889 97.3057 136.928 97.2276C136.968 97.1495 137.024 97.0813 137.094 97.0282C137.163 96.975 137.244 96.9382 137.33 96.9206C137.416 96.9029 137.504 96.9048 137.589 96.9262C143.12 99.2095 146.311 104.883 148.439 110.485C148.287 106.699 148.4 102.908 148.779 99.1386C149.508 92.9576 149.508 86.7124 148.779 80.5314C148.779 80.5314 148.538 93.9337 145.077 88.9699C141.425 83.9452 136.733 79.7659 131.32 76.7163C131.32 76.7163 138.724 82.8431 136.412 83.07C125.804 84.1337 108.203 73.0147 108.203 73.0147C108.203 73.0147 116.174 80.9852 114.784 80.7583C99.6796 78.2338 96.9849 71.7383 96.9849 71.7383C96.9849 74.8584 94.4463 84.9137 93.3968 83.0842C91.0425 78.9004 91.4396 71.7383 91.4396 71.7383C80.4483 84.5024 64.7342 83.6515 66.6914 82.9565C73.4847 80.5597 78.0373 72.7878 78.0373 72.7878C62.3232 86.3036 48.9067 85.9632 50.6369 85.0414C55.4487 82.2279 59.4351 78.1974 62.1956 73.3551C50.6369 85.9632 34.6818 90.1186 34.6818 90.1186C35.7109 93.2722 36.1155 96.5961 35.8731 99.9045Z" fill="#F6C3A4"/>
</g>
<path d="M99.5234 93.0111C97.8073 96.0887 97.623 98.2869 100.459 95.5639C103.296 92.8409 112.883 83.6649 119.35 93.0111C121.095 95.5072 120.371 85.7355 111.607 84.5017C106.586 83.8351 101.325 89.8059 99.5234 93.0111Z" fill="#C17C3E"/>
<path d="M99.0835 92.9123C98.5729 93.8768 96.6583 96.926 98.8282 96.9827C99.6791 96.9827 100.573 95.9757 101.097 95.4652C102.062 94.5433 103.069 93.6498 104.132 92.7989C107.65 89.9624 112.472 87.5656 116.641 90.5581C117.677 91.3098 118.244 92.9124 119.336 93.3946C119.482 93.4812 119.646 93.5338 119.816 93.5485C119.985 93.5632 120.155 93.5397 120.315 93.4797C121.208 92.9833 120.045 90.473 119.79 89.9482C118.733 87.7284 116.88 85.987 114.599 85.0695C108.061 82.5309 102.289 87.367 99.0835 92.8556C98.9417 93.1109 99.8351 93.2669 99.9628 93.04C101.452 90.5275 103.423 88.3343 105.763 86.587C107.291 85.3782 109.191 84.7371 111.139 84.7733C113.086 84.8095 114.961 85.5208 116.443 86.7856C117.896 88.0021 118.948 89.6281 119.464 91.4516C119.644 91.9654 119.693 92.5165 119.605 93.0542C119.605 93.2953 120.144 93.4087 119.804 92.9549C119.363 92.3576 118.889 91.7848 118.386 91.2388C115.549 88.1471 111.295 88.218 107.65 89.8206C105.656 90.7738 103.808 92.0059 102.161 93.4797C101.48 94.0611 100.842 94.6568 100.204 95.2666C99.9344 95.5219 98.6155 96.8834 98.7856 95.8197C99.0242 94.851 99.4169 93.9268 99.9486 93.0826C100.105 92.8415 99.2537 92.7422 99.0835 92.9123Z" fill="#824D14"/>
<g style="mix-blend-mode:multiply" opacity="0.6">
<path d="M119.28 89.9058C119.053 90.388 118.613 90.4305 118.032 89.6505C117.225 88.575 116.156 87.7238 114.927 87.1777C113.699 86.6316 112.351 86.4087 111.011 86.5304C107.451 87.0107 104.216 88.8568 101.991 91.6786C100.673 93.2386 99.6514 93.8627 99.155 93.7492C97.8077 96.4297 97.8644 98.0748 100.474 95.5787C103.31 92.8699 112.898 83.6797 119.365 93.0259C120.258 94.3165 120.528 92.2884 119.28 89.9058Z" fill="#C17C3E"/>
</g>
<g style="mix-blend-mode:multiply" opacity="0.9">
<path d="M47.2755 124.936C47.2755 124.936 57.2032 124.156 64.4362 133.914C64.3381 132.535 63.767 131.233 62.8194 130.226C62.8194 130.226 70.1091 129.659 71.4139 118.739C72.7187 107.818 67.7407 99.9613 60.692 100.302C53.6434 100.642 46.2118 111.18 51.0338 124.015C49.7375 124.104 48.4663 124.416 47.2755 124.936Z" fill="#F6C3A4"/>
</g>
<g style="mix-blend-mode:multiply" opacity="0.9">
<path d="M114.6 130.141C114.6 130.141 115.082 118.214 126.64 115.874C125.869 115.636 125.043 115.636 124.272 115.874C124.816 112.577 124.482 109.195 123.305 106.069C122.127 102.942 120.147 100.18 117.564 98.0608C108.629 90.9697 99.1266 100.699 100.843 111.562C102.559 122.426 110.912 125.334 114.6 125.277C114.082 126.857 114.082 128.561 114.6 130.141Z" fill="#F6C3A4"/>
</g>
<path d="M102.899 113.547C104.317 121.078 110.94 125.29 116.67 123.631C122.399 121.972 124.257 115.419 122.343 108.286C120.428 101.152 115.181 95.9611 110.146 96.8687C105.111 97.7764 101.438 106.016 102.899 113.547Z" fill="#FFFAF7"/>
<path d="M102.672 113.547C103.863 119.078 108.501 124.539 114.67 124.071C122.172 123.503 124.073 116.1 122.853 109.718C121.733 103.917 117.308 96.3014 110.5 96.6985C107.664 96.8687 105.664 99.2797 104.388 101.535C102.477 105.22 101.872 109.445 102.672 113.519C102.672 113.675 103.14 113.689 103.126 113.59C102.204 108.257 103.282 101.776 107.65 98.1593C110.784 95.5498 114.741 97.3509 117.336 99.8045C119.614 102.189 121.24 105.12 122.059 108.314C123.619 113.561 123.109 120.525 117.577 123.191C110.727 126.482 104.445 119.731 103.111 113.59C103.083 113.434 102.643 113.405 102.672 113.547Z" fill="#A05627"/>
<g style="mix-blend-mode:multiply">
<path d="M116.67 123.631C122.428 121.972 124.257 115.419 122.343 108.286C120.428 101.152 115.181 95.9611 110.146 96.8687C105.111 97.7764 101.509 106.016 102.97 113.547C104.43 121.078 110.94 125.361 116.67 123.631ZM104.416 112.044C103.296 105.336 105.991 98.1735 110.33 97.4502C114.67 96.7269 119.279 101.279 121.01 107.647C122.74 114.015 121.648 119.617 116.599 121.092C111.55 122.567 105.537 118.752 104.416 112.044Z" fill="#E8E1D9"/>
</g>
<path d="M106.019 111.931C106.827 117.76 109.848 122 114.004 121.858C118.159 121.717 121.095 117.121 120.187 111.307C119.279 105.492 114.954 100.542 111.252 100.939C107.551 101.336 105.225 106.13 106.019 111.931Z" fill="#785135"/>
<g style="mix-blend-mode:multiply" opacity="0.3">
<g style="mix-blend-mode:multiply" opacity="0.3">
<path d="M114.004 121.802C118.159 121.603 121.095 117.065 120.187 111.25C119.279 105.435 114.954 100.486 111.252 100.883C107.551 101.28 105.225 106.13 106.019 111.931C106.813 117.731 109.848 122 114.004 121.802ZM107.607 106.726C108.77 104.981 109.025 105.974 108.728 107.463C108.43 108.952 107.38 113.845 109.933 116.653C111.139 117.987 112.685 118.412 112.77 118.894C112.855 119.377 109.749 119.958 108.047 116.965C106.147 113.519 106.416 108.499 107.607 106.726Z" fill="#533825"/>
</g>
</g>
<g style="mix-blend-mode:multiply" opacity="0.5">
<g style="mix-blend-mode:multiply" opacity="0.5">
<path d="M108.359 112.597C107.863 108.64 109.65 105.505 112.387 105.364C112.576 105.35 112.765 105.35 112.954 105.364C113.004 105.035 113.147 104.727 113.366 104.476C113.584 104.225 113.869 104.041 114.188 103.945C115.351 103.718 116.783 105.037 117.393 106.881C117.628 107.589 117.696 108.341 117.592 109.079C118.065 110.022 118.39 111.031 118.556 112.072C119.166 115.986 116.996 119.092 114.074 119.163C111.153 119.234 108.87 116.511 108.359 112.597Z" fill="#533825"/>
</g>
</g>
<g style="mix-blend-mode:multiply" opacity="0.5">
<g style="mix-blend-mode:multiply" opacity="0.5">
<path d="M114.004 121.802C118.159 121.603 121.095 117.065 120.187 111.25C119.279 105.435 114.954 100.486 111.252 100.883C107.551 101.28 105.225 106.13 106.019 111.931C106.813 117.731 109.848 122 114.004 121.802ZM106.345 111.278C105.622 105.917 107.863 101.478 111.281 101.138C114.698 100.798 118.599 105.308 119.535 110.669C120.471 116.03 117.648 120.227 113.748 120.412C109.848 120.596 107.125 116.625 106.345 111.278Z" fill="#533825"/>
</g>
</g>
<path d="M109.635 112.356C109.99 115.306 111.777 117.532 114.003 117.433C116.23 117.334 117.819 114.979 117.379 112.044C116.939 109.108 114.854 106.924 112.727 106.924C110.6 106.924 109.281 109.406 109.635 112.356Z" fill="black"/>
<g style="mix-blend-mode:multiply" opacity="0.5">
<g style="mix-blend-mode:multiply" opacity="0.5">
<path d="M111.521 108.343C113.025 110.896 115.904 112.314 117.592 111.392C119.279 110.47 119.18 107.577 117.592 105.137C116.003 102.698 113.436 100.883 111.919 101.918C110.401 102.953 110.061 105.733 111.521 108.343Z" fill="#533825"/>
</g>
</g>
<g style="mix-blend-mode:overlay" opacity="0.4">
<g style="mix-blend-mode:overlay" opacity="0.4">
<path d="M107.763 109.76C107.678 112.115 107.976 116.71 111.28 118.27C113.195 119.163 108.713 119.433 107.394 114.554C106.345 110.753 107.763 106.754 107.763 109.76Z" fill="white"/>
</g>
</g>
<g style="mix-blend-mode:overlay" opacity="0.4">
<g style="mix-blend-mode:overlay" opacity="0.4">
<path d="M108.033 107.151C108.515 107.222 108.373 108.569 107.664 108.385C107.182 108.342 107.338 107.052 108.033 107.151Z" fill="white"/>
</g>
</g>
<path d="M112.784 107.633C113.947 109.576 116.074 110.654 117.308 109.973C118.542 109.292 118.443 107.136 117.308 105.279C116.174 103.421 114.145 102.073 112.982 102.811C111.82 103.548 111.635 105.704 112.784 107.633Z" fill="white"/>
<path d="M125.194 116.299L124.527 116.582C124.329 116.682 124.073 116.795 123.804 116.951C123.534 117.107 123.223 117.306 122.896 117.504C122.57 117.703 122.23 117.944 121.889 118.228C121.549 118.511 121.194 118.809 120.84 119.121C120.485 119.433 120.145 119.802 119.79 120.156C119.436 120.511 119.095 120.894 118.798 121.305C118.5 121.717 118.159 122.099 117.89 122.539C117.62 122.979 117.308 123.347 117.082 123.773C116.855 124.198 116.585 124.596 116.372 124.978L115.777 126.085C115.394 126.765 115.153 127.375 114.94 127.787L114.6 128.439C114.6 128.439 114.6 128.17 114.77 127.73C114.94 127.29 114.897 127.233 114.968 126.921C115.044 126.562 115.153 126.211 115.295 125.872C115.422 125.503 115.578 125.092 115.748 124.666C115.919 124.241 116.145 123.816 116.372 123.376C116.606 122.916 116.866 122.471 117.152 122.043C117.442 121.592 117.755 121.157 118.088 120.738C118.415 120.312 118.798 119.93 119.138 119.532C119.478 119.135 119.918 118.809 120.315 118.497C120.69 118.195 121.083 117.915 121.492 117.66C121.863 117.431 122.247 117.223 122.641 117.036C123.229 116.769 123.842 116.56 124.471 116.412C124.709 116.357 124.95 116.319 125.194 116.299Z" fill="#A05627"/>
<path d="M122.584 119.249C123.052 119.589 122.74 120.582 121.861 121.475C120.982 122.369 119.847 122.78 119.351 122.426C118.854 122.071 119.223 121.107 120.102 120.213C120.982 119.32 122.102 118.894 122.584 119.249Z" fill="white"/>
<path d="M125.449 118.341C125.591 118.596 125.378 118.979 124.967 119.206C124.555 119.433 124.144 119.404 124.016 119.206C123.889 119.007 124.102 118.553 124.499 118.327C124.896 118.1 125.321 118.071 125.449 118.341Z" fill="white"/>
<path d="M50.4809 96.1882C50.0696 98.3156 50.1406 100.67 51.3744 98.0461C52.6083 95.4224 57.799 90.3877 65.0746 97.3087C70.861 102.797 70.2086 97.5781 66.9325 93.522C63.3018 89.0545 60.1108 87.4377 56.5226 88.3596C53.5159 89.1396 51.034 93.4227 50.4809 96.1882Z" fill="#C17C3E"/>
<path d="M50.0267 96.1035C49.9133 96.841 49.1758 99.7342 50.8635 99.3938C51.5584 99.252 51.9272 97.9756 52.2817 97.4224C52.8273 96.5863 53.5248 95.8599 54.3382 95.2809C58.5929 91.9906 62.6349 95.8624 65.9961 98.4578C66.5634 98.8974 68.6766 100.599 69.5842 99.6916C70.8181 98.4436 68.8042 95.5362 68.166 94.5151C66.5014 91.8625 64.095 89.7569 61.245 88.4592C55.7422 86.1616 51.3173 91.0687 50.1118 96.1035C50.1118 96.3588 50.9628 96.5431 51.0337 96.2737C51.5488 94.0886 52.6074 92.069 54.1113 90.4022C56.9477 87.2679 60.9046 88.2039 63.812 90.6007C65.8493 92.2734 67.4789 94.388 68.5773 96.7842C68.8886 97.4495 69.0439 98.1772 69.0311 98.9116C69.0311 100.33 65.2444 96.9828 64.9182 96.685C63.767 95.5239 62.3514 94.6593 60.7928 94.1653C59.2342 93.6713 57.579 93.5625 55.9692 93.8485C54.6992 94.1937 53.5409 94.8633 52.6079 95.7915C51.7003 96.6282 51.1897 98.4436 50.2253 99.0818H50.9061C50.4664 98.8832 50.977 96.5857 51.0337 96.2453C51.0904 95.9049 50.0693 95.8482 50.0267 96.1035Z" fill="#824D14"/>
<path d="M70.5345 117.363C70.0381 125.035 64.1099 130.028 58.3235 129.077C52.5371 128.127 49.9275 121.873 51.0054 114.54C52.0832 107.208 56.5081 101.393 61.5145 101.677C66.5209 101.961 71.0451 109.761 70.5345 117.363Z" fill="#FFFAF7"/>
<path d="M70.3076 117.349C69.797 123.022 66.0529 128.695 59.8977 129.106C52.8065 129.489 50.6933 121.533 51.0763 115.959C51.445 110.641 54.0687 103.734 59.5857 101.975C63.4858 100.755 66.4925 104.386 68.0951 107.364C69.6852 110.421 70.4156 113.853 70.2083 117.292C70.2083 117.434 70.6621 117.462 70.6621 117.292C70.9174 111.506 68.3788 102.23 61.4294 101.493C54.48 100.755 51.0479 110.456 50.5232 115.817C49.9275 121.689 52.2534 128.298 58.7489 129.149C65.5565 130.042 70.0948 123.277 70.6621 117.292C70.7756 117.264 70.3217 117.221 70.3076 117.349Z" fill="#A05627"/>
<g style="mix-blend-mode:multiply">
<path d="M70.5345 117.363C71.0451 109.704 66.5209 101.961 61.5145 101.677C56.5081 101.393 52.0974 107.208 51.0054 114.54C49.9133 121.873 52.5229 128.141 58.3235 129.077C64.1241 130.013 70.0381 125.035 70.5345 117.363ZM58.1249 126.553C53.0193 125.716 51.2607 120.284 52.1825 113.789C53.1044 107.293 57.0613 102.159 61.3727 102.329C65.6841 102.5 69.1872 109.307 68.9036 116.1C68.6199 122.894 63.188 127.375 58.1249 126.553Z" fill="#E8E1D9"/>
</g>
<path d="M54.0546 115.547C53.1044 121.348 54.6928 126.312 58.6497 127.361C62.6066 128.411 66.7195 124.95 67.5279 119.121C68.3363 113.292 65.7693 107.265 62.1953 106.542C58.6213 105.818 55.0048 109.761 54.0546 115.547Z" fill="#785135"/>
<g style="mix-blend-mode:multiply" opacity="0.3">
<g style="mix-blend-mode:multiply" opacity="0.3">
<path d="M58.6497 127.361C62.6066 128.411 66.7195 124.95 67.5279 119.122C68.3363 113.293 65.7693 107.265 62.1953 106.542C58.6213 105.818 55.0048 109.747 54.0546 115.548C53.1044 121.348 54.6928 126.312 58.6497 127.361ZM57.0613 111.038C58.6781 109.719 58.6497 110.754 57.898 112.073C57.1464 113.392 54.7779 117.746 56.3522 121.221C57.0896 122.851 58.4086 123.717 58.3944 124.213C58.3802 124.709 55.2601 124.341 54.5368 120.965C53.7001 117.093 55.4303 112.371 57.0613 111.038Z" fill="#533825"/>
</g>
</g>
<g style="mix-blend-mode:multiply" opacity="0.5">
<g style="mix-blend-mode:multiply" opacity="0.5">
<path d="M56.0686 116.852C56.7493 112.938 59.3589 110.414 61.9542 111.179C62.1326 111.23 62.3079 111.292 62.479 111.364C62.6302 111.084 62.8532 110.85 63.1249 110.686C63.3966 110.521 63.7073 110.432 64.0249 110.428C65.1878 110.57 66.1522 112.271 66.1806 114.2C66.1944 114.95 66.0342 115.693 65.7126 116.37C65.8692 117.409 65.8692 118.466 65.7126 119.504C65.1453 123.433 62.1953 125.745 59.4156 125.007C56.6358 124.27 55.3878 120.767 56.0686 116.852Z" fill="#533825"/>
</g>
</g>
<g style="mix-blend-mode:multiply" opacity="0.5">
<g style="mix-blend-mode:multiply" opacity="0.5">
<path d="M58.6497 127.361C62.6066 128.411 66.7195 124.95 67.5279 119.122C68.3363 113.293 65.7693 107.265 62.1953 106.542C58.6213 105.818 55.0048 109.747 54.0546 115.548C53.1044 121.348 54.6928 126.312 58.6497 127.361ZM54.5935 115.023C55.4728 109.69 58.8483 106.116 62.1811 106.811C65.514 107.506 67.8541 112.966 67.1308 118.37C66.4075 123.773 62.5782 126.95 58.8624 125.957C55.1467 124.965 53.7142 120.355 54.5935 115.023Z" fill="#533825"/>
</g>
</g>
<path d="M57.3164 117.037C56.7917 119.959 57.8128 122.597 59.926 123.164C62.0392 123.731 64.1807 121.973 64.6771 119.037C65.1735 116.101 63.7978 113.364 61.8406 112.768C59.8835 112.173 57.8412 114.101 57.3164 117.037Z" fill="black"/>
<g style="mix-blend-mode:multiply" opacity="0.5">
<g style="mix-blend-mode:multiply" opacity="0.5">
<path d="M60.2805 113.704C60.9329 116.54 63.2162 118.795 65.0883 118.412C66.9604 118.03 67.6837 115.25 66.9462 112.456C66.2087 109.662 64.2941 107.152 62.5213 107.676C60.7485 108.201 59.6423 110.825 60.2805 113.704Z" fill="#533825"/>
</g>
</g>
<g style="mix-blend-mode:overlay" opacity="0.4">
<g style="mix-blend-mode:overlay" opacity="0.4">
<path d="M56.281 114.016C55.5152 116.242 54.4515 120.724 57.0895 123.192C58.6212 124.61 54.3381 123.546 54.5366 118.483C54.6926 114.512 57.2454 111.179 56.281 114.016Z" fill="white"/>
</g>
</g>
<g style="mix-blend-mode:overlay" opacity="0.4">
<g style="mix-blend-mode:overlay" opacity="0.4">
<path d="M57.3307 111.562C57.7703 111.789 57.2598 112.98 56.6357 112.64C56.0117 112.299 56.7067 111.264 57.3307 111.562Z" fill="white"/>
</g>
</g>
<path d="M61.6562 113.449C62.181 115.647 63.8545 117.32 65.216 117.037C66.5775 116.753 67.1164 114.64 66.5491 112.527C65.9818 110.414 64.5211 108.527 63.2021 108.896C61.8831 109.265 61.1315 111.264 61.6562 113.449Z" fill="white"/>
<path d="M49.729 125.007C49.9611 124.938 50.1982 124.885 50.4381 124.851C51.0752 124.798 51.7156 124.798 52.3527 124.851C52.7817 124.893 53.2078 124.959 53.6292 125.05C54.1101 125.145 54.5839 125.273 55.0474 125.433C55.5296 125.589 56.0118 125.802 56.4656 126C56.9195 126.199 57.43 126.482 57.8839 126.766C58.3354 127.044 58.771 127.347 59.1886 127.674C59.5993 127.977 59.9923 128.304 60.3658 128.652C60.7345 128.993 61.0749 129.333 61.3869 129.659C61.6989 129.985 61.9684 130.326 62.2095 130.624C62.4515 130.893 62.6697 131.182 62.8619 131.489L63.3299 132.169C63.5852 132.552 63.7128 132.779 63.7128 132.779C63.7128 132.779 63.5143 132.609 63.1881 132.283C62.8619 131.957 62.4222 131.489 61.7699 130.992L60.848 130.156L59.7843 129.276C59.4297 128.95 59.0043 128.695 58.6072 128.397C58.2065 128.089 57.7847 127.809 57.3449 127.56C56.9195 127.276 56.4656 127.05 56.0402 126.808C55.6147 126.567 55.1467 126.355 54.707 126.199C54.2674 126.043 53.8419 125.844 53.4306 125.716C53.0193 125.589 52.6222 125.475 52.2393 125.376C51.8564 125.277 51.5302 125.206 51.2182 125.163C50.9061 125.121 50.6367 125.163 50.4098 125.064L49.729 125.007Z" fill="#A05627"/>
<path d="M53.6295 127.05C53.3458 127.475 53.9131 128.213 54.9201 128.695C55.927 129.177 56.9907 129.177 57.2885 128.695C57.5863 128.213 57.0049 127.546 55.9979 127.064C54.991 126.582 53.8706 126.61 53.6295 127.05Z" fill="white"/>
<path d="M51.0337 127.163C51.0337 127.418 51.289 127.673 51.7003 127.73C52.1116 127.787 52.4519 127.645 52.4803 127.404C52.5087 127.163 52.2108 126.879 51.8137 126.808C51.4166 126.737 51.0337 126.893 51.0337 127.163Z" fill="white"/>
<g style="mix-blend-mode:multiply" opacity="0.6">
<path d="M67.8259 94.7559C67.5565 95.5501 66.663 95.6636 64.4222 93.9901C58.5365 89.551 54.4945 91.6784 52.665 93.2242C51.9417 93.8341 51.4736 94.0468 51.2467 93.9617C50.9246 94.6765 50.6775 95.4226 50.5092 96.1883C50.098 98.3157 50.1689 100.67 51.4027 98.0463C52.6366 95.4225 57.8273 90.3878 65.1029 97.3088C70.2795 102.244 70.2795 98.5143 67.8259 94.7559Z" fill="#C17C3E"/>
</g>
<path d="M178.448 46.4935C177.661 45.2146 176.754 44.0132 175.739 42.9053L176.576 43.0613C177.749 43.5145 179.021 43.6515 180.263 43.4584C180.443 43.3882 180.601 43.273 180.722 43.124C180.844 42.9749 180.925 42.7971 180.958 42.6075C181.199 40.6645 178.746 38.0833 177.753 36.5516C175.982 33.8453 174.01 31.2758 171.853 28.8648C166.899 23.3289 160.929 18.7939 154.267 15.505C147.893 12.3394 140.959 10.4553 133.859 9.95967C130.398 9.64249 126.92 9.56193 123.449 9.71857L124.257 9.15127C126.118 8.0707 127.846 6.77601 129.405 5.29366C131.263 3.06702 125.534 2.45718 124.583 2.34372C116.188 1.71296 107.828 3.96422 100.885 8.72579C101.551 6.7828 102.303 4.82564 102.743 2.84011C102.884 2.2019 103.381 -0.563671 101.736 0.102901C99.1545 1.13821 97.4809 4.22999 96.1336 6.49917C95.694 7.20829 95.0274 8.27197 94.4175 9.40656C93.8994 8.51622 93.3063 7.67168 92.6447 6.8821C91.4392 5.46386 90.2479 4.04561 89.0992 2.49973C88.6453 1.91825 87.9504 0.953853 87.1845 0.7553C85.1565 0.21637 85.6245 3.83287 86.4045 6.99554C85.6967 6.50056 84.9355 6.08668 84.1353 5.76168C80.4003 4.55184 76.5854 3.60405 72.7185 2.9252C64.8473 1.08149 57.4441 1.98916 49.7147 4.11652C46.482 5.01481 43.3647 6.28556 40.4252 7.90321C39.2197 8.5556 36.1705 10.0306 36.1705 11.775C36.1705 13.9024 39.7019 13.6896 41.1627 13.7464H41.5031C36.4827 14.8443 31.6119 16.5394 26.9945 18.7953C22.0354 21.3211 17.4802 24.5714 13.4787 28.4393C11.6218 30.111 9.99123 32.0181 8.62835 34.1123C7.99015 35.1759 6.58607 37.0906 6.77044 38.367C6.77421 38.4394 6.80102 38.5087 6.84694 38.5648C6.89286 38.621 6.9555 38.661 7.02574 38.679C8.62835 38.9059 10.3444 37.899 11.7343 37.2607C12.0605 37.0906 12.4009 36.9487 12.7412 36.7927C11.1812 38.211 9.66367 39.7001 8.23125 41.2885C4.72123 45.1895 1.9958 49.7303 0.204016 54.6625C-0.873845 57.7259 2.60083 56.5062 4.04743 55.8396C6.23198 54.8186 8.34105 53.6432 10.3586 52.3224C5.35173 59.4256 2.65302 67.898 2.62919 76.5885C2.62919 77.6805 3.62196 88.7428 6.44425 86.3885C8.51488 84.6724 9.35165 81.453 10.5713 79.1271L13.2234 74.1207C11.1386 81.5523 9.47929 89.0406 13.0816 96.4722C14.3297 99.0817 16.6556 97.5217 17.7902 95.7489C19.7615 92.7138 22.0449 89.9199 23.9028 86.7998C24.3345 90.7794 25.1708 94.7046 26.3989 98.5144C28.5684 104.425 31.1856 110.162 34.2275 115.675C34.4686 116.157 35.1494 115.406 35.1636 115.094C35.3196 111.08 34.8374 107.066 35.1636 103.024C35.3196 101.209 35.5749 99.4221 35.8727 97.6209C36.0475 96.0782 36.3801 94.5574 36.8655 93.0826H36.9364C38.0111 93.3379 39.1379 93.2637 40.1699 92.8698C42.3824 92.3309 44.5665 91.7069 46.7364 91.012C48.4666 90.4447 50.3103 89.9057 52.069 89.1966L51.8562 89.3668C49.6012 91.097 47.0059 92.3877 44.765 94.1037C44.5807 94.2455 44.1694 94.8837 44.5098 95.0681C46.8357 96.3445 50.8635 95.2241 53.3454 94.8412C57.5133 94.2879 61.6081 93.2797 65.5564 91.8345C69.1837 90.4052 72.6036 88.4973 75.7252 86.1616C74.931 87.0409 74.1367 87.9202 73.3 88.7711C72.2043 89.7165 71.2237 90.7875 70.3784 91.9622C68.9602 94.6001 74.9451 93.2528 75.6968 93.1251C82.2633 91.9196 88.6453 89.069 92.7157 83.8073C95.0128 86.5822 97.995 88.7089 101.367 89.9766C104.06 91.2139 106.932 92.018 109.876 92.3593C111.507 92.5011 114.443 92.9408 115.833 91.9196C116.074 91.7494 116.358 91.4374 116.287 91.1254C116.024 90.0889 115.54 89.1214 114.869 88.2889C121.01 91.1563 127.477 93.266 134.128 94.5717C135.277 94.8412 138.383 95.1249 137.305 92.8415C136.965 92.0898 136.596 91.324 136.227 90.5723C141.39 95.9049 146.155 101.62 147.942 109.109C148.112 109.846 148.991 108.967 149.048 108.57C149.289 106.981 149.516 105.407 149.729 103.833C149.954 103.671 150.115 103.435 150.183 103.166C150.92 92.2033 158.806 81.297 168.364 76.2197C170.478 75.0852 173.016 74.532 174.988 73.2698C175.253 73.0911 175.462 72.8394 175.587 72.545C175.713 72.2505 175.751 71.926 175.697 71.6105C174.495 68.6959 172.647 66.0919 170.293 63.9945C171.853 64.8455 173.413 65.6964 174.988 66.519C176.165 67.1288 176.931 66.1219 176.987 65.0298C176.911 64.3118 176.689 63.6168 176.335 62.9876C175.597 61.229 174.917 59.4845 173.952 57.7826C173.3 56.5167 172.565 55.2944 171.754 54.1236C174.137 55.868 176.42 57.7401 178.845 59.5129C180.873 61.0162 182.646 60.5766 182.788 57.8677C183.086 53.9818 180.476 49.7129 178.448 46.4935Z" fill="#2B2E30"/>
<path d="M180.448 58.5059C179.214 57.6833 178.051 56.7614 176.888 55.8396C174.131 53.5865 171.179 51.5836 168.067 49.8546C168.691 51.2728 169.329 52.6911 169.939 54.0242C171.914 56.6285 173.522 59.4917 174.718 62.5336L175.598 64.7461C176.137 66.0651 174.477 64.5334 173.938 64.2497C171.697 63.0017 169.471 61.7678 167.173 60.619C167.122 60.6108 167.069 60.6108 167.017 60.619C167.414 61.3707 167.755 62.1507 168.152 62.9307C168.733 64.0653 169.386 65.1432 170.052 66.2211C170.52 66.7316 171.003 67.228 171.471 67.7528C172.477 68.9152 173.352 70.1851 174.08 71.5395C174.846 72.9577 173.47 72.8017 172.35 73.213C168.087 74.9001 164.187 77.3892 160.862 80.5453C157.534 83.8501 154.736 87.6483 152.565 91.8061C151.925 92.966 151.357 94.1643 150.864 95.3942C151.19 91.6784 151.36 87.9485 151.332 84.1901C151.016 83.2509 150.592 82.3514 150.069 81.5097C149.998 86.3317 150.069 91.1111 149.8 95.9332C149.715 97.4507 149.559 98.9824 149.374 100.514C149.254 101.19 149.169 101.872 149.119 102.556C148.949 103.819 148.765 105.081 148.566 106.329C146.056 98.6278 140.525 92.969 134.667 87.6081L134.511 87.3386C133.589 86.9132 132.653 86.5161 131.675 86.1189L132.299 86.743C132.965 87.7925 133.632 88.8278 134.256 89.8773C134.412 90.1326 136.398 93.9334 135.915 93.8767C133.829 93.5471 131.767 93.0732 129.746 92.4585C124.437 91.148 119.265 89.3339 114.301 87.0408C114.14 86.985 113.974 86.9423 113.805 86.9132C112.926 86.7288 112.046 86.5586 111.195 86.36L112.529 87.1684C112.741 87.5372 112.968 87.9059 113.195 88.2605C113.422 88.615 115.252 91.4515 114.968 91.4799C112.917 91.6717 110.85 91.6146 108.813 91.3097C104.837 90.6013 101.039 89.1171 97.6371 86.9415C96.0829 86.0077 94.6814 84.8406 93.4816 83.481C92.8811 82.9823 92.2354 82.5408 91.5528 82.162C91.7656 82.545 91.9783 82.9279 92.2194 83.2825C90.9064 85.0389 89.3274 86.5797 87.5392 87.8492C84.9084 89.5582 82.0073 90.8097 78.9589 91.5508C77.391 91.9561 75.7995 92.264 74.1936 92.4726C72.3783 92.7279 70.9317 92.8414 72.7754 90.9268C74.6191 89.0122 76.2642 86.9699 77.881 84.8709C78.2639 84.5731 78.6185 84.2327 78.9873 83.9065L79.7531 81.9635C78.7036 82.9846 77.6541 83.9916 76.5195 84.9134C73.5337 87.1997 70.2512 89.07 66.762 90.4729C63.2938 91.9687 59.6396 92.9896 55.8983 93.508C54.3524 93.7207 52.8066 93.976 51.2465 94.132C49.6202 94.4731 47.9532 94.5782 46.2969 94.444C47.7151 93.4654 49.3886 92.6428 50.7785 91.6075C51.8989 90.7424 53.0335 89.6787 54.1823 88.6718C54.5936 87.9485 55.0474 87.2535 55.5012 86.5586L55.3169 86.7146C52.0407 88.8561 47.7151 89.8205 44.0986 90.9693C43.1342 91.253 42.1556 91.4941 41.177 91.7494C41.4607 91.7494 38.0427 92.4159 38.2413 92.0472C38.9078 90.7566 39.6595 89.3383 40.397 88.0336C38.6253 90.1816 37.0001 92.4465 35.5325 94.8128C35.0995 96.5827 34.7774 98.3778 34.568 100.188C34.1481 104.567 34.0532 108.971 34.2844 113.363C32.0861 108.953 30.0297 104.357 28.2285 99.8049C26.9372 96.4469 25.9407 92.9827 25.2502 89.4518C25.1928 89.3876 25.1537 89.3093 25.1368 89.2249C25.0517 88.7711 24.9807 88.3314 24.924 87.8917C24.612 86.9699 24.3709 86.0339 24.144 85.0553C23.8178 85.4524 23.4916 85.8495 23.137 86.2182C21.8606 88.4307 20.4282 90.558 18.9674 92.657C18.1732 93.82 17.3223 94.9546 16.4713 96.075C14.7127 98.3867 12.9966 91.6501 12.9541 91.4941C11.4366 85.7218 12.8123 80.1482 14.3723 74.5603C14.4574 72.7591 14.6418 70.9722 14.812 69.171C14.7645 69.2339 14.7218 69.3002 14.6843 69.3696C12.0464 74.1348 9.72051 79.0419 7.12513 83.8214C5.45161 86.8848 4.54394 81.5806 4.28866 80.1907C3.811 77.1369 3.85898 74.024 4.43049 70.9864C5.12679 65.0704 7.08558 59.3729 10.1744 54.2795C10.7984 53.3009 11.4649 52.3507 12.1599 51.443L12.5428 51.1877C13.0195 50.0246 13.5593 48.8884 14.1596 47.784L13.5356 48.4222C13.181 48.8051 12.8548 49.2022 12.5144 49.5993C10.77 50.7481 9.03977 51.9394 7.21024 52.9605C6.21748 53.5278 5.23888 54.0951 4.20356 54.5915C3.42353 54.9744 0.899078 56.3076 1.70747 54.0384C3.13688 50.2187 5.18262 46.659 7.76335 43.5009C9.12135 41.8166 10.5952 40.229 12.1741 38.7498C12.4719 38.4803 12.8265 38.0974 13.2378 37.6861C14.1647 36.1715 15.2851 34.7841 16.5706 33.5591C16.1265 33.8318 15.7087 34.1451 15.3226 34.4951C13.9043 35.1475 12.401 35.7573 11.0679 36.4381C10.7417 36.5799 8.01862 37.7854 8.38736 37.1047C9.067 35.6631 9.86888 34.2823 10.7842 32.9776C14.8496 28.1172 19.79 24.0619 25.3495 21.0218C31.4277 17.5831 38.0939 15.3081 45.0063 14.3136C46.1692 13.9023 47.3322 13.5619 48.5093 13.2073L47.5024 12.7393C44.5666 12.484 41.56 12.5124 38.6526 12.1437C36.3408 11.8458 39.8864 9.42065 40.5814 9.00936C42.2459 8.08477 43.9761 7.28367 45.7579 6.61254C48.981 5.42605 52.3034 4.52901 55.6856 3.93207C62.093 2.79825 68.6744 3.13774 74.9311 4.92483C77.7676 5.61977 80.6891 6.13034 83.4405 7.03801C84.3733 7.35077 85.2568 7.79488 86.0643 8.35696L87.9505 9.20792C87.9013 8.59907 87.9013 7.98722 87.9505 7.37838C87.6952 6.3147 87.4258 5.25103 87.1847 4.20154C87.0428 3.5917 86.9294 2.99602 86.8017 2.38617C86.6032 1.40759 89.0993 4.55609 88.6455 3.97461C90.5203 6.08367 92.2588 8.31008 93.8504 10.6403L94.1482 10.9523C94.5737 10.3709 95.0133 9.80357 95.4814 9.25046C95.6657 9.05191 95.8643 8.79663 96.1054 8.54134L96.2047 8.37114C97.3792 5.96282 98.9411 3.76367 100.828 1.86143C102.246 0.443195 101.466 3.46405 101.438 3.57751C101.324 3.96043 101.197 4.32917 101.055 4.69791C100.559 6.11615 100.119 7.53438 99.6368 8.95262C99.6724 9.55248 99.6724 10.1539 99.6368 10.7538C99.7811 10.7222 99.9167 10.6593 100.034 10.5694C105.707 6.10196 112.982 4.28663 120.017 3.73352C121.77 3.58932 123.532 3.62257 125.279 3.83278C125.791 3.90603 126.298 4.01502 126.796 4.15897C128.909 4.6979 127.846 5.27939 126.796 6.03105L121.407 9.78938C120.145 9.91702 118.882 10.1156 117.648 10.3567C120.098 10.2893 122.548 10.4555 124.967 10.8531C127.448 10.8531 129.902 10.924 132.285 11.0658C139.306 11.4803 146.182 13.2427 152.537 16.2566C158.637 19.1562 164.185 23.0964 168.932 27.9003C171.361 30.3788 173.581 33.0542 175.569 35.8991C176.477 37.1897 177.328 38.5371 178.15 39.8986C178.677 40.6299 179.151 41.3977 179.569 42.1961C178.459 42.0235 177.364 41.7675 176.293 41.4303L173.839 40.9764C172.952 40.2431 172.003 39.5882 171.003 39.0193C171.584 39.9269 172.307 40.7637 172.974 41.6146C173.357 42.111 173.726 42.6216 174.08 43.1322C176.951 46.352 179.158 50.1063 180.576 54.1802C180.732 54.6482 182.306 59.7397 180.448 58.5059Z" fill="#765857"/>
<g style="mix-blend-mode:screen">
<path d="M40.6238 29.0914C37.4683 29.997 34.4347 31.2828 31.5896 32.9206C29.8752 33.8943 28.2807 35.0652 26.8385 36.4095C29.363 35.4593 31.8874 34.509 34.4403 33.573C40.318 31.3501 46.4932 30.0118 52.7639 29.6019C56.8085 29.424 60.8481 30.0507 64.6487 31.4456C63.2582 30.1942 61.6339 29.2302 59.8693 28.6092C53.7566 26.4393 46.7789 27.2902 40.6238 29.0914Z" fill="#765857"/>
</g>
<g style="mix-blend-mode:screen">
<path d="M68.9746 17.1073C67.1568 16.4866 65.2257 16.2692 63.3153 16.47C61.405 16.6708 59.5613 17.2852 57.9124 18.2703L63.0747 19.3907C66.5558 20.1099 69.9436 21.2233 73.1726 22.7094C75.3112 23.7744 77.3077 25.1037 79.115 26.6663C78.8314 26.1557 78.5477 25.6451 78.2357 25.1487C76.1247 21.5163 72.8672 18.6878 68.9746 17.1073Z" fill="#765857"/>
</g>
<g style="mix-blend-mode:screen">
<path d="M116.273 41.2178C117.492 41.4164 118.726 41.544 119.96 41.6575C122.059 41.8418 124.144 41.9837 126.215 42.2957C128.311 42.6311 130.365 43.1922 132.341 43.9692C134.772 44.8704 137.102 46.0256 139.291 47.4155C138.674 46.7777 138.026 46.1718 137.348 45.6002C132.327 41.3454 122.258 36.6511 116.273 41.2178Z" fill="#765857"/>
</g>
<g style="mix-blend-mode:screen">
<path d="M109.182 28.7083C105.406 30.5762 102.096 33.2657 99.4955 36.5795C101.467 35.5725 103.396 34.4663 105.31 33.3459C111.295 29.857 117.876 25.8718 124.797 24.4961H123.946C118.777 24.8123 113.739 26.2496 109.182 28.7083Z" fill="#765857"/>
</g>
<g style="mix-blend-mode:screen">
<path d="M45.659 44.1251C43.0007 45.1683 40.4695 46.51 38.114 48.1246C35.6305 49.746 33.4828 51.831 31.7886 54.2655C30.6739 55.8998 29.7687 57.6675 29.094 59.5272C32.0033 55.724 35.6139 52.513 39.7308 50.0676C44.1175 47.437 48.6383 45.0369 53.275 42.8771C50.6718 42.6487 48.0531 43.0779 45.659 44.1251Z" fill="#765857"/>
</g>
<g style="mix-blend-mode:multiply">
<path d="M180.59 54.265C179.173 50.1911 176.965 46.4368 174.095 43.217C173.74 42.7064 173.371 42.1958 172.988 41.6994C172.322 40.8485 171.57 40.0117 171.017 39.1041C172.018 39.673 172.967 40.3279 173.854 41.0612L176.307 41.5151C177.378 41.8523 178.474 42.1083 179.583 42.2809C179.166 41.4825 178.692 40.7147 178.165 39.9834C177.342 38.5652 176.492 37.2745 175.584 35.9839C173.596 33.139 171.376 30.4636 168.947 27.9851C164.199 23.1812 158.651 19.241 152.552 16.3414C146.197 13.3275 139.321 11.5651 132.299 11.1506C129.917 11.0088 127.463 10.9095 124.981 10.9379C122.571 10.5564 120.13 10.4044 117.691 10.484C118.925 10.2429 120.187 10.0444 121.45 9.91675L126.839 6.15841C127.917 5.40674 128.981 4.82528 126.839 4.28635C126.341 4.1424 125.834 4.03339 125.322 3.96014C123.575 3.74992 121.813 3.71667 120.06 3.86087C112.969 4.41398 105.736 6.22932 100.077 10.6968C99.9596 10.7866 99.8241 10.8496 99.6798 10.8811C99.7154 10.2813 99.7154 9.67984 99.6798 9.07998C100.134 7.66174 100.573 6.2435 101.098 4.82526C101.24 4.45652 101.367 4.08779 101.481 3.70486C101.481 3.59141 102.247 0.627279 100.871 1.98879C98.984 3.89103 97.4221 6.09019 96.2476 8.49852L96.1484 8.6687C95.9072 8.92398 95.7087 9.17926 95.5243 9.37782C95.0563 9.93093 94.6166 10.4982 94.1912 11.0797L93.8934 10.7677C92.3018 8.43744 90.5633 6.21102 88.6884 4.10197C89.1423 4.68345 86.6462 1.53497 86.8447 2.51355C86.9724 3.12339 87.0858 3.71905 87.2276 4.32889C87.4687 5.37839 87.7382 6.44205 87.9935 7.50573C87.9442 8.11458 87.9442 8.72642 87.9935 9.33527L86.1072 8.48432C85.2998 7.92223 84.4163 7.47812 83.4835 7.16537C80.647 6.2577 77.8105 5.74712 74.9741 5.05219C68.7174 3.2651 62.1359 2.92561 55.7286 4.05942C52.3463 4.65637 49.024 5.5534 45.8009 6.73989C44.019 7.41103 42.2889 8.21212 40.6243 9.13672C39.9294 9.54801 36.3696 11.9732 38.6955 12.271C41.6029 12.6398 44.6096 12.6114 47.5453 12.8667L48.5523 13.3347C47.3752 13.6892 46.2122 14.0296 45.0492 14.4409C38.1369 15.4354 31.4707 17.7104 25.3925 21.1492C19.8329 24.1893 14.8925 28.2445 10.8272 33.1049C9.91185 34.4097 9.10999 35.7904 8.43035 37.232C8.06161 37.9128 10.7846 36.7073 11.1108 36.5654C12.5291 35.8847 13.9473 35.2748 15.3655 34.6225C15.7517 34.2725 16.1695 33.9591 16.6136 33.6864C15.328 34.9115 14.2077 36.2988 13.2807 37.8135C12.8694 38.2248 12.5149 38.6077 12.217 38.8772C10.6381 40.3564 9.16432 41.9439 7.80632 43.6283C5.22559 46.7863 3.17985 50.346 1.75044 54.1658C0.942047 56.4349 3.4665 55.1018 4.24653 54.7189C5.28185 54.2225 6.26045 53.6552 7.25321 53.0879C9.08274 52.0668 10.813 50.8755 12.5574 49.7267C12.8978 49.3296 13.224 48.9325 13.5785 48.5495L14.2026 47.9113C13.5888 48.9545 13.0302 50.0291 12.5291 51.1307L12.1461 51.386C11.4512 52.3079 10.7279 53.2581 10.1606 54.2225C7.07181 59.3159 5.11303 65.0133 4.41674 70.9293C3.84884 73.9138 3.78651 76.9725 4.23236 79.9777C4.53019 81.3959 5.43786 86.6718 7.06883 83.6084C9.66421 78.8289 11.9901 73.9218 14.628 69.1565C14.6655 69.0872 14.7082 69.0208 14.7557 68.958C14.5855 70.7591 14.4011 72.5461 14.316 74.3473C12.6992 79.8784 11.3235 85.5088 12.8978 91.2811C12.8978 91.4371 14.6564 98.1737 16.415 95.862C17.266 94.7415 18.1169 93.6069 18.9111 92.444C20.3294 90.345 21.7476 88.1893 23.0807 86.0052C23.4353 85.6365 23.7615 85.2393 24.0877 84.8422C24.3146 85.7925 24.5557 86.7285 24.8677 87.6787C24.8677 88.1184 24.9954 88.558 25.0804 89.0119C25.0973 89.0963 25.1365 89.1746 25.1939 89.2388C25.8844 92.7697 26.8809 96.2338 28.1722 99.5919C29.9734 104.144 32.0298 108.74 34.2281 113.15C33.9969 108.758 34.0918 104.354 34.5117 99.9749C34.7211 98.1648 35.0432 96.3696 35.4761 94.5997C36.9438 92.2335 38.569 89.9686 40.3407 87.8205C39.5607 89.1253 38.9225 90.5436 38.185 91.8342C37.9864 92.2029 41.4044 91.4654 41.1207 91.5363C42.0993 91.281 43.0779 91.04 44.0423 90.7563C47.6588 89.6784 51.9844 88.714 55.2605 86.5016L55.4449 86.3456C54.9911 87.0405 54.5372 87.7638 54.126 88.4587C52.9772 89.4657 51.8426 90.5294 50.7222 91.3945C49.304 92.4724 47.7013 93.295 46.2406 94.231C47.8969 94.3652 49.5639 94.2601 51.1902 93.919C52.7503 93.763 54.2962 93.5077 55.842 93.2949C59.5833 92.7766 63.2375 91.7557 66.7057 90.2599C70.1949 88.857 73.4773 86.9867 76.4632 84.7004C77.5978 83.7786 78.6473 82.7716 79.6968 81.7505L78.9309 83.6935C78.5622 84.0197 78.2076 84.3601 77.8247 84.6579C76.2079 86.7569 74.5202 88.785 72.7191 90.7138C70.9179 92.6426 72.3645 92.5149 74.1373 92.2596C75.7432 92.051 77.3347 91.7431 78.9026 91.3378C81.951 90.5967 84.852 89.3451 87.4829 87.6362C89.2711 86.3667 90.8501 84.8259 92.1631 83.0694C91.922 82.7149 91.7093 82.332 91.4965 81.949C92.1791 82.3278 92.8248 82.7693 93.4253 83.268C94.6251 84.6275 96.0266 85.7947 97.5808 86.7285C100.983 88.904 104.781 90.3883 108.757 91.0967C110.794 91.4015 112.861 91.4587 114.912 91.2669C115.195 91.2669 113.266 88.2602 113.139 88.0475C113.011 87.8347 112.685 87.3242 112.472 86.9554L111.139 86.147C111.99 86.3456 112.869 86.5158 113.749 86.7001C113.917 86.7293 114.083 86.772 114.245 86.8278C119.209 89.1209 124.381 90.935 129.69 92.2454C131.711 92.8602 133.772 93.3341 135.859 93.6637C136.341 93.6637 134.356 89.9195 134.2 89.6643C133.576 88.6148 132.909 87.5794 132.243 86.5299L131.618 85.9059C132.54 86.303 133.476 86.7001 134.455 87.1256L134.611 87.3951C140.468 92.756 145.957 98.4148 148.51 106.116C148.708 104.868 148.893 103.606 149.063 102.343C149.113 101.659 149.198 100.977 149.318 100.301C149.502 98.7693 149.658 97.2377 149.744 95.7201C150.027 90.8981 149.942 86.1187 150.013 81.2966C150.536 82.1384 150.959 83.0379 151.275 83.9771C151.275 87.7355 151.133 91.4654 150.807 95.1812C151.3 93.9513 151.869 92.753 152.509 91.5931C154.679 87.4353 157.478 83.6371 160.806 80.3323C164.131 77.1762 168.031 74.6871 172.294 73C173.414 72.5887 174.79 72.7305 174.024 71.3264C173.296 69.9721 172.421 68.7022 171.414 67.5397C170.96 67.015 170.478 66.5186 169.996 66.008C169.329 64.9302 168.677 63.8523 168.096 62.7177C167.698 61.9377 167.358 61.1577 166.961 60.406C167.013 60.3978 167.065 60.3978 167.117 60.406C169.415 61.5548 171.641 62.7886 173.882 64.0367C174.421 64.3203 176.08 65.852 175.541 64.5331L174.662 62.3206C173.466 59.2787 171.858 56.4155 169.883 53.8112C169.273 52.393 168.635 50.9747 168.01 49.6416C171.123 51.3706 174.075 53.3735 176.832 55.6266C177.995 56.5484 179.158 57.4703 180.392 58.2928C182.306 59.7394 180.732 54.648 180.59 54.265ZM161.572 37.7567C157.837 34.7789 153.546 32.5755 148.949 31.2754C153.034 34.6508 156.735 38.4942 158.693 43.4581C162.834 53.8821 158.324 63.4978 157.118 73.9502C157.123 74.0911 157.074 74.2286 156.982 74.3358C156.891 74.443 156.763 74.5122 156.623 74.5299C156.483 74.5476 156.341 74.5125 156.226 74.4316C156.11 74.3506 156.029 74.2296 155.998 74.092C154.225 68.0078 154.296 61.3279 151.105 55.6549C148.765 51.5137 145.517 47.1455 141.021 45.1741C143.747 49.2935 145.179 54.1335 145.134 59.0729C145.132 59.1851 145.097 59.2941 145.034 59.3869C144.97 59.4796 144.882 59.5521 144.778 59.5956C144.675 59.6391 144.561 59.6517 144.451 59.6319C144.34 59.6121 144.238 59.5608 144.156 59.4842C139.603 54.4494 135.434 49.0601 128.754 46.72C125.263 45.4981 121.601 44.8375 117.904 44.7628C114.585 44.7628 111.635 45.9116 108.416 46.4364C108.296 46.4639 108.171 46.4527 108.058 46.4045C107.945 46.3562 107.85 46.2733 107.787 46.1677C107.724 46.0621 107.696 45.9393 107.707 45.8168C107.718 45.6944 107.768 45.5786 107.849 45.4861C111.807 41.5125 116.505 38.3519 121.677 36.1825C117.933 35.6347 114.125 35.6969 110.402 36.3669C105.126 37.2036 98.5735 38.2815 95.2549 42.9475C95.2167 43.0118 95.1662 43.0679 95.1064 43.1126C95.0465 43.1574 94.9784 43.1899 94.906 43.2083C94.8335 43.2268 94.7582 43.2308 94.6842 43.2201C94.6102 43.2094 94.5391 43.1842 94.4748 43.1461C94.4106 43.1079 94.3545 43.0574 94.3097 42.9976C94.265 42.9377 94.2324 42.8696 94.214 42.7972C94.1956 42.7247 94.1916 42.6494 94.2023 42.5754C94.2129 42.5014 94.2381 42.4303 94.2763 42.366C97.3822 35.3883 102.616 27.9709 109.508 24.0991C100.105 24.7657 88.8019 30.2117 86.944 39.955C86.9105 40.074 86.839 40.1788 86.7404 40.2534C86.6418 40.328 86.5216 40.3684 86.398 40.3684C86.2743 40.3684 86.1541 40.328 86.0555 40.2534C85.957 40.1788 85.8855 40.074 85.8519 39.955C84.4337 31.9562 76.8036 27.12 69.1026 26.4108C72.385 28.2624 75.1711 30.8802 77.2233 34.0412C79.2754 37.2021 80.5328 40.8124 80.8881 44.5643C80.8881 45.1458 80.0939 45.3018 79.8244 44.8479C77.8979 42.0396 75.2815 39.774 72.2265 38.2689C69.1715 36.7637 65.7808 36.0697 62.3801 36.2534C56.381 36.6789 50.9633 39.0899 45.6165 41.6711C52.7077 40.2529 59.7989 39.4586 66.5072 42.8482C66.6081 42.9157 66.6854 43.013 66.7283 43.1266C66.7711 43.2401 66.7773 43.3643 66.7461 43.4816C66.7148 43.5989 66.6476 43.7034 66.5539 43.7806C66.4602 43.8578 66.3447 43.9037 66.2235 43.9119C55.7002 44.0821 45.8151 49.4288 37.8588 56.0378C34.0437 59.2147 29.7464 62.9163 27.1794 67.2419C25.279 70.433 24.0168 73.9927 21.5065 76.815C21.4439 76.877 21.3681 76.924 21.2847 76.9524C21.2013 76.9808 21.1125 76.9899 21.0251 76.979C20.9376 76.968 20.8539 76.9374 20.78 76.8893C20.7062 76.8413 20.6442 76.7771 20.5988 76.7016C16.883 67.9227 23.336 59.1438 29.4912 52.237C24.0877 56.2931 18.4147 60.1224 13.2382 64.6607C13.1562 64.7374 13.0538 64.7887 12.9434 64.8085C12.8329 64.8283 12.7191 64.8157 12.6156 64.7722C12.5122 64.7287 12.4235 64.6562 12.3603 64.5634C12.2971 64.4707 12.2622 64.3616 12.2596 64.2494C12.6851 54.3218 20.1875 46.6633 27.2504 40.2812C24.62 41.453 21.7888 42.1078 18.9111 42.21C18.8119 42.2057 18.7154 42.1761 18.6309 42.124C18.5464 42.0718 18.4767 41.9989 18.4283 41.9122C18.38 41.8254 18.3546 41.7278 18.3547 41.6285C18.3549 41.5292 18.3804 41.4315 18.4289 41.3449C21.1607 37.3872 24.5129 33.896 28.3566 31.0059L24.0877 31.7576C23.9788 31.7843 23.8645 31.7789 23.7586 31.7422C23.6526 31.7054 23.5596 31.6388 23.4907 31.5504C23.4217 31.462 23.3798 31.3555 23.37 31.2438C23.3602 31.1321 23.3828 31.02 23.4353 30.9209C26.5838 24.5388 33.6324 20.7521 40.0429 18.3553C47.2333 15.6606 55.5442 13.0227 63.3445 14.1005C60.1251 11.7888 56.2533 10.9095 52.4808 9.51965C52.364 9.48175 52.2621 9.4078 52.1899 9.30844C52.1176 9.20907 52.0787 9.08936 52.0787 8.96651C52.0787 8.84367 52.1176 8.72398 52.1899 8.62462C52.2621 8.52525 52.364 8.4513 52.4808 8.4134C56.5472 6.73433 60.9598 6.06502 65.3412 6.46265C69.7227 6.86029 73.9426 8.31306 77.6403 10.6968C77.5552 10.4273 77.4702 10.1437 77.3709 9.87421C77.2716 9.60474 77.6687 9.00907 78.0658 9.17926C82.1787 10.867 83.6537 14.9657 85.5825 18.6389C85.8208 16.2575 86.1854 13.8905 86.6745 11.5477C86.7001 11.4512 86.7506 11.3632 86.8211 11.2925C86.8915 11.2218 86.9794 11.1709 87.0757 11.145C87.1721 11.1191 87.2736 11.1191 87.37 11.145C87.4664 11.1709 87.5543 11.2218 87.6247 11.2924C89.2263 13.3017 90.5875 15.4912 91.6809 17.8163C97.8219 12.1434 106.771 9.37781 114.798 8.83888C114.919 8.84709 115.035 8.893 115.128 8.97017C115.222 9.04734 115.289 9.15191 115.321 9.2692C115.352 9.3865 115.346 9.51063 115.303 9.62422C115.26 9.7378 115.183 9.83513 115.082 9.90256C111.874 11.6701 108.995 13.9779 106.572 16.7243C115.107 13.9805 124.201 13.4583 132.994 15.2068C145.46 17.8021 158.522 24.1417 162.437 37.2036C162.55 37.5582 161.983 38.0688 161.572 37.7567Z" fill="#765857"/>
</g>
<g style="mix-blend-mode:multiply">
<path d="M154.565 82.0062C154.503 82.0656 154.428 82.1103 154.346 82.1372C154.264 82.164 154.177 82.1723 154.092 82.1614C154.006 82.1506 153.924 82.1208 153.851 82.0744C153.779 82.0279 153.718 81.9659 153.672 81.8928C150.824 76.33 146.589 71.5964 141.376 68.1501C137.249 65.3136 132.682 62.6757 127.69 61.8815C137.405 68.1359 142.198 78.5032 145.021 89.5796C145.046 89.7106 145.025 89.8462 144.962 89.9637C144.899 90.0812 144.797 90.1735 144.674 90.225C144.551 90.2765 144.414 90.2842 144.286 90.2467C144.158 90.2093 144.047 90.129 143.971 90.0193C140.362 85.0264 135.255 81.3151 129.392 79.4251C126.078 78.1575 122.674 77.1383 119.209 76.3759C122.045 80.6306 125.704 84.3889 127.477 89.2818C127.501 89.3669 127.505 89.4564 127.489 89.5434C127.473 89.6303 127.436 89.7122 127.382 89.7825C127.328 89.8527 127.259 89.9095 127.179 89.9481C127.1 89.9868 127.012 90.0063 126.924 90.0051C122.329 90.1895 118.882 87.2537 115.053 85.1689C110.895 83.0029 106.891 80.553 103.069 77.8366C103.548 79.5451 104.169 81.2103 104.927 82.8146C105.908 84.1673 106.789 85.5893 107.565 87.0694C107.586 87.1542 107.588 87.2429 107.571 87.3286C107.553 87.4143 107.516 87.495 107.463 87.5645C107.41 87.634 107.342 87.6907 107.263 87.7302C107.185 87.7697 107.099 87.791 107.012 87.7927C103.154 87.2963 98.7718 84.1194 96.1907 81.2546C94.6947 79.5966 93.4348 77.7401 92.4465 75.7376C89.7093 81.4106 85.0433 86.1333 79.6824 87.4806C79.5735 87.5073 79.4592 87.502 79.3532 87.4652C79.2473 87.4285 79.1543 87.3619 79.0853 87.2734C79.0164 87.185 78.9745 87.0785 78.9647 86.9668C78.9548 86.8551 78.9775 86.743 79.03 86.6439C80.7085 83.4596 82.0079 80.0896 82.9018 76.6028C80.0398 79.7692 76.6879 82.4555 72.9741 84.5591C70.2217 86.1396 67.3805 87.5602 64.4647 88.8138C62.4797 89.8756 60.1773 90.1829 57.9833 89.6789C57.8772 89.6451 57.7831 89.5815 57.7121 89.4958C57.6411 89.41 57.5962 89.3056 57.5828 89.1951C57.5693 89.0846 57.5879 88.9725 57.6363 88.8723C57.6847 88.772 57.7608 88.6877 57.8557 88.6294C63.3159 84.3747 69.0172 80.5171 74.208 75.9787C57.9975 75.7944 38.752 82.4601 31.1219 97.6778C31.0607 97.7885 30.9641 97.8756 30.8477 97.9252C30.7312 97.9748 30.6016 97.984 30.4793 97.9514C30.357 97.9188 30.2491 97.8462 30.1728 97.7452C30.0965 97.6443 30.0562 97.5207 30.0582 97.3941C30.2568 88.1472 35.2915 79.9073 41.4041 73.2841C44.8428 69.5723 48.6436 66.2133 52.75 63.2572C55.9836 60.9312 59.6143 59.2719 62.9472 57.1445C42.1274 59.9101 23.1514 75.454 13.7059 94.1605C14.3725 95.7773 15.3369 97.2949 16.3155 96.0043C17.2941 94.7137 18.0174 93.7493 18.8116 92.5863C20.2298 90.4873 21.6481 88.3316 22.9812 86.1475C23.3358 85.7788 23.662 85.3817 23.9882 84.9845C24.2151 85.9348 24.4562 86.8708 24.7682 87.821C24.7682 88.2607 24.8958 88.7003 24.9809 89.1542C24.9978 89.2386 25.037 89.3169 25.0944 89.3811C25.7849 92.912 26.7814 96.3761 28.0727 99.7342C29.8738 104.287 31.9303 108.882 34.1286 113.293C33.8974 108.9 33.9922 104.496 34.4122 100.117C34.6216 98.3071 34.9437 96.5119 35.3766 94.742C36.8443 92.3758 38.4694 90.1109 40.2412 87.9629C39.4611 89.2676 38.8229 90.6859 38.0854 91.9765C37.8869 92.3452 41.3049 91.6077 41.0212 91.6786C41.9998 91.4233 42.9784 91.1822 43.9428 90.8986C47.5593 89.8207 51.8849 88.8563 55.161 86.6439L55.3454 86.4879C54.8916 87.1828 54.4377 87.9061 54.0264 88.6011C52.8777 89.608 51.7431 90.6717 50.6227 91.5368C49.2044 92.6147 47.6018 93.4372 46.141 94.3733C47.7974 94.5075 49.4643 94.4024 51.0907 94.0613C52.6507 93.9053 54.1966 93.65 55.7425 93.4373C59.4838 92.9189 63.138 91.898 66.6062 90.4022C70.0954 88.9993 73.3778 87.129 76.3637 84.8427C77.4983 83.9209 78.5478 82.9139 79.5973 81.8928L78.8314 83.8358C78.4627 84.162 78.1081 84.5023 77.7252 84.8002C76.1084 86.8992 74.4207 88.9272 72.6195 90.856C70.8184 92.7849 72.265 92.6572 74.0378 92.4019C75.6437 92.1933 77.2352 91.8854 78.8031 91.4801C81.8515 90.739 84.7525 89.4874 87.3834 87.7785C89.1716 86.509 90.7506 84.9682 92.0636 83.2117C91.8225 82.8572 91.6098 82.4743 91.397 82.0914C92.0796 82.4701 92.7253 82.9116 93.3258 83.4103C94.5255 84.7698 95.927 85.937 97.4812 86.8708C100.884 89.0463 104.681 90.5306 108.657 91.239C110.694 91.5438 112.761 91.601 114.812 91.4092C115.096 91.4092 113.167 88.4025 113.039 88.1898C112.912 87.977 112.585 87.4665 112.373 87.0977L111.04 86.2893C111.891 86.4879 112.77 86.6581 113.649 86.8424C113.818 86.8716 113.984 86.9143 114.146 86.9701C119.11 89.2632 124.281 91.0773 129.59 92.3877C131.611 93.0025 133.673 93.4764 135.759 93.806C136.242 93.806 134.256 90.0618 134.1 89.8065C133.476 88.757 132.81 87.7217 132.143 86.6723L131.519 86.0482C132.441 86.4453 133.377 86.8424 134.355 87.2679L134.511 87.5374C140.369 92.8983 145.857 98.5571 148.41 106.258C148.609 105.01 148.793 103.748 148.963 102.486C149.013 101.801 149.099 101.119 149.219 100.443C149.403 98.9116 149.559 97.3799 149.644 95.8624C149.928 91.0404 149.843 86.261 149.913 81.439C150.436 82.2807 150.86 83.1802 151.176 84.1194C151.176 87.8778 151.034 91.6077 150.708 95.3235C151.201 94.0936 151.769 92.8953 152.41 91.7354C154.58 87.5776 157.378 83.7794 160.706 80.4746C163.499 77.8508 166.68 75.6742 170.138 74.0216C164.408 75.4673 159.083 78.1978 154.565 82.0062Z" fill="#765857"/>
</g>
<path d="M26.7962 99.6774C26.7962 99.6774 27.3776 90.0051 37.9293 82.1764L34.3554 74.6172C34.3554 74.6172 26.8813 80.3894 23.9171 86.9133C20.953 93.4372 26.7962 99.6774 26.7962 99.6774Z" fill="#A2BA3A"/>
<path d="M26.7961 100.032C26.7456 100.034 26.6952 100.025 26.6485 100.006C26.6019 99.9859 26.5603 99.9561 26.5266 99.9184C26.5266 99.9184 20.57 93.4229 23.5909 86.7572C26.6117 80.0914 33.8305 74.5603 34.1426 74.3334C34.1826 74.2981 34.2307 74.2732 34.2826 74.2608C34.3346 74.2485 34.3887 74.249 34.4404 74.2625C34.4935 74.2739 34.5431 74.2979 34.5851 74.3325C34.627 74.367 34.6601 74.4111 34.6815 74.461L38.2555 82.0202C38.2883 82.0957 38.295 82.1799 38.2744 82.2596C38.2539 82.3393 38.2072 82.4098 38.142 82.4599C27.8598 90.1042 27.1507 99.6064 27.1507 99.6915C27.1468 99.7635 27.1218 99.8327 27.079 99.8907C27.0361 99.9487 26.9772 99.9928 26.9096 100.018L26.7961 100.032ZM34.2276 75.1843C32.7243 76.404 26.7819 81.4955 24.3 87.055C22.0024 92.1323 25.2786 97.1103 26.5975 98.8122C27.9855 92.044 31.8944 86.0565 37.5321 82.0628L34.2276 75.1843Z" fill="#214168"/>
<g style="mix-blend-mode:multiply">
<path d="M31.8593 85.1403C29.264 88.0618 25.5482 91.7918 24.3143 95.8764C24.9588 97.2537 25.7943 98.5333 26.7962 99.6772C26.7962 99.6772 27.3777 90.0048 37.9294 82.1762L37.0785 80.375C35.194 81.7972 33.4466 83.3926 31.8593 85.1403Z" fill="#006282"/>
</g>
<path d="M150.793 99.6771C150.793 99.6771 147.857 90.3734 137.305 82.5306L139.659 71.752C139.659 71.752 150.708 80.389 153.657 86.9129C156.607 93.4368 150.793 99.6771 150.793 99.6771Z" fill="#A2BA3A"/>
<path d="M150.793 100.032C150.732 100.017 150.675 99.9877 150.628 99.9456C150.581 99.9035 150.545 99.8505 150.523 99.7912C150.523 99.692 147.488 90.5018 137.164 82.7724C137.11 82.7324 137.069 82.6775 137.046 82.6144C137.024 82.5513 137.02 82.4829 137.036 82.4178L139.376 71.6392C139.388 71.5768 139.417 71.5188 139.46 71.4714C139.502 71.424 139.556 71.3889 139.617 71.3697C139.67 71.3424 139.728 71.3281 139.787 71.3281C139.847 71.3281 139.905 71.3424 139.958 71.3697C140.411 71.7243 151.091 80.1345 154.055 86.6584C157.019 93.1823 151.218 99.7629 151.133 99.8196C151.106 99.8866 151.059 99.9432 150.998 99.9815C150.937 100.02 150.865 100.038 150.793 100.032ZM137.717 82.3895C143.525 86.6314 148.086 92.3579 150.92 98.9687C152.14 97.437 155.714 92.3029 153.332 87.0555C150.779 81.3825 141.986 74.0928 139.887 72.4051L137.717 82.3895Z" fill="#214168"/>
<g style="mix-blend-mode:multiply">
<path d="M137.547 81.3965L137.291 82.5594C147.843 90.4023 150.779 99.7059 150.779 99.7059C151.506 98.878 152.144 97.9746 152.679 97.0113C149.588 90.5441 143.773 85.3817 137.547 81.3965Z" fill="#006282"/>
</g>
<path d="M81.3416 70.2769C81.7954 69.9081 95.8643 70.2769 95.8643 70.2769V63.4977C95.8643 63.4977 80.7317 62.9162 81.3416 63.4977C81.9514 64.0792 81.3416 70.2769 81.3416 70.2769Z" fill="#A2BA3A"/>
<path d="M81.3133 70.6743C81.2572 70.6866 81.1992 70.6866 81.1431 70.6743C81.0843 70.6343 81.0384 70.5783 81.0107 70.5129C80.983 70.4475 80.9748 70.3755 80.9871 70.3055C81.2994 68.1488 81.3328 65.961 81.0864 63.7958C81.0284 63.7435 80.9878 63.6746 80.9701 63.5986C80.9524 63.5226 80.9583 63.4429 80.9871 63.3703C81.1005 63.0867 81.1715 62.9307 84.8447 62.9307C89.0994 62.9307 95.8077 63.186 95.8786 63.186C95.9739 63.1896 96.0641 63.2301 96.1302 63.2988C96.1963 63.3676 96.2332 63.4593 96.2331 63.5547V70.3339C96.2343 70.3822 96.2248 70.4301 96.2051 70.4743C96.1855 70.5184 96.1563 70.5577 96.1197 70.5892C96.0468 70.65 95.9584 70.6893 95.8644 70.7026C95.7935 70.7026 89.5533 70.5324 85.3127 70.5324C84.0397 70.4662 82.7634 70.5089 81.4977 70.6601C81.4393 70.6842 81.3747 70.6892 81.3133 70.6743ZM85.3127 69.7524C88.9718 69.7524 94.1058 69.88 95.5099 69.9084V63.8383C94.0916 63.8383 88.5321 63.5972 84.8447 63.5972C83.001 63.5972 82.1784 63.5972 81.8097 63.6823C82.0627 65.7262 82.0627 67.7936 81.8097 69.8375C82.2351 69.7949 83.2846 69.7524 85.3127 69.7524Z" fill="#214168"/>
<g style="mix-blend-mode:multiply">
<path d="M89.8511 65.7101C87.1423 65.5966 84.3767 65.5966 81.6111 65.7101C81.6111 67.7098 81.3417 70.2768 81.3417 70.2768C81.7955 69.9081 95.8644 70.2768 95.8644 70.2768V66.2207C93.8647 65.9796 91.865 65.7952 89.8511 65.7101Z" fill="#006282"/>
</g>
<path d="M93.1837 69.1007C93.5472 72.6609 94.7953 76.0736 96.8144 79.0283C102.048 86.5308 113.833 89.4524 122.456 89.8069C129.363 90.1047 137.575 87.6654 140.893 80.9997C145.417 71.8237 136.795 61.3287 129.207 57.1733C121.333 53.1309 112.248 52.1215 103.679 54.3368C100.922 55.1346 98.3917 56.5675 96.2897 58.5206C93.6659 61.1727 92.9852 65.5834 93.1837 69.1007ZM99.6651 60.0381C101.428 58.3902 103.557 57.1847 105.877 56.5209C113.08 54.6542 120.717 55.5023 127.335 58.9035C133.717 62.3924 140.95 71.1996 137.149 78.929C134.398 84.5169 127.505 86.5592 121.704 86.3181C114.486 86.0202 104.544 83.5667 100.161 77.2555C98.4529 74.7642 97.4039 71.8805 97.1122 68.8737C96.9421 65.9238 97.5093 62.2222 99.6651 60.0381Z" fill="#006590"/>
<path d="M123.563 90.2461H122.442C113.323 89.849 101.722 86.7714 96.5167 79.2973C94.4428 76.2765 93.1737 72.7766 92.8293 69.1285C92.574 64.6185 93.7512 60.6191 95.9778 58.3357C98.1225 56.3428 100.708 54.885 103.523 54.081C106.397 53.2706 109.372 52.8695 112.358 52.8897C118.278 52.8455 124.119 54.2425 129.377 56.96C133.698 59.3869 137.321 62.8837 139.901 67.1146C141.957 70.6035 143.857 75.8793 141.205 81.297C137.901 87.8776 129.93 90.2461 123.563 90.2461ZM112.358 53.5705C109.439 53.5478 106.531 53.9393 103.721 54.7334C101.019 55.5065 98.5401 56.9114 96.4884 58.8321C93.3966 61.9522 93.4533 67.4692 93.5384 69.0718C93.898 72.5844 95.1262 75.9524 97.1124 78.8718C102.161 86.1332 113.536 89.1257 122.47 89.5086H123.563C129.718 89.5086 137.405 87.2394 140.581 80.8715C143.248 75.4681 141.418 64.2923 129.037 57.5132C123.88 54.8646 118.156 53.5114 112.358 53.5705ZM122.627 86.7005H121.69C114.004 86.3743 104.246 83.7789 99.8638 77.4819C98.1259 74.9523 97.0529 72.0259 96.7436 68.9725C96.5309 65.1716 97.5237 61.7679 99.4099 59.8674C101.213 58.1731 103.397 56.9375 105.778 56.2651C108.194 55.5761 110.697 55.237 113.209 55.2582C118.181 55.2216 123.088 56.3946 127.505 58.6761C131.14 60.7062 134.193 63.6364 136.369 67.1855C138.114 70.1213 139.716 74.5887 137.475 79.1271C134.71 84.7008 127.987 86.7005 122.627 86.7005ZM113.209 55.868C110.765 55.848 108.33 56.1726 105.976 56.8324C103.718 57.4808 101.643 58.6517 99.9205 60.2503C97.3393 62.8741 97.3961 67.4692 97.467 68.7598C97.7628 71.6974 98.7864 74.5148 100.445 76.9572C104.7 83.0414 114.216 85.5517 121.719 85.8637H122.627C127.775 85.8637 134.214 83.9775 136.809 78.6591C140.411 71.3268 133.504 62.5904 127.136 59.1016C122.823 56.9169 118.045 55.8075 113.209 55.868Z" fill="#214168"/>
<path d="M93.1699 67.795C93.5333 71.3552 94.7814 74.768 96.8006 77.7227C102.034 85.2251 113.819 88.1467 122.456 88.5013C129.363 88.7991 137.575 86.3597 140.894 79.694C145.418 70.518 136.795 60.023 129.207 55.8676C121.333 51.8252 112.249 50.8158 103.679 53.0311C100.916 53.8496 98.3849 55.3072 96.29 57.2858C93.6521 59.867 92.9714 64.2778 93.1699 67.795ZM99.6654 58.7325C101.423 57.0847 103.547 55.8791 105.863 55.2152C113.066 53.3472 120.704 54.1953 127.321 57.5979C133.703 61.0867 140.95 69.894 137.149 77.6234C134.313 83.2112 127.491 85.2535 121.691 85.0124C114.472 84.7146 104.544 82.261 100.148 75.9499C98.4451 73.4555 97.3966 70.5733 97.0984 67.5681C96.9282 64.6181 97.4955 60.9024 99.6654 58.7041V58.7325Z" fill="#A2BA3A"/>
<path d="M123.549 88.9415H122.442C113.323 88.5444 101.722 85.4668 96.5028 77.9927C94.435 74.9687 93.1665 71.4704 92.8154 67.8239C92.5601 63.3139 93.7372 59.3145 95.9639 57.0311C98.1104 55.0408 100.695 53.5833 103.509 52.7764C106.384 51.9669 109.358 51.5658 112.345 51.5851C118.264 51.5392 124.105 52.9363 129.363 55.6554C133.687 58.0782 137.311 61.5758 139.887 65.81C141.943 69.2989 143.844 74.5747 141.206 79.9924C137.901 86.573 129.917 88.9415 123.549 88.9415ZM112.345 52.2658C109.425 52.2441 106.517 52.6357 103.707 53.4288C101.009 54.2037 98.5315 55.603 96.4744 57.5133C93.3827 60.6476 93.4394 66.1646 93.5387 67.7672C93.8905 71.2794 95.1141 74.648 97.0985 77.5672C102.162 84.8286 113.522 87.8211 122.471 88.204H123.549C129.704 88.204 137.405 85.9348 140.567 79.5669C143.234 74.1493 141.418 62.9877 129.037 56.2085C123.876 53.5583 118.146 52.2051 112.345 52.2658ZM122.613 85.3959H121.677C114.004 85.0697 104.232 82.4743 99.8499 76.1773C98.0986 73.6295 97.0293 70.6755 96.7439 67.597C96.517 63.7961 97.5239 60.3924 99.4102 58.4919C101.213 56.8053 103.391 55.5707 105.764 54.8896C108.18 54.2015 110.683 53.8625 113.195 53.8826C118.171 53.8433 123.081 55.0113 127.506 57.2864C131.136 59.3169 134.184 62.2473 136.355 65.7958C138.1 68.7316 139.702 73.199 137.462 77.7374C134.71 83.3962 127.988 85.3959 122.613 85.3959ZM113.195 54.5776C110.75 54.562 108.315 54.8914 105.962 55.5562C103.707 56.2016 101.636 57.373 99.9208 58.9741C97.3254 61.5978 97.3821 66.1929 97.453 67.4835C97.7514 70.4272 98.78 73.2497 100.446 75.6951C104.7 81.7794 114.202 84.2896 121.719 84.6017H122.627C127.775 84.6017 134.214 82.7154 136.809 77.397C140.411 70.0647 133.505 61.3284 127.137 57.8395C122.822 55.6412 118.038 54.5219 113.195 54.5776Z" fill="#214168"/>
<path d="M105.863 55.2153C113.066 53.3473 120.704 54.1954 127.321 57.598C133.703 61.0869 140.95 69.8941 137.15 77.6235C134.313 83.2114 127.491 85.2536 121.691 85.0125C114.472 84.7147 104.544 82.2612 100.148 75.95C98.4453 73.4556 97.3968 70.5735 97.0986 67.5682C96.9284 64.6183 97.4957 60.9025 99.6656 58.7326C101.423 57.0849 103.547 55.8792 105.863 55.2153Z" fill="#7D7E81"/>
<path d="M122.613 85.5096H121.662C113.961 85.1834 104.161 82.5739 99.7507 76.2485C97.9988 73.6776 96.921 70.7076 96.6164 67.6115C96.4037 63.7822 97.4106 60.3359 99.3253 58.4071C101.14 56.7041 103.332 55.4551 105.722 54.7622C108.153 54.0743 110.669 53.7353 113.196 53.7553C118.211 53.708 123.162 54.8862 127.619 57.1874C134.03 60.6905 141.645 69.6821 137.632 77.837C134.781 83.4957 128.016 85.5096 122.613 85.5096ZM113.196 54.7055C110.761 54.6865 108.335 55.0111 105.991 55.6699C103.758 56.3148 101.708 57.4759 100.006 59.0595C97.4532 61.6407 97.4957 66.1507 97.5808 67.5689C97.8698 70.4883 98.8892 73.2879 100.545 75.7096C104.8 81.7513 114.231 84.219 121.705 84.5594H122.613C127.733 84.5594 134.129 82.6731 136.71 77.4682C140.284 70.2068 133.42 61.5414 127.094 58.0809C122.804 55.8435 118.034 54.685 113.196 54.7055Z" fill="#453F40"/>
<g style="mix-blend-mode:screen">
<path d="M131.221 71.8513C127.033 68.5179 122.486 65.6637 117.663 63.3419C112.331 60.7931 106.726 58.8612 100.956 57.5839C102.446 56.5162 104.105 55.706 105.863 55.187C113.066 53.319 120.704 54.1671 127.321 57.5697C133.632 61.016 140.766 69.6814 137.249 77.3399C135.235 75.5104 133.377 73.5674 131.221 71.8513Z" fill="#7D7E81"/>
</g>
<path d="M79.9518 58.5763C77.8497 56.6232 75.3189 55.1902 72.5627 54.3925C63.9933 52.1771 54.9086 53.1866 47.0344 57.2289C39.4469 61.3844 30.824 71.8793 35.3482 81.0553C38.6385 87.721 46.8501 90.1604 53.7853 89.8626C62.3798 89.508 74.1937 86.5864 79.427 79.084C81.4462 76.1293 82.6943 72.7165 83.0577 69.1563C83.1995 65.5823 82.5188 61.1716 79.9518 58.5763ZM79.0724 68.8727C78.7791 71.8768 77.7354 74.759 76.0374 77.2544C71.6409 83.5656 61.699 86.0192 54.4944 86.317C48.6796 86.5581 41.7302 84.5158 39.0356 78.928C35.2347 71.1986 42.4677 62.3913 48.8498 58.9025C55.4675 55.5012 63.1051 54.6531 70.3077 56.5198C72.6277 57.1836 74.7568 58.3891 76.5196 60.037C78.6753 62.2211 79.2426 65.9227 79.0724 68.8727Z" fill="#006590"/>
<path d="M52.6221 90.2457C46.2542 90.2457 38.2837 87.8772 35.0076 81.2257C32.3554 75.8364 34.2559 70.5606 36.3123 67.0433C38.8917 62.8124 42.5154 59.3156 46.8357 56.8887C52.0943 54.1712 57.9353 52.7742 63.8545 52.8184C66.8411 52.7982 69.8156 53.1993 72.6901 54.0097C75.5052 54.8137 78.0905 56.2715 80.2352 58.2644C82.4618 60.5194 83.6389 64.5472 83.3836 69.0572C83.0393 72.7052 81.7702 76.2052 79.6962 79.226C74.4913 86.7001 62.8901 89.7777 53.7708 90.1748L52.6221 90.2457ZM63.8262 53.5701C58.0367 53.5284 52.3235 54.8909 47.176 57.5411C34.809 64.3203 32.9937 75.496 35.6458 80.8995C38.7801 87.2674 46.4669 89.5366 52.6646 89.5366H53.7567C62.7057 89.1537 74.0658 86.1612 79.1148 78.8998C81.1009 75.9803 82.3292 72.6124 82.6887 69.0998C82.7738 67.4972 82.8305 62.0086 79.7388 58.8601C77.6871 56.9394 75.2078 55.5345 72.5058 54.7614C69.6748 53.951 66.7424 53.5499 63.7978 53.5701H63.8262ZM53.5581 86.7001C48.1972 86.7001 41.4747 84.7004 38.7092 79.0842C36.4683 74.5458 38.0709 70.0783 39.8154 67.1426C41.9921 63.5934 45.0444 60.6632 48.6794 58.6332C53.097 56.3516 58.0033 55.1786 62.9752 55.2152C65.4878 55.194 67.9904 55.5332 70.4068 56.2222C72.7835 56.9047 74.9653 58.139 76.7747 59.8245C78.6609 61.7249 79.6111 65.1287 79.4409 68.9296C79.1317 71.983 78.0587 74.9094 76.3208 77.439C71.9385 83.736 62.1384 86.3314 54.5083 86.6576L53.5581 86.7001ZM62.9752 55.8676C58.1234 55.8289 53.3347 56.9677 49.0197 59.1863C42.6519 62.6751 35.745 71.4115 39.3474 78.7438C41.9711 84.0622 48.4099 85.9484 53.5297 85.9484H54.4374C61.9399 85.6364 71.4563 83.1119 75.711 77.0419C77.372 74.6006 78.3958 71.7826 78.6893 68.8445C78.7744 67.4262 78.8169 62.8879 76.2357 60.335C74.5132 58.7364 72.4387 57.5655 70.1799 56.9171C67.8394 56.2312 65.4141 55.8779 62.9752 55.8676Z" fill="#214168"/>
<path d="M79.9664 57.2858C77.8716 55.3072 75.3403 53.8496 72.5774 53.0311C64.0079 50.8158 54.9233 51.8252 47.0491 55.8676C39.4615 60.023 30.8386 70.518 35.3628 79.694C38.639 86.3597 46.8505 88.7991 53.7999 88.5013C62.3944 88.1467 74.2225 85.2251 79.4558 77.7227C81.475 74.768 82.7231 71.3552 83.0865 67.795C83.2142 64.2778 82.5334 59.867 79.9664 57.2858ZM79.0871 67.5822C78.7889 70.5875 77.7404 73.4697 76.0379 75.964C71.6555 82.2752 61.7137 84.7287 54.4949 85.0266C48.6943 85.2677 41.8016 83.2254 39.0361 77.6376C35.2352 69.9082 42.4824 61.1009 48.8503 57.612C55.4732 54.2111 63.115 53.3631 70.3224 55.2294C72.6493 55.8747 74.7886 57.0659 76.5626 58.7041C78.69 60.9024 79.2573 64.6181 79.0871 67.5681V67.5822Z" fill="#A2BA3A"/>
<path d="M52.6363 88.9416C46.2685 88.9416 38.2838 86.5731 35.0076 79.9216C32.3697 74.5323 34.2702 69.2564 36.3266 65.7392C38.9019 61.505 42.5266 58.0073 46.8499 55.5846C52.0954 52.911 57.9107 51.5485 63.7979 51.6136C66.7844 51.5943 69.7587 51.9953 72.6335 52.8049C75.4473 53.6118 78.032 55.0693 80.1785 57.0596C82.4052 59.3146 83.5823 63.3424 83.327 67.8524C82.976 71.4989 81.7074 74.9972 79.6396 78.0211C74.4205 85.4952 62.8193 88.5728 53.7 88.9699L52.6363 88.9416ZM63.8404 52.266C58.0506 52.2208 52.3365 53.5836 47.1903 56.237C34.8091 63.0162 33.0079 74.1777 35.66 79.5954C38.7802 85.9633 46.4812 88.2325 52.6789 88.2325H53.7567C62.7058 87.8495 74.0659 84.8571 79.129 77.5957C81.1134 74.6765 82.337 71.3078 82.6888 67.7957C82.9441 63.5409 81.8378 59.655 79.753 57.5418C77.6979 55.6289 75.2194 54.2292 72.52 53.4573C69.6843 52.6465 66.7472 52.2454 63.7979 52.266H63.8404ZM53.5724 85.396C48.1972 85.396 41.4748 83.3963 38.7234 77.78C36.4826 73.2417 38.0852 68.7742 39.8297 65.8385C42.0009 62.2899 45.0485 59.3595 48.6794 57.3291C53.1028 55.049 58.0132 53.8762 62.9895 53.9111C65.502 53.8909 68.0045 54.23 70.421 54.9181C72.7978 55.5905 74.9773 56.8262 76.7747 58.5204C78.661 60.4208 79.6112 63.8246 79.441 67.6255C79.1556 70.7039 78.0863 73.6579 76.3351 76.2058C71.9527 82.5028 62.1527 85.0981 54.5084 85.4243L53.5724 85.396ZM62.9895 54.5777C58.1363 54.5416 53.3471 55.6854 49.034 57.9105C42.6661 61.3994 35.7593 70.1357 39.3616 77.468C41.9854 82.7864 48.41 84.6727 53.544 84.6727H54.4517C61.9542 84.3607 71.4705 81.8362 75.7253 75.7661C77.3804 73.3167 78.4036 70.4956 78.7035 67.5546C78.8744 66.0435 78.7443 64.5135 78.3208 63.053C77.8972 61.5925 77.1886 60.2303 76.2358 59.0451C74.5206 57.444 72.45 56.2727 70.1941 55.6272C67.8537 54.9411 65.4284 54.5878 62.9895 54.5777Z" fill="#214168"/>
<path d="M70.3218 55.2152C63.1144 53.3489 55.4725 54.1969 48.8496 57.5978C42.4818 61.0867 35.2345 69.8939 39.0354 77.6233C41.8719 83.2112 48.6936 85.2535 54.4942 85.0124C61.7131 84.7145 71.6549 82.261 76.0373 75.9498C77.7397 73.4554 78.7882 70.5733 79.0865 67.568C79.2566 64.6181 78.6894 60.9023 76.5195 58.7324C74.762 57.0847 72.6376 55.879 70.3218 55.2152Z" fill="#7D7E81"/>
<path d="M53.5723 85.5086C48.1688 85.5086 41.4038 83.4947 38.6099 77.836C34.5963 69.6811 42.2122 60.6894 48.6226 57.1864C53.0611 54.8892 57.9918 53.7064 62.9894 53.7401C65.5158 53.7201 68.0324 54.0592 70.4635 54.7471C72.8566 55.4423 75.0526 56.6909 76.8739 58.3919C78.7744 60.3207 79.7813 63.7529 79.5686 67.5963C79.264 70.6925 78.1862 73.6624 76.4343 76.2333C72.0236 82.5587 62.2519 85.1682 54.5225 85.4944L53.5723 85.5086ZM62.9894 54.7045C58.1558 54.6664 53.3856 55.8055 49.0906 58.0232C42.7653 61.4837 35.901 70.1491 39.475 77.4105C42.0562 82.6721 48.4524 84.5017 53.5723 84.5017H54.4799C61.954 84.1897 71.4279 81.6652 75.6542 75.6519C77.3001 73.2263 78.3141 70.4281 78.6042 67.5112C78.7925 66.0036 78.6761 64.4736 78.262 63.0119C77.8478 61.5501 77.1443 60.1865 76.1932 59.0018C74.4841 57.421 72.43 56.2604 70.194 55.6122C67.847 54.9726 65.4216 54.667 62.9894 54.7045Z" fill="#453F40"/>
<g style="mix-blend-mode:screen">
<path d="M44.964 71.8511C49.1518 68.5177 53.6996 65.6635 58.5223 63.3417C63.854 60.7929 69.4592 58.861 75.2292 57.5837C73.739 56.516 72.0803 55.7058 70.3221 55.1868C63.1147 53.3206 55.4728 54.1685 48.8499 57.5695C42.553 61.0158 35.4192 69.6812 38.9223 77.3397C40.9504 75.5102 42.8082 73.5672 44.964 71.8511Z" fill="#7D7E81"/>
</g>
<path d="M92.9854 146.89C89.8927 147.367 86.7287 146.99 83.8345 145.8C80.9404 144.61 78.4259 142.653 76.5622 140.14C74.3752 137.381 72.821 134.176 72.0096 130.751C71.7721 130.027 71.6985 129.26 71.7941 128.505C71.8898 127.749 72.1523 127.024 72.5627 126.383C73.5101 125.432 74.729 124.797 76.0516 124.567C80.3063 123.49 84.4476 125.347 88.135 127.404C88.2484 127.404 88.4612 127.276 88.3335 127.191C85.6917 125.4 82.6992 124.192 79.5546 123.646C79.7045 123.091 79.7335 122.511 79.6397 121.944C79.6397 121.334 79.6397 120.724 79.6397 120.114C79.629 118.917 79.4082 117.732 78.9874 116.611C78.8881 116.384 78.5477 116.611 78.5902 116.781C78.7722 118.011 78.8339 119.255 78.7746 120.497C78.7746 121.093 78.7746 121.674 78.7746 122.27C78.7116 122.703 78.7116 123.142 78.7746 123.575C78.3023 123.547 77.8287 123.547 77.3564 123.575C74.5199 123.887 71.1587 125.22 70.719 128.453C70.581 130.319 70.8872 132.19 71.6125 133.914C72.3292 135.784 73.237 137.576 74.3213 139.26C76.1691 142.238 78.7853 144.664 81.8947 146.281C83.5909 147.236 85.4615 147.841 87.3958 148.06C89.33 148.279 91.2886 148.108 93.1555 147.557C93.4392 147.444 93.581 146.791 92.9854 146.89Z" fill="#A05627"/>
<path d="M120.415 149.471C120.088 147.713 118.287 147.259 116.727 147.471C114.8 147.913 113.053 148.932 111.721 150.393C110.244 151.931 108.326 152.972 106.232 153.371C103.962 153.454 101.699 153.072 99.5807 152.251C98.5655 151.945 97.4963 151.863 96.4464 152.01C95.4031 152.255 94.4317 152.74 93.6099 153.428C92.0215 154.605 90.7734 156.265 89.1141 157.257C86.8679 158.412 84.2851 158.734 81.8243 158.165C80.0515 157.895 78.3071 157.427 76.5343 157.13C75.2412 156.796 73.8847 156.796 72.5916 157.13C72.3102 157.216 72.0506 157.362 71.8299 157.556C71.6092 157.751 71.4326 157.991 71.3118 158.259C71.191 158.528 71.1288 158.819 71.1294 159.113C71.13 159.407 71.1933 159.698 71.3152 159.966C71.4773 160.295 71.7146 160.58 72.0079 160.799C72.3011 161.019 72.6421 161.166 73.0029 161.228C74.2322 161.667 75.5703 161.697 76.8179 161.313C79.1687 160.998 81.5476 160.95 83.9091 161.172C86.1636 161.446 88.4477 161.015 90.4472 159.938C92.0073 158.988 93.2837 157.598 94.9147 156.761C97.0846 155.641 99.4956 156.321 101.722 156.917C104.078 157.738 106.56 158.136 109.054 158.094C110.849 157.9 112.601 157.421 114.245 156.676C115.904 156.021 117.425 155.058 118.727 153.839C119.343 153.304 119.819 152.626 120.113 151.865C120.407 151.103 120.511 150.282 120.415 149.471Z" fill="#A05627"/>
<path d="M118.982 152.436C117.963 153.794 116.609 154.864 115.053 155.542C113.622 156.251 112.107 156.775 110.543 157.102C108.162 157.464 105.728 157.24 103.452 156.45C101.378 155.685 99.1815 155.306 96.9709 155.329C93.2834 155.726 91.2979 159.456 87.7665 160.18C85.5037 160.421 83.2217 160.421 80.959 160.18C79.8064 160.159 78.6539 160.23 77.5126 160.392C76.7468 160.492 75.9809 160.676 75.2009 160.747C74.4209 160.818 73.5557 160.875 73.0735 160.236C72.9743 160.109 72.7332 160.151 72.5772 160.236C72.3443 160.093 72.1548 159.89 72.0291 159.647C71.9033 159.404 71.8462 159.132 71.8637 158.859C71.8812 158.586 71.9727 158.323 72.1284 158.099C72.2841 157.874 72.4981 157.696 72.7474 157.584C73.9682 157.322 75.2351 157.365 76.4348 157.712C78.0658 158.038 79.6825 158.435 81.3277 158.69C83.5113 159.127 85.7677 159.035 87.9083 158.421C89.5697 157.736 91.0607 156.695 92.2765 155.372C93.6947 153.954 95.2973 152.535 97.4105 152.535C99.5237 152.535 101.538 153.712 103.665 153.954C105.483 154.186 107.329 153.89 108.983 153.103C110.616 152.136 112.117 150.963 113.451 149.614C114.798 148.479 116.784 147.345 118.571 148.196C120.358 149.046 119.776 151.202 118.982 152.436Z" fill="#FFFAF7"/>
</g>
</svg>
