<svg width="204" height="263" viewBox="0 0 204 263" fill="none" xmlns="http://www.w3.org/2000/svg">
<path d="M76.6103 68.0698C76.6103 68.0698 75.4316 57.074 75.4316 56.768C75.4316 56.4621 66.0015 56.768 66.0015 56.768C66.0015 56.768 40.6537 60.7542 26.8955 66.666C13.1373 72.5778 15.018 76.7889 15.018 76.7889C15.018 76.7889 21.1547 74.8634 20.6238 76.2761C20.0929 77.6888 14.1991 83.8256 14.1991 83.8256C14.1991 83.8256 14.4691 83.6546 17.4925 83.8256C20.5158 83.9965 27.5254 83.2767 26.8685 83.3486C26.2117 83.4206 20.5698 87.3168 20.4708 87.4517C20.3719 87.5867 22.5674 89.6203 23.1703 89.4943C23.7732 89.3684 31.8265 93.1656 37.5674 118.504C43.3082 143.843 39.097 152.481 39.097 152.481C39.097 152.481 41.4455 154.578 44.7929 157.997C55.0934 168.288 67.9781 175.612 82.0903 179.197C99.7685 183.742 118.375 183.165 135.737 177.532C149.99 172.97 168.473 161.111 168.473 161.111C168.473 161.111 167.447 146.048 169.372 143.348C171.298 140.649 172.648 137.949 171.082 137.104C170.687 136.857 170.23 136.727 169.764 136.727C169.298 136.727 168.841 136.857 168.446 137.104L165.8 137.338C165.8 137.338 156.451 138.597 143.305 136.087C130.158 133.576 119.577 131.993 110.012 132.623C100.447 133.252 99.5917 133.648 99.5827 133.522C99.5737 133.396 123.293 124.317 127.189 121.744C131.085 119.17 144.16 113.852 154.705 114.707C165.251 115.562 168.32 117.479 171.073 116.714C173.827 115.949 173.584 113.052 172.567 109.515C171.891 107.033 171.588 104.465 171.667 101.894C171.667 101.174 172.162 92.6168 177.525 90.3402C182.888 88.0637 181.871 88.3606 181.7 87.5867C181.247 86.4925 180.696 85.4415 180.053 84.4464L188.224 84.8873L186.883 82.6377L182.564 76.429C184.87 76.2737 187.185 76.5452 189.393 77.2298C192.255 78.3276 187.045 72.8118 183.275 71.2462C179.504 69.6805 170.956 61.861 148.677 57.4609C126.397 53.0608 126.694 55.1574 126.694 55.1574L76.6103 68.0698Z" fill="url(#paint0_linear_276_4726)"/>
<path d="M18.0322 188.411C18.0322 188.411 5.3358 200.603 7.08144 207.649C8.82709 214.695 12.3903 218.177 17.4473 220.858C22.5043 223.54 32.3483 227.103 30.2877 228.444C28.2271 229.785 22.5763 231.818 21.0106 235.813C19.4449 239.808 26.1665 248.132 35.5336 245.441C44.9007 242.751 45.6566 231.593 44.9727 228.849C44.2888 226.104 39.7178 218.771 39.7178 218.771L29.8198 208.927L37.5582 201.233C37.5582 201.233 38.8989 209.332 39.0069 210.106C39.1149 210.879 40.0507 213.642 40.0507 213.642C40.0507 213.642 47.7441 201.566 47.7081 196.194C47.6721 190.823 46.5564 177.685 46.5564 177.685C46.5564 177.685 40.4916 166.725 39.7178 166.788C38.9439 166.851 23.6021 182.877 23.6021 182.877L18.0322 188.411Z" fill="url(#paint1_linear_276_4726)"/>
<path d="M202.261 203.852C200.614 197.022 190.563 190.238 190.563 190.238L171.667 173.564L169.939 171.306C168.391 172.951 166.977 174.717 165.71 176.588C162.876 180.709 159.6 186.827 159.285 193.423C158.728 205.274 162.597 212.319 164.054 215.127C165.107 217.151 166.286 219.194 166.844 220.157L167.069 220.544C166.325 221.359 165.717 222.289 165.269 223.297C164.144 226.599 162.066 238.477 168.266 242.418C169.865 243.358 171.654 243.927 173.503 244.083C175.043 244.236 176.596 244.236 178.137 244.083C183.05 243.66 187.63 241.959 188.412 240.663C189.771 238.432 184.291 230.469 183.284 230.001L178.784 227.877C182.161 225.339 185.851 223.246 189.762 221.65C195.719 219.329 203.907 210.691 202.261 203.852ZM169.372 216.449C169.372 216.449 170.344 203.312 171.802 201.935C171.831 201.904 171.865 201.879 171.904 201.863C171.943 201.846 171.985 201.837 172.027 201.837C172.069 201.837 172.111 201.846 172.15 201.863C172.188 201.879 172.223 201.904 172.252 201.935C172.968 202.626 173.636 203.366 174.249 204.149C176.148 206.47 178.371 209.548 178.371 209.548L177.741 210.097C176.13 211.527 171.82 215.379 168.679 218.708C168.275 219.14 167.888 219.554 167.528 219.959L169.372 216.449Z" fill="url(#paint2_linear_276_4726)"/>
<path d="M76.4934 46.7354C76.4934 46.7354 72.5252 54.7798 83.449 56.7684C94.3728 58.757 118.893 51.4504 120.953 50.3347C123.014 49.2189 125.389 47.7342 124.724 45.9796C124.058 44.2249 118.587 28.7391 105.728 27.9833C92.8701 27.2274 82.6212 36.5045 82.6212 36.5045L76.4934 46.7354Z" fill="url(#paint3_linear_276_4726)"/>
<path d="M79.3008 8.91551C79.3008 8.91551 74.5498 15.2142 76.3134 17.5627C78.0771 19.9113 91.4573 13.7295 91.4573 13.7295C91.4573 13.7295 96.8562 8.0157 96.3523 7.00791C95.8484 6.00011 89.3428 0.826172 89.3428 0.826172L79.3008 8.91551Z" fill="url(#paint4_linear_276_4726)"/>
<path d="M85.3926 58.0097L75.9265 54.3384C75.9265 54.3384 72.6602 74.4944 85.9775 83.5105C99.2947 92.5267 112.324 89.8722 119.748 78.8494C127.171 67.8267 126.685 58.5316 126.685 58.5316L125.326 49.1465L122.204 49.6234C115.234 53.2983 107.783 55.9759 100.069 57.5778C87.6871 60.0613 85.3926 58.0097 85.3926 58.0097Z" fill="url(#paint5_linear_276_4726)"/>
<path d="M41.2476 168.102C44.1989 171.09 48.905 182.5 47.4383 194.305C45.9716 206.111 39.9248 212.931 39.9248 212.931C39.9248 212.931 39.9249 217.43 40.9956 219.23C42.0664 221.03 45.2787 228.417 44.9728 233.366C44.6669 238.315 48.5721 251.363 49.8498 254.521C51.1275 257.679 52.8462 262.034 52.9632 262.331H95.9564C97.5221 259.812 99.5017 257.571 102.066 257.769C106.961 258.129 110.165 257.832 110.677 258.561C110.857 258.84 112 260.361 113.26 262.331H156.28C155.821 260.091 153.329 262.484 156.946 257.589C160.833 252.343 164.207 237.793 163.992 237.55C163.776 237.307 162.561 229.119 164.315 226.114C165.403 224.239 166.376 222.301 167.231 220.31C167.231 220.31 160.707 210.907 159.888 199.776C159.07 188.645 160.536 184.74 160.536 184.74L167.843 173.312L168.743 172.332L168.473 161.111L167.114 161.597C167.114 161.597 153.5 170.919 140.947 175.841C128.395 180.763 114.79 182.302 99.5556 182.005C86.3659 181.638 73.4659 178.051 61.9794 171.558C52.7202 166.375 40.9326 155.667 39.9068 153.265C38.881 150.862 39.241 161.669 39.241 161.669C39.0063 162.823 39.0671 164.019 39.4179 165.143C39.7687 166.268 40.3981 167.286 41.2476 168.102Z" fill="url(#paint6_linear_276_4726)"/>
<path d="M140.749 116.75C134.355 118.994 128.104 121.629 122.033 124.641C111.658 129.743 104.649 132.829 109.688 132.676C114.727 132.523 128.494 132.073 135.71 134.719C142.927 137.364 160.905 138.129 162.417 138.201C163.524 138.115 164.555 137.606 165.296 136.78C165.296 136.78 162.534 129.581 163.407 127.475C164.28 125.37 167.906 116.75 167.906 116.75C167.906 116.75 151.889 114.581 149.577 114.581C147.264 114.581 140.749 116.75 140.749 116.75Z" fill="url(#paint7_linear_276_4726)"/>
<path d="M46.5924 236.344C49.0489 238.423 51.1545 239.943 51.1545 239.943L52.3962 246.449C52.3962 246.449 71.1934 254.125 76.5023 258.048C78.1005 259.185 79.443 260.644 80.4435 262.331H90.5124C91.6642 260.18 92.8969 258.525 93.8418 258.336C96.1273 257.868 102.021 258.093 102.021 258.093C107.173 258.218 112.327 258.013 117.453 257.481C124.714 256.581 130.779 256.023 133.785 255.321C136.646 254.646 136.484 258.075 136.484 262.331H150.611C150.671 261.543 150.803 260.763 151.007 260C154.318 249.886 153.77 242.733 155.956 240.852C158.143 238.972 154.525 240.411 154.525 240.411C154.525 240.411 178.146 218.816 163.164 180.214C163.164 180.214 160.23 171.476 159.699 165.646H135.935C133.416 167.229 131.823 170.891 134.756 179.053C141.055 196.5 149.441 231.8 131.373 240.762C113.305 249.724 74.7296 256.257 39.7178 227.994C39.7178 228.012 44.1449 234.257 46.5924 236.344Z" fill="url(#paint8_linear_276_4726)"/>
<path d="M93.3829 59.1616C93.3829 59.4405 93.3829 59.7284 93.3829 60.0614C93.3829 65.0734 97.0632 69.1315 101.598 69.1315C106.133 69.1315 109.805 65.0734 109.805 60.0614C109.81 58.4509 109.414 56.8644 108.653 55.4453C103.686 57.3619 98.6199 59.0086 93.3829 59.1616Z" fill="url(#paint9_linear_276_4726)"/>
<path d="M137.96 56.7678C137.96 56.7678 131.067 83.7622 133.578 97.5834C136.088 111.405 137.375 114.581 136.187 118.432C143.269 115.711 150.864 114.584 158.431 115.13C170.353 116.201 168.86 117.145 169.336 116.588C169.813 116.03 169.732 112.385 167.537 108.219C165.341 104.053 165.179 89.989 174.06 87.0826L169.444 81.2697C172.268 80.2308 175.297 79.8712 178.286 80.2198C181.275 80.5684 184.14 81.6155 186.649 83.2764L186.064 79.7941L174.744 75.2951L168.536 74.8181C168.536 74.8181 177.867 68.6903 187.063 74.8811C196.259 81.0718 181.97 69.0593 181.97 69.0593C181.97 69.0593 153.806 55.373 137.96 56.7678Z" fill="url(#paint10_linear_276_4726)"/>
<path d="M137.96 135.124C137.96 135.124 136.565 140.046 134.756 140.991C134.756 140.991 113.62 137.059 97.1171 142.089C97.1171 142.089 121.322 139.236 134.756 145.22C134.756 145.22 132.165 167.014 133.029 177.973C133.029 177.973 154.84 170.262 158.88 167.292C162.921 164.323 162.075 164.8 162.075 164.8C162.075 164.8 162.129 147.101 163.874 143.744C164.879 141.899 165.67 139.946 166.232 137.922C166.232 137.922 141.91 136.051 137.96 135.124Z" fill="url(#paint11_linear_276_4726)"/>
<path d="M173.503 225.546C172.816 227.323 172.703 229.27 173.179 231.115C173.655 232.959 174.696 234.608 176.157 235.831C175.995 235.57 173.692 231.53 178.218 228.534C178.218 228.534 182.852 231.602 183.68 235.084C184.507 238.566 183.68 243.183 178.074 244.082C176.541 244.352 174.973 244.352 173.44 244.082C169.202 243.3 165.341 240.276 164.711 233.797C164.112 228.451 165.531 223.073 168.689 218.716C169.453 217.636 170.289 216.608 171.19 215.639C173.19 213.584 175.387 211.73 177.75 210.105C178.803 209.376 179.495 208.944 179.495 208.944L174.259 204.158L171.811 201.935C171.577 202.097 169.867 203.285 170.011 203.555C170.155 203.825 170.101 216.062 166.826 220.147C166.268 219.184 165.089 217.142 164.037 215.117C162.579 212.346 158.71 205.264 159.268 193.414C159.583 186.818 162.867 180.699 165.692 176.578C165.888 176.635 166.078 176.71 166.259 176.803C166.259 176.803 178.065 187.979 183.248 192.847C188.431 197.715 193.785 202.664 194.252 204.985C194.53 206.472 194.53 207.998 194.252 209.484C194.252 209.484 175.932 219.256 173.503 225.546Z" fill="url(#paint12_linear_276_4726)"/>
<path d="M28.6052 244.299C28.6052 244.299 42.1924 237.802 37.6034 226.248C33.0143 214.695 18.5093 208.333 18.5093 208.333C18.5093 208.333 40.5368 188.402 43.0293 182.355C43.0293 182.355 46.1336 195.763 44.244 203.699C42.3544 211.635 40.2398 212.697 40.2398 212.697L38.3592 201.333C38.3592 201.333 27.3364 207.46 30.9537 209.737C34.571 212.013 43.4072 217.439 44.8379 226.087C46.2686 234.734 41.9854 241.536 39.6099 243.399C37.2344 245.262 28.6052 244.299 28.6052 244.299Z" fill="url(#paint13_linear_276_4726)"/>
<path d="M94.9938 28.6218C94.9938 28.6218 104.586 38.7087 107.024 46.6721C107.024 46.6721 104.037 49.1285 90.7556 49.9114C96.5726 50.7287 102.498 50.2744 108.122 48.5797C108.956 50.3685 109.686 52.2042 110.309 54.0775C110.947 56.2821 120.477 50.5503 120.477 50.5503C120.477 50.5503 114.961 27.83 94.9938 28.6218Z" fill="url(#paint14_linear_276_4726)"/>
<path d="M110.885 55.3558C110.885 55.3558 116.697 83.412 101.535 88.9459C101.535 88.9459 111.163 90.4576 116.688 82.5932C122.213 74.7288 122.591 59.432 120.45 50.5508L110.885 55.3558Z" fill="url(#paint15_linear_276_4726)"/>
<path d="M77.0062 17.2209C77.0062 17.2209 82.5851 15.0254 84.9786 12.9828C85.5589 12.4387 86.0156 11.7764 86.318 11.0406C86.6204 10.3049 86.7614 9.51285 86.7316 8.71795C86.7017 7.92304 86.5017 7.1438 86.1449 6.43282C85.7882 5.72183 85.2831 5.0956 84.6637 4.5965L88.002 2.92285C88.002 2.92285 91.4213 6.73812 91.9342 8.03386C92.4471 9.32959 94.2467 6.73806 94.2467 6.73806C94.5332 7.7141 94.7645 8.7055 94.9396 9.7075C94.8496 9.82448 83.5659 17.7068 81.6763 18.0757C79.7867 18.4447 77.0062 17.2209 77.0062 17.2209Z" fill="url(#paint16_linear_276_4726)"/>
<path d="M165.449 137.446C165.449 137.446 148.038 138.04 143.44 136.933C138.842 135.826 122.303 132.434 122.303 132.434L121.997 131.678C118.47 131.885 108.833 132.407 107.852 132.002C106.637 131.498 109.598 129.573 116.067 126.936C122.537 124.3 132.264 120.044 132.264 120.044L142.207 116.993L141.676 123.067H141.001L140.839 126.081C135.913 125.979 131.037 127.089 126.64 129.312C128.584 129.887 132.183 130.886 135.863 131.579C141.37 132.605 143.692 133.064 144.079 132.128C144.466 131.192 143.332 123.013 143.332 123.013L152.762 122.464C152.762 122.464 152.06 132.569 152.528 133.154C152.996 133.739 154.103 133.154 154.103 133.154L154.634 131.228C154.634 131.228 161.904 132.236 163.776 132.128C165.647 132.02 165.449 137.446 165.449 137.446Z" fill="url(#paint17_linear_276_4726)"/>
<path d="M154.48 118.549C154.48 118.549 164.441 120.088 165.278 121.033C166.115 121.977 167.483 116.669 167.483 116.669L154.822 114.752L154.48 118.549Z" fill="url(#paint18_linear_276_4726)"/>
<path d="M88.9468 33.3369C88.9468 33.3369 82.0272 41.2283 79.8316 54.8245C79.8316 54.8245 76.5473 56.2012 77.4201 51.6841C78.293 47.167 83.9978 35.8924 88.9468 33.3369Z" fill="#FDEB07"/>
<path d="M24.502 89.0625H24.7359C25.8337 89.0625 30.5217 89.4585 33.7341 95.7392C37.3333 102.893 41.4365 116.435 42.5343 129.527C43.1595 137.842 42.8093 146.201 41.4905 154.434L40.0958 152.392C40.0958 152.392 40.3117 128.744 37.9632 121.123C35.6147 113.502 29.4869 94.1285 29.4869 94.1285L24.502 89.0625Z" fill="#FDEB07"/>
<path d="M32.7623 174.562C32.7623 174.562 14.0192 197.193 11.3107 200.792C8.60228 204.391 9.00715 211.05 11.5986 215.405C14.1901 219.76 6.5327 210.159 6.91962 205.741C7.30654 201.323 9.34909 196.536 13.0743 193.891C16.7996 191.245 32.7623 174.562 32.7623 174.562Z" fill="#FDEB07"/>
<path d="M78.5899 9.94141C78.5899 9.94141 77.5371 12.6408 78.257 14.5214C78.9768 16.4021 79.9037 17.1309 81.2084 17.4458C82.5132 17.7608 78.113 18.6966 77.6991 18.1477C77.2852 17.5988 75.5576 15.6102 75.8995 14.2875C76.2414 12.9648 78.5899 9.94141 78.5899 9.94141Z" fill="#FDEB07"/>
<path d="M77.4202 57.2901C75.9625 57.3441 74.4238 57.443 72.9211 57.56C71.4184 57.677 69.8977 57.83 68.422 57.9919C65.4076 58.3159 62.3843 58.7209 59.4239 59.2158C57.9212 59.4587 56.4185 59.7196 54.9248 60.0075C53.4311 60.2954 51.9464 60.5834 50.4257 60.9073C48.905 61.2312 47.4653 61.5912 45.9896 61.9511C44.5139 62.3111 43.0472 62.716 41.5985 63.148C35.7691 64.7918 30.1057 66.9759 24.682 69.6716C23.9981 69.9956 23.3412 70.3644 22.6843 70.7243C22.0275 71.0843 21.3526 71.4352 20.7227 71.8401L18.7971 73.0099L16.9346 74.2697C16.2957 74.6746 15.7288 75.1695 15.1349 75.6014L14.2351 76.2762L13.3803 76.996C12.2105 77.9408 11.1577 78.9847 10.0869 80.0195L8.33231 77.8419C8.69224 77.626 9.00717 77.482 9.3401 77.3111C9.67303 77.1401 9.99693 77.0141 10.3209 76.8702C10.6448 76.7262 10.9777 76.5732 11.3197 76.4652L12.3274 76.1052C12.9938 75.8647 13.6726 75.6605 14.361 75.4934L15.3958 75.2144L16.4396 75.0255L17.4834 74.8366C17.8307 74.763 18.1823 74.7118 18.5362 74.6836L20.6597 74.5036C21.0103 74.4812 21.362 74.4812 21.7126 74.5036H22.7834L24.9069 74.5666L33.4642 74.7915L25.1949 77.329C24.9789 77.392 24.6639 77.527 24.385 77.635C24.1061 77.743 23.8181 77.8869 23.5392 78.0128C22.9633 78.2558 22.4234 78.5977 21.8655 78.9127C21.3076 79.2276 20.7858 79.5875 20.2459 79.9204C19.9849 80.1004 19.706 80.2445 19.454 80.4514L18.6982 81.0363C18.1769 81.4083 17.6781 81.8109 17.2045 82.242L15.7828 83.5287C15.2879 83.9426 14.883 84.4286 14.442 84.9235L13.1463 86.3451L11.7516 84.0507C12.9574 83.7987 14.1451 83.5918 15.3509 83.3758C16.5566 83.1599 17.7444 83.0069 18.9501 82.8179L20.7498 82.557L22.5494 82.368L26.1487 82.0171L33.1672 81.3422L26.8685 84.6895L25.9687 85.2024C25.6628 85.3823 25.3568 85.5713 25.0689 85.7692C24.7809 85.9672 24.457 86.1472 24.1691 86.3632C23.8811 86.5791 23.5752 86.7591 23.2692 86.9841L22.4324 87.6409C22.1535 87.8659 21.9015 88.1089 21.6316 88.3338C21.0827 88.7837 20.6417 89.3236 20.1468 89.8095L19.1391 87.4609C20.231 87.4813 21.3187 87.6049 22.3874 87.8299C22.9183 87.9288 23.4402 88.0909 23.9711 88.2168C24.502 88.3428 25.0059 88.5857 25.5368 88.7657C26.5924 89.2167 27.5845 89.8035 28.4882 90.5113L28.8391 90.7723L29.0101 90.9073L29.145 91.0512L29.208 91.1232L29.6939 91.6901C30.0269 92.104 30.3868 92.6979 30.7197 93.2107C31.2446 94.1275 31.7222 95.0705 32.1504 96.0362C32.5913 96.936 32.9693 97.9078 33.3562 98.8526C34.121 100.742 34.8229 102.632 35.4707 104.548C36.1186 106.465 36.6855 108.391 37.2704 110.325C37.8553 112.26 38.3411 114.212 38.7731 116.183L39.4029 119.153C39.5739 120.151 39.7989 121.141 39.9339 122.158C40.0688 123.175 40.2218 124.173 40.3028 125.199C40.4082 126.24 40.4593 127.285 40.4557 128.331L37.6303 128.421C37.5044 127.521 37.4144 126.558 37.2344 125.604C37.0544 124.65 36.8745 123.706 36.6675 122.752C36.2626 120.853 35.7677 118.954 35.2728 117.056C34.7779 115.157 34.22 113.268 33.6531 111.387C33.0862 109.506 32.4743 107.635 31.8535 105.772L30.8997 102.992C30.5577 102.092 30.2428 101.192 29.8829 100.292C29.5229 99.3925 29.181 98.4927 28.7851 97.5928C28.3892 96.693 27.9753 95.8563 27.5974 95.0554C27.3904 94.7315 27.2914 94.4256 27.0305 94.0566L26.5716 93.4627L26.5086 93.3908L26.6345 93.5168L26.5086 93.4267L26.2746 93.2288C25.6347 92.679 24.9271 92.2133 24.1691 91.843C23.7641 91.672 23.3682 91.4651 22.9543 91.3031C22.5404 91.1412 22.0995 90.9972 21.6675 90.8712C20.7986 90.6288 19.9149 90.4424 19.0221 90.3134L15.9087 90.0884L18.0233 87.9649C18.5667 87.3689 19.1404 86.8013 19.742 86.2642C20.0389 86.0032 20.3269 85.7243 20.6418 85.4814L21.5416 84.7524C21.8475 84.5005 22.1805 84.2936 22.5044 84.0597C22.8284 83.8257 23.1523 83.6187 23.4852 83.4027C23.8181 83.1868 24.151 82.9889 24.493 82.7909C24.8349 82.593 25.1588 82.404 25.5457 82.197L26.2746 84.8965L22.7653 85.2384C22.1805 85.3014 21.5866 85.3464 20.9657 85.4184L19.2111 85.6703C18.0503 85.8592 16.8715 85.9852 15.7108 86.2192C14.55 86.4531 13.3802 86.6242 12.2375 86.8761L7.90937 87.7759L10.8518 84.5545L12.2555 83.0249C12.7099 82.5001 13.1904 81.9986 13.6952 81.5221L15.2429 80.1185C15.7604 79.6565 16.301 79.221 16.8626 78.8137L17.6994 78.1748C17.9693 77.9589 18.2753 77.7879 18.5992 77.5899C19.1931 77.221 19.76 76.8071 20.3988 76.4832C21.0377 76.1593 21.6136 75.7814 22.2795 75.5024C22.6034 75.3495 22.9093 75.1965 23.2512 75.0615C23.5932 74.9265 23.9081 74.7915 24.322 74.6655L24.61 77.428H22.6753H21.7126C21.392 77.4054 21.0703 77.4054 20.7498 77.428L18.8151 77.5899C18.4942 77.6152 18.1754 77.6634 17.8613 77.7339L16.9075 77.9049L15.9537 78.0759L15.0539 78.3279C14.4298 78.4781 13.814 78.6613 13.2093 78.8767L12.3095 79.2007C11.9945 79.2996 11.7156 79.4436 11.4097 79.5606C11.1037 79.6776 10.8158 79.8035 10.5098 79.9565C10.2039 80.1094 9.93396 80.2355 9.71801 80.3615L0 86.1112L7.95435 78.1839C9.06112 77.0411 10.1589 75.8804 11.3647 74.8456L12.2645 74.0537L13.1643 73.3068C13.7942 72.8209 14.388 72.29 15.0359 71.8401L16.9615 70.4545L18.9501 69.1587C19.607 68.7178 20.2908 68.3308 20.9657 67.9259C21.6406 67.521 22.3244 67.116 23.0263 66.7561C28.5638 63.788 34.3657 61.3419 40.3567 59.4496C41.8414 58.9547 43.3441 58.5499 44.8558 58.064C46.3675 57.5781 47.8702 57.2272 49.3549 56.8492C50.8396 56.4713 52.3963 56.1113 53.917 55.7694C55.4377 55.4275 56.9763 55.1126 58.506 54.8066C61.5714 54.2068 64.6518 53.6938 67.7472 53.2679C69.2948 53.0519 70.8425 52.8541 72.3992 52.6831C73.9559 52.5121 75.5036 52.3592 77.1232 52.2422L77.4202 57.2901Z" fill="#016C4D"/>
<path d="M125.452 52.1611C127.072 52.2691 128.611 52.4221 130.176 52.593C131.742 52.764 133.281 52.953 134.828 53.1599C137.933 53.5918 141.01 54.0598 144.078 54.6807C150.225 55.8443 156.297 57.3706 162.264 59.2517C168.276 61.1048 174.102 63.5147 179.666 66.4502C185.329 69.3904 190.472 73.2387 194.891 77.8419L202.989 86.5432L192.678 80.5504C192.489 80.4424 192.192 80.2714 191.922 80.1454L191.076 79.7495C190.5 79.5066 189.906 79.2636 189.276 79.0567C188.646 78.8497 188.062 78.6607 187.477 78.4898C186.892 78.3188 186.244 78.1749 185.614 78.0579C184.984 77.9409 184.354 77.8239 183.724 77.743C183.095 77.662 182.456 77.5899 181.817 77.5629C181.178 77.5359 180.539 77.563 179.9 77.509C179.261 77.455 178.622 77.563 177.984 77.5809L178.316 74.3596C178.757 74.5036 179.063 74.6205 179.414 74.7645C179.765 74.9085 180.08 75.0525 180.395 75.2144C181.043 75.5204 181.673 75.8533 182.285 76.2132C183.498 76.9238 184.667 77.7082 185.785 78.5618C186.325 79.0117 186.883 79.4616 187.396 79.9025C187.909 80.3435 188.439 80.8023 188.934 81.3242C189.429 81.8461 189.906 82.323 190.392 82.8179C190.878 83.3128 191.292 83.8707 191.769 84.3926L194.801 87.8659L190.302 86.894C189.168 86.6511 187.999 86.4082 186.838 86.2103C185.677 86.0123 184.507 85.8053 183.337 85.6254C182.168 85.4454 181.007 85.2924 179.837 85.1574C178.667 85.0225 177.489 84.9325 176.319 84.8245L177.066 82.1251C177.462 82.332 177.786 82.512 178.128 82.719C178.469 82.9259 178.802 83.1328 179.135 83.3398C179.792 83.7717 180.44 84.2396 181.061 84.6985C182.352 85.6491 183.54 86.7317 184.606 87.9288L186.532 90.0884L183.616 90.2594C183.131 90.2852 182.647 90.3393 182.168 90.4213C181.673 90.5023 181.178 90.6103 180.692 90.7272C179.735 90.9685 178.806 91.3093 177.921 91.744C177.487 91.9483 177.072 92.1891 176.679 92.4639C176.296 92.7316 175.938 93.0327 175.608 93.3638C175.453 93.5127 175.309 93.672 175.176 93.8407C175.041 94.0207 174.906 94.2006 174.789 94.3896C174.54 94.7851 174.323 95.2004 174.141 95.6313C173.405 97.4858 173.008 99.458 172.972 101.453C172.904 103.502 173.11 105.551 173.583 107.545L173.466 107.239C174.268 108.775 174.838 110.422 175.158 112.125C175.347 113.072 175.347 114.048 175.158 114.995C175.04 115.56 174.802 116.094 174.46 116.559C174.119 117.025 173.682 117.412 173.179 117.695C172.264 118.161 171.244 118.384 170.218 118.343C169.779 118.337 169.34 118.307 168.904 118.253C168.472 118.253 168.005 118.136 167.645 118.064C166.007 117.749 164.486 117.335 162.957 117.02C159.958 116.339 156.889 116.013 153.815 116.048C150.729 116.124 147.659 116.498 144.645 117.164C138.569 118.601 132.662 120.683 127.027 123.373C121.268 126.009 115.554 128.772 109.741 131.39C103.929 134.008 98.0438 136.537 91.9611 138.589C88.9077 139.608 85.8034 140.487 82.648 141.225C79.4767 141.966 76.256 142.478 73.011 142.755C69.734 143.065 66.435 143.065 63.158 142.755C59.8465 142.404 56.5948 141.624 53.485 140.433C50.3675 139.227 47.4447 137.569 44.8107 135.511C42.2199 133.458 39.9061 131.078 37.9271 128.43L40.1407 126.63C41.1395 127.791 42.1923 128.907 43.281 129.959C44.383 131.001 45.5523 131.969 46.7813 132.857C49.2211 134.623 51.8954 136.04 54.7267 137.068C57.5749 138.062 60.5327 138.709 63.5359 138.993C66.5765 139.281 69.6375 139.281 72.678 138.993C75.7485 138.679 78.7981 138.187 81.8112 137.518C84.8436 136.861 87.849 136.024 90.8094 135.097C96.7931 133.298 102.678 131.03 108.509 128.61C114.34 126.189 120.071 123.49 125.839 120.835C131.674 118.092 137.786 115.98 144.069 114.536C147.255 113.846 150.501 113.469 153.761 113.412C157.034 113.387 160.298 113.747 163.488 114.482C165.062 114.833 166.61 115.238 168.095 115.508C168.464 115.58 168.823 115.634 169.183 115.67C169.533 115.712 169.884 115.733 170.236 115.733C170.803 115.761 171.369 115.65 171.883 115.409C172.069 115.302 172.229 115.154 172.35 114.976C172.472 114.799 172.552 114.596 172.585 114.383C172.696 113.774 172.696 113.149 172.585 112.539C172.303 111.121 171.818 109.751 171.145 108.472L171.064 108.31V108.166C170.517 105.935 170.272 103.641 170.335 101.345C170.349 99.0013 170.795 96.6801 171.649 94.4975C171.882 93.9249 172.165 93.3739 172.495 92.8508C172.666 92.5899 172.846 92.3199 173.044 92.068C173.244 91.8118 173.461 91.5684 173.691 91.3392C174.14 90.9033 174.625 90.5059 175.14 90.1514C175.64 89.8143 176.163 89.5136 176.706 89.2515C177.766 88.7247 178.879 88.3115 180.026 88.0188C180.593 87.8748 181.16 87.7489 181.736 87.659C182.331 87.5552 182.932 87.4831 183.535 87.443L182.537 89.7735C181.591 88.7314 180.541 87.7878 179.405 86.9571C178.829 86.5342 178.236 86.1293 177.606 85.7514C177.3 85.5624 176.994 85.3734 176.706 85.1935C176.418 85.0135 176.076 84.8335 175.806 84.6985L169.255 81.3422L176.553 81.963C177.768 82.062 178.991 82.1161 180.197 82.2601C181.403 82.404 182.609 82.53 183.796 82.692C184.984 82.8539 186.19 83.0339 187.396 83.2408C188.601 83.4478 189.771 83.6547 190.995 83.8977L189.483 86.3992C189.06 85.9223 188.646 85.4364 188.205 84.9685C187.765 84.5006 187.306 84.0687 186.847 83.6098C186.388 83.1509 185.947 82.7099 185.425 82.332C184.903 81.9541 184.435 81.5312 183.94 81.1353C182.924 80.3793 181.864 79.6852 180.764 79.0567C180.215 78.7417 179.657 78.4628 179.099 78.2019C178.82 78.0669 178.532 77.9499 178.254 77.8329L177.471 77.545L168.571 74.7735L177.804 74.3236C178.514 74.3236 179.225 74.2156 179.945 74.2156C180.665 74.2156 181.376 74.2156 182.087 74.2156C182.798 74.2156 183.517 74.3147 184.228 74.3957C184.939 74.4767 185.641 74.5846 186.352 74.7106C187.063 74.8366 187.756 74.9985 188.448 75.1785C189.141 75.3585 189.825 75.5564 190.509 75.7813C191.193 76.0063 191.868 76.2672 192.534 76.5461C192.867 76.6901 193.199 76.8341 193.532 76.996C193.89 77.1599 194.239 77.3432 194.576 77.545L192.39 80.2445C188.173 76.0074 183.288 72.4931 177.93 69.8425C172.529 67.1286 166.891 64.9177 161.085 63.2379C155.252 61.5259 149.316 60.1854 143.314 59.2247C140.314 58.7268 137.315 58.3129 134.315 57.9829C132.813 57.812 131.292 57.668 129.816 57.542C128.341 57.416 126.775 57.3081 125.317 57.2541L125.452 52.1611Z" fill="#016C4D"/>
<path d="M128.377 60.0609L128.17 62.0404C128.17 62.3644 128.089 62.7244 128.053 63.1203C128.017 63.5162 127.891 64.0201 127.801 64.488C127.62 65.6158 127.368 66.7308 127.045 67.8263C126.266 70.7768 125.101 73.6117 123.581 76.2576C121.63 79.731 119.037 82.8027 115.941 85.3098C114.157 86.7461 112.202 87.9551 110.12 88.9091L108.437 89.5569C108.149 89.6649 107.87 89.7908 107.537 89.8718L106.637 90.0968C106.043 90.2407 105.449 90.4297 104.838 90.5377L102.957 90.7806C102.325 90.8649 101.687 90.895 101.049 90.8706H100.078H99.3847H99.2767H99.0518L97.2521 90.6727C96.5857 90.5682 95.925 90.4301 95.2726 90.2588L94.2648 90.0158C93.9408 89.9258 93.6349 89.7909 93.3109 89.6829C92.681 89.4399 92.0332 89.2419 91.4123 88.954L89.6127 88.0542C88.9918 87.7572 88.4519 87.3253 87.8131 86.9654C85.4854 85.4198 83.4198 83.5121 81.6943 81.3145L81.0285 80.4867C80.8125 80.2077 80.6236 79.9108 80.4256 79.5869C80.0387 79.002 79.6157 78.4261 79.2558 77.7872C78.5233 76.5652 77.871 75.2968 77.3032 73.99C76.7246 72.6755 76.2199 71.3297 75.7915 69.9589C75.5846 69.266 75.4316 68.5642 75.2517 67.8713L74.9817 66.8185L74.8017 65.7477L74.4508 63.6061L74.2708 61.4466L74.1898 60.3668V59.278V57.0285L74.3608 54.9589L74.4508 53.9242L74.6308 52.8263L74.9997 50.6308L75.5395 48.5253L75.8095 47.4725L76.1694 46.4377C76.4124 45.7538 76.6283 45.0699 76.8983 44.3951C77.4436 43.0542 78.0686 41.7471 78.7699 40.4809C79.4597 39.2137 80.2323 37.9934 81.0824 36.8277C81.5054 36.2518 81.9823 35.7118 82.4322 35.1539C82.6571 34.875 82.8821 34.5961 83.125 34.3262L83.8809 33.5613C85.8433 31.4974 88.125 29.7625 90.6385 28.4233C91.2526 28.0914 91.8833 27.791 92.5281 27.5235L94.4897 26.7677C95.1466 26.5427 95.8304 26.3988 96.4963 26.2098C96.8292 26.1288 97.1622 26.0298 97.5041 25.9668L98.5209 25.8228C99.1972 25.7094 99.879 25.6313 100.563 25.5889H102.588H103.218L103.668 25.6429L104.568 25.7509C105.195 25.7996 105.818 25.8988 106.43 26.0478L108.419 26.5247C109.049 26.7047 109.625 26.9566 110.219 27.1726L111.118 27.5055C111.406 27.6225 111.676 27.7845 111.955 27.9195L113.602 28.8193C115.611 30.0253 117.456 31.4861 119.091 33.1654C121.906 36.0724 124.131 39.4979 125.641 43.2523C126.821 46.0926 127.623 49.0756 128.026 52.1246C128.206 53.2412 128.314 54.3683 128.35 55.4989C128.35 55.9938 128.413 56.3986 128.422 56.8665C128.431 57.3344 128.422 57.6583 128.422 58.0003L128.368 60.1149L128.377 60.0609ZM124.895 59.7909C124.895 59.7369 124.895 59.0801 124.895 57.9013C124.895 57.5864 124.895 57.2444 124.895 56.8665C124.895 56.4886 124.832 56.0657 124.796 55.6247C124.737 54.5986 124.617 53.5771 124.436 52.5655C124.012 49.8387 123.231 47.1794 122.114 44.656C120.722 41.4063 118.722 38.4527 116.22 35.9548C114.814 34.5635 113.239 33.3542 111.532 32.3555L110.165 31.6626C109.931 31.5457 109.706 31.4108 109.472 31.3208L108.734 31.0508C108.248 30.8798 107.753 30.6549 107.258 30.52L105.8 30.16C105.248 30.0233 104.685 29.936 104.118 29.899L103.218 29.791H102.768C102.633 29.791 102.885 29.791 102.84 29.791H100.824C100.267 29.791 99.7177 29.9171 99.1508 29.9621L98.3139 30.07C98.035 30.115 97.765 30.205 97.4861 30.268C96.9372 30.4119 96.3703 30.5199 95.8214 30.6999L94.1838 31.3208C93.6384 31.5445 93.1066 31.7999 92.5911 32.0856C90.4314 33.2076 88.4659 34.6688 86.7693 36.4137L86.1034 37.0705C85.8965 37.2955 85.6985 37.5475 85.5005 37.7814C85.1046 38.2673 84.6727 38.7352 84.2948 39.2391C83.5348 40.2606 82.8377 41.3274 82.2072 42.4335C81.5411 43.5495 80.9402 44.7032 80.4076 45.8888C80.1646 46.4827 79.9487 47.1035 79.7237 47.6884L79.3818 48.5882L79.1118 49.488L78.5899 51.3866L78.23 53.2672L78.0411 54.2211L77.9331 55.2559L77.7171 57.3164V59.233V60.2229L77.7711 61.2037L77.8881 63.1832L78.1761 65.1359L78.311 66.1166L78.5359 67.0705C78.6889 67.7094 78.8239 68.3572 78.9949 68.9871C79.3543 70.2352 79.787 71.4611 80.2906 72.6583C80.7798 73.851 81.3448 75.0111 81.9823 76.1316C82.2972 76.6895 82.6661 77.2114 83.0171 77.7513C83.188 78.0123 83.359 78.2822 83.5389 78.5431L84.1328 79.281C85.646 81.2612 87.4691 82.9841 89.5317 84.3829C90.0217 84.7372 90.5325 85.0617 91.0614 85.3547L92.6541 86.1826C93.194 86.4435 93.7609 86.6145 94.3007 86.8394C94.5797 86.9384 94.8496 87.0554 95.1286 87.1453L95.9474 87.3433C96.4942 87.5026 97.0501 87.6288 97.6121 87.7212L99.4117 87.9462H99.6367H99.7536H101.049C101.606 87.969 102.163 87.942 102.714 87.8652L104.361 87.6493C104.901 87.5503 105.422 87.3793 105.944 87.2533L106.727 87.0554C106.979 86.9834 107.231 86.8664 107.474 86.7764L108.959 86.2096C110.812 85.3615 112.543 84.2689 114.106 82.9612C116.858 80.6473 119.143 77.8283 120.836 74.6559C122.169 72.2123 123.177 69.6046 123.833 66.8995C124.095 65.92 124.296 64.9254 124.436 63.9211C124.508 63.4802 124.589 63.0932 124.634 62.7153C124.679 62.3374 124.706 61.9505 124.733 61.6266C124.823 60.6278 124.877 59.9709 124.895 59.7819V59.7909Z" fill="#016C4D"/>
<path d="M77.0063 15.7364C77.0038 15.7633 77.0038 15.7904 77.0063 15.8173C77.0063 15.8803 77.0783 15.9884 77.1503 16.1233C77.3563 16.4836 77.6427 16.7915 77.9871 17.0231C78.528 17.3454 79.1674 17.4605 79.7867 17.3471C80.2515 17.2518 80.7064 17.1131 81.1454 16.9331C81.6943 16.7081 82.2342 16.4742 82.8281 16.2043C85.4852 14.9925 88.0611 13.6099 90.5395 12.0651C91.205 11.6402 91.8478 11.1806 92.4652 10.6884C93.043 10.2479 93.5577 9.73018 93.9948 9.14975C94.1748 8.93379 94.2557 8.64576 94.1658 8.83472V9.03277V8.87075V8.54683C94.1245 8.43541 94.0914 8.32113 94.0668 8.2049C93.8735 7.52024 93.6112 6.85701 93.284 6.22534C92.7368 4.99013 91.8226 3.95332 90.6655 3.25591C90.2274 3.03139 89.7253 2.96469 89.2438 3.06698L88.7129 3.23789C88.5779 3.28288 88.389 3.37284 88.227 3.43583C87.8851 3.58879 87.5431 3.75981 87.2012 3.93978C85.8678 4.65578 84.5975 5.48358 83.404 6.41427C82.3125 7.23628 81.2838 8.1386 80.3266 9.11372C78.8986 10.4845 77.7897 12.1526 77.0783 13.9998C76.9196 14.4215 76.858 14.8736 76.8983 15.3225C76.9129 15.4478 76.94 15.5714 76.9793 15.6913L77.0063 15.7364ZM74.9637 16.3932L74.9097 16.1682C74.8568 15.9592 74.8266 15.745 74.8197 15.5294C74.7826 14.792 74.9054 14.0553 75.1797 13.3698C76.1142 11.3248 77.4062 9.46302 78.9949 7.87197C79.8947 6.88217 80.9205 5.83835 82.0632 4.80356C83.2609 3.69096 84.5293 2.65707 85.8605 1.70825C86.2204 1.4653 86.5893 1.2223 86.9852 0.988352C87.1922 0.871376 87.3722 0.763393 87.6241 0.646417C87.8761 0.529441 88.083 0.430501 88.263 0.349517C89.4179 -0.0971173 90.6944 -0.116318 91.8622 0.295476C92.9104 0.677831 93.858 1.29318 94.6337 2.09511C95.3335 2.83254 95.9381 3.65487 96.4333 4.54269C96.9498 5.43779 97.329 6.40533 97.5581 7.41305C97.6121 7.70099 97.6661 8.06092 97.6931 8.31287V8.80781C97.6931 9.04177 97.6931 8.89772 97.6931 8.96071V9.12273V9.32066C97.5371 10.052 97.1749 10.7234 96.6493 11.2553C95.9538 11.935 95.1876 12.5383 94.3638 13.0549C93.6169 13.5588 92.852 13.9548 92.1322 14.4227C89.4831 15.9229 86.7388 17.2484 83.9169 18.3908C83.314 18.6427 82.6931 18.8857 82.1173 19.0927C81.4997 19.3215 80.8605 19.4874 80.2096 19.5876C79.0123 19.7563 77.7949 19.4776 76.7903 18.8048C76.1709 18.3526 75.663 17.7647 75.3056 17.0861C75.1887 16.8521 75.1167 16.6722 75.0627 16.5372C75.0087 16.4022 74.9727 16.4022 74.9637 16.3932Z" fill="#016C4D"/>
<path d="M107.375 55.6969C108.359 57.4583 108.679 59.5146 108.275 61.4916C107.528 65.2979 104.469 68.0694 101.022 68.0694C100.611 68.0685 100.201 68.0262 99.7986 67.9434C95.9654 67.1965 93.5449 63.0664 94.3997 58.7563C94.4874 58.2936 94.6138 57.8391 94.7776 57.3975H93.2569C93.1043 57.4117 92.9507 57.4117 92.7981 57.3975C92.6991 57.7215 92.6181 58.0544 92.5461 58.3963C91.4933 63.7322 94.5797 68.8521 99.4297 69.8059C99.9541 69.9107 100.488 69.962 101.022 69.9589C105.368 69.9589 109.202 66.5576 110.128 61.8606C110.587 59.5912 110.27 57.2339 109.229 55.166C108.608 55.355 107.996 55.5619 107.375 55.6969Z" fill="#016C4D"/>
<path d="M102.786 61.2667C100.321 60.7808 100.644 57.4244 102.615 56.8756C102.489 56.8756 102.372 56.7946 102.246 56.7676C101.49 56.8876 100.734 56.9866 99.9786 57.0646C99.4445 57.3282 98.9864 57.7237 98.6478 58.2137C98.3092 58.7038 98.1012 59.2721 98.0436 59.865C97.986 60.4578 98.0807 61.0556 98.3186 61.6017C98.5565 62.1477 98.9299 62.6241 99.4033 62.9856C99.8768 63.347 100.435 63.5817 101.024 63.6673C101.614 63.753 102.215 63.6869 102.772 63.4751C103.329 63.2634 103.822 62.9131 104.206 62.4573C104.589 62.0016 104.85 61.4555 104.964 60.8708C104.995 60.6924 105.013 60.512 105.018 60.3309C104.794 60.7043 104.457 60.9965 104.055 61.1648C103.654 61.3332 103.209 61.3688 102.786 61.2667Z" fill="#016C4D"/>
<path d="M76.6913 52.755L77.1772 52.9979C77.4471 53.1329 77.951 53.3398 78.5539 53.6007C79.1568 53.8617 79.9306 54.1406 80.8394 54.3926C81.7482 54.6445 82.774 54.9325 83.8898 55.2205C85.0056 55.5084 86.2653 55.6884 87.5971 55.7873C88.2629 55.8593 88.9378 55.9853 89.6397 56.0033L91.7812 56.1023C92.5101 56.1652 93.2479 56.1023 94.0037 56.1023C94.7596 56.1023 95.5155 56.1023 96.2803 56.0033L98.5928 55.7603L99.7536 55.6433C100.141 55.6433 100.527 55.5084 100.914 55.4364C102.46 55.1914 103.991 54.867 105.503 54.4646L107.726 53.8527L108.815 53.5558L109.877 53.1869C111.271 52.692 112.639 52.2871 113.917 51.7562L117.444 50.2175L119.019 49.5427L120.395 48.8408L122.645 47.68L124.607 46.6992L126.055 49.1287L124.112 50.2895L121.862 51.6122L120.476 52.422L118.875 53.2139L115.275 54.9505C113.962 55.5084 112.576 56.0303 111.082 56.5972L109.975 57.0291C109.598 57.1551 109.211 57.254 108.824 57.362L106.466 58.0369C104.858 58.4883 103.227 58.8547 101.58 59.1346C101.166 59.2066 100.761 59.3146 100.338 59.3686L99.0877 59.5126L96.5952 59.8005C95.7674 59.8815 94.9396 59.8006 94.1207 59.8816C93.3144 59.9221 92.5065 59.9221 91.7002 59.8816L89.3697 59.7376C88.6049 59.7376 87.858 59.5485 87.1381 59.4676C85.7782 59.2569 84.4297 58.9776 83.098 58.6308C81.8742 58.2439 80.7405 57.9468 79.7777 57.5329C78.8148 57.119 77.978 56.7501 77.3032 56.4262C76.6283 56.1022 76.1244 55.7873 75.7465 55.5264C75.3686 55.2654 75.2156 55.1754 75.2156 55.1754L76.6913 52.755Z" fill="#016C4D"/>
<path d="M40.3837 126.647C40.5007 127.484 40.5907 128.366 40.6897 129.23C40.7886 130.094 40.8426 130.958 40.9236 131.812C41.0946 133.54 41.1576 135.259 41.2565 136.977C41.3555 138.696 41.3645 140.424 41.4185 142.142L41.4635 144.725L41.4185 147.307C41.4185 149.026 41.4185 150.744 41.2925 152.463L40.9866 157.619C40.9326 158.519 40.9056 159.338 40.7976 160.193L40.5277 162.766L39.9788 167.895L39.9248 168.381L39.5559 168.732L31.2776 176.83C28.5782 179.53 25.8787 182.328 23.1793 185.09C20.4798 187.853 17.7803 190.669 15.2698 193.54C13.9921 194.979 12.7504 196.437 11.5716 197.922C10.9957 198.669 10.4288 199.425 9.92492 200.18C9.68197 200.567 9.44803 200.945 9.25907 201.305C9.14209 201.503 9.1151 201.647 9.03412 201.809C9.03412 201.809 8.98013 201.944 9.03412 201.881L8.98914 202.061L8.89017 202.412C8.83618 202.637 8.75519 202.889 8.71019 203.105L8.61123 203.717C8.52125 204.113 8.51221 204.617 8.45822 205.021C8.40423 205.426 8.45822 205.921 8.45822 206.353C8.45822 206.785 8.51225 207.253 8.55724 207.694C8.77767 209.485 9.301 211.225 10.1049 212.841C10.9049 214.452 12.0042 215.897 13.3442 217.097C13.6771 217.394 14.0461 217.655 14.388 217.934C14.73 218.213 15.1439 218.411 15.5218 218.663C16.3496 219.131 17.1685 219.563 18.0413 219.94C21.5056 221.587 25.1588 223.054 28.5421 225.204C30.3115 226.266 31.8431 227.681 33.0412 229.362C33.6413 230.251 34.0377 231.262 34.202 232.322C34.3435 233.374 34.245 234.445 33.9141 235.453V235.525C33.8348 235.661 33.7445 235.791 33.6441 235.912C33.5631 236.029 33.4551 236.119 33.3651 236.227C33.1681 236.422 32.9577 236.602 32.7353 236.767C32.5161 236.922 32.2877 237.063 32.0514 237.19C31.818 237.318 31.5742 237.426 31.3226 237.514C31.0798 237.619 30.8263 237.697 30.5667 237.748L29.8109 237.901C29.555 237.941 29.296 237.959 29.037 237.955H28.2812L29.0191 237.766L29.379 237.676C29.5013 237.648 29.6216 237.612 29.7389 237.568L30.4228 237.289C30.6527 237.205 30.8729 237.096 31.0796 236.965C31.2932 236.852 31.4978 236.723 31.6915 236.578C31.8795 236.435 32.0598 236.282 32.2314 236.119C32.3962 235.959 32.5495 235.788 32.6903 235.606C32.7533 235.516 32.8253 235.426 32.8793 235.336C32.9294 235.252 32.9745 235.165 33.0142 235.075V235.156C33.1925 234.293 33.1801 233.402 32.9781 232.544C32.776 231.686 32.3891 230.882 31.8444 230.189C30.6719 228.779 29.2507 227.596 27.6513 226.698C24.2907 224.843 20.8165 223.202 17.2494 221.785C16.3496 221.389 15.4498 220.957 14.55 220.489C14.1091 220.219 13.6502 219.958 13.2183 219.67C12.7864 219.383 12.3634 219.059 11.9675 218.771C10.3785 217.411 9.06236 215.763 8.08932 213.912C7.11693 212.072 6.46858 210.078 6.17271 208.018C6.10072 207.496 6.06474 206.983 6.01975 206.461C5.97476 205.939 6.01975 205.417 6.01975 204.886C6.03807 204.353 6.08611 203.822 6.1637 203.294L6.29869 202.475C6.29869 202.223 6.40666 201.998 6.46065 201.764L6.55061 201.404V201.233C6.57657 201.141 6.60965 201.051 6.64958 200.963C6.74521 200.679 6.86254 200.402 7.00052 200.136C7.24352 199.66 7.51083 199.198 7.80137 198.75C8.35926 197.85 8.94414 197.085 9.54702 196.293C10.7618 194.719 12.0215 193.216 13.2992 191.74C15.8727 188.789 18.5182 185.936 21.1997 183.111C23.8811 180.286 26.5985 177.541 29.3699 174.788C32.1414 172.034 34.8948 169.326 37.7203 166.689L37.2973 167.526L37.8372 162.478L38.1072 159.95C38.2152 159.113 38.2332 158.267 38.2872 157.421L38.5931 152.346C38.701 150.655 38.6651 148.963 38.7191 147.271V144.725L38.6741 142.187C38.6741 140.496 38.6741 138.804 38.5211 137.112C38.3681 135.421 38.3681 133.738 38.1971 132.055C38.1162 131.219 38.0712 130.364 37.9722 129.536C37.8732 128.708 37.7923 127.889 37.6663 127.034L40.3837 126.647Z" fill="#016C4D"/>
<path d="M31.3585 229.721C31.3585 229.721 31.0706 229.793 30.4587 229.991C29.589 230.274 28.7409 230.62 27.9212 231.026C26.6809 231.611 25.537 232.382 24.529 233.312C23.3072 234.375 22.522 235.852 22.3244 237.46L22.2794 237.874C22.2731 237.958 22.2731 238.042 22.2794 238.126C22.2888 238.289 22.3098 238.451 22.3423 238.612C22.3963 238.801 22.4414 238.981 22.4954 239.178C22.5493 239.376 22.6663 239.529 22.7473 239.718C23.2524 240.516 23.9402 241.183 24.7539 241.662C26.7799 242.849 29.0521 243.554 31.3945 243.722H31.7815H32.2943C32.624 243.741 32.9545 243.741 33.2841 243.722L34.184 243.651L35.0838 243.489C36.2677 243.244 37.3965 242.784 38.4131 242.13C40.5055 240.719 42.0245 238.606 42.6962 236.173C43.4405 233.63 43.6096 230.952 43.1911 228.336C42.8541 225.786 41.93 223.35 40.4917 221.218C40.148 220.718 39.7659 220.246 39.3489 219.805C38.953 219.365 38.4491 218.906 37.9992 218.411C37.0994 217.511 36.1995 216.557 35.2997 215.711C33.7495 214.041 32.074 212.492 30.2877 211.077C28.8066 209.937 27.116 209.099 25.3118 208.612C23.8758 208.282 22.4016 208.148 20.9297 208.216C19.959 208.264 18.9917 208.366 18.0322 208.522L16.9974 208.684L17.9783 208.315C18.9089 207.945 19.8652 207.645 20.8397 207.415C22.3957 207.093 23.9919 207.011 25.5727 207.172C27.6622 207.462 29.6656 208.195 31.4485 209.323C33.4661 210.646 35.3577 212.152 37.0994 213.822L39.9068 216.458C40.3837 216.917 40.8066 217.358 41.3645 217.853C41.8875 218.381 42.3717 218.946 42.8132 219.544C44.5857 222.008 45.768 224.847 46.2685 227.841C46.8439 230.931 46.6961 234.112 45.8366 237.136C44.9699 240.325 42.9993 243.102 40.2757 244.973C38.9014 245.848 37.3754 246.459 35.7767 246.773L34.6159 246.98L33.4011 247.07C32.9692 247.115 32.6903 247.07 32.3303 247.07H31.4305H31.1516C28.256 246.857 25.4511 245.966 22.9632 244.469C21.6961 243.696 20.6343 242.628 19.8679 241.356C19.6969 241.005 19.5349 240.663 19.382 240.321C19.229 239.979 19.193 239.583 19.103 239.223C19.0373 238.831 19.0042 238.434 19.0041 238.036C19.0041 237.847 19.0041 237.622 19.0041 237.469L19.0581 237.064C19.2124 235.809 19.6294 234.601 20.2818 233.519C20.8527 232.585 21.5594 231.742 22.3784 231.017C23.6443 229.905 25.0737 228.995 26.6165 228.318C27.5817 227.896 28.5737 227.538 29.5859 227.247C30.2698 227.058 30.7107 226.968 30.6927 226.968L31.3585 229.721Z" fill="#016C4D"/>
<path d="M28.6052 208.819C28.7222 208.612 28.8932 208.351 29.0461 208.117L29.5231 207.451C29.829 207.001 30.1709 206.605 30.4948 206.173C30.8188 205.741 31.1877 205.372 31.5296 204.967C31.8716 204.562 32.2495 204.194 32.6094 203.816C32.9693 203.438 33.3383 203.042 33.7342 202.7L34.8949 201.629C35.2729 201.269 35.7048 200.963 36.1007 200.621L37.3244 199.631L36.8835 200.198C37.1085 199.793 37.3515 199.299 37.5674 198.894C37.7834 198.489 38.0173 197.994 38.2243 197.535C38.4312 197.076 38.6562 196.635 38.8451 196.149C39.0341 195.663 39.2591 195.249 39.43 194.737L39.9699 193.306C40.1409 192.829 40.2848 192.343 40.4468 191.857C40.615 191.373 40.7562 190.881 40.8697 190.381L41.2476 188.888V190.435C41.2476 190.955 41.2206 191.475 41.1667 191.992C41.1667 192.505 41.0947 193.027 41.0317 193.549L40.8247 195.105C40.7618 195.618 40.6537 196.131 40.5638 196.653C40.4738 197.175 40.3748 197.688 40.2669 198.201C40.1589 198.714 40.0509 199.227 39.9249 199.739C39.799 200.252 39.673 200.756 39.511 201.296V201.467L39.1151 201.872L37.9723 202.772C37.5944 203.087 37.1895 203.375 36.8386 203.672L35.7588 204.67C35.3899 204.985 35.0569 205.354 34.715 205.696C34.373 206.038 34.0221 206.398 33.7162 206.767C33.4102 207.136 33.0593 207.496 32.7624 207.874C32.4654 208.252 32.1505 208.63 31.8626 209.026L31.4486 209.601C31.3316 209.79 31.2147 209.943 31.0797 210.177L28.6052 208.819Z" fill="#016C4D"/>
<path d="M39.7179 200.478C39.7179 200.478 39.7179 200.775 39.7179 201.297C39.7179 201.819 39.7179 202.547 39.7719 203.447C39.7719 203.888 39.772 204.347 39.8529 204.896C39.9339 205.445 39.9069 205.949 39.9609 206.507C40.0959 207.622 40.1679 208.828 40.3658 210.016C40.4558 210.61 40.5368 211.204 40.6268 211.816C40.7168 212.428 40.8428 212.967 40.9417 213.516C41.1757 214.614 41.3286 215.658 41.5896 216.522C42.0395 218.258 42.3454 219.419 42.3454 219.419L39.9609 220.148C39.9609 220.148 39.628 218.942 39.1241 217.142C38.8361 216.243 38.6562 215.163 38.3952 214.029C38.2783 213.453 38.1253 212.868 38.0353 212.23C37.9453 211.591 37.8374 211.015 37.7384 210.43C37.5044 209.206 37.4054 207.964 37.2525 206.831C37.1805 206.255 37.1535 205.688 37.1085 205.148C37.0635 204.608 37.0095 204.113 36.9915 203.645C36.9915 202.745 36.9105 201.927 36.9105 201.36C36.9105 200.793 36.9105 200.46 36.9105 200.46L39.7179 200.478Z" fill="#016C4D"/>
<path d="M98.287 262.349C98.339 262.273 98.3961 262.201 98.458 262.133L99.1058 261.377C99.5377 260.873 100.006 260.423 100.474 259.947L97.8641 257.247C97.3332 257.796 96.7844 258.318 96.2895 258.894L95.5426 259.794C95.2906 260.072 95.0747 260.387 94.8407 260.693C94.4088 261.242 94.0129 261.827 93.626 262.412L98.287 262.349Z" fill="#016C4D"/>
<path d="M45.5578 244.056C45.6927 244.695 45.8547 245.325 46.0077 245.955C46.1606 246.585 46.3226 247.223 46.5026 247.853C46.8355 249.113 47.2224 250.364 47.6093 251.606C47.7983 252.235 48.0322 252.847 48.2392 253.468C48.4462 254.089 48.6621 254.71 48.9141 255.322L49.6249 257.121L50.4167 258.921C50.7857 259.821 51.2266 260.667 51.6585 261.531L51.5236 261.809C51.4606 261.971 51.4155 262.142 51.3615 262.304H55.2758L55.4377 260.667C54.8618 259.569 54.214 258.516 53.7011 257.382L52.8912 255.7L52.1444 253.981C51.8834 253.414 51.6675 252.82 51.4425 252.244C51.2176 251.669 50.9746 251.075 50.7677 250.445C50.3538 249.266 49.9398 248.078 49.5709 246.846C49.373 246.252 49.193 245.649 49.022 245.046C48.8511 244.443 48.6711 243.84 48.5181 243.246C48.1852 242.032 47.8973 240.799 47.6183 239.575C47.0694 237.11 46.6015 234.608 46.2776 232.143L43.6771 232.404C43.9201 235.04 44.298 237.586 44.7749 240.151C45.0089 241.51 45.2608 242.787 45.5578 244.056Z" fill="#016C4D"/>
<path d="M99.1868 132.604C99.7177 132.46 100.294 132.343 100.878 132.235C101.463 132.127 102.039 131.992 102.597 131.92C103.731 131.776 104.865 131.551 106.007 131.47L109.418 131.174C110.551 131.111 111.694 131.111 112.837 131.075C115.114 130.958 117.336 131.129 119.658 131.228C121.979 131.326 124.157 131.659 126.442 131.902L128.134 132.1L128.98 132.208L129.816 132.379L133.155 133.054L136.493 133.729L139.751 134.431L143.035 135.151L144.672 135.502L146.301 135.754C148.47 136.06 150.62 136.518 152.816 136.653L156.1 136.932H159.357C161.493 136.907 163.622 136.669 165.71 136.222L167.159 135.763C167.402 135.682 167.591 135.565 167.816 135.475L168.644 135.106C168.758 135.052 168.879 135.012 169.004 134.989L169.462 134.908C169.743 134.871 170.027 134.871 170.308 134.908C170.836 135.032 171.318 135.3 171.703 135.682C172.288 136.303 172.671 137.087 172.801 137.931C172.992 139.307 172.795 140.71 172.234 141.98C172.117 142.286 171.955 142.565 171.811 142.88L171.451 143.6C171.247 144.043 171.075 144.5 170.938 144.968C170.349 147.021 169.987 149.134 169.858 151.266C169.687 153.444 169.633 155.649 169.678 157.853C169.759 162.271 170.128 166.698 170.641 171.116V171.746L170.146 170.72C176.121 175.436 182.006 180.223 187.729 185.253C190.59 187.763 193.416 190.318 196.142 193.018C197.501 194.377 198.841 195.717 200.092 197.274C200.755 198.054 201.357 198.884 201.892 199.758C202.206 200.266 202.446 200.818 202.603 201.395C202.711 201.863 202.855 202.295 202.936 202.835C203.285 204.877 203.261 206.965 202.864 208.999C202.49 211.013 201.768 212.946 200.731 214.713C199.702 216.497 198.329 218.06 196.691 219.311C195.06 220.444 193.283 221.352 191.409 222.01C187.869 223.276 184.428 224.804 181.115 226.581C179.509 227.465 178.09 228.654 176.94 230.081C176.392 230.805 176.01 231.641 175.822 232.529C175.634 233.417 175.644 234.336 175.851 235.219C175.958 235.428 176.088 235.624 176.238 235.804C176.392 235.991 176.56 236.166 176.742 236.326C176.926 236.486 177.118 236.636 177.318 236.776C177.522 236.918 177.739 237.042 177.966 237.145C178.18 237.274 178.41 237.377 178.65 237.451L179.36 237.694C179.478 237.729 179.599 237.756 179.72 237.775L180.098 237.847L180.836 237.982L180.089 237.901L179.711 237.856C179.584 237.847 179.458 237.829 179.333 237.802L178.596 237.604C178.347 237.544 178.105 237.456 177.876 237.343C177.633 237.25 177.399 237.139 177.174 237.01C176.967 236.866 176.733 236.74 176.526 236.578C176.321 236.415 176.129 236.238 175.95 236.047C175.762 235.85 175.596 235.633 175.455 235.399C175.163 234.447 175.084 233.443 175.224 232.457C175.363 231.47 175.719 230.527 176.265 229.694C177.378 228.068 178.803 226.679 180.458 225.609C183.671 223.414 187.207 221.875 190.554 220.21C192.191 219.452 193.741 218.52 195.179 217.43C196.521 216.33 197.655 214.998 198.527 213.498C199.402 211.978 200.01 210.319 200.326 208.594C200.623 206.894 200.623 205.156 200.326 203.456C200.244 203.01 200.139 202.568 200.011 202.133C199.911 201.796 199.762 201.474 199.57 201.179C199.104 200.443 198.584 199.742 198.014 199.083C196.835 197.688 195.53 196.383 194.198 195.034C191.544 192.406 188.746 189.869 185.911 187.385C180.224 182.427 174.411 177.559 168.518 172.844L168.023 172.457V171.503C167.492 167.004 167.123 162.505 166.988 158.006C166.934 155.73 166.988 153.453 167.141 151.158C167.274 148.819 167.666 146.501 168.311 144.248C168.487 143.632 168.71 143.031 168.977 142.448L169.372 141.656C169.486 141.451 169.585 141.237 169.669 141.018C170.026 140.232 170.159 139.364 170.056 138.507C170.022 138.237 169.913 137.981 169.741 137.769C169.651 137.688 169.741 137.769 169.741 137.715L169.552 137.796H169.453C169.453 137.796 169.678 137.688 169.552 137.742H169.498L169.058 137.949C168.766 138.098 168.466 138.227 168.158 138.336L166.358 138.903C164.068 139.417 161.731 139.694 159.385 139.731H155.929L152.51 139.443C150.233 139.326 148.011 138.849 145.725 138.543L144.034 138.273L142.387 137.922L139.103 137.211L135.791 136.491L132.543 135.835L129.304 135.178L128.494 135.007L127.666 134.908L126.028 134.71C123.833 134.476 121.655 134.089 119.442 134.062C117.228 134.035 115.042 133.801 112.846 133.918C111.748 133.918 110.641 133.918 109.544 134.008L106.259 134.296C105.171 134.368 104.1 134.584 103.011 134.728C102.462 134.791 101.949 134.908 101.427 135.007C100.905 135.106 100.383 135.205 99.8346 135.349L99.1868 132.604Z" fill="#016C4D"/>
<path d="M178.263 226.959C178.263 226.959 178.686 227.049 179.369 227.238C180.382 227.529 181.374 227.887 182.339 228.309C183.882 228.986 185.311 229.897 186.577 231.008C187.396 231.734 188.103 232.577 188.674 233.51C189.326 234.593 189.743 235.8 189.897 237.055L189.951 237.46C189.951 237.613 189.951 237.838 189.951 238.027C189.951 238.425 189.918 238.822 189.852 239.215C189.771 239.575 189.681 239.943 189.573 240.312C189.465 240.681 189.258 240.996 189.087 241.347C188.321 242.619 187.259 243.687 185.992 244.461C183.504 245.957 180.699 246.848 177.804 247.061H177.525H176.625C176.274 247.061 175.986 247.061 175.554 247.061L174.339 246.971L173.179 246.764C171.58 246.45 170.054 245.84 168.68 244.964C165.956 243.093 163.985 240.316 163.119 237.127C162.259 234.104 162.111 230.922 162.687 227.832C163.187 224.838 164.37 222 166.142 219.536C166.584 218.938 167.068 218.372 167.591 217.844C168.104 217.304 168.572 216.944 169.049 216.449L171.856 213.813C173.598 212.143 175.489 210.637 177.507 209.314C179.29 208.186 181.293 207.453 183.383 207.163C184.963 207.002 186.56 207.084 188.116 207.406C189.093 207.638 190.052 207.938 190.986 208.306L191.967 208.675L190.968 208.531C190.009 208.376 189.041 208.273 188.071 208.225C186.599 208.158 185.125 208.291 183.689 208.621C181.884 209.109 180.194 209.946 178.713 211.086C176.926 212.501 175.251 214.05 173.701 215.72C172.801 216.62 171.901 217.52 171.001 218.42C170.56 218.879 170.047 219.374 169.651 219.815C169.234 220.255 168.852 220.727 168.509 221.227C167.06 223.35 166.124 225.781 165.773 228.327C165.355 230.944 165.524 233.621 166.268 236.164C166.94 238.597 168.459 240.71 170.551 242.121C171.568 242.775 172.697 243.236 173.881 243.48L174.78 243.642L175.68 243.714C176.01 243.732 176.34 243.732 176.67 243.714H177.183H177.57C179.912 243.546 182.184 242.841 184.21 241.653C185.024 241.174 185.712 240.508 186.217 239.71C186.298 239.521 186.379 239.341 186.469 239.17C186.559 238.999 186.568 238.792 186.622 238.603C186.654 238.443 186.676 238.28 186.685 238.117C186.696 238.033 186.696 237.949 186.685 237.865V237.451C186.491 235.843 185.705 234.364 184.48 233.303C183.466 232.375 182.316 231.607 181.07 231.026C180.25 230.62 179.402 230.275 178.533 229.992C177.921 229.794 177.633 229.731 177.633 229.722L178.263 226.959Z" fill="#016C4D"/>
<path d="M177.957 210.258C177.822 210.024 177.705 209.872 177.588 209.683L177.174 209.107C176.913 208.711 176.589 208.342 176.274 207.955C175.959 207.568 175.635 207.217 175.32 206.848C175.005 206.479 174.654 206.137 174.321 205.777C173.988 205.417 173.646 205.067 173.278 204.752L172.198 203.753C171.847 203.411 171.442 203.123 171.064 202.853L169.921 201.953L169.525 201.548L169.48 201.377C169.318 200.837 169.192 200.342 169.066 199.82C168.94 199.299 168.823 198.795 168.724 198.282C168.625 197.769 168.509 197.247 168.428 196.734C168.347 196.221 168.23 195.699 168.167 195.187L167.96 193.63C167.897 193.108 167.87 192.586 167.825 192.073C167.771 191.556 167.744 191.036 167.744 190.516V188.969L168.122 190.462C168.235 190.962 168.376 191.454 168.545 191.938C168.706 192.424 168.85 192.91 169.021 193.387L169.561 194.818C169.732 195.294 169.948 195.717 170.146 196.23C170.344 196.743 170.551 197.13 170.767 197.616C170.983 198.102 171.19 198.516 171.424 198.975C171.658 199.434 171.883 199.874 172.117 200.279L171.667 199.713L172.891 200.702C173.286 201.044 173.718 201.35 174.096 201.71L175.257 202.781C175.653 203.123 176.004 203.519 176.382 203.897C176.76 204.275 177.12 204.644 177.462 205.048C177.804 205.453 178.164 205.84 178.496 206.254C178.829 206.668 179.162 207.082 179.468 207.532L179.945 208.198C180.098 208.432 180.269 208.693 180.386 208.9L177.957 210.258Z" fill="#016C4D"/>
<path d="M172.072 200.433C172.072 200.433 172.072 200.748 172.072 201.332C172.072 201.917 172.072 202.682 171.991 203.618C171.991 204.086 171.919 204.59 171.874 205.121C171.829 205.652 171.802 206.227 171.73 206.803C171.577 207.964 171.478 209.206 171.244 210.403C171.142 211.002 171.043 211.602 170.947 212.202C170.857 212.814 170.704 213.399 170.587 214.002C170.326 215.136 170.146 216.215 169.858 217.115C169.354 218.915 169.021 220.121 169.021 220.121L166.637 219.392C166.637 219.392 166.943 218.231 167.393 216.494C167.654 215.595 167.807 214.587 168.041 213.489C168.14 212.94 168.284 212.373 168.356 211.788C168.428 211.203 168.527 210.61 168.617 209.989C168.814 208.801 168.886 207.595 169.021 206.479C169.075 205.921 169.093 205.382 169.138 204.869C169.183 204.356 169.21 203.861 169.219 203.42C169.219 202.52 169.219 201.773 169.219 201.269C169.219 200.766 169.219 200.451 169.219 200.451L172.072 200.433Z" fill="#016C4D"/>
<path d="M157.675 262.349C157.621 262.187 157.576 262.016 157.513 261.855L157.378 261.576C157.81 260.676 158.278 259.857 158.62 258.966L159.411 257.167L160.122 255.367C160.374 254.755 160.581 254.134 160.797 253.513C161.013 252.892 161.238 252.281 161.427 251.651C161.814 250.409 162.201 249.158 162.534 247.898C162.714 247.268 162.876 246.639 163.029 246C163.182 245.361 163.353 244.74 163.479 244.101C163.776 242.832 164.028 241.555 164.271 240.277C164.747 237.712 165.17 235.166 165.368 232.53L162.759 232.269C162.444 234.734 161.976 237.236 161.427 239.701C161.139 240.925 160.851 242.158 160.527 243.372C160.374 243.984 160.194 244.587 160.023 245.172C159.852 245.757 159.672 246.387 159.474 246.972C159.106 248.177 158.692 249.365 158.278 250.571C158.071 251.165 157.828 251.741 157.603 252.37C157.378 253 157.162 253.54 156.901 254.107L156.154 255.826L155.344 257.508C154.831 258.642 154.184 259.695 153.608 260.793L153.77 262.43L157.675 262.349Z" fill="#016C4D"/>
<path d="M110.579 262.133C110.64 262.201 110.698 262.273 110.75 262.349H115.384C114.997 261.764 114.601 261.179 114.169 260.63C113.935 260.324 113.719 260.009 113.467 259.73L112.72 258.83C112.225 258.254 111.676 257.732 111.145 257.184L108.536 259.883C108.986 260.36 109.436 260.783 109.904 261.314L110.579 262.133Z" fill="#016C4D"/>
<path d="M73.308 251.911C73.308 251.911 74.4687 252.262 76.5023 252.811C78.5359 253.36 81.4423 253.99 84.9516 254.611C86.6973 254.926 88.6048 255.205 90.6114 255.511C92.618 255.816 94.7596 255.951 96.9102 256.149C99.0607 256.347 101.409 256.374 103.695 256.374C105.98 256.374 108.338 256.302 110.677 256.149C111.838 256.05 113.008 255.952 114.16 255.826C115.311 255.7 116.472 255.565 117.606 255.367C119.873 254.998 122.105 254.62 124.247 254.089C126.388 253.558 128.431 253.009 130.356 252.406L133.155 251.506L135.746 250.544C136.583 250.247 137.339 249.86 138.095 249.563C138.851 249.266 139.57 248.987 140.218 248.663C141.514 248.024 142.702 247.538 143.62 247.052C145.482 246.081 146.58 245.559 146.58 245.559C146.58 245.559 145.68 246.35 144.025 247.682C143.197 248.357 142.135 249.077 140.92 249.923C139.705 250.769 138.266 251.623 136.664 252.514L134.136 253.846C133.236 254.278 132.336 254.665 131.337 255.097C129.308 255.97 127.229 256.721 125.11 257.346C122.845 258.042 120.54 258.604 118.209 259.029C117.03 259.272 115.815 259.416 114.61 259.596C113.404 259.776 112.171 259.857 110.947 259.965C108.5 260.1 106.043 260.19 103.632 260.082C101.22 259.974 98.8538 259.758 96.5862 259.497C94.3187 259.236 92.1322 258.804 90.0896 258.327C88.047 257.85 86.1304 257.346 84.3937 256.797C81.591 255.927 78.8545 254.857 76.2054 253.594C75.2111 253.084 74.2439 252.522 73.308 251.911Z" fill="#016C4D"/>
<path d="M46.2506 233.951L46.3226 234.131L46.5655 234.617C46.7905 235.049 47.1234 235.67 47.5823 236.417C48.1043 237.248 48.672 238.05 49.2829 238.819C49.9822 239.717 50.7333 240.573 51.5325 241.384C51.9284 241.816 52.3783 242.184 52.7922 242.589C53.2062 242.994 53.692 243.327 54.079 243.687C54.4659 244.047 54.9788 244.344 55.3477 244.659C55.7167 244.974 56.1576 245.217 56.5265 245.46C56.8954 245.703 57.2373 245.946 57.5522 246.117L58.3711 246.576C58.83 246.828 59.0819 246.98 59.0819 246.98L58.3171 246.684L57.4173 246.351C57.0754 246.225 56.7065 246.036 56.2925 245.847C55.8786 245.658 55.3927 245.469 54.9878 245.217C54.5829 244.965 54.034 244.731 53.5571 244.425C53.0802 244.119 52.5583 243.84 52.0634 243.525C51.5685 243.21 51.0646 242.85 50.5877 242.472C49.6252 241.753 48.7058 240.978 47.8342 240.151C47.0649 239.429 46.3351 238.666 45.6477 237.865C45.0358 237.163 44.5679 236.534 44.235 236.066C44.073 235.832 43.947 235.652 43.8571 235.508L43.7311 235.31L46.2506 233.951Z" fill="#016C4D"/>
<path d="M165.242 232.493L165.116 232.691C165.026 232.835 164.9 233.015 164.738 233.249C164.406 233.699 163.938 234.329 163.326 235.049C162.638 235.849 161.908 236.612 161.139 237.334C160.268 238.161 159.348 238.937 158.386 239.656C157.909 240.043 157.396 240.358 156.91 240.709C156.424 241.06 155.902 241.338 155.416 241.608C154.93 241.878 154.445 242.148 153.986 242.4C153.527 242.652 153.086 242.85 152.681 243.03C152.276 243.21 151.898 243.408 151.556 243.534L150.656 243.867L149.891 244.155L150.602 243.759L151.421 243.3C151.736 243.129 152.069 242.886 152.447 242.643C152.825 242.4 153.23 242.148 153.626 241.842C154.022 241.536 154.472 241.239 154.894 240.871C155.317 240.502 155.794 240.169 156.181 239.773C156.568 239.377 157.081 238.999 157.441 238.567C158.927 237.053 160.25 235.388 161.391 233.6C161.85 232.871 162.183 232.25 162.408 231.8C162.516 231.59 162.597 231.428 162.651 231.314C162.672 231.255 162.699 231.198 162.732 231.144L165.242 232.493Z" fill="#016C4D"/>
<path d="M106.781 183.336C57.6692 183.336 39.2949 152.49 39.106 152.184L40.7346 151.239C40.9146 151.536 58.803 181.446 106.781 181.446C140.974 181.446 167.582 159.698 167.843 159.482L169.048 160.93C168.779 161.164 141.712 183.336 106.781 183.336Z" fill="#016C4D"/>
<path d="M166.34 221.219C147.192 190.553 168.536 171.243 168.752 171.045L170.002 172.467C169.157 173.205 149.666 190.949 167.942 220.22L166.34 221.219Z" fill="#016C4D"/>
<path d="M40.5187 214.677L38.899 213.66C56.6524 185.892 38.5121 166.078 38.3322 165.88L39.7089 164.584C39.9249 164.791 59.0549 185.685 40.5187 214.677Z" fill="#016C4D"/>
<path d="M50.3268 241.825C46.3676 236.426 47.9962 229.983 50.6867 219.275C51.6495 215.451 52.7473 211.123 53.7551 206.12C57.4533 187.755 50.3267 164.089 50.2548 163.828L51.1546 163.559C51.2266 163.793 58.4161 187.692 54.6639 206.291C53.6561 211.312 52.5583 215.658 51.5955 219.491C48.968 229.929 47.3753 236.228 51.0826 241.249L50.3268 241.825Z" fill="#016C4D"/>
<path d="M66.7304 250.823C66.6373 254.095 66.9394 257.367 67.6302 260.568C67.7832 261.234 67.8822 261.818 67.9542 262.367H68.908C68.8263 261.701 68.7061 261.04 68.5481 260.388C67.8849 257.175 67.6099 253.894 67.7292 250.616V250.328L67.4773 250.184C56.7875 243.984 59.9728 225.583 63.941 210.241C68.2871 193.432 63.986 172.512 63.941 172.305L63.0412 172.503C63.0862 172.71 67.3333 193.414 63.0412 210.007C58.974 225.538 55.7886 244.182 66.7304 250.823Z" fill="#016C4D"/>
<path d="M77.5912 262.349H78.491C77.8881 257.85 77.3932 253.351 77.3842 253.279V253.162L77.3212 253.063C75.6116 250.535 72.4442 240.169 72.5162 226.555C72.5882 212.617 77.3483 178.442 77.3932 178.1L76.4934 177.974C76.4394 178.316 71.6794 212.554 71.5984 226.564C71.5264 240.961 74.8827 250.994 76.5024 253.558C76.5564 254.215 76.9973 258.228 77.5912 262.349Z" fill="#016C4D"/>
<path d="M87.0213 256.347C87.0213 256.788 87.0212 259.299 86.9043 262.349H87.8581C87.9751 259.11 87.9661 256.5 87.9661 256.275V256.14C87.9661 256.023 84.3668 244.443 83.62 226.527C82.8731 208.612 88.461 181.15 88.515 180.871L87.6152 180.682C87.5612 180.961 81.9283 208.513 82.7021 226.572C83.413 243.903 86.7243 255.321 87.0213 256.347Z" fill="#016C4D"/>
<path d="M60.0807 262.349C57.6872 258.48 56.5265 245.531 56.4815 245.405L55.5817 245.486C55.6267 246.008 56.6885 257.841 59.001 262.349H60.0807Z" fill="#016C4D"/>
<path d="M96.8112 257.858C92.4561 231.53 96.7663 182.445 96.8112 181.959L97.7111 182.04C97.7111 182.535 93.3739 231.53 97.7111 257.706L96.8112 257.858Z" fill="#016C4D"/>
<path d="M108.275 258.651L107.375 258.516C110.974 235.121 107.375 182.931 107.375 182.418L108.275 182.355C108.311 182.886 111.856 235.139 108.275 258.651Z" fill="#016C4D"/>
<path d="M120.782 256.761L119.882 256.59C126.658 219.842 119.055 181.905 118.983 181.545L119.882 181.356C119.981 181.734 127.621 219.824 120.782 256.761Z" fill="#016C4D"/>
<path d="M131.265 253.792L130.365 253.612C138.464 211.465 129.861 179.647 129.771 179.323L130.671 179.071C130.743 179.395 139.418 211.411 131.265 253.792Z" fill="#016C4D"/>
<path d="M142.234 248.627L141.334 248.438C150.026 206.147 139.904 176.39 139.796 176.093L140.695 175.787C140.776 176.084 150.989 206.084 142.234 248.627Z" fill="#016C4D"/>
<path d="M153.095 242.022L151.772 242.769V243.066C151.772 243.165 152.375 253.459 151.565 257.778C151.313 258.961 150.997 260.129 150.62 261.278L150.296 262.349H151.277L151.52 261.557C151.913 260.377 152.238 259.176 152.492 257.958C153.248 253.891 152.825 245.064 152.735 243.309L153.824 242.688L153.887 242.535C157.108 234.617 156.037 221.218 154.139 212.148C152.285 203.267 151.205 171.657 151.196 171.306H150.251C150.251 171.63 151.349 203.348 153.221 212.31C155.092 221.272 156.154 234.275 153.095 242.022Z" fill="#016C4D"/>
<path d="M160.068 186.818C160.038 179.455 160.516 172.098 161.499 164.8L162.399 164.935C161.422 172.182 160.947 179.488 160.977 186.8L160.068 186.818Z" fill="#016C4D"/>
<path d="M143.926 262.349H144.825C144.825 261.899 144.825 261.449 144.825 260.945C144.863 256.6 143.828 252.313 141.811 248.465L141.001 248.942C142.912 252.653 143.9 256.771 143.881 260.945C143.929 261.431 143.944 261.899 143.926 262.349Z" fill="#016C4D"/>
<path d="M134.954 262.349C134.626 259.31 133.862 256.334 132.687 253.513L131.787 253.891C132.897 256.597 133.63 259.443 133.965 262.349H134.954Z" fill="#016C4D"/>
<path d="M124.616 262.349C123.212 259.578 121.835 257.175 121.718 256.95L120.899 257.418C120.899 257.463 122.204 259.695 123.599 262.322L124.616 262.349Z" fill="#016C4D"/>
<path d="M164.846 137.922L162.066 128.879L166.754 116.435L168.518 117.091L164.064 128.942L166.646 137.373L164.846 137.922Z" fill="#016C4D"/>
<path d="M154.39 138.211L153.455 138.166L154.202 122.977L141.343 123.526L142.144 135.835L141.199 135.898L140.344 122.626L155.191 121.996L154.39 138.211Z" fill="#016C4D"/>
<path d="M154.727 127.712L154.648 128.653L163.013 129.36L163.093 128.419L154.727 127.712Z" fill="#016C4D"/>
<path d="M140.749 116.759L141.262 123.057L154.228 122.491L155.641 114.113L140.749 116.759Z" fill="#016C4D"/>
<path d="M126.334 133.675L125.416 133.45L126.694 128.177L125.794 122.275L126.73 122.14L127.657 128.222L126.334 133.675Z" fill="#016C4D"/>
<path d="M140.83 129.032L127.162 128.672L115.167 129.032L115.131 128.087L127.162 127.728L140.857 128.087L140.83 129.032Z" fill="#016C4D"/>
<path d="M102.786 58.9545C102.535 59.0139 102.279 59.047 102.021 59.0534C101.974 59.1988 101.95 59.3505 101.949 59.5033C101.979 59.8899 102.153 60.251 102.438 60.5145C102.722 60.778 103.096 60.9245 103.483 60.9245C103.871 60.9245 104.245 60.778 104.529 60.5145C104.813 60.251 104.988 59.8899 105.018 59.5033C105.01 59.1761 104.897 58.8602 104.694 58.6035C104.082 58.6845 103.452 58.8015 102.786 58.9545Z" fill="white"/>
<defs>
<linearGradient id="paint0_linear_276_4726" x1="20.5612" y1="119.42" x2="197.881" y2="119.42" gradientUnits="userSpaceOnUse">
<stop stop-color="#C0D734"/>
<stop offset="1" stop-color="#4CB96A"/>
</linearGradient>
<linearGradient id="paint1_linear_276_4726" x1="23.172" y1="206.969" x2="64.2669" y2="206.969" gradientUnits="userSpaceOnUse">
<stop stop-color="#C0D734"/>
<stop offset="1" stop-color="#4CB96A"/>
</linearGradient>
<linearGradient id="paint2_linear_276_4726" x1="153.088" y1="208.358" x2="196.683" y2="208.358" gradientUnits="userSpaceOnUse">
<stop stop-color="#C0D734"/>
<stop offset="1" stop-color="#4CB96A"/>
</linearGradient>
<linearGradient id="paint3_linear_276_4726" x1="71.0573" y1="42.7638" x2="120.476" y2="42.7638" gradientUnits="userSpaceOnUse">
<stop stop-color="#C0D734"/>
<stop offset="1" stop-color="#4CB96A"/>
</linearGradient>
<linearGradient id="paint4_linear_276_4726" x1="57.4846" y1="7.91024" x2="78.1081" y2="7.91024" gradientUnits="userSpaceOnUse">
<stop stop-color="#C0D734"/>
<stop offset="1" stop-color="#4CB96A"/>
</linearGradient>
<linearGradient id="paint5_linear_276_4726" x1="58.079" y1="68.6999" x2="109.579" y2="68.6999" gradientUnits="userSpaceOnUse">
<stop stop-color="white"/>
<stop offset="1" stop-color="#C7E9F0"/>
</linearGradient>
<linearGradient id="paint6_linear_276_4726" x1="41.898" y1="209.848" x2="172.519" y2="209.848" gradientUnits="userSpaceOnUse">
<stop stop-color="#F1DD13"/>
<stop offset="1" stop-color="#F37A8B"/>
</linearGradient>
<linearGradient id="paint7_linear_276_4726" x1="115.194" y1="128.161" x2="175.531" y2="128.161" gradientUnits="userSpaceOnUse">
<stop stop-color="white"/>
<stop offset="1" stop-color="#C7E9F0"/>
</linearGradient>
<linearGradient id="paint8_linear_276_4726" x1="29.7551" y1="211.682" x2="159.153" y2="211.682" gradientUnits="userSpaceOnUse">
<stop stop-color="#F37A8B"/>
<stop offset="1" stop-color="#C97EB5"/>
</linearGradient>
<linearGradient id="paint9_linear_276_4726" x1="81.1273" y1="60.9812" x2="97.675" y2="60.9812" gradientUnits="userSpaceOnUse">
<stop stop-color="#0CAE4B"/>
<stop offset="1" stop-color="#2D957D"/>
</linearGradient>
<linearGradient id="paint10_linear_276_4726" x1="150.46" y1="87.7182" x2="208.004" y2="87.7182" gradientUnits="userSpaceOnUse">
<stop stop-color="#0CAE4B"/>
<stop offset="1" stop-color="#2D957D"/>
</linearGradient>
<linearGradient id="paint11_linear_276_4726" x1="105.028" y1="157.924" x2="174.679" y2="157.924" gradientUnits="userSpaceOnUse">
<stop stop-color="#0CAE4B"/>
<stop offset="1" stop-color="#2D957D"/>
</linearGradient>
<linearGradient id="paint12_linear_276_4726" x1="161.769" y1="211.258" x2="197.282" y2="211.258" gradientUnits="userSpaceOnUse">
<stop stop-color="#0CAE4B"/>
<stop offset="1" stop-color="#2D957D"/>
</linearGradient>
<linearGradient id="paint13_linear_276_4726" x1="-2.53001" y1="212.634" x2="24.3012" y2="212.634" gradientUnits="userSpaceOnUse">
<stop stop-color="#0CAE4B"/>
<stop offset="1" stop-color="#2D957D"/>
</linearGradient>
<linearGradient id="paint14_linear_276_4726" x1="68.7749" y1="40.1156" x2="98.7194" y2="40.1156" gradientUnits="userSpaceOnUse">
<stop stop-color="#0CAE4B"/>
<stop offset="1" stop-color="#2D957D"/>
</linearGradient>
<linearGradient id="paint15_linear_276_4726" x1="81.4267" y1="68.5847" x2="101.702" y2="68.5847" gradientUnits="userSpaceOnUse">
<stop stop-color="#CAEAF1"/>
<stop offset="1" stop-color="#6AC2B3"/>
</linearGradient>
<linearGradient id="paint16_linear_276_4726" x1="80.1039" y1="11.0404" x2="98.1818" y2="11.0404" gradientUnits="userSpaceOnUse">
<stop stop-color="#0CAE4B"/>
<stop offset="1" stop-color="#2D957D"/>
</linearGradient>
<linearGradient id="paint17_linear_276_4726" x1="102.309" y1="126.229" x2="160.619" y2="126.229" gradientUnits="userSpaceOnUse">
<stop stop-color="#CAEAF1"/>
<stop offset="1" stop-color="#6AC2B3"/>
</linearGradient>
<linearGradient id="paint18_linear_276_4726" x1="160.444" y1="118.178" x2="173.557" y2="118.178" gradientUnits="userSpaceOnUse">
<stop stop-color="#CAEAF1"/>
<stop offset="1" stop-color="#6AC2B3"/>
</linearGradient>
</defs>
</svg>
