<svg width="202" height="260" viewBox="0 0 202 260" fill="none" xmlns="http://www.w3.org/2000/svg">
<path d="M76.3468 67.2915C76.3468 67.2915 75.1815 56.4213 75.1815 56.1189C75.1815 55.8165 65.8593 56.1189 65.8593 56.1189C65.8593 56.1189 40.8012 60.0595 27.2003 65.9037C13.5994 71.748 15.4585 75.911 15.4585 75.911C15.4585 75.911 21.5251 74.0074 21.0003 75.404C20.4755 76.8005 14.649 82.8671 14.649 82.8671C14.649 82.8671 14.9159 82.6981 17.9047 82.8671C20.8935 83.0361 27.823 82.3245 27.1736 82.3957C26.5243 82.4668 20.9469 86.3184 20.8491 86.4519C20.7512 86.5853 22.9217 88.5956 23.5177 88.4711C24.1136 88.3466 32.0749 92.1004 37.7501 117.15C43.4253 142.199 39.2623 150.738 39.2623 150.738C39.2623 150.738 41.584 152.811 44.893 156.191C55.0759 166.364 67.8132 173.604 81.7641 177.148C99.2402 181.641 117.634 181.071 134.798 175.503C148.888 170.993 167.159 159.269 167.159 159.269C167.159 159.269 166.145 144.378 168.048 141.71C169.952 139.041 171.286 136.372 169.739 135.536C169.348 135.293 168.896 135.163 168.435 135.163C167.975 135.163 167.523 135.293 167.132 135.536L164.517 135.767C164.517 135.767 155.275 137.013 142.279 134.531C129.283 132.049 118.822 130.484 109.366 131.106C99.9105 131.729 99.0654 132.12 99.0565 131.996C99.0476 131.871 122.496 122.896 126.347 120.352C130.199 117.808 143.124 112.551 153.549 113.396C163.974 114.241 167.008 116.135 169.73 115.379C172.452 114.623 172.211 111.759 171.206 108.263C170.538 105.81 170.239 103.27 170.317 100.729C170.317 100.017 170.806 91.5578 176.108 89.3073C181.409 87.0568 180.404 87.3503 180.235 86.5853C179.787 85.5036 179.242 84.4646 178.607 83.4809L186.684 83.9167L185.359 81.6929L181.089 75.5551C183.369 75.4016 185.658 75.67 187.841 76.3468C190.669 77.432 185.519 71.9793 181.792 70.4315C178.065 68.8837 169.614 61.1537 147.589 56.8039C125.565 52.4541 125.858 54.5267 125.858 54.5267L76.3468 67.2915Z" fill="url(#paint0_linear_276_4650)"/>
<path d="M18.4384 186.258C18.4384 186.258 5.8872 198.311 7.61289 205.276C9.33857 212.241 12.8611 215.683 17.8602 218.334C22.8594 220.985 32.5909 224.507 30.5538 225.833C28.5168 227.158 22.9306 229.168 21.3828 233.118C19.835 237.067 26.4798 245.296 35.7398 242.636C44.9998 239.976 45.747 228.946 45.071 226.233C44.3949 223.52 39.8761 216.27 39.8761 216.27L30.0913 206.539L37.7413 198.933C37.7413 198.933 39.0667 206.939 39.1734 207.704C39.2801 208.469 40.2053 211.2 40.2053 211.2C40.2053 211.2 47.8107 199.262 47.7751 193.952C47.7396 188.641 46.6366 175.654 46.6366 175.654C46.6366 175.654 40.6411 164.82 39.8761 164.882C39.1111 164.944 23.9446 180.787 23.9446 180.787L18.4384 186.258Z" fill="url(#paint1_linear_276_4650)"/>
<path d="M200.561 201.522C198.933 194.77 188.997 188.063 188.997 188.063L170.317 171.58L168.609 169.348C167.078 170.974 165.68 172.72 164.428 174.569C161.626 178.643 158.388 184.692 158.077 191.212C157.525 202.927 161.35 209.892 162.791 212.668C163.832 214.669 164.997 216.688 165.549 217.64L165.771 218.023C165.036 218.829 164.435 219.748 163.992 220.745C162.88 224.009 160.826 235.751 166.954 239.647C168.535 240.576 170.304 241.139 172.131 241.293C173.655 241.444 175.189 241.444 176.713 241.293C181.569 240.875 186.097 239.194 186.871 237.913C188.214 235.707 182.797 227.834 181.801 227.372L177.353 225.272C180.691 222.763 184.338 220.694 188.205 219.117C194.094 216.822 202.189 208.282 200.561 201.522ZM168.048 213.975C168.048 213.975 169.009 200.988 170.45 199.627C170.479 199.597 170.513 199.572 170.551 199.555C170.589 199.538 170.631 199.53 170.673 199.53C170.714 199.53 170.756 199.538 170.794 199.555C170.832 199.572 170.867 199.597 170.895 199.627C171.603 200.31 172.263 201.041 172.87 201.816C174.747 204.11 176.944 207.153 176.944 207.153L176.321 207.695C174.729 209.11 170.468 212.917 167.364 216.208C166.963 216.635 166.581 217.044 166.225 217.444L168.048 213.975Z" fill="url(#paint2_linear_276_4650)"/>
<path d="M76.2313 46.2002C76.2313 46.2002 72.3084 54.1526 83.1073 56.1185C93.9062 58.0844 118.146 50.8614 120.183 49.7583C122.22 48.6553 124.568 47.1876 123.91 45.453C123.252 43.7185 117.843 28.4096 105.132 27.6624C92.4207 26.9152 82.289 36.0863 82.289 36.0863L76.2313 46.2002Z" fill="url(#paint3_linear_276_4650)"/>
<path d="M79.0066 8.81425C79.0066 8.81425 74.3099 15.0409 76.0533 17.3626C77.7968 19.6843 91.0241 13.5732 91.0241 13.5732C91.0241 13.5732 96.3613 7.92472 95.8631 6.92845C95.365 5.93218 88.9337 0.817383 88.9337 0.817383L79.0066 8.81425Z" fill="url(#paint4_linear_276_4650)"/>
<path d="M85.0286 57.3468L75.6708 53.7176C75.6708 53.7176 72.4418 73.6431 85.6068 82.5562C98.7719 91.4693 111.652 88.8451 118.991 77.9484C126.329 67.0516 125.849 57.8628 125.849 57.8628L124.506 48.585L121.419 49.0564C114.529 52.6893 107.163 55.3363 99.5368 56.9199C87.2969 59.375 85.0286 57.3468 85.0286 57.3468Z" fill="url(#paint5_linear_276_4650)"/>
<path d="M41.3883 166.181C44.306 169.134 48.9582 180.413 47.5083 192.084C46.0583 203.755 40.0807 210.497 40.0807 210.497C40.0807 210.497 40.0807 214.945 41.1393 216.724C42.1978 218.503 45.3734 225.806 45.071 230.698C44.7685 235.591 48.6291 248.489 49.8922 251.611C51.1553 254.734 52.8544 259.039 52.97 259.332H95.4717C97.0195 256.842 98.9765 254.627 101.512 254.823C106.351 255.178 109.517 254.885 110.024 255.605C110.202 255.881 111.332 257.384 112.577 259.332H155.106C154.652 257.118 152.188 259.484 155.764 254.645C159.607 249.459 162.943 235.075 162.729 234.835C162.516 234.595 161.315 226.5 163.049 223.529C164.124 221.676 165.087 219.76 165.931 217.791C165.931 217.791 159.482 208.496 158.673 197.492C157.863 186.489 159.313 182.628 159.313 182.628L166.536 171.331L167.426 170.362L167.159 159.269L165.816 159.75C165.816 159.75 152.357 168.965 139.948 173.831C127.539 178.697 114.09 180.218 99.0298 179.924C85.9908 179.561 73.2383 176.016 61.8831 169.597C52.7298 164.473 41.077 153.888 40.0629 151.512C39.0488 149.137 39.4047 159.821 39.4047 159.821C39.1726 160.962 39.2328 162.144 39.5796 163.256C39.9264 164.367 40.5485 165.374 41.3883 166.181Z" fill="url(#paint6_linear_276_4650)"/>
<path d="M139.753 115.415C133.431 117.634 127.252 120.239 121.25 123.216C110.994 128.26 104.065 131.311 109.046 131.16C114.027 131.009 127.637 130.564 134.771 133.179C141.905 135.794 159.678 136.55 161.172 136.622C162.267 136.536 163.286 136.033 164.019 135.216C164.019 135.216 161.288 128.1 162.151 126.019C163.014 123.937 166.599 115.415 166.599 115.415C166.599 115.415 150.765 113.271 148.479 113.271C146.193 113.271 139.753 115.415 139.753 115.415Z" fill="url(#paint7_linear_276_4650)"/>
<path d="M46.6721 233.642C49.1005 235.697 51.182 237.201 51.182 237.201L52.4096 243.632C52.4096 243.632 70.9919 251.219 76.2401 255.098C77.82 256.222 79.1472 257.664 80.1362 259.332H90.0901C91.2287 257.206 92.4473 255.569 93.3814 255.382C95.6408 254.92 101.467 255.142 101.467 255.142C106.56 255.266 111.656 255.064 116.723 254.537C123.901 253.648 129.897 253.096 132.868 252.403C135.696 251.735 135.536 255.125 135.536 259.332H149.502C149.561 258.554 149.692 257.782 149.893 257.028C153.167 247.03 152.624 239.958 154.786 238.099C156.947 236.24 153.371 237.663 153.371 237.663C153.371 237.663 176.721 216.314 161.911 178.154C161.911 178.154 159.011 169.516 158.486 163.752H134.994C132.503 165.318 130.928 168.938 133.828 177.006C140.055 194.254 148.345 229.15 130.484 238.01C112.622 246.87 74.4877 253.328 39.8761 225.388C39.8761 225.405 44.2526 231.579 46.6721 233.642Z" fill="url(#paint8_linear_276_4650)"/>
<path d="M92.9277 58.4853C92.9277 58.761 92.9277 59.0457 92.9277 59.3748C92.9277 64.3295 96.5659 68.3412 101.049 68.3412C105.532 68.3412 109.162 64.3295 109.162 59.3748C109.167 57.7827 108.776 56.2144 108.023 54.8115C103.113 56.7062 98.1047 58.3341 92.9277 58.4853Z" fill="url(#paint9_linear_276_4650)"/>
<path d="M136.995 56.1192C136.995 56.1192 130.181 82.805 132.663 96.4682C135.145 110.131 136.417 113.271 135.243 117.079C142.244 114.389 149.751 113.274 157.232 113.814C169.018 114.873 167.541 115.807 168.013 115.255C168.484 114.704 168.404 111.101 166.234 106.983C164.063 102.864 163.903 88.9607 172.683 86.0875L168.12 80.341C170.911 79.314 173.906 78.9585 176.86 79.3031C179.815 79.6477 182.647 80.6829 185.127 82.3248L184.549 78.8823L173.359 74.4347L167.221 73.9632C167.221 73.9632 176.446 67.9054 185.537 74.0254C194.628 80.1454 180.502 68.2702 180.502 68.2702C180.502 68.2702 152.66 54.7404 136.995 56.1192Z" fill="url(#paint10_linear_276_4650)"/>
<path d="M136.995 133.579C136.995 133.579 135.616 138.445 133.828 139.379C133.828 139.379 112.933 135.492 96.6193 140.464C96.6193 140.464 120.548 137.644 133.828 143.56C133.828 143.56 131.266 165.104 132.12 175.939C132.12 175.939 153.683 168.315 157.677 165.38C161.671 162.444 160.834 162.916 160.834 162.916C160.834 162.916 160.888 145.419 162.613 142.101C163.606 140.277 164.388 138.346 164.944 136.346C164.944 136.346 140.9 134.495 136.995 133.579Z" fill="url(#paint11_linear_276_4650)"/>
<path d="M172.132 222.968C171.453 224.724 171.341 226.649 171.812 228.473C172.282 230.296 173.312 231.926 174.756 233.135C174.595 232.877 172.318 228.883 176.793 225.921C176.793 225.921 181.374 228.954 182.192 232.397C183.01 235.839 182.192 240.403 176.65 241.292C175.135 241.559 173.585 241.559 172.069 241.292C167.88 240.518 164.063 237.529 163.441 231.125C162.848 225.839 164.251 220.522 167.372 216.216C168.128 215.148 168.954 214.132 169.845 213.174C171.822 211.142 173.994 209.31 176.33 207.703C177.371 206.983 178.056 206.556 178.056 206.556L172.879 201.824L170.459 199.627C170.228 199.787 168.538 200.961 168.68 201.228C168.822 201.495 168.769 213.592 165.531 217.631C164.98 216.679 163.814 214.66 162.774 212.658C161.333 209.918 157.508 202.918 158.059 191.203C158.37 184.682 161.617 178.634 164.41 174.56C164.604 174.616 164.791 174.69 164.971 174.782C164.971 174.782 176.641 185.83 181.765 190.642C186.889 195.455 192.182 200.347 192.644 202.642C192.918 204.112 192.918 205.62 192.644 207.09C192.644 207.09 174.533 216.75 172.132 222.968Z" fill="url(#paint12_linear_276_4650)"/>
<path d="M28.8904 241.506C28.8904 241.506 42.3223 235.083 37.7857 223.662C33.2491 212.24 18.9099 205.951 18.9099 205.951C18.9099 205.951 40.6856 186.248 43.1496 180.271C43.1496 180.271 46.2185 193.524 44.3505 201.37C42.4824 209.216 40.392 210.265 40.392 210.265L38.5329 199.031C38.5329 199.031 27.6362 205.088 31.2121 207.339C34.788 209.589 43.5232 214.953 44.9375 223.502C46.3519 232.05 42.1177 238.775 39.7693 240.616C37.421 242.458 28.8904 241.506 28.8904 241.506Z" fill="url(#paint13_linear_276_4650)"/>
<path d="M94.52 28.2944C94.52 28.2944 104.002 38.266 106.413 46.1383C106.413 46.1383 103.46 48.5667 90.3303 49.3406C96.0808 50.1486 101.938 49.6995 107.498 48.0241C108.323 49.7926 109.045 51.6073 109.66 53.4591C110.291 55.6385 119.711 49.9723 119.711 49.9723C119.711 49.9723 114.259 27.5116 94.52 28.2944Z" fill="url(#paint14_linear_276_4650)"/>
<path d="M110.229 54.7227C110.229 54.7227 115.975 82.4582 100.987 87.9288C100.987 87.9288 110.505 89.4233 115.967 81.6488C121.428 73.8743 121.802 58.7523 119.685 49.9727L110.229 54.7227Z" fill="url(#paint15_linear_276_4650)"/>
<path d="M76.7382 17.0243C76.7382 17.0243 82.2533 14.8539 84.6195 12.8346C85.1931 12.2967 85.6446 11.642 85.9435 10.9146C86.2425 10.1873 86.3819 9.40431 86.3524 8.6185C86.3229 7.83268 86.1251 7.06235 85.7725 6.35949C85.4198 5.65663 84.9205 5.03755 84.3081 4.54416L87.6083 2.88965C87.6083 2.88965 90.9885 6.6613 91.4955 7.94223C92.0026 9.22315 93.7816 6.66125 93.7816 6.66125C94.0648 7.62612 94.2935 8.60619 94.4666 9.59674C94.3776 9.71238 83.2229 17.5046 81.3549 17.8693C79.4869 18.234 76.7382 17.0243 76.7382 17.0243Z" fill="url(#paint16_linear_276_4650)"/>
<path d="M164.17 135.874C164.17 135.874 146.958 136.461 142.412 135.367C137.867 134.273 121.517 130.92 121.517 130.92L121.215 130.172C117.728 130.377 108.201 130.893 107.231 130.493C106.031 129.994 108.957 128.091 115.353 125.485C121.749 122.878 131.364 118.671 131.364 118.671L141.194 115.655L140.669 121.66H140.002L139.842 124.64C134.972 124.539 130.152 125.635 125.805 127.833C127.726 128.402 131.284 129.39 134.922 130.075C140.366 131.089 142.661 131.542 143.044 130.617C143.426 129.692 142.306 121.606 142.306 121.606L151.628 121.064C151.628 121.064 150.934 131.053 151.397 131.631C151.859 132.209 152.953 131.631 152.953 131.631L153.478 129.728C153.478 129.728 160.665 130.724 162.516 130.617C164.366 130.51 164.17 135.874 164.17 135.874Z" fill="url(#paint17_linear_276_4650)"/>
<path d="M153.327 117.194C153.327 117.194 163.174 118.715 164.001 119.649C164.828 120.583 166.181 115.335 166.181 115.335L153.665 113.44L153.327 117.194Z" fill="url(#paint18_linear_276_4650)"/>
<path d="M88.5423 32.9561C88.5423 32.9561 81.7018 40.7572 79.5313 54.198C79.5313 54.198 76.2846 55.5589 77.1474 51.0935C78.0102 46.628 83.6499 35.4823 88.5423 32.9561Z" fill="#FDEB07"/>
<path d="M24.8342 88.0439H25.0655C26.1507 88.0439 30.7851 88.4354 33.9608 94.6443C37.5189 101.716 41.5751 115.103 42.6603 128.046C43.2785 136.266 42.9322 144.529 41.6285 152.668L40.2497 150.649C40.2497 150.649 40.4632 127.272 38.1416 119.738C35.8199 112.204 29.7621 93.052 29.7621 93.052L24.8342 88.0439Z" fill="#FDEB07"/>
<path d="M33 172.567C33 172.567 14.4711 194.939 11.7937 198.497C9.11618 202.055 9.51642 208.638 12.0783 212.943C14.6401 217.248 7.07025 207.757 7.45275 203.39C7.83525 199.022 9.85445 194.29 13.5371 191.674C17.2198 189.059 33 172.567 33 172.567Z" fill="#FDEB07"/>
<path d="M78.3038 9.82812C78.3038 9.82812 77.2631 12.4967 77.9747 14.3558C78.6863 16.2149 79.6026 16.9354 80.8924 17.2468C82.1822 17.5581 77.8324 18.4832 77.4232 17.9406C77.014 17.398 75.3061 15.4321 75.6442 14.1245C75.9822 12.8169 78.3038 9.82812 78.3038 9.82812Z" fill="#FDEB07"/>
<path d="M77.1474 56.6348C75.7064 56.6882 74.1853 56.7859 72.6998 56.9016C71.2143 57.0172 69.711 57.1684 68.2521 57.3285C65.2722 57.6488 62.2834 58.0491 59.3568 58.5384C57.8713 58.7786 56.3858 59.0364 54.9092 59.3211C53.4325 59.6057 51.9648 59.8904 50.4615 60.2106C48.9582 60.5308 47.535 60.8867 46.0761 61.2425C44.6173 61.5983 43.1674 61.9987 41.7352 62.4256C35.9725 64.0507 30.3738 66.2098 25.0121 68.8747C24.336 69.195 23.6866 69.5596 23.0373 69.9154C22.3879 70.2712 21.7208 70.6181 21.0981 71.0184L19.1945 72.1748L17.3532 73.4202C16.7217 73.8205 16.1613 74.3097 15.5742 74.7367L14.6846 75.4038L13.8396 76.1154C12.6832 77.0494 11.6424 78.0814 10.5839 79.1043L8.84933 76.9516C9.20514 76.7381 9.51647 76.5958 9.8456 76.4268C10.1747 76.2578 10.4949 76.1333 10.8152 75.991C11.1354 75.8486 11.4645 75.6974 11.8025 75.5906L12.7988 75.2348C13.4575 74.997 14.1286 74.7951 14.8091 74.63L15.8321 74.3542L16.864 74.1674L17.8958 73.9806C18.2391 73.9079 18.5868 73.8573 18.9366 73.8294L21.0359 73.6515C21.3824 73.6293 21.7301 73.6293 22.0766 73.6515H23.1352L25.2345 73.7137L33.6939 73.9361L25.5191 76.4445C25.3056 76.5068 24.9943 76.6403 24.7185 76.747C24.4428 76.8538 24.1581 76.996 23.8824 77.1206C23.3131 77.3608 22.7794 77.6988 22.2278 78.0101C21.6763 78.3214 21.1604 78.6773 20.6267 79.0064C20.3687 79.1843 20.093 79.3267 19.8439 79.5313L19.0967 80.1095C18.5813 80.4773 18.0883 80.8753 17.6201 81.3014L16.2146 82.5734C15.7254 82.9826 15.3251 83.463 14.8892 83.9522L13.6083 85.3576L12.2295 83.0894C13.4215 82.8403 14.5957 82.6357 15.7877 82.4223C16.9796 82.2088 18.1538 82.0575 19.3458 81.8707L21.1248 81.6127L22.9039 81.426L26.462 81.0791L33.4003 80.4119L27.1736 83.7209L26.2841 84.2279C25.9817 84.4058 25.6792 84.5926 25.3946 84.7883C25.1099 84.984 24.7897 85.162 24.505 85.3754C24.2204 85.5889 23.9179 85.7669 23.6155 85.9893L22.7883 86.6386C22.5125 86.861 22.2634 87.1012 21.9966 87.3236C21.4539 87.7683 21.0181 88.3021 20.5288 88.7824L19.5325 86.4606C20.612 86.4808 21.6873 86.603 22.7438 86.8254C23.2686 86.9232 23.7845 87.0834 24.3093 87.2079C24.8341 87.3325 25.3323 87.5726 25.8571 87.7505C26.9006 88.1964 27.8814 88.7764 28.7748 89.4762L29.1217 89.7342L29.2907 89.8676L29.4241 90.0099L29.4864 90.0811L29.9668 90.6415C30.2959 91.0507 30.6517 91.6377 30.9808 92.1448C31.4997 93.051 31.9718 93.9833 32.3952 94.9379C32.831 95.8274 33.2047 96.7881 33.5872 97.7221C34.3433 99.5901 35.0371 101.458 35.6775 103.353C36.318 105.248 36.8784 107.151 37.4566 109.064C38.0348 110.976 38.5151 112.906 38.9421 114.854L39.5648 117.79C39.7338 118.777 39.9562 119.756 40.0896 120.761C40.2231 121.766 40.3742 122.754 40.4543 123.768C40.5586 124.796 40.609 125.829 40.6055 126.863L37.8124 126.952C37.6879 126.063 37.5989 125.111 37.421 124.168C37.2431 123.225 37.0652 122.291 36.8606 121.348C36.4603 119.471 35.9711 117.594 35.4818 115.717C34.9926 113.84 34.4411 111.972 33.8807 110.113C33.3203 108.254 32.7154 106.404 32.1016 104.563L31.1587 101.814C30.8207 100.924 30.5093 100.035 30.1535 99.1454C29.7977 98.2558 29.4597 97.3663 29.0683 96.4768C28.6769 95.5872 28.2677 94.76 27.8941 93.9683C27.6896 93.6481 27.5917 93.3457 27.3337 92.981L26.8801 92.3938L26.8178 92.3227L26.9423 92.4473L26.8178 92.3582L26.5865 92.1626C25.9539 91.6191 25.2544 91.1587 24.505 90.7927C24.1047 90.6236 23.7134 90.4191 23.3042 90.259C22.895 90.0988 22.4591 89.9565 22.0321 89.832C21.1731 89.5923 20.2996 89.4081 19.4169 89.2805L16.3392 89.0581L18.4295 86.9588C18.9667 86.3697 19.5338 85.8086 20.1286 85.2776C20.4221 85.0196 20.7068 84.7439 21.0181 84.5037L21.9076 83.7831C22.2101 83.5341 22.5392 83.3296 22.8594 83.0983C23.1797 82.867 23.4999 82.6623 23.829 82.4489C24.1581 82.2354 24.4872 82.0397 24.8253 81.844C25.1633 81.6483 25.4835 81.4615 25.866 81.2569L26.5865 83.9255L23.1174 84.2635C22.5392 84.3258 21.9521 84.3703 21.3383 84.4415L19.6037 84.6905C18.4562 84.8773 17.2909 85.0018 16.1434 85.2331C14.9959 85.4644 13.8396 85.6335 12.7099 85.8825L8.43122 86.7721L11.34 83.5875L12.7277 82.0753C13.1769 81.5566 13.6519 81.0608 14.1509 80.5898L15.6809 79.2022C16.1925 78.7454 16.7269 78.3149 17.2821 77.9123L18.1093 77.2807C18.3762 77.0673 18.6786 76.8982 18.9988 76.7025C19.5859 76.3378 20.1463 75.9287 20.7779 75.6084C21.4095 75.2882 21.9788 74.9146 22.637 74.6389C22.9573 74.4876 23.2597 74.3364 23.5977 74.203C23.9357 74.0696 24.2471 73.9361 24.6562 73.8116L24.9409 76.5425H23.0284H22.0766C21.7598 76.5201 21.4417 76.5201 21.1248 76.5425L19.2123 76.7025C18.895 76.7275 18.5799 76.7751 18.2694 76.8449L17.3265 77.0138L16.3836 77.1829L15.4941 77.432C14.8771 77.5805 14.2684 77.7616 13.6706 77.9746L12.781 78.2948C12.4697 78.3927 12.1939 78.535 11.8915 78.6507C11.5891 78.7663 11.3044 78.8908 11.002 79.042C10.6995 79.1932 10.4327 79.3178 10.2192 79.4423L0.612274 85.1264L8.47569 77.2896C9.56981 76.1599 10.6551 75.0125 11.847 73.9895L12.7366 73.2067L13.6261 72.4684C14.2488 71.988 14.8358 71.4632 15.4763 71.0184L17.3799 69.6486L19.3458 68.3676C19.9951 67.9318 20.6712 67.5493 21.3383 67.149C22.0055 66.7487 22.6815 66.3484 23.3753 65.9925C28.8495 63.0583 34.5851 60.6403 40.5077 58.7696C41.9754 58.2803 43.4609 57.8801 44.9553 57.3998C46.4497 56.9194 47.9353 56.5725 49.403 56.1989C50.8707 55.8253 52.4096 55.4694 53.9129 55.1314C55.4162 54.7934 56.9373 54.4821 58.4495 54.1797C61.4798 53.5867 64.525 53.0795 67.585 52.6585C69.115 52.445 70.6449 52.2494 72.1838 52.0804C73.7227 51.9114 75.2527 51.7602 76.8539 51.6445L77.1474 56.6348Z" fill="#016C4D"/>
<path d="M124.631 51.5645C126.232 51.6712 127.753 51.8224 129.301 51.9914C130.848 52.1604 132.369 52.3472 133.899 52.5518C136.968 52.9788 140.011 53.4414 143.044 54.0552C149.12 55.2055 155.123 56.7144 161.021 58.574C166.965 60.4059 172.724 62.7883 178.225 65.6902C183.823 68.5968 188.907 72.401 193.276 76.9517L201.281 85.5535L191.087 79.6292C190.901 79.5224 190.607 79.3533 190.34 79.2288L189.504 78.8375C188.935 78.5973 188.348 78.3571 187.725 78.1525C187.102 77.9479 186.524 77.7611 185.946 77.5921C185.368 77.4231 184.727 77.2808 184.105 77.1652C183.482 77.0495 182.859 76.9339 182.237 76.8538C181.614 76.7738 180.982 76.7026 180.351 76.6759C179.719 76.6492 179.088 76.6759 178.456 76.6226C177.824 76.5692 177.193 76.6759 176.561 76.6937L176.89 73.5092C177.326 73.6515 177.629 73.7671 177.976 73.9094C178.323 74.0518 178.634 74.1941 178.945 74.3542C179.586 74.6566 180.208 74.9858 180.813 75.3416C182.013 76.044 183.169 76.8195 184.274 77.6633C184.807 78.1081 185.359 78.5529 185.866 78.9887C186.373 79.4246 186.898 79.8782 187.387 80.3942C187.876 80.9101 188.348 81.3816 188.828 81.8708C189.308 82.36 189.717 82.9116 190.189 83.4275L193.187 86.8611L188.739 85.9003C187.618 85.6601 186.462 85.42 185.314 85.2243C184.167 85.0287 183.01 84.824 181.854 84.6461C180.698 84.4682 179.55 84.317 178.394 84.1836C177.237 84.0501 176.072 83.9612 174.916 83.8544L175.654 81.1858C176.045 81.3904 176.366 81.5684 176.704 81.773C177.042 81.9776 177.371 82.1821 177.7 82.3867C178.349 82.8137 178.99 83.2762 179.604 83.7299C180.88 84.6696 182.054 85.7398 183.108 86.9233L185.012 89.0582L182.13 89.2272C181.65 89.2527 181.171 89.3061 180.698 89.3873C180.208 89.4673 179.719 89.5741 179.239 89.6897C178.293 89.9282 177.375 90.2651 176.499 90.6949C176.07 90.8968 175.66 91.1349 175.271 91.4065C174.893 91.6711 174.539 91.9688 174.213 92.2961C174.06 92.4433 173.917 92.6008 173.786 92.7675C173.653 92.9455 173.519 93.1233 173.404 93.3101C173.157 93.7011 172.943 94.1117 172.763 94.5377C172.035 96.371 171.643 98.3206 171.607 100.293C171.54 102.318 171.743 104.344 172.212 106.315L172.096 106.013C172.888 107.531 173.452 109.159 173.768 110.843C173.955 111.779 173.955 112.744 173.768 113.68C173.651 114.239 173.416 114.766 173.078 115.226C172.741 115.687 172.309 116.069 171.811 116.349C170.907 116.81 169.899 117.031 168.885 116.989C168.45 116.984 168.017 116.954 167.586 116.901C167.159 116.901 166.696 116.785 166.341 116.714C164.722 116.402 163.218 115.993 161.706 115.682C158.742 115.009 155.708 114.687 152.669 114.721C149.619 114.796 146.583 115.166 143.604 115.824C137.597 117.245 131.758 119.303 126.187 121.962C120.494 124.568 114.846 127.299 109.099 129.888C103.353 132.476 97.5354 134.976 91.5222 137.004C88.5038 138.012 85.4349 138.881 82.3156 139.61C79.1806 140.343 75.9966 140.848 72.7887 141.122C69.5492 141.429 66.288 141.429 63.0484 141.122C59.7748 140.776 56.5602 140.005 53.486 138.827C50.4041 137.635 47.5147 135.996 44.9109 133.962C42.3497 131.932 40.0623 129.579 38.106 126.961L40.2942 125.182C41.2816 126.329 42.3223 127.433 43.3987 128.473C44.488 129.503 45.644 130.46 46.859 131.338C49.2709 133.084 51.9145 134.485 54.7135 135.5C57.5291 136.483 60.4531 137.122 63.422 137.404C66.4278 137.689 69.4538 137.689 72.4596 137.404C75.495 137.094 78.5097 136.607 81.4884 135.945C84.4861 135.296 87.4571 134.469 90.3837 133.552C96.299 131.773 102.117 129.532 107.881 127.139C113.645 124.746 119.311 122.078 125.013 119.453C130.781 116.741 136.823 114.654 143.035 113.227C146.184 112.544 149.393 112.172 152.615 112.115C155.851 112.091 159.078 112.446 162.231 113.173C163.788 113.52 165.318 113.921 166.785 114.187C167.15 114.259 167.506 114.312 167.862 114.348C168.207 114.389 168.555 114.409 168.902 114.41C169.463 114.437 170.022 114.327 170.53 114.09C170.714 113.983 170.872 113.837 170.992 113.661C171.112 113.486 171.192 113.286 171.224 113.075C171.335 112.473 171.335 111.855 171.224 111.252C170.945 109.85 170.466 108.496 169.801 107.231L169.721 107.071V106.929C169.18 104.724 168.938 102.456 169 100.186C169.014 97.8692 169.455 95.5745 170.299 93.4169C170.53 92.8508 170.809 92.3061 171.135 91.789C171.304 91.531 171.482 91.2642 171.678 91.0151C171.876 90.7619 172.09 90.5213 172.318 90.2946C172.762 89.8637 173.241 89.4709 173.75 89.1204C174.244 88.7872 174.762 88.49 175.298 88.2309C176.346 87.7101 177.447 87.3016 178.581 87.0122C179.141 86.8699 179.701 86.7454 180.271 86.6565C180.859 86.5539 181.453 86.4827 182.05 86.443L181.062 88.7469C180.127 87.7167 179.09 86.7839 177.967 85.9626C177.398 85.5445 176.81 85.1443 176.188 84.7707C175.885 84.5839 175.583 84.3971 175.298 84.2192C175.014 84.0413 174.676 83.8633 174.409 83.7299L167.933 80.412L175.147 81.0257C176.348 81.1235 177.558 81.177 178.75 81.3193C179.942 81.4616 181.134 81.5861 182.308 81.7463C183.482 81.9064 184.674 82.0843 185.866 82.2889C187.058 82.4934 188.214 82.698 189.424 82.9382L187.93 85.4111C187.511 84.9397 187.102 84.4593 186.666 83.9968C186.231 83.5342 185.777 83.1073 185.323 82.6536C184.87 82.1999 184.434 81.764 183.918 81.3904C183.402 81.0168 182.939 80.5988 182.45 80.2074C181.446 79.4601 180.397 78.7738 179.31 78.1525C178.767 77.8412 178.216 77.5655 177.664 77.3075C177.389 77.1741 177.104 77.0584 176.828 76.9428L176.054 76.6582L167.257 73.9183L176.383 73.4736C177.086 73.4736 177.789 73.3668 178.501 73.3668C179.212 73.3668 179.915 73.3668 180.618 73.3668C181.32 73.3668 182.032 73.4648 182.735 73.5448C183.437 73.6249 184.131 73.7316 184.834 73.8561C185.537 73.9807 186.222 74.1408 186.907 74.3187C187.592 74.4966 188.268 74.6922 188.944 74.9146C189.62 75.137 190.287 75.3949 190.945 75.6707C191.274 75.813 191.603 75.9553 191.932 76.1155C192.286 76.2774 192.63 76.4586 192.964 76.6582L190.803 79.3268C186.634 75.1381 181.805 71.664 176.508 69.0437C171.169 66.3608 165.595 64.1752 159.856 62.5146C154.09 60.8222 148.222 59.497 142.288 58.5472C139.323 58.055 136.358 57.6458 133.392 57.3197C131.907 57.1507 130.404 57.0084 128.945 56.8838C127.486 56.7593 125.938 56.6526 124.497 56.5992L124.631 51.5645Z" fill="#016C4D"/>
<path d="M127.522 59.3748L127.317 61.3317C127.317 61.652 127.237 62.0079 127.201 62.3992C127.166 62.7906 127.041 63.2888 126.952 63.7514C126.774 64.8662 126.524 65.9685 126.205 67.0515C125.435 69.9683 124.283 72.7707 122.78 75.3864C120.852 78.8201 118.289 81.8567 115.228 84.3351C113.465 85.755 111.531 86.9502 109.473 87.8932L107.81 88.5336C107.525 88.6404 107.249 88.7649 106.92 88.845L106.03 89.0673C105.443 89.2097 104.856 89.3965 104.251 89.5032L102.392 89.7434C101.767 89.8267 101.136 89.8564 100.506 89.8323H99.5458H98.8608H98.7541H98.5317L96.7526 89.6367C96.0938 89.5334 95.4407 89.3968 94.7957 89.2275L93.7994 88.9873C93.4792 88.8984 93.1767 88.7649 92.8565 88.6582C92.2338 88.418 91.5934 88.2223 90.9796 87.9376L89.2005 87.0481C88.5868 86.7545 88.053 86.3276 87.4215 85.9718C85.1205 84.4439 83.0784 82.558 81.3727 80.3855L80.7144 79.5671C80.501 79.2914 80.3142 78.9978 80.1185 78.6776C79.736 78.0994 79.3179 77.5301 78.962 76.8985C78.2379 75.6904 77.5931 74.4365 77.0318 73.1447C76.4597 71.8453 75.9608 70.5148 75.5374 69.1597C75.3328 68.4747 75.1816 67.7809 75.0037 67.096L74.7368 66.0552L74.5589 64.9966L74.212 62.8795L74.0341 60.7447L73.954 59.6772V58.6009V56.3771L74.123 54.3312L74.212 53.3083L74.3899 52.223L74.7546 50.0526L75.2883 47.9711L75.5552 46.9303L75.911 45.9073C76.1511 45.2313 76.3646 44.5552 76.6315 43.8881C77.1705 42.5625 77.7884 41.2704 78.4817 40.0186C79.1637 38.7659 79.9273 37.5596 80.7678 36.4072C81.1859 35.8379 81.6573 35.3041 82.1021 34.7526C82.3245 34.4768 82.5469 34.2011 82.7871 33.9343L83.5342 33.1782C85.4742 31.1378 87.7298 29.4228 90.2146 28.0989C90.8217 27.7708 91.4452 27.4739 92.0826 27.2094L94.0218 26.4622C94.6712 26.2398 95.3472 26.0975 96.0055 25.9107C96.3346 25.8306 96.6637 25.7328 97.0017 25.6705L98.0069 25.5282C98.6755 25.416 99.3495 25.3388 100.026 25.2969H102.028H102.65L103.095 25.3503L103.985 25.457C104.605 25.5052 105.221 25.6033 105.826 25.7505L107.792 26.222C108.414 26.3999 108.984 26.649 109.571 26.8625L110.46 27.1916C110.745 27.3072 111.012 27.4674 111.288 27.6008L112.915 28.4904C114.902 29.6826 116.726 31.1267 118.342 32.7868C121.125 35.6605 123.324 39.0469 124.817 42.7584C125.983 45.5662 126.776 48.5151 127.175 51.5292C127.353 52.6331 127.46 53.7473 127.495 54.865C127.495 55.3542 127.557 55.7544 127.566 56.2169C127.575 56.6795 127.566 56.9997 127.566 57.3378L127.513 59.4282L127.522 59.3748ZM124.079 59.1079C124.079 59.0546 124.079 58.4052 124.079 57.2399C124.079 56.9286 124.079 56.5906 124.079 56.2169C124.079 55.8433 124.017 55.4253 123.981 54.9894C123.924 53.975 123.805 52.9651 123.625 51.9651C123.206 49.2695 122.435 46.6406 121.33 44.1461C119.955 40.9335 117.977 38.0137 115.504 35.5443C114.114 34.1689 112.557 32.9735 110.869 31.9862L109.517 31.3012C109.286 31.1856 109.064 31.0522 108.832 30.9633L108.103 30.6964C107.623 30.5274 107.133 30.305 106.644 30.1716L105.203 29.8158C104.657 29.6806 104.101 29.5943 103.54 29.5578L102.65 29.451H102.205C102.072 29.451 102.321 29.451 102.277 29.451H100.284C99.7326 29.451 99.19 29.5756 98.6296 29.6201L97.8023 29.7268C97.5266 29.7713 97.2597 29.8602 96.9839 29.9225C96.4413 30.0648 95.8809 30.1715 95.3383 30.3495L93.7194 30.9633C93.1803 31.1844 92.6545 31.4369 92.1449 31.7194C90.0099 32.8285 88.0668 34.273 86.3896 35.9979L85.7314 36.6473C85.5268 36.8697 85.3311 37.1188 85.1354 37.3501C84.744 37.8304 84.317 38.2929 83.9434 38.7911C83.1922 39.8009 82.503 40.8555 81.8797 41.949C81.2212 43.0522 80.6272 44.1927 80.1007 45.3647C79.8605 45.9518 79.647 46.5656 79.4246 47.1438L79.0866 48.0333L78.8197 48.9228L78.3038 50.7997L77.948 52.6588L77.7612 53.6018L77.6545 54.6248L77.441 56.6617V58.5564V59.535L77.4943 60.5045L77.61 62.4615L77.8946 64.3918L78.028 65.3613L78.2504 66.3043C78.4016 66.9359 78.5351 67.5763 78.7041 68.199C79.0595 69.4329 79.4872 70.6447 79.985 71.8282C80.4686 73.0073 81.0272 74.1541 81.6573 75.2618C81.9687 75.8133 82.3334 76.3293 82.6803 76.863C82.8493 77.121 83.0183 77.3878 83.1962 77.6458L83.7833 78.3752C85.2792 80.3328 87.0815 82.036 89.1205 83.4188C89.6049 83.769 90.1098 84.0898 90.6327 84.3795L92.2072 85.1979C92.7409 85.4559 93.3013 85.6249 93.835 85.8472C94.1108 85.9451 94.3776 86.0607 94.6534 86.1497L95.4629 86.3453C96.0034 86.5028 96.5529 86.6276 97.1085 86.719L98.8875 86.9414H99.1099H99.2256H100.506C101.056 86.9639 101.607 86.9372 102.152 86.8613L103.78 86.6478C104.314 86.55 104.83 86.3809 105.346 86.2564L106.119 86.0607C106.368 85.9896 106.618 85.8739 106.858 85.7849L108.325 85.2246C110.157 84.3862 111.869 83.3061 113.414 82.0133C116.135 79.7259 118.393 76.9391 120.067 73.803C121.385 71.3873 122.381 68.8095 123.029 66.1352C123.289 65.167 123.488 64.1837 123.625 63.1909C123.697 62.7551 123.777 62.3725 123.821 61.9989C123.866 61.6253 123.892 61.2428 123.919 60.9226C124.008 59.9352 124.061 59.2858 124.079 59.099V59.1079Z" fill="#016C4D"/>
<path d="M76.7382 15.5565C76.7358 15.5831 76.7358 15.6099 76.7382 15.6365C76.7382 15.6988 76.8094 15.8056 76.8806 15.939C77.0843 16.2952 77.3673 16.5996 77.7078 16.8285C78.2425 17.1471 78.8746 17.2609 79.4869 17.1488C79.9464 17.0546 80.3961 16.9175 80.8301 16.7395C81.3727 16.5171 81.9064 16.2859 82.4935 16.019C85.1203 14.8211 87.6667 13.4543 90.1168 11.9272C90.7746 11.5071 91.41 11.0528 92.0204 10.5662C92.5916 10.1307 93.1004 9.61895 93.5325 9.04515C93.7104 8.83167 93.7905 8.54693 93.7016 8.73373V8.92951V8.76935V8.44913C93.6608 8.33898 93.6281 8.226 93.6037 8.1111C93.4127 7.43427 93.1534 6.77863 92.8298 6.15418C92.2889 4.93309 91.3851 3.90812 90.2413 3.21869C89.8082 2.99673 89.3119 2.9308 88.8359 3.03192L88.311 3.20088C88.1776 3.24536 87.9908 3.33428 87.8307 3.39655C87.4927 3.54777 87.1546 3.71683 86.8166 3.89474C85.4984 4.60256 84.2427 5.42089 83.0628 6.34095C81.9838 7.15355 80.9668 8.04556 80.0206 9.00954C78.6089 10.3646 77.5127 12.0137 76.8094 13.8397C76.6525 14.2567 76.5917 14.7036 76.6315 15.1473C76.6459 15.2713 76.6728 15.3934 76.7116 15.5119L76.7382 15.5565ZM74.719 16.2058L74.6656 15.9834C74.6133 15.7767 74.5834 15.565 74.5767 15.3519C74.5399 14.6229 74.6613 13.8946 74.9325 13.217C75.8563 11.1954 77.1335 9.35484 78.7041 7.78198C79.5936 6.8035 80.6077 5.77161 81.7374 4.74865C82.9213 3.64877 84.1753 2.62669 85.4912 1.68872C85.847 1.44855 86.2117 1.20833 86.6031 0.977053C86.8077 0.861414 86.9856 0.754666 87.2347 0.639028C87.4838 0.523389 87.6883 0.425579 87.8662 0.345522C89.008 -0.0960071 90.2699 -0.114988 91.4244 0.292098C92.4605 0.670083 93.3973 1.27839 94.1641 2.07116C94.8559 2.80016 95.4536 3.61309 95.9432 4.49076C96.4538 5.37563 96.8286 6.33211 97.0551 7.32831C97.1085 7.61296 97.1619 7.96877 97.1886 8.21784V8.70713C97.1886 8.9384 97.1886 8.79601 97.1886 8.85828V9.01844V9.21411C97.0343 9.93708 96.6762 10.6008 96.1567 11.1266C95.4692 11.7986 94.7118 12.395 93.8973 12.9057C93.159 13.4038 92.4028 13.7952 91.6912 14.2578C89.0724 15.7409 86.3595 17.0512 83.5698 18.1805C82.9739 18.4296 82.3601 18.6698 81.7908 18.8744C81.1803 19.1007 80.5484 19.2646 79.9049 19.3637C78.7214 19.5304 77.5179 19.2549 76.5247 18.5898C75.9124 18.1428 75.4104 17.5616 75.057 16.8908C74.9414 16.6595 74.8702 16.4816 74.8168 16.3482C74.7635 16.2147 74.7279 16.2147 74.719 16.2058Z" fill="#016C4D"/>
<path d="M106.76 55.0609C107.733 56.8022 108.049 58.835 107.649 60.7894C106.911 64.5522 103.887 67.292 100.48 67.292C100.073 67.2911 99.6681 67.2493 99.27 67.1674C95.4807 66.4291 93.0878 62.3462 93.9329 58.0853C94.0196 57.6279 94.1445 57.1786 94.3065 56.7422H92.8031C92.6523 56.7562 92.5004 56.7562 92.3495 56.7422C92.2517 57.0624 92.1716 57.3915 92.1004 57.7295C91.0597 63.0044 94.1108 68.0658 98.9054 69.0087C99.4237 69.1123 99.9512 69.163 100.48 69.16C104.776 69.16 108.566 65.7975 109.482 61.1542C109.935 58.9108 109.621 56.5804 108.592 54.5361C107.979 54.7229 107.374 54.9275 106.76 55.0609Z" fill="#016C4D"/>
<path d="M102.223 60.5668C99.786 60.0864 100.106 56.7685 102.054 56.2259C101.93 56.2259 101.814 56.1458 101.69 56.1191C100.942 56.2377 100.195 56.3357 99.448 56.4128C98.9199 56.6733 98.4671 57.0643 98.1324 57.5488C97.7976 58.0332 97.592 58.5951 97.5351 59.1811C97.4781 59.7672 97.5717 60.3581 97.8069 60.898C98.0421 61.4378 98.4112 61.9087 98.8793 62.266C99.3473 62.6234 99.8987 62.8553 100.481 62.94C101.064 63.0247 101.659 62.9593 102.209 62.75C102.76 62.5407 103.247 62.1944 103.627 61.7439C104.006 61.2933 104.264 60.7535 104.376 60.1754C104.407 59.9991 104.425 59.8207 104.429 59.6418C104.208 60.0109 103.875 60.2997 103.478 60.4661C103.081 60.6325 102.642 60.6678 102.223 60.5668Z" fill="#016C4D"/>
<path d="M76.4269 52.1516L76.9072 52.3917C77.1741 52.5252 77.6723 52.7297 78.2683 52.9877C78.8642 53.2456 79.6292 53.5214 80.5276 53.7705C81.4261 54.0195 82.4401 54.3042 83.5432 54.5889C84.6462 54.8735 85.8915 55.0514 87.208 55.1493C87.8663 55.2204 88.5334 55.345 89.2273 55.3627L91.3444 55.4606C92.0649 55.5229 92.7943 55.4606 93.5415 55.4606C94.2887 55.4606 95.0359 55.4606 95.792 55.3627L98.0781 55.1226L99.2256 55.0069C99.6081 55.0069 99.9906 54.8735 100.373 54.8023C101.901 54.5601 103.415 54.2395 104.91 53.8417L107.107 53.2368L108.183 52.9433L109.233 52.5785C110.612 52.0893 111.964 51.689 113.227 51.1642L116.714 49.6431L118.27 48.976L119.631 48.2821L121.855 47.1346L123.794 46.165L125.227 48.5667L123.305 49.7143L121.081 51.0218L119.711 51.8224L118.128 52.6052L114.57 54.322C113.271 54.8735 111.901 55.3895 110.425 55.9499L109.331 56.3768C108.957 56.5014 108.575 56.5992 108.192 56.7059L105.861 57.3731C104.272 57.8194 102.659 58.1816 101.031 58.4583C100.622 58.5295 100.222 58.6362 99.8038 58.6896L98.5673 58.8319L96.1033 59.1165C95.285 59.1966 94.4666 59.1166 93.6571 59.1967C92.86 59.2368 92.0614 59.2368 91.2643 59.1967L88.9604 59.0543C88.2043 59.0543 87.466 58.8675 86.7544 58.7874C85.4099 58.5791 84.0769 58.3031 82.7604 57.9602C81.5506 57.5777 80.4298 57.2841 79.478 56.8749C78.5262 56.4657 77.6989 56.101 77.0318 55.7808C76.3646 55.4606 75.8665 55.1492 75.4929 54.8913C75.1193 54.6333 74.9681 54.5443 74.9681 54.5443L76.4269 52.1516Z" fill="#016C4D"/>
<path d="M40.5344 125.2C40.65 126.027 40.7389 126.899 40.8368 127.753C40.9346 128.607 40.988 129.461 41.0681 130.306C41.2371 132.014 41.2994 133.713 41.3972 135.412C41.495 137.111 41.5039 138.819 41.5573 140.518L41.6018 143.071L41.5573 145.624C41.5573 147.323 41.5573 149.022 41.4328 150.721L41.1304 155.818C41.077 156.707 41.0503 157.517 40.9435 158.362L40.6767 160.906L40.1341 165.976L40.0807 166.457L39.716 166.804L31.5323 174.809C28.8638 177.478 26.1952 180.244 23.5266 182.975C20.858 185.706 18.1894 188.49 15.7076 191.328C14.4444 192.751 13.2169 194.192 12.0516 195.66C11.4823 196.398 10.9219 197.145 10.4238 197.893C10.1836 198.275 9.95231 198.649 9.76551 199.004C9.64987 199.2 9.62319 199.343 9.54313 199.503C9.54313 199.503 9.48976 199.636 9.54313 199.574L9.49866 199.752L9.40083 200.099C9.34746 200.321 9.26739 200.57 9.22291 200.784L9.12508 201.388C9.03612 201.78 9.02719 202.278 8.97382 202.678C8.92044 203.079 8.97382 203.568 8.97382 203.995C8.97382 204.422 9.02723 204.884 9.07171 205.32C9.28961 207.091 9.80696 208.811 10.6017 210.408C11.3926 212.001 12.4793 213.429 13.804 214.616C14.1331 214.909 14.4978 215.167 14.8358 215.443C15.1739 215.719 15.5831 215.914 15.9567 216.164C16.775 216.626 17.5845 217.053 18.4473 217.427C21.872 219.055 25.4835 220.504 28.8281 222.63C30.5773 223.68 32.0913 225.079 33.2758 226.74C33.869 227.619 34.2609 228.618 34.4233 229.667C34.5632 230.707 34.4658 231.765 34.1387 232.762V232.833C34.0603 232.968 33.971 233.096 33.8718 233.216C33.7917 233.332 33.685 233.42 33.596 233.527C33.4013 233.72 33.1932 233.898 32.9734 234.061C32.7567 234.214 32.5309 234.353 32.2973 234.479C32.0666 234.606 31.8255 234.713 31.5768 234.799C31.3368 234.903 31.0862 234.98 30.8296 235.03L30.0824 235.182C29.8295 235.222 29.5734 235.24 29.3174 235.235H28.5702L29.2996 235.048L29.6554 234.959C29.7763 234.932 29.8952 234.896 30.0112 234.853L30.6873 234.577C30.9145 234.494 31.1322 234.386 31.3366 234.257C31.5478 234.145 31.75 234.017 31.9415 233.874C32.1274 233.733 32.3056 233.581 32.4752 233.42C32.6381 233.262 32.7897 233.093 32.9289 232.913C32.9911 232.824 33.0623 232.736 33.1157 232.647C33.1652 232.563 33.2098 232.477 33.2491 232.389V232.469C33.4253 231.615 33.4131 230.734 33.2134 229.886C33.0136 229.038 32.6312 228.243 32.0927 227.558C30.9336 226.164 29.5286 224.994 27.9475 224.107C24.6253 222.274 21.1909 220.651 17.6645 219.25C16.775 218.859 15.8855 218.432 14.996 217.969C14.5601 217.702 14.1064 217.444 13.6795 217.16C13.2525 216.875 12.8344 216.555 12.443 216.27C10.8721 214.927 9.57105 213.297 8.60913 211.467C7.64786 209.648 7.00693 207.677 6.71443 205.64C6.64327 205.125 6.6077 204.617 6.56322 204.101C6.51875 203.586 6.56322 203.07 6.56322 202.545C6.58133 202.018 6.62882 201.492 6.70553 200.97L6.83898 200.161C6.83898 199.912 6.94571 199.689 6.99909 199.458L7.08802 199.102V198.933C7.11367 198.842 7.14638 198.753 7.18585 198.666C7.28039 198.385 7.39638 198.112 7.53278 197.848C7.773 197.378 8.03725 196.921 8.32448 196.478C8.87599 195.589 9.45418 194.833 10.0502 194.05C11.251 192.493 12.4964 191.008 13.7595 189.549C16.3035 186.631 18.9188 183.811 21.5696 181.018C24.2204 178.225 26.9067 175.512 29.6465 172.79C32.3862 170.068 35.1082 167.391 37.9014 164.784L37.4832 165.612L38.017 160.621L38.2838 158.122C38.3906 157.294 38.4084 156.458 38.4618 155.622L38.7642 150.605C38.8709 148.933 38.8353 147.261 38.8887 145.588V143.071L38.8442 140.562C38.8442 138.89 38.8443 137.218 38.693 135.545C38.5418 133.873 38.5418 132.21 38.3728 130.546C38.2927 129.719 38.2482 128.874 38.1504 128.056C38.0525 127.237 37.9725 126.428 37.848 125.583L40.5344 125.2Z" fill="#016C4D"/>
<path d="M31.6124 227.096C31.6124 227.096 31.3277 227.167 30.7229 227.362C29.863 227.642 29.0247 227.984 28.2144 228.385C26.9882 228.964 25.8575 229.726 24.8609 230.645C23.6531 231.696 22.8768 233.156 22.6815 234.745L22.6371 235.155C22.6309 235.238 22.6309 235.321 22.6371 235.404C22.6463 235.565 22.6671 235.726 22.6993 235.884C22.7526 236.071 22.7972 236.249 22.8505 236.445C22.9039 236.64 23.0195 236.791 23.0996 236.978C23.5989 237.767 24.2789 238.426 25.0833 238.9C27.0861 240.073 29.3324 240.77 31.6479 240.937H32.0305H32.5375C32.8634 240.955 33.1901 240.955 33.516 240.937L34.4055 240.865L35.2951 240.705C36.4655 240.464 37.5813 240.009 38.5863 239.362C40.6548 237.967 42.1565 235.878 42.8204 233.473C43.5563 230.959 43.7234 228.313 43.3097 225.726C42.9765 223.205 42.0631 220.797 40.6411 218.689C40.3013 218.195 39.9236 217.728 39.5114 217.293C39.12 216.857 38.6219 216.403 38.1771 215.914C37.2876 215.025 36.3981 214.082 35.5085 213.245C33.9761 211.594 32.3197 210.063 30.5538 208.664C29.0897 207.537 27.4183 206.709 25.6348 206.227C24.2152 205.901 22.7578 205.769 21.3028 205.836C20.3432 205.884 19.3869 205.985 18.4384 206.138L17.4155 206.298L18.3851 205.934C19.305 205.569 20.2505 205.271 21.2138 205.044C22.752 204.726 24.33 204.645 25.8927 204.804C27.9584 205.09 29.9388 205.815 31.7013 206.93C33.6958 208.238 35.5658 209.727 37.2876 211.377L40.0629 213.984C40.5344 214.438 40.9524 214.873 41.504 215.363C42.021 215.885 42.4996 216.444 42.9361 217.035C44.6884 219.471 45.8571 222.277 46.3519 225.236C46.9207 228.291 46.7746 231.436 45.9249 234.425C45.0682 237.578 43.1201 240.323 40.4277 242.173C39.069 243.038 37.5605 243.642 35.98 243.952L34.8325 244.157L33.6316 244.246C33.2047 244.29 32.9289 244.246 32.5731 244.246H31.6836H31.4078C28.5454 244.035 25.7725 243.154 23.3131 241.675C22.0604 240.91 21.0107 239.854 20.2531 238.597C20.0841 238.25 19.924 237.912 19.7727 237.574C19.6215 237.236 19.5859 236.845 19.497 236.489C19.432 236.101 19.3993 235.708 19.3992 235.315C19.3992 235.128 19.3992 234.906 19.3992 234.754L19.4525 234.354C19.6051 233.114 20.0173 231.92 20.6623 230.849C21.2267 229.927 21.9252 229.093 22.7349 228.376C23.9864 227.277 25.3994 226.377 26.9245 225.708C27.8787 225.291 28.8594 224.937 29.86 224.649C30.5361 224.463 30.9719 224.374 30.9541 224.374L31.6124 227.096Z" fill="#016C4D"/>
<path d="M28.8904 206.432C29.0061 206.227 29.1751 205.969 29.3263 205.738L29.7977 205.08C30.1002 204.635 30.4382 204.243 30.7584 203.816C31.0786 203.389 31.4434 203.025 31.7814 202.624C32.1194 202.224 32.493 201.859 32.8488 201.486C33.2046 201.112 33.5694 200.721 33.9607 200.383L35.1082 199.324C35.4818 198.968 35.9088 198.666 36.3002 198.328L37.51 197.349L37.0741 197.91C37.2965 197.51 37.5367 197.02 37.7502 196.62C37.9636 196.22 38.1949 195.731 38.3995 195.277C38.6041 194.823 38.8265 194.387 39.0133 193.907C39.2001 193.427 39.4225 193.017 39.5915 192.51L40.1252 191.096C40.2942 190.625 40.4365 190.144 40.5966 189.664C40.7629 189.186 40.9025 188.699 41.0147 188.205L41.3883 186.729V188.258C41.3882 188.772 41.3615 189.286 41.3083 189.797C41.3083 190.304 41.2371 190.82 41.1748 191.336L40.9702 192.875C40.908 193.382 40.8012 193.889 40.7122 194.405C40.6233 194.921 40.5255 195.428 40.4187 195.935C40.312 196.442 40.2052 196.949 40.0807 197.456C39.9562 197.963 39.8316 198.461 39.6715 198.995V199.164L39.2801 199.564L38.1504 200.454C37.7768 200.765 37.3765 201.05 37.0296 201.343L35.9622 202.331C35.5975 202.642 35.2683 203.007 34.9303 203.345C34.5923 203.683 34.2454 204.039 33.9429 204.403C33.6405 204.768 33.2936 205.124 33 205.498C32.7065 205.871 32.3952 206.245 32.1105 206.636L31.7013 207.205C31.5857 207.392 31.47 207.543 31.3366 207.775L28.8904 206.432Z" fill="#016C4D"/>
<path d="M39.8761 198.186C39.8761 198.186 39.8761 198.479 39.8761 198.995C39.8761 199.511 39.8761 200.232 39.9295 201.121C39.9295 201.557 39.9295 202.011 40.0095 202.553C40.0896 203.096 40.0629 203.594 40.1163 204.146C40.2497 205.249 40.3209 206.441 40.5166 207.615C40.6055 208.202 40.6856 208.789 40.7745 209.394C40.8635 209.999 40.9881 210.532 41.0859 211.075C41.3172 212.16 41.4684 213.192 41.7263 214.046C42.1711 215.763 42.4736 216.91 42.4736 216.91L40.1163 217.631C40.1163 217.631 39.7872 216.439 39.289 214.66C39.0044 213.77 38.8265 212.703 38.5685 211.582C38.4529 211.013 38.3016 210.435 38.2127 209.803C38.1237 209.171 38.017 208.602 37.9192 208.024C37.6879 206.814 37.59 205.587 37.4388 204.466C37.3676 203.897 37.341 203.336 37.2965 202.802C37.252 202.269 37.1986 201.779 37.1809 201.317C37.1809 200.427 37.1008 199.618 37.1008 199.057C37.1008 198.497 37.1008 198.168 37.1008 198.168L39.8761 198.186Z" fill="#016C4D"/>
<path d="M97.7756 259.35C97.827 259.275 97.8835 259.204 97.9446 259.137L98.5851 258.39C99.012 257.891 99.4746 257.447 99.9372 256.975L97.3576 254.307C96.8327 254.849 96.2901 255.365 95.8009 255.934L95.0626 256.824C94.8135 257.1 94.6 257.411 94.3687 257.714C93.9417 258.256 93.5503 258.834 93.1678 259.413L97.7756 259.35Z" fill="#016C4D"/>
<path d="M45.6492 241.266C45.7826 241.897 45.9427 242.52 46.0939 243.143C46.2452 243.765 46.4053 244.397 46.5832 245.019C46.9123 246.265 47.2948 247.501 47.6773 248.729C47.8641 249.351 48.0954 249.956 48.3 250.57C48.5046 251.184 48.718 251.798 48.9671 252.403L49.6698 254.182L50.4526 255.961C50.8173 256.85 51.2532 257.686 51.6802 258.54L51.5468 258.816C51.4845 258.976 51.44 259.145 51.3866 259.305H55.2561L55.4162 257.686C54.8469 256.601 54.2064 255.56 53.6994 254.44L52.8988 252.776L52.1605 251.077C51.9025 250.517 51.6891 249.93 51.4667 249.36C51.2443 248.791 51.0041 248.204 50.7995 247.581C50.3904 246.416 49.9812 245.242 49.6165 244.023C49.4208 243.436 49.2429 242.84 49.0738 242.244C48.9048 241.648 48.7269 241.052 48.5757 240.465C48.2466 239.264 47.9619 238.046 47.6862 236.836C47.1436 234.398 46.681 231.926 46.3608 229.488L43.79 229.746C44.0302 232.353 44.4038 234.87 44.8753 237.405C45.1066 238.748 45.3556 240.011 45.6492 241.266Z" fill="#016C4D"/>
<path d="M98.6651 131.088C99.1899 130.946 99.7592 130.83 100.337 130.724C100.916 130.617 101.485 130.483 102.036 130.412C103.157 130.27 104.278 130.048 105.408 129.967L108.779 129.674C109.9 129.612 111.03 129.612 112.159 129.576C114.41 129.46 116.607 129.629 118.902 129.727C121.197 129.825 123.35 130.154 125.609 130.394L127.281 130.59L128.117 130.697L128.945 130.866L132.245 131.533L135.545 132.2L138.765 132.894L142.012 133.606L143.631 133.953L145.241 134.202C147.385 134.504 149.511 134.958 151.681 135.091L154.928 135.367H158.148C160.26 135.342 162.363 135.107 164.428 134.664L165.86 134.211C166.1 134.13 166.287 134.015 166.51 133.926L167.328 133.561C167.441 133.508 167.561 133.469 167.684 133.446L168.137 133.366C168.415 133.33 168.696 133.33 168.974 133.366C169.495 133.489 169.972 133.753 170.352 134.131C170.931 134.745 171.31 135.52 171.438 136.354C171.626 137.715 171.432 139.101 170.877 140.357C170.762 140.66 170.601 140.935 170.459 141.247L170.103 141.958C169.901 142.396 169.732 142.848 169.596 143.31C169.013 145.341 168.655 147.429 168.529 149.537C168.36 151.69 168.306 153.869 168.351 156.049C168.431 160.416 168.796 164.793 169.303 169.16V169.783L168.813 168.769C174.72 173.43 180.537 178.162 186.195 183.135C189.024 185.616 191.817 188.143 194.512 190.811C195.855 192.155 197.181 193.48 198.417 195.019C199.073 195.79 199.667 196.611 200.196 197.474C200.507 197.977 200.744 198.522 200.899 199.093C201.006 199.555 201.148 199.982 201.228 200.516C201.574 202.535 201.549 204.599 201.157 206.609C200.788 208.6 200.074 210.512 199.049 212.258C198.031 214.022 196.674 215.567 195.055 216.803C193.442 217.924 191.686 218.821 189.833 219.472C186.334 220.724 182.932 222.234 179.657 223.991C178.069 224.864 176.667 226.04 175.529 227.451C174.988 228.166 174.61 228.993 174.424 229.871C174.238 230.748 174.248 231.657 174.453 232.53C174.558 232.737 174.687 232.931 174.836 233.109C174.988 233.293 175.154 233.466 175.334 233.624C175.516 233.782 175.706 233.931 175.903 234.069C176.105 234.21 176.319 234.332 176.543 234.434C176.756 234.562 176.983 234.663 177.22 234.736L177.922 234.977C178.039 235.012 178.158 235.038 178.278 235.057L178.652 235.128L179.381 235.261L178.643 235.181L178.269 235.137C178.143 235.128 178.019 235.11 177.896 235.083L177.166 234.888C176.92 234.828 176.681 234.742 176.455 234.63C176.215 234.538 175.983 234.428 175.761 234.3C175.556 234.158 175.325 234.034 175.12 233.874C174.918 233.713 174.728 233.537 174.551 233.349C174.365 233.154 174.201 232.939 174.062 232.708C173.772 231.767 173.694 230.774 173.833 229.799C173.971 228.824 174.323 227.892 174.862 227.069C175.962 225.461 177.371 224.088 179.007 223.03C182.183 220.86 185.679 219.339 188.988 217.693C190.606 216.943 192.139 216.022 193.56 214.944C194.887 213.857 196.008 212.54 196.869 211.057C197.734 209.554 198.336 207.915 198.648 206.209C198.942 204.529 198.942 202.81 198.648 201.13C198.567 200.689 198.463 200.252 198.337 199.822C198.237 199.489 198.091 199.171 197.901 198.879C197.44 198.151 196.926 197.458 196.362 196.807C195.197 195.428 193.907 194.138 192.591 192.804C189.966 190.206 187.2 187.698 184.398 185.243C178.776 180.342 173.03 175.529 167.203 170.868L166.714 170.486V169.543C166.189 165.095 165.825 160.647 165.691 156.2C165.638 153.949 165.691 151.699 165.842 149.43C165.974 147.117 166.362 144.826 166.999 142.599C167.173 141.99 167.393 141.395 167.657 140.82L168.048 140.037C168.161 139.833 168.259 139.622 168.342 139.405C168.694 138.629 168.826 137.77 168.725 136.924C168.691 136.656 168.583 136.403 168.413 136.194C168.324 136.114 168.413 136.194 168.413 136.141L168.226 136.221H168.129C168.129 136.221 168.351 136.114 168.226 136.167H168.173L167.737 136.372C167.449 136.519 167.152 136.647 166.848 136.755L165.069 137.315C162.805 137.823 160.495 138.097 158.175 138.133H154.759L151.379 137.849C149.128 137.733 146.931 137.262 144.672 136.959L142.999 136.692L141.371 136.345L138.125 135.643L134.851 134.931L131.64 134.282L128.438 133.632L127.637 133.463L126.819 133.366L125.2 133.17C123.029 132.938 120.877 132.556 118.688 132.529C116.5 132.503 114.339 132.271 112.168 132.387C111.083 132.387 109.989 132.387 108.904 132.476L105.657 132.761C104.58 132.832 103.522 133.045 102.446 133.188C101.903 133.25 101.396 133.366 100.88 133.463C100.364 133.561 99.8481 133.659 99.3055 133.801L98.6651 131.088Z" fill="#016C4D"/>
<path d="M176.837 224.365C176.837 224.365 177.255 224.454 177.931 224.641C178.932 224.929 179.912 225.282 180.867 225.699C182.392 226.368 183.805 227.269 185.056 228.368C185.866 229.085 186.565 229.918 187.129 230.841C187.774 231.911 188.186 233.105 188.339 234.345L188.392 234.746C188.392 234.897 188.392 235.119 188.392 235.306C188.392 235.699 188.359 236.092 188.294 236.48C188.214 236.836 188.125 237.201 188.018 237.565C187.912 237.93 187.707 238.241 187.538 238.588C186.78 239.845 185.731 240.901 184.478 241.666C182.019 243.146 179.246 244.026 176.383 244.237H176.108H175.218C174.871 244.237 174.587 244.237 174.16 244.237L172.959 244.148L171.811 243.943C170.231 243.633 168.722 243.029 167.364 242.164C164.671 240.314 162.723 237.569 161.866 234.416C161.017 231.428 160.871 228.282 161.439 225.228C161.934 222.268 163.103 219.462 164.855 217.026C165.292 216.435 165.77 215.876 166.287 215.354C166.794 214.82 167.257 214.464 167.728 213.975L170.504 211.369C172.225 209.718 174.095 208.229 176.09 206.921C177.852 205.806 179.833 205.081 181.899 204.795C183.461 204.636 185.039 204.717 186.577 205.035C187.543 205.264 188.491 205.561 189.415 205.925L190.385 206.29L189.397 206.147C188.449 205.994 187.493 205.893 186.533 205.845C185.078 205.778 183.62 205.91 182.201 206.236C180.417 206.718 178.746 207.547 177.282 208.673C175.516 210.072 173.86 211.604 172.327 213.255C171.438 214.144 170.548 215.034 169.659 215.923C169.223 216.377 168.716 216.866 168.324 217.302C167.912 217.737 167.534 218.204 167.195 218.698C165.763 220.797 164.837 223.2 164.49 225.717C164.077 228.304 164.244 230.95 164.98 233.465C165.644 235.87 167.145 237.958 169.214 239.353C170.219 240 171.335 240.455 172.505 240.696L173.395 240.857L174.284 240.928C174.61 240.946 174.937 240.946 175.263 240.928H175.77H176.152C178.468 240.762 180.714 240.065 182.717 238.891C183.521 238.417 184.201 237.758 184.7 236.969C184.781 236.783 184.861 236.605 184.95 236.436C185.039 236.267 185.047 236.062 185.101 235.875C185.133 235.717 185.154 235.556 185.163 235.395C185.174 235.312 185.174 235.229 185.163 235.146V234.737C184.971 233.147 184.194 231.685 182.984 230.636C181.981 229.718 180.844 228.96 179.612 228.385C178.802 227.984 177.964 227.642 177.104 227.362C176.499 227.167 176.214 227.105 176.214 227.096L176.837 224.365Z" fill="#016C4D"/>
<path d="M176.535 207.855C176.401 207.624 176.286 207.472 176.17 207.286L175.761 206.716C175.503 206.325 175.183 205.96 174.871 205.578C174.56 205.195 174.24 204.848 173.928 204.484C173.617 204.119 173.27 203.781 172.941 203.425C172.612 203.069 172.274 202.722 171.909 202.411L170.842 201.424C170.495 201.085 170.094 200.801 169.721 200.534L168.591 199.644L168.2 199.244L168.155 199.075C167.995 198.542 167.871 198.052 167.746 197.536C167.622 197.02 167.506 196.522 167.408 196.015C167.31 195.508 167.195 194.992 167.115 194.485C167.034 193.978 166.919 193.462 166.857 192.955L166.652 191.416C166.59 190.9 166.563 190.384 166.519 189.877C166.465 189.366 166.439 188.853 166.438 188.339V186.809L166.812 188.285C166.924 188.779 167.064 189.266 167.23 189.744C167.39 190.224 167.533 190.705 167.702 191.176L168.235 192.591C168.404 193.062 168.618 193.48 168.814 193.987C169.009 194.494 169.214 194.877 169.427 195.357C169.641 195.837 169.845 196.247 170.077 196.7C170.308 197.154 170.53 197.59 170.762 197.99L170.317 197.43L171.527 198.408C171.918 198.746 172.345 199.049 172.719 199.404L173.866 200.463C174.257 200.801 174.604 201.192 174.978 201.566C175.352 201.939 175.707 202.304 176.045 202.704C176.383 203.105 176.739 203.487 177.068 203.896C177.397 204.306 177.727 204.715 178.029 205.16L178.501 205.818C178.652 206.049 178.821 206.307 178.936 206.512L176.535 207.855Z" fill="#016C4D"/>
<path d="M170.717 198.142C170.717 198.142 170.717 198.453 170.717 199.031C170.717 199.609 170.717 200.365 170.637 201.291C170.637 201.753 170.566 202.251 170.521 202.776C170.477 203.301 170.45 203.87 170.379 204.439C170.228 205.587 170.13 206.814 169.899 207.998C169.798 208.591 169.7 209.184 169.605 209.777C169.516 210.381 169.365 210.96 169.249 211.556C168.991 212.676 168.813 213.744 168.529 214.634C168.031 216.413 167.702 217.605 167.702 217.605L165.344 216.884C165.344 216.884 165.647 215.736 166.092 214.02C166.349 213.13 166.501 212.134 166.732 211.049C166.83 210.506 166.972 209.946 167.043 209.367C167.115 208.789 167.212 208.202 167.301 207.588C167.497 206.414 167.568 205.222 167.702 204.119C167.755 203.568 167.773 203.034 167.817 202.527C167.862 202.02 167.888 201.531 167.897 201.095C167.897 200.205 167.897 199.467 167.897 198.969C167.897 198.471 167.897 198.159 167.897 198.159L170.717 198.142Z" fill="#016C4D"/>
<path d="M156.485 259.35C156.431 259.19 156.387 259.021 156.324 258.861L156.191 258.585C156.618 257.696 157.081 256.886 157.419 256.006L158.201 254.227L158.904 252.448C159.153 251.843 159.358 251.229 159.571 250.615C159.785 250.001 160.007 249.396 160.194 248.774C160.576 247.546 160.959 246.31 161.288 245.064C161.466 244.442 161.626 243.819 161.777 243.188C161.928 242.556 162.098 241.942 162.222 241.311C162.516 240.056 162.765 238.793 163.005 237.53C163.476 234.995 163.894 232.478 164.09 229.871L161.51 229.613C161.199 232.051 160.736 234.523 160.194 236.961C159.909 238.171 159.625 239.389 159.304 240.59C159.153 241.195 158.975 241.791 158.806 242.369C158.637 242.947 158.459 243.57 158.264 244.148C157.899 245.34 157.49 246.514 157.081 247.706C156.876 248.293 156.636 248.863 156.413 249.485C156.191 250.108 155.978 250.642 155.72 251.202L154.981 252.901L154.181 254.565C153.674 255.685 153.033 256.726 152.464 257.811L152.624 259.43L156.485 259.35Z" fill="#016C4D"/>
<path d="M109.927 259.137C109.988 259.204 110.044 259.275 110.096 259.35H114.677C114.294 258.772 113.903 258.194 113.476 257.651C113.245 257.349 113.031 257.037 112.782 256.762L112.044 255.872C111.555 255.303 111.012 254.787 110.487 254.244L107.907 256.913C108.352 257.384 108.797 257.802 109.26 258.327L109.927 259.137Z" fill="#016C4D"/>
<path d="M73.0823 249.031C73.0823 249.031 74.2298 249.378 76.2401 249.921C78.2504 250.463 81.1236 251.086 84.5928 251.7C86.3185 252.011 88.2043 252.287 90.1879 252.589C92.1716 252.892 94.2887 253.025 96.4146 253.221C98.5406 253.416 100.862 253.443 103.122 253.443C105.381 253.443 107.712 253.372 110.024 253.221C111.172 253.123 112.328 253.025 113.467 252.901C114.606 252.776 115.753 252.643 116.874 252.447C119.115 252.082 121.321 251.709 123.439 251.184C125.556 250.659 127.575 250.116 129.479 249.52L132.245 248.631L134.807 247.679C135.634 247.385 136.381 247.003 137.128 246.709C137.876 246.416 138.587 246.14 139.228 245.82C140.509 245.188 141.683 244.708 142.59 244.228C144.431 243.267 145.517 242.751 145.517 242.751C145.517 242.751 144.627 243.534 142.99 244.85C142.172 245.517 141.122 246.229 139.922 247.065C138.721 247.901 137.297 248.746 135.714 249.627L133.215 250.944C132.325 251.37 131.435 251.753 130.448 252.18C128.442 253.043 126.387 253.786 124.293 254.404C122.053 255.092 119.775 255.647 117.47 256.067C116.305 256.307 115.104 256.45 113.912 256.628C112.72 256.806 111.501 256.886 110.291 256.992C107.872 257.126 105.443 257.215 103.059 257.108C100.676 257.001 98.336 256.788 96.0944 256.53C93.8528 256.272 91.6913 255.845 89.672 255.373C87.6528 254.902 85.7581 254.404 84.0413 253.861C81.2706 253.001 78.5654 251.943 75.9466 250.694C74.9636 250.19 74.0075 249.635 73.0823 249.031Z" fill="#016C4D"/>
<path d="M46.3341 231.276L46.4052 231.454L46.6454 231.935C46.8678 232.362 47.1969 232.975 47.6506 233.714C48.1666 234.536 48.7278 235.329 49.3318 236.089C50.0231 236.976 50.7656 237.823 51.5556 238.624C51.947 239.051 52.3918 239.416 52.801 239.816C53.2101 240.216 53.6905 240.545 54.073 240.901C54.4555 241.257 54.9625 241.55 55.3272 241.862C55.692 242.173 56.1278 242.413 56.4925 242.653C56.8572 242.894 57.1952 243.134 57.5066 243.303L58.3161 243.757C58.7697 244.006 59.0188 244.157 59.0188 244.157L58.2627 243.863L57.3732 243.534C57.0351 243.41 56.6704 243.223 56.2612 243.036C55.8521 242.849 55.3717 242.662 54.9714 242.413C54.5711 242.164 54.0285 241.933 53.557 241.631C53.0856 241.328 52.5697 241.052 52.0804 240.741C51.5912 240.43 51.093 240.074 50.6216 239.7C49.6701 238.989 48.7613 238.223 47.8996 237.405C47.1391 236.691 46.4176 235.937 45.7381 235.146C45.1332 234.452 44.6706 233.829 44.3415 233.367C44.1814 233.135 44.0569 232.958 43.9679 232.815L43.8434 232.62L46.3341 231.276Z" fill="#016C4D"/>
<path d="M163.966 229.835L163.841 230.031C163.752 230.173 163.628 230.351 163.467 230.582C163.138 231.027 162.676 231.65 162.071 232.362C161.391 233.153 160.67 233.907 159.909 234.621C159.048 235.439 158.139 236.205 157.187 236.916C156.716 237.298 156.209 237.61 155.729 237.957C155.248 238.304 154.732 238.579 154.252 238.846C153.772 239.113 153.291 239.38 152.838 239.629C152.384 239.878 151.948 240.074 151.548 240.252C151.148 240.43 150.774 240.625 150.436 240.75L149.546 241.079L148.79 241.364L149.493 240.972L150.302 240.519C150.614 240.35 150.943 240.109 151.317 239.869C151.69 239.629 152.09 239.38 152.482 239.078C152.873 238.775 153.318 238.481 153.736 238.117C154.154 237.752 154.626 237.423 155.008 237.032C155.391 236.64 155.898 236.267 156.253 235.84C157.722 234.343 159.031 232.697 160.158 230.929C160.612 230.209 160.941 229.595 161.164 229.15C161.27 228.943 161.35 228.783 161.404 228.67C161.425 228.611 161.452 228.555 161.484 228.501L163.966 229.835Z" fill="#016C4D"/>
<path d="M106.173 181.24C57.6223 181.24 39.458 150.747 39.2712 150.445L40.8813 149.511C41.0592 149.804 58.7431 179.372 106.173 179.372C139.975 179.372 166.278 157.872 166.536 157.659L167.728 159.091C167.461 159.322 140.704 181.24 106.173 181.24Z" fill="#016C4D"/>
<path d="M165.051 218.689C146.122 188.374 167.221 169.285 167.435 169.089L168.671 170.494C167.835 171.224 148.568 188.765 166.634 217.702L165.051 218.689Z" fill="#016C4D"/>
<path d="M40.6678 212.222L39.0666 211.217C56.6171 183.766 38.6841 164.179 38.5062 163.983L39.8672 162.702C40.0807 162.907 58.9921 183.562 40.6678 212.222Z" fill="#016C4D"/>
<path d="M50.3637 239.06C46.4497 233.723 48.0597 227.354 50.7194 216.768C51.6712 212.988 52.7565 208.709 53.7528 203.763C57.4087 185.608 50.3636 162.213 50.2925 161.955L51.182 161.688C51.2532 161.92 58.3605 185.546 54.6512 203.932C53.6549 208.896 52.5697 213.192 51.6179 216.982C49.0204 227.3 47.446 233.527 51.1108 238.49L50.3637 239.06Z" fill="#016C4D"/>
<path d="M66.5798 247.955C66.4877 251.191 66.7864 254.425 67.4693 257.589C67.6205 258.247 67.7184 258.825 67.7895 259.368H68.7324C68.6517 258.709 68.5329 258.056 68.3767 257.411C67.721 254.235 67.4492 250.992 67.5672 247.751V247.466L67.3181 247.324C56.7505 241.195 59.8994 223.004 63.8223 207.838C68.1187 191.221 63.8667 170.54 63.8223 170.335L62.9327 170.531C62.9772 170.735 67.1758 191.203 62.9327 207.606C58.9121 222.96 55.7631 241.391 66.5798 247.955Z" fill="#016C4D"/>
<path d="M77.3164 259.35H78.206C77.61 254.902 77.1207 250.454 77.1119 250.383V250.268L77.0496 250.17C75.3595 247.67 72.2283 237.423 72.2995 223.964C72.3706 210.185 77.0763 176.401 77.1208 176.063L76.2312 175.938C76.1779 176.276 71.4722 210.123 71.3922 223.973C71.321 238.206 74.6389 248.124 76.2401 250.659C76.2934 251.308 76.7293 255.276 77.3164 259.35Z" fill="#016C4D"/>
<path d="M86.6386 253.417C86.6386 253.853 86.6386 256.334 86.523 259.35H87.4659C87.5815 256.148 87.5727 253.568 87.5727 253.346V253.212C87.5727 253.097 84.0146 241.648 83.2763 223.938C82.5379 206.227 88.0619 179.079 88.1153 178.803L87.2258 178.616C87.1724 178.892 81.6039 206.129 82.3689 223.982C83.0716 241.115 86.3451 252.403 86.6386 253.417Z" fill="#016C4D"/>
<path d="M60.0062 259.351C57.64 255.526 56.4925 242.725 56.4481 242.601L55.5585 242.681C55.603 243.197 56.6527 254.894 58.9388 259.351H60.0062Z" fill="#016C4D"/>
<path d="M96.3168 254.911C92.0114 228.883 96.2723 180.359 96.3168 179.879L97.2063 179.959C97.2063 180.448 92.9188 228.883 97.2063 254.76L96.3168 254.911Z" fill="#016C4D"/>
<path d="M107.649 255.694L106.76 255.56C110.318 232.433 106.76 180.84 106.76 180.333L107.649 180.271C107.685 180.795 111.19 232.45 107.649 255.694Z" fill="#016C4D"/>
<path d="M120.014 253.826L119.124 253.657C125.822 217.328 118.306 179.826 118.235 179.47L119.124 179.283C119.222 179.657 126.774 217.311 120.014 253.826Z" fill="#016C4D"/>
<path d="M130.377 250.891L129.487 250.713C137.493 209.047 128.989 177.594 128.9 177.274L129.79 177.024C129.861 177.345 138.436 208.994 130.377 250.891Z" fill="#016C4D"/>
<path d="M141.22 245.785L140.331 245.598C148.924 203.79 138.916 174.373 138.81 174.08L139.699 173.777C139.779 174.071 149.875 203.728 141.22 245.785Z" fill="#016C4D"/>
<path d="M151.957 239.256L150.649 239.994V240.288C150.649 240.386 151.245 250.562 150.445 254.831C150.195 256.001 149.883 257.156 149.511 258.292L149.19 259.35H150.16L150.4 258.568C150.789 257.401 151.11 256.213 151.361 255.009C152.108 250.989 151.69 242.262 151.601 240.528L152.677 239.914L152.74 239.763C155.924 231.935 154.866 218.69 152.989 209.723C151.156 200.944 150.089 169.695 150.08 169.348H149.146C149.146 169.668 150.231 201.024 152.081 209.883C153.932 218.743 154.981 231.597 151.957 239.256Z" fill="#016C4D"/>
<path d="M158.851 184.683C158.82 177.403 159.293 170.13 160.265 162.916L161.155 163.049C160.189 170.214 159.719 177.436 159.749 184.665L158.851 184.683Z" fill="#016C4D"/>
<path d="M142.892 259.35H143.782C143.782 258.906 143.782 258.461 143.782 257.963C143.819 253.668 142.796 249.43 140.802 245.625L140.002 246.096C141.891 249.766 142.867 253.836 142.848 257.963C142.895 258.443 142.91 258.906 142.892 259.35Z" fill="#016C4D"/>
<path d="M134.024 259.35C133.699 256.346 132.944 253.405 131.782 250.615L130.893 250.989C131.99 253.664 132.714 256.478 133.045 259.35H134.024Z" fill="#016C4D"/>
<path d="M123.803 259.35C122.416 256.61 121.055 254.235 120.939 254.013L120.13 254.475C120.13 254.52 121.419 256.726 122.798 259.323L123.803 259.35Z" fill="#016C4D"/>
<path d="M163.574 136.345L160.826 127.406L165.46 115.104L167.203 115.753L162.8 127.468L165.353 135.803L163.574 136.345Z" fill="#016C4D"/>
<path d="M153.238 136.63L152.313 136.585L153.051 121.57L140.34 122.113L141.131 134.282L140.197 134.344L139.352 121.223L154.029 120.601L153.238 136.63Z" fill="#016C4D"/>
<path d="M153.571 126.252L153.492 127.183L161.762 127.881L161.84 126.951L153.571 126.252Z" fill="#016C4D"/>
<path d="M139.753 115.424L140.26 121.651L153.078 121.09L154.474 112.809L139.753 115.424Z" fill="#016C4D"/>
<path d="M125.502 132.147L124.595 131.925L125.858 126.712L124.969 120.877L125.894 120.743L126.81 126.756L125.502 132.147Z" fill="#016C4D"/>
<path d="M139.833 127.557L126.321 127.202L114.463 127.557L114.428 126.623L126.321 126.268L139.859 126.623L139.833 127.557Z" fill="#016C4D"/>
<path d="M102.223 58.2805C101.975 58.3393 101.722 58.3721 101.467 58.3784C101.421 58.522 101.397 58.6721 101.396 58.8231C101.425 59.2053 101.598 59.5623 101.879 59.8228C102.16 60.0832 102.529 60.228 102.913 60.228C103.296 60.228 103.665 60.0832 103.946 59.8228C104.227 59.5623 104.4 59.2053 104.429 58.8231C104.422 58.4997 104.31 58.1873 104.109 57.9336C103.504 58.0137 102.882 58.1293 102.223 58.2805Z" fill="white"/>
<defs>
<linearGradient id="paint0_linear_276_4650" x1="20.9384" y1="118.055" x2="196.231" y2="118.055" gradientUnits="userSpaceOnUse">
<stop stop-color="#C0D734"/>
<stop offset="1" stop-color="#4CB96A"/>
</linearGradient>
<linearGradient id="paint1_linear_276_4650" x1="23.5195" y1="204.604" x2="64.1446" y2="204.604" gradientUnits="userSpaceOnUse">
<stop stop-color="#C0D734"/>
<stop offset="1" stop-color="#4CB96A"/>
</linearGradient>
<linearGradient id="paint2_linear_276_4650" x1="151.951" y1="205.976" x2="195.047" y2="205.976" gradientUnits="userSpaceOnUse">
<stop stop-color="#C0D734"/>
<stop offset="1" stop-color="#4CB96A"/>
</linearGradient>
<linearGradient id="paint3_linear_276_4650" x1="70.8572" y1="42.274" x2="119.711" y2="42.274" gradientUnits="userSpaceOnUse">
<stop stop-color="#C0D734"/>
<stop offset="1" stop-color="#4CB96A"/>
</linearGradient>
<linearGradient id="paint4_linear_276_4650" x1="57.4398" y1="7.82047" x2="77.8275" y2="7.82047" gradientUnits="userSpaceOnUse">
<stop stop-color="#C0D734"/>
<stop offset="1" stop-color="#4CB96A"/>
</linearGradient>
<linearGradient id="paint5_linear_276_4650" x1="58.0273" y1="67.9148" x2="108.938" y2="67.9148" gradientUnits="userSpaceOnUse">
<stop stop-color="white"/>
<stop offset="1" stop-color="#C7E9F0"/>
</linearGradient>
<linearGradient id="paint6_linear_276_4650" x1="42.0313" y1="207.449" x2="171.159" y2="207.449" gradientUnits="userSpaceOnUse">
<stop stop-color="#F1DD13"/>
<stop offset="1" stop-color="#F37A8B"/>
</linearGradient>
<linearGradient id="paint7_linear_276_4650" x1="114.49" y1="126.697" x2="174.137" y2="126.697" gradientUnits="userSpaceOnUse">
<stop stop-color="white"/>
<stop offset="1" stop-color="#C7E9F0"/>
</linearGradient>
<linearGradient id="paint8_linear_276_4650" x1="30.0273" y1="209.262" x2="157.946" y2="209.262" gradientUnits="userSpaceOnUse">
<stop stop-color="#F37A8B"/>
<stop offset="1" stop-color="#C97EB5"/>
</linearGradient>
<linearGradient id="paint9_linear_276_4650" x1="80.8121" y1="60.2842" x2="97.1706" y2="60.2842" gradientUnits="userSpaceOnUse">
<stop stop-color="#0CAE4B"/>
<stop offset="1" stop-color="#2D957D"/>
</linearGradient>
<linearGradient id="paint10_linear_276_4650" x1="149.352" y1="86.7158" x2="206.238" y2="86.7158" gradientUnits="userSpaceOnUse">
<stop stop-color="#0CAE4B"/>
<stop offset="1" stop-color="#2D957D"/>
</linearGradient>
<linearGradient id="paint11_linear_276_4650" x1="104.44" y1="156.118" x2="173.295" y2="156.118" gradientUnits="userSpaceOnUse">
<stop stop-color="#0CAE4B"/>
<stop offset="1" stop-color="#2D957D"/>
</linearGradient>
<linearGradient id="paint12_linear_276_4650" x1="160.532" y1="208.843" x2="195.639" y2="208.843" gradientUnits="userSpaceOnUse">
<stop stop-color="#0CAE4B"/>
<stop offset="1" stop-color="#2D957D"/>
</linearGradient>
<linearGradient id="paint13_linear_276_4650" x1="-1.88887" y1="210.203" x2="24.6356" y2="210.203" gradientUnits="userSpaceOnUse">
<stop stop-color="#0CAE4B"/>
<stop offset="1" stop-color="#2D957D"/>
</linearGradient>
<linearGradient id="paint14_linear_276_4650" x1="68.6009" y1="39.6568" x2="98.2031" y2="39.6568" gradientUnits="userSpaceOnUse">
<stop stop-color="#0CAE4B"/>
<stop offset="1" stop-color="#2D957D"/>
</linearGradient>
<linearGradient id="paint15_linear_276_4650" x1="81.1081" y1="67.8004" x2="101.151" y2="67.8004" gradientUnits="userSpaceOnUse">
<stop stop-color="#CAEAF1"/>
<stop offset="1" stop-color="#6AC2B3"/>
</linearGradient>
<linearGradient id="paint16_linear_276_4650" x1="79.8005" y1="10.9144" x2="97.6718" y2="10.9144" gradientUnits="userSpaceOnUse">
<stop stop-color="#0CAE4B"/>
<stop offset="1" stop-color="#2D957D"/>
</linearGradient>
<linearGradient id="paint17_linear_276_4650" x1="101.752" y1="124.786" x2="159.395" y2="124.786" gradientUnits="userSpaceOnUse">
<stop stop-color="#CAEAF1"/>
<stop offset="1" stop-color="#6AC2B3"/>
</linearGradient>
<linearGradient id="paint18_linear_276_4650" x1="159.222" y1="116.827" x2="172.185" y2="116.827" gradientUnits="userSpaceOnUse">
<stop stop-color="#CAEAF1"/>
<stop offset="1" stop-color="#6AC2B3"/>
</linearGradient>
</defs>
</svg>
